<svg width="24" height="24" viewBox="0 0 24 24" fill="none" xmlns="http://www.w3.org/2000/svg">
<g clip-path="url(#clip0_167_485)">
<path d="M16.9497 16.9078C17.2039 17.1432 17.5032 17.3246 17.8297 17.4408C18.1561 17.5571 18.5027 17.6058 18.8485 17.584C19.3965 17.5979 19.9338 17.4312 20.3777 17.1096C20.7393 16.8748 21.013 16.5262 21.1558 16.1207H23.7379C23.4628 17.2771 22.7913 18.3006 21.8401 19.0134C20.9269 19.6194 19.848 19.9265 18.7526 19.8924C17.9708 19.9026 17.195 19.7555 16.4712 19.4599C15.8162 19.187 15.2288 18.7742 14.7502 18.2503C14.2735 17.7015 13.9072 17.0659 13.6714 16.3784C13.407 15.6097 13.2776 14.801 13.2888 13.9881C13.2838 13.189 13.4177 12.395 13.6844 11.6418C14.0441 10.5828 14.7292 9.66445 15.6419 9.01796C16.5546 8.37147 17.6482 8.02987 18.7666 8.04192C19.5926 8.02479 20.4094 8.21833 21.1399 8.60428C21.8001 8.96587 22.3695 9.47329 22.806 10.0876C23.2519 10.7318 23.5715 11.4548 23.7479 12.2182C23.9417 13.0382 24.0106 13.8823 23.9527 14.7233H16.2624C16.1995 15.5124 16.4462 16.2955 16.9497 16.9078ZM6.93908 4.07945C7.58663 4.06772 8.23323 4.13412 8.86488 4.27722C9.39697 4.39314 9.90208 4.60943 10.3532 4.91449C10.7707 5.21715 11.1003 5.62468 11.3101 6.09515C11.5508 6.67348 11.6667 7.29677 11.6507 7.92306C11.6786 8.61148 11.5028 9.29284 11.1453 9.88182C10.7699 10.4378 10.2511 10.882 9.64399 11.1674C10.4683 11.3894 11.1863 11.8984 11.6687 12.6027C12.1322 13.3489 12.3649 14.2159 12.3379 15.0939C12.3538 15.7938 12.2093 16.4881 11.9154 17.1236C11.6442 17.6786 11.2462 18.162 10.7537 18.5349C10.2476 18.9045 9.67771 19.1777 9.07264 19.341C8.44553 19.5148 7.79758 19.6018 7.14684 19.5997H0V4.07945H6.93908ZM6.70435 16.9647C7.012 16.9687 7.31964 16.9358 7.6193 16.8658C7.89333 16.8056 8.15313 16.693 8.38443 16.5342C8.61217 16.3764 8.79496 16.1637 8.91782 15.9159C9.05966 15.5993 9.12558 15.2537 9.1086 14.9081C9.1395 14.5925 9.09778 14.2741 8.98663 13.9772C8.87548 13.6803 8.69784 13.4127 8.46733 13.195C7.97831 12.8354 7.37939 12.657 6.77327 12.6906H3.2373V16.9647H6.70435ZM20.3238 11.0045C20.1087 10.7893 19.8498 10.6228 19.5648 10.5161C19.2798 10.4094 18.9753 10.3652 18.6717 10.3862C18.2686 10.3706 17.8684 10.4598 17.51 10.645C17.2261 10.8011 16.9756 11.0115 16.7729 11.2642C16.5922 11.5006 16.458 11.769 16.3773 12.0553C16.3034 12.2941 16.2574 12.5398 16.2405 12.7885H21.004C20.9623 12.1395 20.7259 11.5182 20.3258 11.0055L20.3238 11.0045ZM6.52655 10.3573C7.03563 10.3781 7.53672 10.2256 7.94793 9.92477C8.34647 9.57018 8.55423 9.04578 8.50729 8.51338C8.52024 8.20676 8.45926 7.90151 8.32949 7.6234C8.21879 7.40244 8.04724 7.21772 7.83506 7.09101C7.61987 6.95151 7.37801 6.85831 7.12487 6.81732C6.85021 6.76362 6.57063 6.73918 6.29082 6.7444H3.2373V10.3713H6.52655V10.3573ZM21.5953 5.11626H15.6262V6.64152H21.5953V5.11626Z" fill="#EDEBE5"/>
</g>
<defs>
<clipPath id="clip0_167_485">
<rect width="23.9726" height="23.9726" fill="white"/>
</clipPath>
</defs>
</svg>
