<svg width="118" height="118" viewBox="0 0 118 118" fill="none" xmlns="http://www.w3.org/2000/svg">
<path d="M58.9998 73.9272C58.2636 91.073 44.9824 100.815 36.2384 105.359C31.9865 107.563 26.7431 106.089 24.294 101.992C13.4257 83.5964 14.4052 68.0237 34.1047 59.0453H22.4761C19.3811 59.0453 16.782 56.7065 16.4965 53.6379L11.0276 17.8864C10.8324 15.89 11.6738 13.9387 13.2511 12.6875C14.8287 11.436 16.9472 11.0488 18.8702 11.6743C35.1115 16.9032 49.8502 28.701 53.6362 41.6462C53.2457 42.4655 53.0653 43.3592 53.0653 44.1488V67.9834C53.0653 68.207 53.0804 68.4303 53.1104 68.6539C53.4409 71.6034 55.9499 73.8975 58.9998 73.9272Z" fill="#7369FA"/>
<path d="M95.5206 59.0453H83.8929C97.3084 65.153 108.35 77.4427 93.7028 101.992C91.2542 106.089 86.0112 107.563 81.7597 105.359C73.0161 100.815 59.7358 91.073 58.9998 73.9272C62.2897 73.8975 64.9338 71.2456 64.9338 67.9834V44.1342C64.9338 43.2848 64.7234 42.4061 64.3629 41.6462C68.1638 28.701 82.8862 16.9032 99.1262 11.6743C101.049 11.0488 103.167 11.436 104.745 12.6875C106.286 13.9103 107.183 15.8275 106.968 17.8864L101.5 53.6379C101.214 56.7065 98.6153 59.0453 95.5206 59.0453Z" fill="#7369FA"/>
<path d="M52.9999 68.1279V59.38C44.0057 60.2401 28.4523 63.3135 32.1573 74.281C26.9945 74.9457 22.9998 79.3893 22.9998 84.7821C22.9998 90.6353 27.7009 95.38 33.5 95.38C46.9998 95.38 52.1852 87.9419 58.9998 74.1841C55.6863 74.1841 52.9999 71.4726 52.9999 68.1279Z" fill="#E6F8B9"/>
<path d="M34.4998 91.38C36.9851 91.38 38.9998 89.3653 38.9998 86.88C38.9998 84.3951 36.9851 82.38 34.4998 82.38C32.0145 82.38 29.9998 84.3951 29.9998 86.88C29.9998 89.3653 32.0145 91.38 34.4998 91.38Z" fill="#DC6FE8"/>
<path d="M52.9998 47.3528C44.6807 31.4921 35.7212 24.3779 26.3149 23.3963C25.4703 23.3075 24.6274 23.5841 23.9959 24.154C23.3645 24.7224 22.9998 25.5341 22.9998 26.3851V50.9008C22.9998 52.3337 24.0093 53.5678 25.4118 53.8489C32.765 57.2994 41.9087 59.1891 52.9998 59.38V47.3528Z" fill="#E6F8B9"/>
<path d="M85.8422 74.2806C89.5472 63.3132 73.9952 60.2412 64.9996 59.38V68.1279C64.9996 71.4723 62.3132 74.1838 58.9998 74.1838C65.8143 87.9415 70.9998 95.38 84.4995 95.38C90.2986 95.38 94.9998 90.635 94.9998 84.7817C94.9998 79.3903 91.0068 74.9468 85.8422 74.2806Z" fill="#E6F8B9"/>
<path d="M79.0894 12.3039C74.7002 9.95764 70.8554 9.75582 67.6629 11.7071C60.0277 16.3722 59.0382 32.1835 58.9998 39.4618C59.019 39.4618 59.0362 39.4567 59.0554 39.4567C60.3136 39.4567 61.4759 39.809 62.4954 40.38C62.4742 32.7087 63.6473 18.1902 69.5095 14.609C71.5829 13.3436 74.1695 13.5713 77.4176 15.307C78.2675 15.76 79.3234 15.4524 79.7857 14.6247C80.2485 13.7951 79.9357 12.7554 79.0894 12.3039Z" fill="#7369FA"/>
<path d="M55.5041 40.38C56.5232 39.8086 57.6855 39.4563 58.9442 39.4563C58.9634 39.4563 58.9806 39.4614 58.9998 39.4614C58.9614 32.1814 57.9719 16.3698 50.3362 11.7066C47.1426 9.75528 43.2993 9.95868 38.9102 12.3034C38.0635 12.7565 37.7511 13.7946 38.2139 14.6239C38.6762 15.4516 39.7321 15.7596 40.582 15.3062C43.8281 13.5704 46.4146 13.3431 48.49 14.6086C54.3522 18.1894 55.5249 32.7081 55.5041 40.38Z" fill="#7369FA"/>
<path d="M64.9998 44.3798C64.9998 41.0664 62.3133 38.38 58.9999 38.38C55.6862 38.38 52.9998 41.0664 52.9998 44.3798V68.3798C52.9998 71.6932 55.6862 74.38 58.9999 74.38C62.3133 74.38 64.9998 71.6932 64.9998 68.3798V44.3798Z" fill="#7369FA"/>
<path d="M83.4996 90.38C85.985 90.38 87.9998 88.3653 87.9998 85.88C87.9998 83.3951 85.985 81.38 83.4996 81.38C81.0142 81.38 78.9998 83.3951 78.9998 85.88C78.9998 88.3653 81.0142 90.38 83.4996 90.38Z" fill="#DC6FE8"/>
<path d="M33.4998 39.38C35.4328 39.38 36.9998 37.813 36.9998 35.88C36.9998 33.947 35.4328 32.38 33.4998 32.38C31.567 32.38 29.9998 33.947 29.9998 35.88C29.9998 37.813 31.567 39.38 33.4998 39.38Z" fill="#DC6FE8"/>
<path d="M64.9998 47.3528C73.3189 31.4921 82.2785 24.3779 91.6849 23.3963C92.5295 23.3075 93.3724 23.5841 94.0039 24.154C94.6354 24.7238 94.9998 25.5341 94.9998 26.3851V50.9008C94.9998 52.3337 93.9905 53.5678 92.588 53.8489C83.9584 57.7008 74.7005 59.3228 64.9998 59.38V47.3528Z" fill="#E6F8B9"/>
<path d="M84.9998 39.38C87.2089 39.38 88.9998 37.813 88.9998 35.88C88.9998 33.947 87.2089 32.38 84.9998 32.38C82.7906 32.38 80.9998 33.947 80.9998 35.88C80.9998 37.813 82.7906 39.38 84.9998 39.38Z" fill="#DC6FE8"/>
</svg>
