<svg width="118" height="118" viewBox="0 0 118 118" fill="none" xmlns="http://www.w3.org/2000/svg">
<g clip-path="url(#clip0_219_78)">
<path d="M58.9998 117.998C91.5845 117.998 117.999 91.5835 117.999 58.9987C117.999 26.414 91.5845 -0.000976562 58.9998 -0.000976562C26.415 -0.000976562 0 26.414 0 58.9987C0 91.5835 26.415 117.998 58.9998 117.998Z" fill="#E6F8B9"/>
<path d="M58.9439 69.7157C58.4184 82.0626 48.9356 89.0782 42.6924 92.35C39.6566 93.9376 35.9128 92.8756 34.1642 89.9256C26.4042 76.6786 27.1036 65.4645 41.169 58.999H32.8662C30.6564 58.999 28.8006 57.3148 28.5968 55.1051L24.692 29.3599C24.5526 27.9223 25.1534 26.5171 26.2796 25.6161C27.406 24.7149 28.9186 24.436 30.2916 24.8865C41.8878 28.6519 52.4112 37.1477 55.1144 46.4697C54.8356 47.0597 54.7068 47.7033 54.7068 48.2719V65.4355C54.7068 65.5965 54.7176 65.7573 54.739 65.9183C54.975 68.0423 56.7664 69.6943 58.9439 69.7157Z" fill="#7369FA"/>
<path d="M85.1306 58.999H76.8278C86.4072 63.3973 94.2918 72.2472 83.8326 89.9256C82.0842 92.8756 78.3404 93.9376 75.3047 92.35C69.0612 89.0782 59.5784 82.0626 59.0529 69.7157C61.402 69.6943 63.29 67.7846 63.29 65.4355V48.2613C63.29 47.6497 63.1398 47.0169 62.8824 46.4697C65.5964 37.1477 76.109 28.6519 87.7052 24.8865C89.0782 24.436 90.5908 24.7149 91.7172 25.6161C92.8178 26.4967 93.4582 27.8773 93.3048 29.3599L89.4 55.1051C89.1962 57.3148 87.3404 58.999 85.1306 58.999Z" fill="#7369FA"/>
<path d="M54.7093 65.4339V59.2357C48.277 59.8451 37.154 62.0227 39.8036 69.7935C36.1115 70.2645 33.2546 73.4129 33.2546 77.2339C33.2546 81.3811 36.6167 84.7429 40.7639 84.7429C50.4182 84.7429 54.1266 79.4727 59 69.7249C56.6304 69.7249 54.7093 67.8038 54.7093 65.4339Z" fill="#E6F8B9"/>
<path d="M41.2182 81.9364C42.9956 81.9364 44.4364 80.4956 44.4364 78.7182C44.4364 76.9411 42.9956 75.5 41.2182 75.5C39.4408 75.5 38 76.9411 38 78.7182C38 80.4956 39.4408 81.9364 41.2182 81.9364Z" fill="#DC6FE8"/>
<path d="M54.7093 50.4148C48.7598 39.0976 42.3524 34.0214 35.6255 33.321C35.0214 33.2576 34.4187 33.455 33.9671 33.8616C33.5155 34.2672 33.2546 34.8464 33.2546 35.4536V52.9464C33.2546 53.9688 33.9767 54.8493 34.9797 55.0499C40.2383 57.512 46.7774 58.8604 54.7093 58.9966V50.4148Z" fill="#E6F8B9"/>
<path d="M78.1964 69.7923C80.846 62.0215 69.724 59.8449 63.2908 59.2347V65.4329C63.2908 67.8025 61.3696 69.7237 59 69.7237C63.8734 79.4715 67.5818 84.7419 77.2362 84.7419C81.3834 84.7419 84.7454 81.3799 84.7454 77.2327C84.7454 73.4127 81.8898 70.2643 78.1964 69.7923Z" fill="#E6F8B9"/>
<path d="M71.3121 26.946C68.6143 25.4742 66.2511 25.3476 64.2889 26.5716C59.5959 29.498 58.9877 39.4164 58.9641 43.982C58.9759 43.982 58.9865 43.9788 58.9983 43.9788C59.7717 43.9788 60.4861 44.1998 61.1127 44.558C61.0997 39.7458 61.8207 30.6384 65.4239 28.392C66.6983 27.5982 68.2881 27.741 70.2845 28.8298C70.8069 29.114 71.4559 28.921 71.7401 28.4018C72.0245 27.8814 71.8323 27.2292 71.3121 26.946Z" fill="#7369FA"/>
<path d="M56.8863 44.5578C57.5127 44.1994 58.2271 43.9783 59.0007 43.9783C59.0125 43.9783 59.0231 43.9815 59.0349 43.9815C59.0113 39.4149 58.4031 29.4966 53.7099 26.5714C51.7469 25.3474 49.3847 25.475 46.6869 26.9458C46.1665 27.23 45.9745 27.8812 46.2589 28.4014C46.5431 28.9206 47.1921 29.1138 47.7145 28.8294C49.7097 27.7406 51.2995 27.598 52.5751 28.3918C56.1783 30.638 56.8991 39.7453 56.8863 44.5578Z" fill="#7369FA"/>
<path d="M63.2893 48.2701C63.2893 45.9006 61.3681 43.9794 58.9985 43.9794C56.6287 43.9794 54.7075 45.9006 54.7075 48.2701V65.4337C54.7075 67.8033 56.6287 69.7248 58.9985 69.7248C61.3681 69.7248 63.2893 67.8033 63.2893 65.4337V48.2701Z" fill="#7369FA"/>
<path d="M76.1639 81.5234C77.9413 81.5234 79.3821 80.0826 79.3821 78.3052C79.3821 76.5281 77.9413 75.087 76.1639 75.087C74.3865 75.087 72.9459 76.5281 72.9459 78.3052C72.9459 80.0826 74.3865 81.5234 76.1639 81.5234Z" fill="#DC6FE8"/>
<path d="M40.6818 45.0541C42.1629 45.0541 43.3636 43.8535 43.3636 42.3723C43.3636 40.8912 42.1629 39.6906 40.6818 39.6906C39.2009 39.6906 38 40.8912 38 42.3723C38 43.8535 39.2009 45.0541 40.6818 45.0541Z" fill="#DC6FE8"/>
<path d="M63.29 50.4148C69.2395 39.0976 75.6468 34.0214 82.3738 33.321C82.9778 33.2576 83.5806 33.455 84.0322 33.8616C84.4838 34.2682 84.7444 34.8464 84.7444 35.4536V52.9464C84.7444 53.9688 84.0226 54.8493 83.0196 55.0499C76.8482 57.7984 70.2275 58.9557 63.29 58.9966V50.4148Z" fill="#E6F8B9"/>
<path d="M77.7714 45.0541C79.2525 45.0541 80.4532 43.8535 80.4532 42.3723C80.4532 40.8912 79.2525 39.6906 77.7714 39.6906C76.2902 39.6906 75.0896 40.8912 75.0896 42.3723C75.0896 43.8535 76.2902 45.0541 77.7714 45.0541Z" fill="#DC6FE8"/>
</g>
<defs>
<clipPath id="clip0_219_78">
<rect width="118" height="118" fill="white"/>
</clipPath>
</defs>
</svg>
