<svg width="24" height="24" viewBox="0 0 24 24" fill="none" xmlns="http://www.w3.org/2000/svg">
<path fill-rule="evenodd" clip-rule="evenodd" d="M5.86419 4.53686C6.25247 4.1366 6.46772 3.59967 6.46338 3.04203C6.44316 2.50109 6.21707 1.9883 5.83135 1.60851C5.44562 1.22872 4.92939 1.01061 4.3882 0.998779C3.84542 1.01039 3.32738 1.22796 2.93906 1.60738C2.55075 1.9868 2.32124 2.49967 2.29706 3.04203C2.30487 3.59871 2.52624 4.13109 2.91542 4.52919C3.3046 4.92729 3.83185 5.16065 4.3882 5.18107C4.94571 5.1685 5.47589 4.9371 5.86419 4.53686ZM3.99959 7.9369C3.1209 7.91699 2.52054 7.9034 2.52054 8.98024V20.9524C2.52054 22.007 3.09303 21.9851 3.91801 21.9538C4.06712 21.9481 4.22448 21.9421 4.3882 21.9421C4.55222 21.9421 4.70947 21.9481 4.8582 21.9538C5.67922 21.9851 6.23991 22.0066 6.23991 20.9524V8.98024C6.23991 7.90363 5.65205 7.91699 4.7767 7.93689C4.65269 7.9397 4.5229 7.94265 4.3882 7.94265C4.25371 7.94265 4.12386 7.93972 3.99959 7.9369ZM10.1189 7.95864C9.7198 8.03845 9.4644 8.29386 9.4644 8.98026V20.9524C9.4644 22.006 10.013 21.9853 10.8394 21.9538C10.9897 21.9481 11.1491 21.9421 11.3161 21.9421C11.4828 21.9421 11.6423 21.9481 11.7929 21.9538C12.6234 21.9853 13.1838 22.0064 13.1838 20.9524V14.5673C13.152 14.241 13.1899 13.9117 13.295 13.6012C13.4001 13.2907 13.5699 13.006 13.7933 12.766C14.0166 12.5261 14.2884 12.3363 14.5906 12.2093C14.8928 12.0822 15.2185 12.0208 15.5463 12.0292C15.8755 12.0097 16.2051 12.0612 16.5127 12.1804C16.8203 12.2995 17.0985 12.4834 17.3287 12.7196C17.5589 12.9559 17.7355 13.2389 17.8467 13.5494C17.9577 13.86 18.0007 14.1908 17.9727 14.5194V20.9045C17.9727 21.9582 18.5213 21.9373 19.3477 21.906C19.498 21.9003 19.6574 21.8942 19.8243 21.8942C19.9913 21.8942 20.1507 21.9003 20.301 21.906C21.1274 21.9373 21.676 21.9582 21.676 20.9045V12.7315C21.7065 12.0605 21.5953 11.3906 21.3497 10.7653C21.1043 10.14 20.7301 9.57334 20.2514 9.10213C19.7726 8.63092 19.2001 8.26569 18.571 8.03019C17.942 7.79469 17.2703 7.69416 16.5999 7.73515C15.917 7.67307 15.2297 7.78723 14.6037 8.06672C13.9776 8.34621 13.4338 8.78167 13.0241 9.33145C13.0401 8.74081 12.8485 7.95864 12.3696 7.95864C12.2323 7.95864 12.0215 7.95208 11.7812 7.94459C11.1835 7.92598 10.4035 7.90171 10.1189 7.95864Z" fill="#EDEBE5"/>
</svg>
