<svg width="20" height="16" viewBox="0 0 20 16" fill="none" xmlns="http://www.w3.org/2000/svg">
<path d="M19.9772 4.60275V12.7355C19.9772 13.5647 19.66 14.3624 19.0905 14.9651C18.5211 15.5679 17.7426 15.9298 16.9147 15.9768L16.7309 15.9818H3.24629C2.4171 15.9818 1.61932 15.6646 1.01661 15.0951C0.413894 14.5256 0.0519394 13.7471 0.00499441 12.9193L0 12.7355V4.60275L9.64099 9.65298C9.74825 9.70916 9.86752 9.73851 9.9886 9.73851C10.1097 9.73851 10.2289 9.70916 10.3362 9.65298L19.9772 4.60275ZM3.24629 2.35782e-08H16.7309C17.5356 -9.69041e-05 18.3116 0.298655 18.9085 0.83831C19.5053 1.37797 19.8805 2.12006 19.9612 2.92067L9.9886 8.1447L0.0159818 2.92067C0.0934167 2.15186 0.442545 1.43588 1.00061 0.901434C1.55867 0.36699 2.28907 0.0491309 3.06051 0.00499444L3.24629 2.35782e-08Z" fill="#EFECE8"/>
</svg>
