<svg width="650" height="280" viewBox="0 0 650 280" fill="none" xmlns="http://www.w3.org/2000/svg">
<rect width="650" height="280" fill="white"/>
<path d="M65.3792 32.06L66.559 38.5918H65.5208C65.4143 38.4102 65.3197 38.2217 65.2377 38.0274C64.9881 37.6037 64.704 37.202 64.3883 36.8268C63.9584 36.2611 63.4807 35.7348 62.9607 35.2539C62.3555 34.719 61.6653 34.2927 60.9198 33.9931C60.081 33.6277 59.1778 33.4397 58.2653 33.4408H47.8363V50.1304H54.7025C55.5198 50.1361 56.3351 50.0475 57.1328 49.8662C57.7055 49.7493 58.2479 49.5121 58.7254 49.1698C59.0298 48.9212 59.3102 48.6438 59.5631 48.3413C59.7351 48.15 59.8675 47.9254 59.9524 47.681L60.0114 47.4168H61.1203V54.0686H59.9996V53.9125C59.9772 53.7781 59.9247 53.6508 59.8462 53.5403L59.4805 53.012C59.3054 52.7966 59.0985 52.6102 58.867 52.4597C58.1715 51.9564 57.3574 51.6498 56.5075 51.5712C55.8985 51.4769 55.2831 51.4327 54.6671 51.4391H47.801V70.3619C47.7969 70.9036 47.893 71.4412 48.0841 71.9468C48.212 72.3213 48.4264 72.6589 48.7093 72.9314L48.9689 73.1955V73.988H39.0472V73.1955C39.4458 72.8615 39.7607 72.4359 39.9658 71.9536C40.171 71.4713 40.2605 70.9463 40.227 70.4219V35.6021C40.2256 34.6882 39.9081 33.8041 39.3303 33.1046L39 32.8405V32.048L65.3792 32.06Z" fill="#829E90"/>
<path d="M109.254 72.8233H110.363V73.94H103.285C102.392 73.9135 101.529 73.6028 100.819 73.0514C99.945 72.3881 99.1906 71.5756 98.5892 70.6501C97.9532 69.7263 97.3664 68.7684 96.8314 67.7804C96.3359 66.8559 95.864 65.9074 95.4039 64.9468C94.9438 63.9863 94.6371 63.3379 94.4719 63.0377C94.2352 62.7198 94.0185 62.3869 93.8231 62.0412C92.9147 60.5523 92.2422 59.4837 91.8175 58.8473C91.361 58.1865 90.826 57.5857 90.2248 57.0583C89.6638 56.5466 88.9802 56.1946 88.2428 56.0377C86.1652 56.5664 84.2786 57.6868 82.8042 59.2676V70.2899C82.7982 70.8328 82.8985 71.3716 83.0991 71.8748C83.2236 72.248 83.4339 72.5856 83.7126 72.8593L83.9721 73.1235V73.9159H74.0504V73.1235C74.4576 72.7937 74.7822 72.3705 74.9975 71.8883C75.2128 71.4062 75.3128 70.879 75.2892 70.3499V35.6861C75.2987 35.1391 75.1858 34.5971 74.9588 34.1012C74.819 33.7437 74.6239 33.4113 74.3807 33.1166L74.0504 32.8525V32.06H87.535C93.1034 32.06 97.2601 33.0246 100.005 34.9537C102.754 36.8988 104.122 39.9005 104.122 43.9949C104.251 46.4029 103.436 48.7646 101.857 50.5626C100.347 52.1595 97.7516 53.5163 94.0826 54.6089C95.172 55.0294 96.1729 55.6569 97.032 56.458C97.8292 57.153 98.5457 57.9385 99.1673 58.7993C99.6019 59.4207 99.996 60.0705 100.347 60.7444C101.252 62.5054 102.007 63.9343 102.612 65.0309C103.226 66.1355 103.957 67.3602 104.818 68.729C105.474 69.8476 106.266 70.8765 107.178 71.7907C107.721 72.3845 108.46 72.7524 109.254 72.8233ZM88.0187 54.681C90.7534 53.8538 93.2536 52.3716 95.3095 50.3585C96.8596 48.622 97.6847 46.3397 97.6101 43.9949C97.6599 41.2316 96.7395 38.541 95.0146 36.4065C94.1239 35.3259 92.9981 34.4713 91.7264 33.9107C90.4547 33.35 89.0721 33.0987 87.6883 33.1767H82.698L82.7688 57.6466C84.3371 56.3302 86.1337 55.3243 88.0659 54.681H88.0187Z" fill="#829E90"/>
<path d="M180.759 32.06L181.998 38.5918H180.889C180.816 38.3973 180.729 38.2087 180.629 38.0274C180.499 37.7873 180.216 37.3671 179.792 36.8268C179.372 36.2526 178.893 35.7253 178.364 35.2539C177.752 34.7287 177.063 34.3034 176.323 33.9931C175.473 33.6228 174.558 33.4348 173.633 33.4408H169.551V70.3739C169.547 70.9191 169.656 71.459 169.87 71.9588C170.011 72.3184 170.21 72.6513 170.46 72.9434L170.778 73.2075V74H160.868V73.2075C161.265 72.8723 161.579 72.4464 161.784 71.9644C161.989 71.4825 162.08 70.9581 162.048 70.434L161.989 33.4408H157.966C157.044 33.4303 156.129 33.61 155.276 33.9691C154.514 34.2509 153.81 34.6744 153.2 35.2178C152.302 36.0644 151.509 37.0201 150.84 38.0635L150.581 38.5918H149.661L150.84 32.06H180.759Z" fill="#829E90"/>
<path d="M208.235 72.6192C211.09 72.6192 213.379 71.1304 215.113 68.1286C215.267 67.9027 215.397 67.6613 215.503 67.4082H216.529L215.349 73.94H189.053V73.1475C189.46 72.8178 189.784 72.3945 190 71.9123C190.215 71.4302 190.315 70.903 190.291 70.3739V35.554C190.28 34.64 189.959 33.758 189.383 33.0566L189.053 32.7925V32H215.373L216.553 38.5317H215.526C215.457 38.454 215.401 38.3647 215.361 38.2676L214.936 37.4991C214.725 37.1305 214.488 36.7774 214.228 36.4426C213.908 36.0581 213.561 35.697 213.19 35.3619C212.776 34.9823 212.33 34.6408 211.857 34.3414C210.769 33.6794 209.527 33.3269 208.259 33.3208H197.83V50.0103H204.696C205.513 50.0167 206.329 49.9281 207.126 49.7461C207.7 49.6317 208.243 49.3943 208.719 49.0498C209.023 48.8012 209.304 48.5238 209.557 48.2213C209.729 48.03 209.861 47.8054 209.946 47.5609L210.017 47.2967H211.114V54.0686H210.017V53.9125C209.988 53.7779 209.932 53.6511 209.852 53.5403C209.745 53.3722 209.627 53.1921 209.498 53.012C209.318 52.7967 209.107 52.6105 208.872 52.4597C208.581 52.2504 208.269 52.0733 207.94 51.9314C207.494 51.7501 207.026 51.629 206.548 51.5712C205.935 51.4773 205.316 51.4331 204.696 51.4391H197.83V72.6672L208.235 72.6192Z" fill="#829E90"/>
<path d="M249.255 67.4082H250.364L249.126 73.94H224.893V73.1475C225.292 72.8135 225.607 72.3878 225.812 71.9056C226.017 71.4233 226.107 70.8983 226.073 70.3739V35.6861C226.079 35.1407 225.971 34.6003 225.755 34.1012C225.611 33.7429 225.412 33.4105 225.165 33.1166L224.846 32.8525V32.06H234.756V32.8525C234.359 33.1853 234.045 33.609 233.84 34.089C233.635 34.569 233.545 35.0917 233.576 35.6141L233.635 72.6192H242C242.922 72.623 243.835 72.4436 244.69 72.0909C245.458 71.7901 246.163 71.3417 246.766 70.7702C247.265 70.288 247.731 69.7704 248.158 69.2213C248.48 68.8233 248.76 68.3928 248.996 67.9365L249.255 67.4082Z" fill="#829E90"/>
<path d="M281.864 67.4082H282.973L281.793 73.94H257.49V73.1475C257.889 72.8135 258.203 72.3878 258.409 71.9056C258.614 71.4233 258.703 70.8983 258.67 70.3739V35.6861C258.676 35.1407 258.567 34.6003 258.351 34.1012C258.211 33.7437 258.016 33.4113 257.773 33.1166L257.443 32.8525V32.06H267.364V32.8525C266.957 33.1797 266.633 33.6008 266.417 34.081C266.202 34.5613 266.102 35.0867 266.126 35.6141L266.197 72.6192H274.549C275.471 72.623 276.385 72.4436 277.239 72.0909C278.008 71.7901 278.713 71.3417 279.315 70.7702C279.815 70.288 280.28 69.7704 280.707 69.2213C281.028 68.82 281.312 68.39 281.557 67.9365L281.864 67.4082Z" fill="#829E90"/>
<path d="M308.691 32.06H314V32.8525C312.688 33.5178 311.606 34.573 310.897 35.8782L301.459 51.4871V70.3499C301.455 70.8916 301.551 71.4292 301.742 71.9348C301.872 72.3058 302.081 72.6423 302.356 72.9194L302.686 73.1835V73.976H292.706V73.1835C293.113 72.8538 293.437 72.4305 293.653 71.9484C293.868 71.4662 293.968 70.939 293.944 70.4099L293.909 52.8679L283.999 35.5901C283.68 34.9684 283.283 34.3913 282.819 33.8731C282.516 33.5382 282.167 33.2509 281.781 33.0206L281.451 32.8885V32.0961H292.34V32.8885C292.291 32.9354 292.247 32.9877 292.21 33.0446C292.118 33.174 292.02 33.2983 291.915 33.4168C291.77 33.5745 291.661 33.7632 291.597 33.9691C291.524 34.2142 291.492 34.4698 291.502 34.7256C291.501 35.0438 291.565 35.3587 291.691 35.6501L299.949 50.8868C305.337 42.2339 308.483 37.155 309.387 35.6501C309.686 35.158 309.822 34.5817 309.777 34.0051C309.747 33.8271 309.679 33.6579 309.577 33.5103C309.475 33.3628 309.342 33.2405 309.187 33.1527L308.738 32.8885L308.691 32.06Z" fill="#829E90"/>
<path d="M119.317 70.4099C119.138 70.8671 119.089 71.3665 119.176 71.8508C119.248 72.1859 119.398 72.4987 119.612 72.7633L119.896 73.1595V73.94H115.743V73.1595C116.274 72.9434 116.923 72.0429 117.819 70.482L131.575 32.4563H132.318L147.573 70.482C147.894 71.0747 148.261 71.6407 148.67 72.175C148.899 72.4791 149.151 72.7642 149.425 73.0274L149.649 73.1595V73.94H140.211V73.1595C140.252 73.1094 140.3 73.065 140.352 73.0274C140.459 72.9209 140.55 72.7997 140.624 72.6672C140.73 72.4751 140.824 72.271 140.907 72.0789C140.996 71.8374 141.036 71.5801 141.025 71.3225C141.018 71.0036 140.937 70.691 140.789 70.4099L129.605 41.7256L119.317 70.4099Z" fill="#829E90"/>
<path d="M39 189.693C40.7354 189.409 41.9042 188.353 41.9042 185.706V159.237C41.9042 156.59 40.7236 155.534 39 155.239V155H64.3583L65.7986 161.964H65.4681C65.1593 160.274 64.2402 158.743 62.873 157.641C61.5058 156.54 59.7783 155.938 57.9951 155.943H47.925C46.5319 155.943 45.9181 157.488 45.9181 159.703V168.246H54.4417C57.0153 168.246 60.4743 168.337 60.6986 165.258H60.9701V173.028H60.6986C60.4743 169.859 57.0153 169.518 54.4417 169.518H45.9181V185.706C45.9181 188.444 46.9215 189.364 48.8104 189.693V189.932H39V189.693Z" fill="#829E90"/>
<path d="M225.032 159.237C225.032 156.5 226.035 155.579 227.924 155.239V155H218.114V155.239C219.849 155.534 221.018 156.59 221.018 159.237V185.706C221.018 188.353 219.837 189.409 218.114 189.693V189.932H243.472L244.924 182.98H244.582C244.273 184.668 243.353 186.198 241.986 187.297C240.618 188.397 238.891 188.996 237.109 188.989H227.015C225.622 188.989 225.008 187.455 225.008 185.24L225.032 159.237Z" fill="#829E90"/>
<path d="M259.61 159.237C259.61 156.5 260.614 155.579 262.515 155.239V155H252.692V155.239C254.428 155.534 255.596 156.59 255.596 159.237V185.706C255.596 188.353 254.416 189.409 252.692 189.693V189.932H278.051L279.503 182.98H279.16C278.852 184.666 277.934 186.194 276.569 187.294C275.204 188.393 273.479 188.994 271.699 188.989H261.617C260.224 188.989 259.61 187.455 259.61 185.24V159.237Z" fill="#829E90"/>
<path d="M202.424 188.989H192.354C190.961 188.989 190.347 187.455 190.347 185.24V169.518H198.871C201.444 169.518 204.903 169.859 205.116 173.028H205.399V165.258H205.116C204.903 168.337 201.444 168.246 198.871 168.246H190.347V159.703C190.347 157.431 190.961 155.943 192.354 155.943H202.424C204.207 155.938 205.935 156.54 207.302 157.641C208.669 158.743 209.588 160.274 209.897 161.964H210.228L208.787 155H183.429V155.239C185.153 155.534 186.333 156.59 186.333 159.237V185.706C186.333 188.353 185.153 189.409 183.429 189.693V189.932H208.787L210.228 182.98H209.897C209.588 184.668 208.669 186.198 207.301 187.297C205.934 188.397 204.206 188.996 202.424 188.989Z" fill="#829E90"/>
<path d="M174.339 155H141.708L140.256 161.964H140.587C140.898 160.275 141.817 158.745 143.184 157.644C144.551 156.543 146.277 155.941 148.06 155.943H153.962C155.356 155.943 155.969 157.488 155.969 159.703V185.706C155.969 188.444 154.966 189.364 153.077 189.693V189.932H163.029V189.693C161.128 189.364 160.125 188.444 160.125 185.706V159.703C160.125 157.431 160.739 155.943 162.132 155.943H168.035C169.818 155.938 171.545 156.54 172.913 157.641C174.28 158.743 175.199 160.274 175.508 161.964H175.838L174.339 155Z" fill="#829E90"/>
<path d="M111.947 185.706C110.884 188.444 111.616 189.364 113.399 189.693L113.281 189.932H106.41L106.528 189.693C108.31 189.409 109.762 188.398 110.825 185.797L123.197 155H125.995L137.293 186.285C138.131 188.557 139.3 189.409 141.142 189.693L141.248 189.932H131.319L131.213 189.693C132.89 189.409 133.893 188.353 132.89 185.706L123.209 157.84L111.947 185.706Z" fill="#829E90"/>
<path d="M293.457 185.706V171.983L284.426 158.135C283.964 157.389 283.343 156.746 282.604 156.247C281.866 155.747 281.026 155.404 280.14 155.239V155H291.131V155.239C289.585 155.534 287.885 156.693 289.478 159.146L296.81 170.336L304.956 159.146C306.762 156.738 304.956 155.534 303.362 155.239V155H311V155.239C310.114 155.42 309.274 155.77 308.53 156.267C307.786 156.764 307.153 157.4 306.667 158.135L297.223 171.029V185.706C297.223 188.444 298.108 189.364 299.915 189.693V189.932H290.765V189.693C292.43 189.409 293.457 188.353 293.457 185.706Z" fill="#829E90"/>
<path d="M81.8896 175.811H77.7694V185.604C77.7694 188.319 78.7729 189.228 80.65 189.568V189.761H70.9104V189.523C72.6222 189.239 73.791 188.182 73.791 185.558V159.328C73.791 156.704 72.6104 155.648 70.9104 155.364V155.125H81.8896C92.184 155.125 98.8306 158.749 98.8306 165.826C98.8306 170.745 95.6194 174.8 85.9271 175.618C90.3069 175.993 95.0174 177.243 96.2806 181.014L98.3347 187.228C98.9486 188.853 100.33 189.614 103.151 189.852V190C98.8896 190 95.0646 190 94.1792 187.228L92.0778 181.014C90.6375 176.72 86.2694 175.993 81.8896 175.811ZM82.1611 175.334C91.4167 175.334 94.793 171.847 94.793 166.155C94.793 159.464 90.0708 155.602 81.8896 155.602H80.3785C77.8285 155.602 77.7694 156.272 77.7694 159.328V175.334H82.1611Z" fill="#829E90"/>
<path d="M473.283 212.024H439.918V213.576H453.76V252.905H459.441V213.576H473.283V212.024Z" fill="#829E90"/>
<path d="M350.96 213.576V212.024H328V252.905H333.681V238.069H347.889V236.505H333.681V213.576H350.96Z" fill="#829E90"/>
<path d="M558.899 251.329V212.118H553.218V253H576.178V251.329H558.899Z" fill="#829E90"/>
<path d="M524.624 251.329V212.118H518.944V253H541.904V251.329H524.624Z" fill="#829E90"/>
<path d="M506.802 213.576V212.118H483.842V253H506.802V251.329H489.523V238.212H503.743V236.505H489.523V213.576H506.802Z" fill="#829E90"/>
<path d="M596.611 253H590.93V237.963L575.517 212.308H582.107L596.611 236.41V253Z" fill="#829E90"/>
<path d="M608.646 212.308L594.083 235.048L596.493 236.553L612 212.308H608.646Z" fill="#829E90"/>
<path d="M375.231 231.919L387.573 252.858H392.297L380.05 232.713C382.441 232.748 384.795 232.108 386.841 230.865C388.127 230.08 389.23 229.028 390.076 227.779C390.921 226.53 391.49 225.113 391.742 223.625C391.98 222.103 391.883 220.548 391.458 219.068C391.034 217.588 390.292 216.22 389.286 215.057C387.29 212.77 385.223 212.415 382.459 212.107C381.762 212.024 377.947 212.107 377.947 212.107H362.086V252.988H367.731V232.002L375.231 231.919ZM367.731 230.106V213.943C369.928 213.943 377.841 213.943 377.841 213.943C377.841 213.943 380.546 214.026 381.006 214.157C382.819 214.888 384.276 216.299 385.069 218.091C385.801 219.557 386.124 221.195 386.002 222.831C385.912 224.56 385.284 226.217 384.207 227.571C383.602 228.325 382.835 228.933 381.963 229.348L381.278 229.621L380.558 229.798C380.028 229.901 379.491 229.957 378.951 229.964C375.207 230.118 371.463 230.189 367.731 229.964" fill="#829E90"/>
<path d="M403.494 252.905L417.041 216.301L431.261 252.905H437.32L421.104 212L416.71 212.047L401.144 252.905H403.494Z" fill="#829E90"/>
<path d="M417.501 249.694C416.946 240.807 416.498 240.309 408.431 239.693C416.498 239.077 416.946 238.579 417.501 229.692C418.057 238.579 418.517 239.077 426.572 239.693C418.517 240.309 418.057 240.807 417.501 249.694Z" fill="#829E90"/>
<path d="M354.266 94.0115L355.45 100.236H354.384C354.277 100.062 354.182 99.881 354.1 99.6945C353.857 99.2859 353.575 98.9 353.259 98.5418C352.835 97.9965 352.359 97.4909 351.838 97.0317C351.228 96.5417 350.54 96.1523 349.801 95.879C348.967 95.5293 348.068 95.3489 347.16 95.3487H336.763V111.164H343.608C344.404 111.166 345.199 111.081 345.976 110.911C346.546 110.799 347.086 110.576 347.563 110.254C347.866 110.012 348.147 109.746 348.404 109.458C348.58 109.283 348.71 109.07 348.783 108.836L348.854 108.582H349.943V114.934H348.854V114.772C348.822 114.648 348.766 114.53 348.688 114.427C348.581 114.265 348.463 114.092 348.333 113.931C348.158 113.72 347.95 113.537 347.717 113.389C347.424 113.192 347.11 113.026 346.781 112.893C346.338 112.718 345.872 112.601 345.396 112.548C344.789 112.457 344.175 112.415 343.56 112.421H336.716V130.45C336.709 130.966 336.806 131.479 337 131.96C337.127 132.317 337.337 132.641 337.616 132.905L337.876 133.159V133.908H328V133.159C328.395 132.839 328.708 132.434 328.914 131.975C329.12 131.517 329.212 131.018 329.184 130.519V97.4006C329.19 96.8918 329.081 96.388 328.864 95.9251C328.731 95.6025 328.552 95.2999 328.332 95.0259L328.012 94.7723V94.0231L354.266 94.0115Z" fill="#829E90"/>
<path d="M397.986 132.859H399.087V133.919H392.041C391.154 133.898 390.295 133.603 389.59 133.078C388.713 132.445 387.959 131.664 387.364 130.772C386.731 129.895 386.149 128.983 385.623 128.04C385.126 127.164 384.652 126.265 384.202 125.343C383.752 124.421 383.432 123.81 383.267 123.522C383.031 123.219 382.814 122.903 382.615 122.576C381.715 121.147 381.04 120.133 380.614 119.522C380.161 118.897 379.632 118.328 379.039 117.827C378.481 117.337 377.798 117.003 377.061 116.859C374.987 117.356 373.104 118.425 371.638 119.937V130.427C371.629 130.944 371.73 131.458 371.934 131.937C372.053 132.295 372.26 132.62 372.538 132.882L372.798 133.135V133.885H362.922V133.135C363.317 132.816 363.63 132.411 363.836 131.952C364.042 131.494 364.134 130.995 364.106 130.496V97.4697C364.109 96.949 363.995 96.4339 363.775 95.9597C363.636 95.6154 363.44 95.296 363.194 95.0144L362.875 94.7608V94.0115H376.303C381.83 94.0115 385.974 94.9337 388.738 96.7781C391.501 98.6225 392.866 101.493 392.835 105.389C392.898 106.524 392.731 107.66 392.343 108.732C391.955 109.804 391.354 110.791 390.573 111.637C389.073 113.174 386.492 114.465 382.828 115.51C383.915 115.903 384.913 116.498 385.765 117.262C386.564 117.923 387.28 118.673 387.897 119.499C388.316 120.091 388.691 120.711 389.022 121.354C389.934 123.026 390.68 124.386 391.284 125.435C391.888 126.484 392.622 127.66 393.486 128.963C394.15 130.026 394.945 131.005 395.855 131.879C396.398 132.443 397.136 132.792 397.927 132.859M376.813 115.568C379.536 114.781 382.025 113.369 384.072 111.452C385.618 109.799 386.442 107.624 386.369 105.389C386.416 102.758 385.501 100.197 383.788 98.1614C382.901 97.1312 381.78 96.3159 380.514 95.7797C379.248 95.2436 377.872 95.0013 376.493 95.072H371.519V118.392C373.069 117.143 374.844 116.186 376.753 115.568" fill="#829E90"/>
<path d="M469.251 94.0115L470.435 100.236H469.334C469.266 100.048 469.179 99.866 469.074 99.6945C468.823 99.2932 468.546 98.9082 468.245 98.5418C467.827 97.9911 467.351 97.4849 466.824 97.0317C466.207 96.5516 465.521 96.1632 464.787 95.879C463.942 95.5237 463.031 95.3431 462.111 95.3487H458.037V130.542C458.03 131.062 458.14 131.577 458.357 132.052C458.497 132.395 458.693 132.714 458.937 132.997L459.268 133.251V134H449.38V133.251C449.777 132.932 450.091 132.527 450.297 132.069C450.503 131.61 450.594 131.111 450.565 130.611L450.494 95.3487H446.491C445.574 95.3414 444.665 95.5098 443.815 95.8444C443.055 96.1381 442.357 96.5639 441.754 97.1009C441.253 97.5638 440.786 98.0607 440.357 98.5879C440.036 98.98 439.735 99.3879 439.457 99.8098L439.196 100.317H438.166L439.35 94.0922L469.251 94.0115Z" fill="#829E90"/>
<path d="M496.606 132.663C499.448 132.663 501.734 131.245 503.451 128.386C503.605 128.169 503.736 127.937 503.842 127.695H504.872L503.688 133.919H477.541V133.17C477.937 132.852 478.251 132.447 478.457 131.988C478.663 131.529 478.755 131.03 478.725 130.53V97.4006C478.731 96.8918 478.622 96.388 478.405 95.9251C478.253 95.5981 478.058 95.292 477.825 95.0144L477.493 94.7608V94.0115H503.711L504.896 100.225H503.865C503.796 100.154 503.74 100.072 503.7 99.9827C503.7 99.8559 503.498 99.6138 503.285 99.2565C503.076 98.9045 502.838 98.5692 502.575 98.2536C502.263 97.8791 501.918 97.5319 501.544 97.2161C501.131 96.8544 500.687 96.5267 500.218 96.2363C499.699 95.9437 499.147 95.7115 498.572 95.5447C497.942 95.3626 497.288 95.2694 496.63 95.268H486.233V111.164H493.077C493.894 111.171 494.708 111.085 495.505 110.911C496.071 110.8 496.607 110.576 497.08 110.254C497.388 110.018 497.67 109.751 497.921 109.458C498.093 109.278 498.225 109.067 498.312 108.836L498.383 108.582H499.472V114.934H498.383V114.772C498.351 114.648 498.295 114.53 498.217 114.427C498.11 114.265 497.992 114.092 497.862 113.931C497.687 113.72 497.479 113.537 497.246 113.389C496.951 113.194 496.638 113.028 496.31 112.893C495.867 112.718 495.4 112.601 494.925 112.548C494.313 112.457 493.696 112.415 493.077 112.421H486.233V132.651L496.606 132.663Z" fill="#829E90"/>
<path d="M537.485 127.695H538.586L537.402 133.919H513.256V133.17C513.654 132.852 513.968 132.447 514.174 131.989C514.38 131.53 514.471 131.03 514.44 130.53V97.4697C514.447 96.9498 514.338 96.4347 514.121 95.9597C513.978 95.6177 513.782 95.2989 513.54 95.0144L513.221 94.7608V94.0115H523.097V94.7608C522.701 95.0803 522.388 95.4855 522.183 95.9439C521.977 96.4023 521.885 96.9011 521.913 97.4006L521.984 132.663H530.273C531.194 132.669 532.107 132.5 532.961 132.167C533.721 131.875 534.42 131.449 535.022 130.911C535.519 130.448 535.982 129.951 536.407 129.424C536.732 129.047 537.014 128.637 537.248 128.202L537.485 127.695Z" fill="#829E90"/>
<path d="M569.967 127.695H571.092L569.908 133.919H545.691V133.17C546.087 132.851 546.4 132.445 546.605 131.987C546.811 131.529 546.903 131.03 546.876 130.53V97.4697C546.882 96.9498 546.773 96.4347 546.556 95.9597C546.413 95.6177 546.217 95.2989 545.976 95.0144L545.656 94.7608V94.0115H555.532V94.7608C555.135 95.0791 554.821 95.4841 554.615 95.9428C554.41 96.4014 554.318 96.9009 554.348 97.4006L554.419 132.663H562.708C563.625 132.67 564.535 132.502 565.385 132.167C566.178 131.884 566.909 131.458 567.54 130.911C568.034 130.445 568.497 129.948 568.925 129.424C569.246 129.044 569.528 128.635 569.766 128.202L569.967 127.695Z" fill="#829E90"/>
<path d="M596.695 94.0115H602V94.7608C600.688 95.396 599.606 96.4053 598.897 97.6542L589.424 112.49V130.461C589.417 130.978 589.514 131.49 589.708 131.971C589.83 132.331 590.042 132.655 590.324 132.916L590.644 133.17V133.919H580.696L580.767 133.17C581.165 132.852 581.479 132.447 581.685 131.989C581.891 131.53 581.982 131.03 581.951 130.53L581.892 113.804L572.099 97.3314C571.779 96.7381 571.381 96.1878 570.915 95.6945C570.614 95.3746 570.267 95.099 569.885 94.8761L569.565 94.7493V94H580.412V94.7493C580.36 94.7955 580.316 94.8501 580.282 94.9107L579.986 95.2565C579.84 95.4079 579.731 95.589 579.666 95.7867C579.598 96.0229 579.566 96.2677 579.571 96.513C579.571 96.8146 579.636 97.1129 579.761 97.3891L587.967 111.914C593.343 103.66 596.501 98.8184 597.441 97.3891C597.741 96.9208 597.878 96.3712 597.832 95.8213C597.789 95.6457 597.705 95.4822 597.585 95.344C597.466 95.2059 597.315 95.0969 597.145 95.0259L596.695 94.7723V94.0115Z" fill="#829E90"/>
<path d="M408.016 130.565C407.836 130.996 407.787 131.468 407.874 131.925C407.941 132.247 408.087 132.547 408.301 132.801L408.585 133.182V133.919H404.44V133.182C404.985 132.974 405.624 132.121 406.512 130.622L420.214 94.3919H420.971L436.165 130.622C436.477 131.192 436.841 131.732 437.254 132.236C437.478 132.53 437.727 132.804 438 133.055L438.237 133.182V133.919H428.763V133.182C428.827 133.125 428.905 133.086 428.988 133.066C429.091 132.963 429.178 132.846 429.249 132.72C429.356 132.538 429.45 132.349 429.533 132.156C429.616 131.926 429.656 131.684 429.652 131.441C429.646 131.138 429.565 130.842 429.415 130.576L418.248 103.245L408.016 130.565Z" fill="#829E90"/>
<path d="M407.602 133.435L405.956 132.767C405.956 132.628 411.995 119.049 425.969 118.415L426.052 120.144C413.215 120.732 407.673 133.308 407.602 133.435Z" fill="#829E90"/>
</svg>
