<svg width="650" height="280" viewBox="0 0 650 280" fill="none" xmlns="http://www.w3.org/2000/svg">
<rect width="650" height="280" fill="white"/>
<g clip-path="url(#clip0_160_147)">
<path d="M202.864 95.2164V162.765" stroke="#DADADA" stroke-width="0.25" stroke-miterlimit="10"/>
<path d="M212.613 95.2164V162.765" stroke="#DADADA" stroke-width="0.25" stroke-miterlimit="10"/>
<path d="M222.363 95.2164V162.765" stroke="#DADADA" stroke-width="0.25" stroke-miterlimit="10"/>
<path d="M232.112 95.2164V162.765" stroke="#DADADA" stroke-width="0.25" stroke-miterlimit="10"/>
<path d="M241.861 95.2164V162.765" stroke="#DADADA" stroke-width="0.25" stroke-miterlimit="10"/>
<path d="M251.61 95.2164V162.765" stroke="#DADADA" stroke-width="0.25" stroke-miterlimit="10"/>
<path d="M261.359 95.2164V162.765" stroke="#DADADA" stroke-width="0.25" stroke-miterlimit="10"/>
<path d="M271.109 95.2164V162.765" stroke="#DADADA" stroke-width="0.25" stroke-miterlimit="10"/>
<path d="M280.858 95.2164V162.765" stroke="#DADADA" stroke-width="0.25" stroke-miterlimit="10"/>
<path d="M290.607 95.2164V162.765" stroke="#DADADA" stroke-width="0.25" stroke-miterlimit="10"/>
<path d="M300.339 95.2164V162.765" stroke="#DADADA" stroke-width="0.25" stroke-miterlimit="10"/>
<path d="M310.088 95.2164V162.765" stroke="#DADADA" stroke-width="0.25" stroke-miterlimit="10"/>
<path d="M319.837 95.2164V162.765" stroke="#DADADA" stroke-width="0.25" stroke-miterlimit="10"/>
<path d="M329.586 95.2164V162.765" stroke="#DADADA" stroke-width="0.25" stroke-miterlimit="10"/>
<path d="M339.336 95.2164V162.765" stroke="#DADADA" stroke-width="0.25" stroke-miterlimit="10"/>
<path d="M349.085 95.2164V162.765" stroke="#DADADA" stroke-width="0.25" stroke-miterlimit="10"/>
<path d="M358.834 95.2164V162.765" stroke="#DADADA" stroke-width="0.25" stroke-miterlimit="10"/>
<path d="M368.583 95.2164V162.765" stroke="#DADADA" stroke-width="0.25" stroke-miterlimit="10"/>
<path d="M378.332 95.2164V162.765" stroke="#DADADA" stroke-width="0.25" stroke-miterlimit="10"/>
<path d="M388.081 95.2164V162.765" stroke="#DADADA" stroke-width="0.25" stroke-miterlimit="10"/>
<path d="M397.831 95.2164V162.765" stroke="#DADADA" stroke-width="0.25" stroke-miterlimit="10"/>
<path d="M407.58 95.2164V162.765" stroke="#DADADA" stroke-width="0.25" stroke-miterlimit="10"/>
<path d="M417.329 95.2164V162.765" stroke="#DADADA" stroke-width="0.25" stroke-miterlimit="10"/>
<path d="M427.078 95.2164V162.765" stroke="#DADADA" stroke-width="0.25" stroke-miterlimit="10"/>
<path d="M436.81 95.2164V162.765" stroke="#DADADA" stroke-width="0.25" stroke-miterlimit="10"/>
<path d="M446.559 95.2164V162.765" stroke="#DADADA" stroke-width="0.25" stroke-miterlimit="10"/>
<path d="M456.308 95.2164V162.765" stroke="#DADADA" stroke-width="0.25" stroke-miterlimit="10"/>
<path d="M466.058 95.2164V162.765" stroke="#DADADA" stroke-width="0.25" stroke-miterlimit="10"/>
<path d="M475.807 95.2164V162.765" stroke="#DADADA" stroke-width="0.25" stroke-miterlimit="10"/>
<path d="M485.556 95.2164V162.765" stroke="#DADADA" stroke-width="0.25" stroke-miterlimit="10"/>
<path d="M495.305 95.2164V162.765" stroke="#DADADA" stroke-width="0.25" stroke-miterlimit="10"/>
<path d="M505.054 95.2164V162.765" stroke="#DADADA" stroke-width="0.25" stroke-miterlimit="10"/>
<path d="M514.804 95.2164V162.765" stroke="#DADADA" stroke-width="0.25" stroke-miterlimit="10"/>
<path d="M524.553 95.2164V162.765" stroke="#DADADA" stroke-width="0.25" stroke-miterlimit="10"/>
<path d="M534.302 95.2164V162.765" stroke="#DADADA" stroke-width="0.25" stroke-miterlimit="10"/>
<path d="M544.051 95.2164V162.765" stroke="#DADADA" stroke-width="0.25" stroke-miterlimit="10"/>
<path d="M553.8 95.2164V162.765" stroke="#DADADA" stroke-width="0.25" stroke-miterlimit="10"/>
<path d="M563.549 95.2164V162.765" stroke="#DADADA" stroke-width="0.25" stroke-miterlimit="10"/>
<path d="M573.281 95.2164V162.765" stroke="#DADADA" stroke-width="0.25" stroke-miterlimit="10"/>
<path d="M583.031 95.2164V162.765" stroke="#DADADA" stroke-width="0.25" stroke-miterlimit="10"/>
<path d="M592.78 95.2164V162.765" stroke="#DADADA" stroke-width="0.25" stroke-miterlimit="10"/>
<path d="M602.529 95.2164V162.765" stroke="#DADADA" stroke-width="0.25" stroke-miterlimit="10"/>
<path d="M612.278 95.2164V162.765" stroke="#DADADA" stroke-width="0.25" stroke-miterlimit="10"/>
<path d="M622.027 95.2164V162.765" stroke="#DADADA" stroke-width="0.25" stroke-miterlimit="10"/>
<path d="M193.115 104.869H631.776" stroke="#DADADA" stroke-width="0.25" stroke-miterlimit="10"/>
<path d="M193.115 114.521H631.776" stroke="#DADADA" stroke-width="0.25" stroke-miterlimit="10"/>
<path d="M193.115 124.156H631.776" stroke="#DADADA" stroke-width="0.25" stroke-miterlimit="10"/>
<path d="M193.115 133.808H631.776" stroke="#DADADA" stroke-width="0.25" stroke-miterlimit="10"/>
<path d="M193.115 143.461H631.776" stroke="#DADADA" stroke-width="0.25" stroke-miterlimit="10"/>
<path d="M193.115 153.113H631.776" stroke="#DADADA" stroke-width="0.25" stroke-miterlimit="10"/>
<path d="M193.115 162.765H631.776" stroke="#DADADA" stroke-width="0.25" stroke-miterlimit="10"/>
<path d="M229.068 98.6211L230.203 108.171H229.275C229.096 107.916 228.946 107.642 228.828 107.354C228.463 106.703 228.037 106.087 227.555 105.516C226.912 104.686 226.199 103.911 225.423 103.2C224.501 102.436 223.462 101.821 222.345 101.379C221.083 100.828 219.719 100.544 218.339 100.545H202.641V131.051H212.957C214.184 131.063 215.407 130.931 216.603 130.659C217.462 130.497 218.277 130.154 218.993 129.655C219.453 129.291 219.879 128.886 220.265 128.446C220.525 128.165 220.724 127.835 220.85 127.476L220.936 127.101H221.675V136.839H221.039V136.6C221.006 136.407 220.923 136.225 220.798 136.072C220.638 135.805 220.46 135.549 220.265 135.306C220.01 134.974 219.695 134.692 219.336 134.472C218.894 134.17 218.422 133.913 217.927 133.706C217.254 133.439 216.549 133.262 215.829 133.178C214.913 133.04 213.987 132.971 213.061 132.974H202.744V159.922H193.218V98.6381L229.068 98.6211Z" fill="#487061"/>
<path d="M302.574 159.36V159.922H291.948C290.602 159.882 289.302 159.424 288.234 158.611C286.926 157.677 285.792 156.525 284.881 155.207C283.925 153.855 283.046 152.452 282.25 151.002C281.494 149.657 280.789 148.278 280.101 146.848C279.413 145.418 278.949 144.499 278.691 144.056C278.33 143.598 278.003 143.114 277.711 142.609C276.353 140.413 275.338 138.864 274.685 137.928C274.005 136.961 273.202 136.086 272.295 135.323C271.457 134.569 270.43 134.051 269.32 133.825C266.191 134.596 263.351 136.238 261.136 138.558C261.136 138.558 260.809 158.186 261.136 158.441V159.99H251.61V98.7062H268.254C276.645 98.7062 282.898 100.119 287.013 102.945C291.14 105.788 293.22 110.197 293.22 116.172C293.313 117.918 293.057 119.664 292.467 121.312C291.877 122.959 290.964 124.475 289.782 125.773C287.512 128.123 283.609 130.114 278.089 131.715C279.735 132.316 281.243 133.236 282.526 134.421C283.725 135.431 284.804 136.573 285.741 137.826C286.374 138.742 286.948 139.698 287.46 140.686C288.819 143.256 289.953 145.35 290.899 146.95C291.845 148.551 292.928 150.355 294.218 152.364C295.199 154.019 296.415 155.527 297.828 156.841C299.249 157.949 300.856 158.802 302.574 159.36ZM269.028 131.732C273.145 130.523 276.908 128.351 279.998 125.399C282.324 122.856 283.557 119.516 283.437 116.087C283.508 112.046 282.124 108.112 279.534 104.988C278.192 103.408 276.498 102.158 274.586 101.337C272.673 100.516 270.594 100.145 268.512 100.255H260.998L261.101 136.004C263.454 134.107 266.142 132.658 269.028 131.732Z" fill="#487061"/>
<path d="M405.31 98.9105L407.167 108.461H405.448C405.332 108.181 405.2 107.908 405.052 107.643C404.664 107.007 404.239 106.393 403.78 105.805C403.15 104.959 402.429 104.182 401.631 103.49C400.709 102.733 399.678 102.118 398.57 101.668C397.296 101.117 395.92 100.833 394.529 100.834H388.46V160.212H379.003L378.917 100.834H372.864C371.479 100.832 370.106 101.098 368.824 101.617C367.669 102.061 366.608 102.713 365.694 103.541C364.953 104.251 364.258 105.007 363.614 105.805C363.029 106.554 362.565 107.184 362.238 107.695L361.843 108.461H360.295L362.015 98.9105H405.31Z" fill="#487061"/>
<path d="M451.786 157.982C456.068 157.982 459.524 155.803 462.103 151.428C462.335 151.091 462.531 150.732 462.688 150.355H464.252L462.533 159.922H426.562V98.6381H462.516L464.235 108.188H462.67C462.571 108.077 462.489 107.95 462.43 107.814C462.326 107.609 462.12 107.252 461.793 106.69C461.472 106.157 461.116 105.645 460.727 105.158C460.252 104.582 459.729 104.047 459.163 103.558C458.539 103.007 457.872 102.506 457.168 102.06C456.385 101.606 455.547 101.252 454.675 101.004C453.728 100.716 452.743 100.567 451.752 100.562H436.088V131.068H446.405C447.637 131.08 448.866 130.948 450.067 130.676C450.925 130.507 451.738 130.165 452.457 129.672C452.912 129.308 453.332 128.903 453.712 128.463C453.978 128.187 454.177 127.855 454.297 127.493L454.4 127.118H456.119V136.856H454.4V136.617C454.358 136.426 454.276 136.247 454.159 136.09L453.626 135.323C453.361 135 453.048 134.719 452.698 134.489C452.253 134.19 451.781 133.934 451.288 133.723C450.614 133.458 449.909 133.281 449.19 133.196C448.268 133.056 447.337 132.988 446.405 132.991H436.088V157.999L451.786 157.982Z" fill="#487061"/>
<path d="M523.762 150.355H525.481L523.624 159.922H490.783V98.6381H500.223L500.326 157.999H512.895C514.285 158.006 515.663 157.746 516.953 157.232C518.106 156.789 519.163 156.13 520.065 155.292C520.82 154.589 521.521 153.833 522.163 153.028C522.647 152.446 523.074 151.819 523.435 151.155L523.762 150.355Z" fill="#487061"/>
<path d="M578.44 150.355H580.159L578.319 159.922H545.478V98.6381H554.918L555.004 157.999H567.59C568.975 158.008 570.348 157.747 571.631 157.232C572.789 156.789 573.852 156.131 574.76 155.292C575.515 154.589 576.216 153.833 576.858 153.028C577.338 152.446 577.759 151.819 578.113 151.155L578.44 150.355Z" fill="#487061"/>
<path d="M628.2 98.6211H631.071L612.983 126.999V159.922H603.543V129.025L585.403 98.6211H594.327L610.731 126.131C618.863 113.448 628.2 98.6211 628.2 98.6211Z" fill="#487061"/>
<path d="M331.718 99.1999H332.011L356.53 159.922H348.122L329.604 112.904L313.75 159.922H310.621L331.718 99.1999Z" fill="#487061"/>
<path d="M167.753 157.879C167.669 157.697 167.571 157.521 167.461 157.352L167.186 156.926L166.636 156.075C165.89 154.949 165.068 153.874 164.177 152.857C162.406 150.816 160.377 149.009 158.142 147.478C153.683 144.419 148.509 142.539 143.11 142.018C137.711 141.496 132.267 142.35 127.295 144.499C122.599 146.536 118.47 149.666 115.259 153.624L114.451 152.943C113.901 152.5 113.368 152.023 112.852 151.547C112.009 150.764 111.133 149.947 110.41 149.095C118.627 140.156 123.278 128.563 123.495 116.479C123.363 114.865 123.022 113.274 122.481 111.746C122.051 110.299 121.552 108.903 121.054 107.507C120.033 104.738 118.973 101.992 117.873 99.268C115.689 93.8206 113.402 88.4241 111.15 83.0277C110.995 82.657 110.733 82.34 110.396 82.1169C110.06 81.8939 109.664 81.7748 109.258 81.7748C108.853 81.7748 108.457 81.8939 108.121 82.1169C107.784 82.34 107.522 82.657 107.367 83.0277C105.132 88.4752 102.845 93.9397 100.661 99.4382C99.5608 102.196 98.4776 104.971 97.4631 107.78C96.9645 109.176 96.4658 110.589 96.036 112.053C95.4862 113.591 95.1844 115.205 95.1419 116.836C95.2665 122.908 96.5258 128.905 98.8558 134.523C101.077 139.865 104.219 144.784 108.141 149.061C106.608 150.664 104.971 152.165 103.24 153.555C100.048 149.631 95.9575 146.515 91.3075 144.465C86.3474 142.313 80.9127 141.458 75.5232 141.98C70.1025 142.473 64.9053 144.356 60.4437 147.444C58.2153 148.984 56.1881 150.79 54.4085 152.823C53.5172 153.84 52.6957 154.915 51.9497 156.041L51.4167 156.892L51.1416 157.318C51.1416 157.471 50.9697 157.573 50.8321 157.845C50.3497 158.769 50.0189 159.763 49.8521 160.79C50.2249 161.187 50.6465 161.536 51.1072 161.829C51.3381 161.981 51.5794 162.118 51.8294 162.237L52.2936 162.425C52.8267 162.663 53.3769 162.884 53.9271 163.089C55.0103 163.514 56.128 163.889 57.2456 164.246C59.4984 164.935 61.7964 165.47 64.1233 165.846C68.7456 166.592 73.4499 166.701 78.1023 166.17C87.1753 165.142 95.7944 161.688 103.034 156.177C103.831 157.154 104.561 158.184 105.218 159.258C107.723 163.492 109.041 168.311 109.035 173.217C109.035 173.303 109.069 173.385 109.131 173.446C109.192 173.507 109.275 173.541 109.362 173.541C109.405 173.543 109.449 173.537 109.489 173.521C109.53 173.506 109.567 173.482 109.598 173.452C109.629 173.421 109.653 173.384 109.668 173.344C109.684 173.304 109.691 173.261 109.688 173.217C109.706 169.955 110.287 166.719 111.408 163.65C111.971 162.129 112.667 160.66 113.488 159.258C114.038 158.339 114.829 157.25 115.62 156.126C122.855 161.649 131.476 165.11 140.552 166.136C145.204 166.667 149.909 166.558 154.531 165.812C156.858 165.436 159.156 164.901 161.409 164.212C162.526 163.855 163.644 163.48 164.744 163.055C165.295 162.85 165.828 162.629 166.361 162.391L166.825 162.203C167.079 162.08 167.325 161.944 167.564 161.795C168.018 161.493 168.439 161.145 168.819 160.756C168.61 159.75 168.251 158.781 167.753 157.879ZM98.0993 116.836C98.1991 115.52 98.5066 114.228 99.0106 113.006C99.4576 111.644 99.9906 110.282 100.524 108.92C101.607 106.214 102.776 103.507 103.963 100.817C105.682 96.8167 107.522 92.8332 109.327 88.9008C111.047 92.8332 112.886 96.7656 114.606 100.715C115.775 103.371 116.927 106.06 118.045 108.75C118.561 110.095 119.094 111.44 119.541 112.785C119.997 114.002 120.325 115.263 120.521 116.547C120.742 127.976 116.786 139.1 109.379 147.87C101.996 139.221 98.0095 128.227 98.1509 116.904L98.0993 116.836ZM77.8444 163.514C73.4427 163.935 69.0031 163.741 64.6563 162.935C62.4875 162.513 60.3505 161.944 58.2601 161.233C57.2284 160.876 56.1967 160.518 55.1823 160.092L53.6692 159.446C53.7551 159.446 53.8583 159.343 53.8927 159.241L54.7868 157.777C55.4445 156.756 56.1681 155.778 56.9533 154.849C58.5206 152.979 60.3169 151.309 62.3007 149.878C66.3068 147.002 70.9998 145.207 75.9186 144.669C80.861 144.111 85.8657 144.802 90.465 146.678C94.7132 148.467 98.4854 151.206 101.487 154.679C94.5491 159.66 86.3797 162.689 77.8444 163.446V163.514ZM112.439 158.782C111.668 160.279 111.03 161.84 110.531 163.446C110.03 165.041 109.639 166.667 109.362 168.315C109.362 168.434 109.362 168.536 109.362 168.655C109.362 168.774 109.362 168.434 109.362 168.315C109.084 166.667 108.693 165.041 108.192 163.446C107.696 161.844 107.058 160.289 106.284 158.799C105.645 157.514 104.927 156.269 104.134 155.071C106.005 153.601 107.764 151.996 109.396 150.27C110.204 151.121 111.012 151.972 111.872 152.755C112.405 153.249 112.955 153.726 113.591 154.185L114.451 154.883L114.761 155.139V155.258C114.382 155.717 114.038 156.177 113.695 156.671C113.232 157.324 112.813 158.006 112.439 158.714V158.782ZM163.472 160.161C162.458 160.586 161.409 160.944 160.377 161.301C158.287 162.014 156.15 162.583 153.981 163.003C147.613 164.17 141.072 164.042 134.756 162.629C128.439 161.215 122.479 158.545 117.237 154.781C120.324 151.147 124.275 148.329 128.735 146.582C133.195 144.835 138.024 144.213 142.787 144.771C147.706 145.309 152.399 147.104 156.405 149.981C158.398 151.407 160.201 153.077 161.77 154.951C162.555 155.876 163.273 156.855 163.919 157.879L164.813 159.343C164.868 159.436 164.953 159.508 165.054 159.548L163.472 160.161Z" fill="#BBC4BD"/>
<path d="M317.636 187.551C317.775 189.234 317.306 190.911 316.312 192.284C315.849 192.808 315.27 193.221 314.62 193.489C313.97 193.758 313.267 193.875 312.564 193.833C312.272 193.851 311.979 193.851 311.687 193.833C311.425 193.798 311.166 193.741 310.913 193.662V192.096C311.451 192.345 312.039 192.467 312.633 192.454C313.115 192.492 313.599 192.401 314.035 192.191C314.47 191.982 314.841 191.661 315.109 191.262C315.713 190.139 315.987 188.871 315.9 187.602V176.537H317.619L317.636 187.551Z" fill="#9AA5A2"/>
<path d="M329.208 193.833C328.27 193.848 327.338 193.692 326.457 193.373C325.685 193.098 324.982 192.663 324.394 192.096C323.816 191.542 323.37 190.868 323.087 190.122C322.769 189.302 322.611 188.429 322.623 187.551C322.605 186.621 322.769 185.696 323.104 184.827C323.403 184.058 323.873 183.366 324.48 182.802C325.099 182.229 325.831 181.788 326.629 181.508C327.538 181.211 328.492 181.068 329.449 181.082C330.361 181.069 331.269 181.213 332.131 181.508C332.886 181.778 333.573 182.208 334.143 182.768C334.714 183.327 335.149 184.008 335.415 184.759C335.731 185.615 335.882 186.521 335.862 187.432C335.874 188.321 335.716 189.205 335.398 190.037C335.11 190.799 334.658 191.49 334.074 192.062C333.48 192.637 332.771 193.083 331.994 193.373C331.101 193.691 330.157 193.847 329.208 193.833ZM329.346 182.393C328.649 182.385 327.956 182.5 327.3 182.734C326.715 182.96 326.182 183.302 325.735 183.738C325.295 184.204 324.956 184.755 324.738 185.355C324.504 186.058 324.388 186.794 324.394 187.534C324.386 188.235 324.502 188.932 324.738 189.594C324.957 190.175 325.29 190.707 325.718 191.16C326.15 191.607 326.679 191.95 327.265 192.164C327.918 192.41 328.613 192.531 329.311 192.522C330.003 192.533 330.691 192.417 331.34 192.181C331.914 191.971 332.432 191.633 332.853 191.194C333.277 190.741 333.595 190.2 333.782 189.611C333.998 188.916 334.102 188.193 334.091 187.466C334.185 186.104 333.748 184.757 332.871 183.704C332.409 183.253 331.856 182.903 331.249 182.677C330.642 182.451 329.993 182.355 329.346 182.393Z" fill="#9AA5A2"/>
<path d="M344.683 195.756C344.277 196.77 343.641 197.679 342.826 198.412C342.111 198.982 341.216 199.284 340.298 199.263C339.875 199.272 339.452 199.221 339.043 199.11V197.68C339.239 197.747 339.441 197.798 339.645 197.833C339.845 197.85 340.047 197.85 340.247 197.833C340.777 197.846 341.297 197.684 341.726 197.374C342.193 196.99 342.559 196.499 342.792 195.944L343.995 193.441L338.717 181.32H340.608L344.545 190.973C344.545 191.109 344.649 191.245 344.7 191.415C344.752 191.586 344.786 191.739 344.838 191.892C344.838 191.756 344.924 191.62 344.958 191.483L345.13 191.024L349.308 181.32H351.114L344.683 195.756Z" fill="#9AA5A2"/>
<path d="M362.823 193.628V191.466C362.395 192.222 361.764 192.847 361 193.271C360.2 193.705 359.3 193.928 358.387 193.918C357.775 193.926 357.166 193.84 356.582 193.662C356.095 193.514 355.64 193.277 355.24 192.964C354.874 192.664 354.58 192.286 354.381 191.858C354.171 191.416 354.065 190.933 354.071 190.445C354.057 189.949 354.153 189.455 354.352 188.999C354.551 188.544 354.848 188.136 355.223 187.806C356.221 187.061 357.415 186.617 358.662 186.53L362.823 185.985C362.823 183.653 361.809 182.478 359.762 182.478C358.142 182.49 356.573 183.041 355.309 184.044V182.342C355.617 182.143 355.946 181.978 356.289 181.848C356.66 181.697 357.039 181.567 357.424 181.457C357.832 181.353 358.245 181.273 358.662 181.218C359.072 181.157 359.486 181.129 359.9 181.133C361.153 181.05 362.389 181.459 363.339 182.274C363.756 182.734 364.074 183.273 364.275 183.858C364.476 184.443 364.555 185.062 364.508 185.678V193.628H362.823ZM359.384 187.721C358.85 187.776 358.321 187.873 357.802 188.011C357.413 188.112 357.041 188.272 356.702 188.487C356.436 188.683 356.224 188.94 356.083 189.236C355.936 189.587 355.865 189.964 355.877 190.343C355.876 190.653 355.94 190.961 356.066 191.245C356.199 191.527 356.393 191.776 356.633 191.977C356.9 192.184 357.203 192.339 357.527 192.437C357.916 192.558 358.323 192.615 358.731 192.607C359.319 192.618 359.903 192.514 360.45 192.301C361.436 191.891 362.221 191.115 362.634 190.139C362.848 189.596 362.953 189.018 362.943 188.436V187.245L359.384 187.721Z" fill="#9AA5A2"/>
<path d="M369.271 191.347C369.533 191.541 369.815 191.707 370.113 191.841C370.421 191.983 370.737 192.108 371.059 192.216C371.673 192.402 372.309 192.505 372.95 192.522C374.997 192.522 376.011 191.841 376.011 190.479C376.017 190.199 375.945 189.922 375.805 189.679C375.634 189.442 375.425 189.235 375.186 189.066C374.879 188.866 374.557 188.689 374.223 188.538L372.95 188.045C372.361 187.854 371.786 187.62 371.231 187.347C370.822 187.14 370.446 186.877 370.113 186.564C369.834 186.305 369.611 185.992 369.46 185.644C369.304 185.279 369.227 184.884 369.236 184.487C369.228 183.983 369.365 183.486 369.632 183.057C369.905 182.628 370.269 182.262 370.698 181.984C371.17 181.67 371.693 181.44 372.245 181.304C373.895 180.912 375.627 181.043 377.197 181.678V183.278C376.193 182.69 375.046 182.384 373.879 182.393C373.485 182.391 373.092 182.437 372.71 182.529C372.386 182.617 372.078 182.755 371.798 182.938C371.565 183.109 371.366 183.323 371.214 183.568C371.075 183.812 371.004 184.088 371.007 184.368C370.998 184.644 371.057 184.919 371.179 185.168C371.295 185.408 371.466 185.618 371.678 185.781C371.948 185.987 372.242 186.158 372.555 186.291C372.916 186.462 373.363 186.649 373.879 186.836C374.395 187.023 375.117 187.313 375.598 187.534C376.026 187.737 376.425 187.995 376.785 188.3C377.083 188.554 377.323 188.867 377.49 189.219C377.647 189.591 377.724 189.991 377.713 190.394C377.725 190.907 377.595 191.414 377.335 191.858C377.065 192.29 376.701 192.656 376.269 192.93C375.786 193.248 375.251 193.479 374.687 193.611C374.032 193.758 373.364 193.832 372.692 193.833C371.498 193.865 370.314 193.596 369.254 193.05L369.271 191.347Z" fill="#9AA5A2"/>
<path d="M401.08 199.144V191.381C400.586 192.191 399.874 192.85 399.024 193.283C398.174 193.715 397.219 193.906 396.266 193.833C395.455 193.839 394.65 193.695 393.893 193.407C393.237 193.127 392.65 192.709 392.174 192.181C391.656 191.622 391.263 190.961 391.022 190.241C390.735 189.42 390.595 188.556 390.609 187.687C390.595 186.753 390.752 185.825 391.073 184.946C391.357 184.171 391.802 183.464 392.38 182.87C392.932 182.288 393.607 181.834 394.357 181.542C395.179 181.226 396.055 181.07 396.936 181.082C397.767 181.016 398.6 181.178 399.343 181.55C400.087 181.923 400.712 182.491 401.149 183.193V181.355H402.869V199.144H401.08ZM401.08 186.257C401.09 185.732 400.991 185.211 400.788 184.725C400.587 184.255 400.289 183.833 399.912 183.484C399.536 183.135 399.091 182.868 398.604 182.699C398.056 182.489 397.473 182.385 396.885 182.393C396.242 182.385 395.604 182.506 395.011 182.75C394.459 182.973 393.965 183.316 393.566 183.755C393.138 184.256 392.811 184.834 392.604 185.457C392.368 186.177 392.251 186.93 392.26 187.687C392.25 188.386 392.354 189.082 392.569 189.747C392.757 190.31 393.055 190.831 393.446 191.279C393.82 191.687 394.277 192.012 394.787 192.232C395.33 192.463 395.916 192.579 396.507 192.573C397.17 192.581 397.829 192.465 398.45 192.232C398.983 192.041 399.467 191.736 399.869 191.339C400.27 190.942 400.578 190.462 400.771 189.934C400.984 189.392 401.089 188.814 401.08 188.232V186.257Z" fill="#9AA5A2"/>
<path d="M417.57 193.628V191.552C417.148 192.308 416.519 192.931 415.755 193.349C414.992 193.768 414.125 193.965 413.254 193.918C409.987 193.918 408.354 192.147 408.354 188.606V181.44H410.073V188.249C409.98 189.395 410.29 190.538 410.95 191.483C411.286 191.85 411.703 192.136 412.168 192.319C412.632 192.501 413.133 192.577 413.632 192.539C414.186 192.548 414.737 192.443 415.248 192.232C415.73 192.033 416.164 191.737 416.522 191.361C416.88 190.986 417.155 190.541 417.329 190.053C417.534 189.509 417.633 188.932 417.621 188.351V181.389H419.341V193.628H417.57Z" fill="#9AA5A2"/>
<path d="M425.909 187.721C425.904 188.404 426.014 189.083 426.236 189.73C426.437 190.293 426.753 190.808 427.164 191.245C427.579 191.66 428.077 191.985 428.626 192.198C429.254 192.424 429.918 192.534 430.586 192.522C432.166 192.515 433.702 192.008 434.97 191.075V192.573C433.534 193.442 431.873 193.879 430.19 193.833C429.34 193.839 428.496 193.694 427.697 193.407C426.974 193.132 426.318 192.708 425.771 192.164C425.241 191.605 424.832 190.945 424.568 190.224C424.265 189.348 424.12 188.426 424.138 187.5C424.127 186.637 424.29 185.78 424.619 184.981C424.894 184.219 425.327 183.523 425.89 182.937C426.452 182.35 427.132 181.887 427.886 181.576C429.442 180.986 431.162 180.986 432.718 181.576C433.375 181.83 433.964 182.232 434.437 182.75C434.915 183.289 435.272 183.922 435.486 184.606C435.737 185.393 435.859 186.215 435.847 187.04V187.806L425.909 187.721ZM434.059 186.393C434.102 185.321 433.74 184.271 433.045 183.448C432.692 183.089 432.265 182.809 431.793 182.627C431.322 182.445 430.816 182.365 430.311 182.393C429.76 182.386 429.212 182.479 428.694 182.665C428.21 182.845 427.766 183.117 427.388 183.465C427.01 183.831 426.696 184.257 426.459 184.725C426.205 185.265 426.031 185.838 425.943 186.427L434.059 186.393Z" fill="#9AA5A2"/>
<path d="M458.716 193.628V186.462C458.803 185.393 458.511 184.327 457.89 183.448C457.558 183.106 457.152 182.841 456.703 182.673C456.254 182.506 455.772 182.439 455.294 182.478C454.752 182.476 454.214 182.58 453.712 182.785C453.22 182.972 452.774 183.263 452.405 183.636C452.017 184.025 451.713 184.488 451.511 184.998C451.276 185.576 451.159 186.195 451.167 186.819V193.628H449.448V175.584H451.167V183.414C451.654 182.649 452.336 182.025 453.146 181.606C453.956 181.187 454.863 180.989 455.775 181.031C456.405 180.985 457.037 181.072 457.63 181.286C458.223 181.501 458.763 181.837 459.214 182.274C460.057 183.317 460.468 184.637 460.366 185.968V193.628H458.716Z" fill="#9AA5A2"/>
<path d="M473.847 193.628V191.466C473.412 192.224 472.776 192.848 472.007 193.271C471.206 193.705 470.306 193.928 469.393 193.918C468.81 193.919 468.231 193.833 467.674 193.662C467.183 193.51 466.724 193.274 466.315 192.964C465.949 192.664 465.656 192.285 465.456 191.858C465.246 191.416 465.14 190.933 465.146 190.445C465.126 189.946 465.221 189.449 465.423 188.992C465.626 188.535 465.931 188.129 466.315 187.806C467.31 187.054 468.506 186.61 469.754 186.53L473.933 185.985C473.933 183.653 472.901 182.478 470.855 182.478C469.235 182.49 467.666 183.041 466.401 184.044V182.342C466.709 182.143 467.038 181.978 467.382 181.848C467.757 181.695 468.142 181.564 468.534 181.457C468.94 181.35 469.354 181.27 469.772 181.218C470.181 181.156 470.595 181.128 471.01 181.133C471.631 181.088 472.254 181.166 472.845 181.361C473.435 181.557 473.98 181.867 474.448 182.274C474.869 182.732 475.189 183.27 475.39 183.856C475.592 184.441 475.669 185.062 475.618 185.678V193.628H473.847ZM470.305 187.721C469.77 187.776 469.241 187.873 468.723 188.011C468.337 188.108 467.971 188.269 467.639 188.487C467.365 188.677 467.145 188.936 467.003 189.236C466.856 189.587 466.786 189.964 466.797 190.343C466.794 190.655 466.865 190.964 467.003 191.245C467.125 191.529 467.313 191.78 467.553 191.977C467.827 192.184 468.135 192.339 468.465 192.437C468.848 192.559 469.249 192.616 469.651 192.607C470.239 192.618 470.824 192.514 471.371 192.301C471.863 192.104 472.31 191.812 472.685 191.44C473.061 191.069 473.356 190.626 473.554 190.139C473.782 189.6 473.894 189.02 473.881 188.436V187.245L470.305 187.721Z" fill="#9AA5A2"/>
<path d="M482.77 191.586V193.628H481.051V175.584H482.77V183.772C483.256 182.949 483.965 182.276 484.817 181.831C485.711 181.381 486.702 181.153 487.705 181.167C488.51 181.154 489.309 181.293 490.061 181.576C490.712 181.857 491.297 182.269 491.78 182.785C492.272 183.334 492.646 183.977 492.881 184.674C493.144 185.471 493.271 186.305 493.259 187.142C493.272 188.079 493.127 189.011 492.829 189.9C492.561 190.645 492.153 191.332 491.626 191.926C491.082 192.526 490.413 193.003 489.665 193.322C488.854 193.658 487.982 193.826 487.103 193.816C486.243 193.864 485.386 193.681 484.623 193.285C483.86 192.889 483.22 192.296 482.77 191.569V191.586ZM482.77 188.47C482.765 189.008 482.87 189.541 483.08 190.036C483.295 190.519 483.598 190.957 483.974 191.33C484.366 191.704 484.827 191.999 485.332 192.198C486.494 192.674 487.799 192.674 488.96 192.198C489.504 191.94 489.985 191.569 490.37 191.109C490.772 190.601 491.075 190.024 491.264 189.407C491.48 188.671 491.584 187.908 491.574 187.142C491.588 186.489 491.49 185.839 491.282 185.219C491.11 184.677 490.823 184.177 490.439 183.755C490.081 183.349 489.634 183.029 489.132 182.819C488.588 182.594 488.002 182.484 487.413 182.495C486.753 182.484 486.098 182.605 485.487 182.853C484.937 183.064 484.439 183.389 484.026 183.806C483.615 184.211 483.299 184.698 483.097 185.236C482.876 185.776 482.765 186.355 482.77 186.938V188.47Z" fill="#9AA5A2"/>
<path d="M498.177 193.628V175.584H499.896V193.628H498.177Z" fill="#9AA5A2"/>
<path d="M513.6 193.628V191.466C513.165 192.224 512.529 192.848 511.76 193.271C510.96 193.707 510.06 193.93 509.147 193.918C508.564 193.918 507.984 193.832 507.427 193.662C506.937 193.51 506.477 193.274 506.069 192.964C505.708 192.658 505.415 192.282 505.209 191.858C505.013 191.412 504.914 190.931 504.917 190.445C504.893 189.947 504.984 189.451 505.184 188.994C505.384 188.536 505.686 188.13 506.069 187.806C507.063 187.054 508.259 186.61 509.508 186.53L513.686 185.985C513.686 183.653 512.654 182.478 510.608 182.478C508.993 182.487 507.428 183.039 506.172 184.044V182.342C506.472 182.14 506.795 181.975 507.135 181.848C507.51 181.695 507.895 181.564 508.287 181.457C508.694 181.35 509.107 181.27 509.525 181.218C509.935 181.157 510.349 181.129 510.763 181.133C512.016 181.05 513.252 181.459 514.202 182.274C514.619 182.734 514.937 183.273 515.138 183.858C515.339 184.443 515.418 185.062 515.371 185.678V193.628H513.6ZM510.058 187.721C509.524 187.778 508.995 187.874 508.476 188.011C508.093 188.115 507.728 188.275 507.393 188.487C507.118 188.677 506.898 188.936 506.757 189.236C506.624 189.59 506.56 189.966 506.567 190.343C506.558 190.654 506.623 190.963 506.757 191.245C506.885 191.53 507.079 191.781 507.324 191.977C507.589 192.187 507.892 192.343 508.218 192.437C508.607 192.559 509.014 192.616 509.422 192.607C510.01 192.621 510.595 192.516 511.141 192.301C511.638 192.105 512.089 191.809 512.465 191.432C512.84 191.062 513.138 190.622 513.342 190.139C513.556 189.596 513.661 189.018 513.651 188.436V187.245L510.058 187.721Z" fill="#9AA5A2"/>
<path d="M530.072 193.628V186.615C530.072 183.857 528.954 182.478 526.633 182.478C526.043 182.463 525.457 182.573 524.914 182.802C524.419 183.001 523.969 183.296 523.59 183.67C523.22 184.054 522.928 184.504 522.73 184.998C522.5 185.535 522.388 186.116 522.403 186.7V193.628H520.684V181.44H522.403V183.414C522.878 182.641 523.555 182.009 524.364 181.586C525.172 181.164 526.081 180.966 526.994 181.014C527.628 180.967 528.265 181.058 528.859 181.282C529.454 181.505 529.991 181.856 530.433 182.308C531.292 183.363 531.716 184.701 531.62 186.053V193.628H530.072Z" fill="#9AA5A2"/>
<path d="M547.903 191.586V199.144H546.183V181.355H547.903V183.687C548.42 182.832 549.179 182.145 550.086 181.712C550.98 181.26 551.972 181.032 552.975 181.048C553.779 181.036 554.578 181.175 555.33 181.457C555.986 181.731 556.572 182.143 557.05 182.665C557.545 183.207 557.92 183.845 558.15 184.538C558.416 185.34 558.544 186.18 558.529 187.023C558.542 187.96 558.397 188.892 558.099 189.781C557.833 190.565 557.412 191.288 556.861 191.909C556.32 192.505 555.658 192.981 554.918 193.305C554.1 193.64 553.223 193.808 552.339 193.799C551.479 193.843 550.623 193.658 549.861 193.263C549.099 192.868 548.458 192.276 548.006 191.552L547.903 191.586ZM547.903 188.47C547.898 189.001 548 189.528 548.204 190.019C548.408 190.51 548.709 190.956 549.089 191.33C549.484 191.7 549.944 191.995 550.447 192.198C550.994 192.416 551.578 192.526 552.167 192.522C552.807 192.529 553.442 192.395 554.024 192.13C554.57 191.877 555.052 191.504 555.434 191.041C555.847 190.538 556.157 189.96 556.345 189.339C556.561 188.603 556.665 187.84 556.654 187.074C556.66 186.422 556.562 185.773 556.362 185.151C556.183 184.612 555.897 184.114 555.52 183.687C555.161 183.281 554.714 182.96 554.213 182.75C553.668 182.526 553.083 182.416 552.493 182.427C551.828 182.418 551.168 182.539 550.55 182.785C550.005 183.005 549.508 183.329 549.089 183.738C548.69 184.148 548.38 184.635 548.178 185.168C547.956 185.708 547.845 186.287 547.851 186.87L547.903 188.47Z" fill="#9AA5A2"/>
<path d="M569 193.833C568.062 193.848 567.13 193.692 566.249 193.373C565.477 193.098 564.774 192.663 564.186 192.096C563.603 191.543 563.151 190.868 562.862 190.122C562.242 188.41 562.242 186.539 562.862 184.827C563.16 184.058 563.63 183.366 564.237 182.802C564.854 182.225 565.586 181.784 566.387 181.508C567.296 181.211 568.249 181.068 569.206 181.082C570.113 181.067 571.016 181.211 571.872 181.508C572.634 181.773 573.327 182.203 573.9 182.768C574.466 183.332 574.9 184.012 575.173 184.759C575.48 185.617 575.631 186.522 575.62 187.432C575.631 188.321 575.474 189.205 575.156 190.037C574.867 190.798 574.416 191.49 573.832 192.062C573.237 192.637 572.529 193.083 571.751 193.373C570.869 193.687 569.937 193.842 569 193.833ZM569.12 182.393C568.429 182.387 567.742 182.502 567.091 182.733C566.494 182.953 565.953 183.302 565.51 183.756C565.066 184.21 564.731 184.756 564.529 185.355C564.286 186.056 564.17 186.793 564.186 187.534C564.169 188.236 564.286 188.935 564.529 189.594C564.735 190.181 565.07 190.716 565.51 191.16C565.942 191.607 566.471 191.95 567.057 192.164C567.71 192.41 568.405 192.531 569.103 192.522C569.795 192.531 570.482 192.416 571.132 192.181C571.706 191.971 572.224 191.633 572.645 191.194C573.063 190.736 573.38 190.197 573.574 189.611C573.79 188.916 573.894 188.193 573.883 187.466C573.979 186.1 573.535 184.751 572.645 183.704C572.17 183.236 571.598 182.877 570.969 182.65C570.339 182.424 569.667 182.336 569 182.393H569.12Z" fill="#9AA5A2"/>
<path d="M587.226 182.921C586.753 182.644 586.21 182.508 585.661 182.529C585.249 182.521 584.839 182.596 584.458 182.75C584.118 182.904 583.809 183.118 583.546 183.38C583.281 183.655 583.055 183.964 582.876 184.3C582.692 184.642 582.542 185.001 582.429 185.372C582.324 185.741 582.244 186.116 582.188 186.496C582.164 186.858 582.164 187.222 582.188 187.585V193.628H580.469V181.44H582.188V184.044C582.335 183.619 582.543 183.218 582.807 182.853C583.032 182.51 583.317 182.21 583.65 181.967C583.966 181.725 584.32 181.535 584.698 181.406C585.088 181.283 585.493 181.22 585.902 181.218C586.148 181.2 586.395 181.2 586.641 181.218C586.846 181.242 587.048 181.288 587.243 181.355L587.226 182.921Z" fill="#9AA5A2"/>
<path d="M605.882 193.407C605.274 193.667 604.618 193.801 603.956 193.799C603.495 193.857 603.026 193.809 602.587 193.657C602.148 193.505 601.751 193.254 601.427 192.923C601.104 192.593 600.862 192.192 600.722 191.753C600.582 191.314 600.547 190.849 600.62 190.394V182.699H598.23V181.355H600.638V178.307L602.357 177.814V181.372H605.899V182.716H602.357V190.224C602.308 190.852 602.465 191.478 602.804 192.011C603.006 192.208 603.249 192.359 603.517 192.453C603.784 192.548 604.069 192.583 604.352 192.556C604.896 192.547 605.428 192.401 605.899 192.13L605.882 193.407Z" fill="#9AA5A2"/>
<path d="M610.92 178.307C610.605 178.313 610.299 178.204 610.06 178.001C609.943 177.907 609.85 177.787 609.787 177.651C609.724 177.515 609.694 177.367 609.699 177.218C609.697 177.071 609.728 176.927 609.791 176.794C609.853 176.661 609.945 176.544 610.06 176.452C610.299 176.249 610.605 176.14 610.92 176.145C611.084 176.147 611.247 176.176 611.401 176.231C611.684 176.326 611.922 176.52 612.072 176.775C612.14 176.913 612.176 177.064 612.175 177.218C612.176 177.366 612.14 177.512 612.072 177.643C612.012 177.779 611.924 177.901 611.814 178.001C611.696 178.097 611.562 178.172 611.418 178.222C611.26 178.286 611.09 178.315 610.92 178.307ZM610.077 193.628V181.44H611.797V193.628H610.077Z" fill="#9AA5A2"/>
<path d="M91.1589 161.575C116.97 150.99 129.227 121.693 118.536 96.1384C107.844 70.584 78.2533 58.4489 52.4423 69.0339C26.6312 79.6189 14.3742 108.916 25.0655 134.47C35.7568 160.024 65.3478 172.16 91.1589 161.575Z" stroke="#829E90" stroke-width="0.75" stroke-miterlimit="10" stroke-dasharray="2.01 2.01"/>
<path d="M193.583 134.457C204.274 108.902 192.017 79.6054 166.206 69.0204C140.395 58.4354 110.804 70.5706 100.113 96.125C89.4216 121.679 101.679 150.976 127.49 161.561C153.301 172.146 182.892 160.011 193.583 134.457Z" stroke="#829E90" stroke-width="0.75" stroke-miterlimit="10" stroke-dasharray="2.01 2.01"/>
<path d="M106.934 185.641C113.551 169.824 105.965 151.69 89.9886 145.139C74.0125 138.587 55.6966 146.098 49.0791 161.915C42.4615 177.733 50.0482 195.866 66.0244 202.418C82.0005 208.97 100.316 201.459 106.934 185.641Z" stroke="#829E90" stroke-width="0.75" stroke-miterlimit="10" stroke-dasharray="1.97 1.97"/>
<path d="M171.895 176.025C173.122 158.948 160.134 144.119 142.885 142.904C125.636 141.688 110.658 154.547 109.431 171.625C108.203 188.702 121.191 203.531 138.44 204.746C155.689 205.961 170.667 193.103 171.895 176.025Z" stroke="#829E90" stroke-width="0.75" stroke-miterlimit="10" stroke-dasharray="1.97 1.97"/>
<path d="M109.327 160.637C111.986 160.637 114.142 158.503 114.142 155.871C114.142 153.238 111.986 151.104 109.327 151.104C106.668 151.104 104.513 153.238 104.513 155.871C104.513 158.503 106.668 160.637 109.327 160.637Z" stroke="#829E90" stroke-width="0.75" stroke-miterlimit="10" stroke-dasharray="2.2 2.2"/>
<path d="M631.776 95.2164H193.115V162.765H631.776V95.2164Z" stroke="#829E90" stroke-width="0.75" stroke-miterlimit="10" stroke-dasharray="2 2"/>
</g>
<defs>
<clipPath id="clip0_160_147">
<rect width="611" height="140" fill="white" transform="translate(21 65)"/>
</clipPath>
</defs>
</svg>
