<svg width="650" height="280" viewBox="0 0 650 280" fill="none" xmlns="http://www.w3.org/2000/svg">
<rect width="650" height="280" fill="#487061"/>
<rect x="255" width="99" height="280" fill="#243831"/>
<rect x="354" width="98" height="280" fill="#36554A"/>
<rect x="452" width="99" height="280" fill="#6D887B"/>
<rect x="551" width="99" height="280" fill="#91A198"/>
<path d="M47.043 215.922V221H44.7285V206.996H48.9766C50.5846 206.996 51.8314 207.37 52.7168 208.119C53.6022 208.868 54.0449 209.923 54.0449 211.283C54.0449 212.644 53.5827 213.757 52.6582 214.623C51.7337 215.489 50.4837 215.922 48.9082 215.922H47.043ZM47.043 208.91V214.027H48.5469C49.543 214.027 50.3014 213.796 50.8223 213.334C51.3431 212.872 51.6035 212.221 51.6035 211.381C51.6035 209.734 50.6465 208.91 48.7324 208.91H47.043ZM61.9746 213.158C61.7012 212.943 61.3073 212.836 60.793 212.836C60.1224 212.836 59.5625 213.139 59.1133 213.744C58.6641 214.35 58.4395 215.173 58.4395 216.215V221H56.1738V211H58.4395V213.061H58.4785C58.6999 212.357 59.0384 211.811 59.4941 211.42C59.9564 211.023 60.4707 210.824 61.0371 210.824C61.4473 210.824 61.7598 210.886 61.9746 211.01V213.158ZM64.7188 208.9C64.3477 208.9 64.0286 208.78 63.7617 208.539C63.5013 208.298 63.3711 207.992 63.3711 207.621C63.3711 207.25 63.5013 206.941 63.7617 206.693C64.0286 206.446 64.3477 206.322 64.7188 206.322C65.1029 206.322 65.4284 206.446 65.6953 206.693C65.9622 206.941 66.0957 207.25 66.0957 207.621C66.0957 207.973 65.9622 208.275 65.6953 208.529C65.4284 208.777 65.1029 208.9 64.7188 208.9ZM65.8418 221H63.5762V211H65.8418V221ZM83.7617 221H81.4961V215.551C81.4961 214.503 81.3464 213.744 81.0469 213.275C80.7539 212.807 80.2559 212.572 79.5527 212.572C78.9603 212.572 78.4557 212.868 78.0391 213.461C77.6289 214.053 77.4238 214.763 77.4238 215.59V221H75.1484V215.365C75.1484 213.503 74.4909 212.572 73.1758 212.572C72.5638 212.572 72.0592 212.852 71.6621 213.412C71.2715 213.972 71.0762 214.698 71.0762 215.59V221H68.8105V211H71.0762V212.582H71.1152C71.8379 211.371 72.8893 210.766 74.2695 210.766C74.9596 210.766 75.5618 210.958 76.0762 211.342C76.597 211.719 76.9518 212.217 77.1406 212.836C77.8828 211.456 78.9896 210.766 80.4609 210.766C82.6615 210.766 83.7617 212.123 83.7617 214.838V221ZM94.2012 221H92.0039V219.438H91.9648C91.2747 220.635 90.2624 221.234 88.9277 221.234C87.9447 221.234 87.1732 220.967 86.6133 220.434C86.0599 219.9 85.7832 219.193 85.7832 218.314C85.7832 216.426 86.8704 215.326 89.0449 215.014L92.0137 214.594C92.0137 213.168 91.3366 212.455 89.9824 212.455C88.791 212.455 87.7168 212.865 86.7598 213.686V211.703C87.8145 211.078 89.0319 210.766 90.4121 210.766C92.9382 210.766 94.2012 212.009 94.2012 214.496V221ZM92.0137 216.088L89.9141 216.381C89.263 216.465 88.7715 216.625 88.4395 216.859C88.1139 217.087 87.9512 217.491 87.9512 218.07C87.9512 218.493 88.1009 218.842 88.4004 219.115C88.7064 219.382 89.1133 219.516 89.6211 219.516C90.3112 219.516 90.8809 219.275 91.3301 218.793C91.7858 218.305 92.0137 217.693 92.0137 216.957V216.088ZM102.775 213.158C102.502 212.943 102.108 212.836 101.594 212.836C100.923 212.836 100.363 213.139 99.9141 213.744C99.4648 214.35 99.2402 215.173 99.2402 216.215V221H96.9746V211H99.2402V213.061H99.2793C99.5007 212.357 99.8392 211.811 100.295 211.42C100.757 211.023 101.271 210.824 101.838 210.824C102.248 210.824 102.561 210.886 102.775 211.01V213.158ZM113.84 211L109.328 222.602C108.391 224.672 107.076 225.707 105.383 225.707C104.908 225.707 104.51 225.665 104.191 225.58V223.695C104.549 223.812 104.875 223.871 105.168 223.871C106.014 223.871 106.646 223.454 107.062 222.621L107.736 220.98L103.762 211H106.271L108.654 218.266C108.68 218.357 108.739 218.598 108.83 218.988H108.879C108.911 218.839 108.97 218.604 109.055 218.285L111.555 211H113.84ZM54.4258 237.756L54.123 239.123H51.9062L51.3398 241.818H53.7617L53.4199 243.186H51.0566L50.2559 246.799H48.7031L49.4844 243.186H47.1211L46.3594 246.799H44.8066L45.5684 243.186H43.332L43.6055 241.818H45.8711L46.4082 239.123H44.0254L44.3086 237.756H46.6914L47.4727 233.996H49.0449L48.2734 237.756H50.6367L51.4375 233.996H52.9805L52.1992 237.756H54.4258ZM50.3633 239.123H47.9805L47.3945 241.818H49.7871L50.3633 239.123ZM63.8789 233.996V243.039H65.959V244.924H63.8789V248H61.6816V244.924H55.3438V243.02C55.9167 242.375 56.5026 241.678 57.1016 240.93C57.707 240.174 58.2865 239.406 58.8398 238.625C59.3997 237.837 59.9173 237.049 60.3926 236.262C60.8678 235.474 61.2682 234.719 61.5938 233.996H63.8789ZM61.6816 243.039V237.16C60.972 238.436 60.2689 239.549 59.5723 240.5C58.8822 241.451 58.2344 242.297 57.6289 243.039H61.6816ZM67.248 244.094C67.248 243.69 67.2969 243.299 67.3945 242.922C67.4987 242.544 67.6517 242.196 67.8535 241.877C68.0553 241.558 68.3092 241.271 68.6152 241.018C68.9212 240.764 69.2793 240.559 69.6895 240.402C69.084 240.064 68.6022 239.631 68.2441 239.104C67.8861 238.57 67.707 237.98 67.707 237.336C67.707 236.822 67.8112 236.346 68.0195 235.91C68.2344 235.474 68.5273 235.096 68.8984 234.777C69.276 234.458 69.7188 234.211 70.2266 234.035C70.7344 233.853 71.2878 233.762 71.8867 233.762C72.4922 233.762 73.0488 233.853 73.5566 234.035C74.071 234.217 74.5137 234.468 74.8848 234.787C75.2624 235.106 75.5553 235.484 75.7637 235.92C75.972 236.356 76.0762 236.828 76.0762 237.336C76.0762 237.98 75.8971 238.57 75.5391 239.104C75.181 239.631 74.7057 240.064 74.1133 240.402C74.5169 240.559 74.8717 240.764 75.1777 241.018C75.4902 241.265 75.7507 241.548 75.959 241.867C76.1673 242.186 76.3236 242.535 76.4277 242.912C76.5319 243.29 76.584 243.684 76.584 244.094C76.584 244.706 76.4701 245.266 76.2422 245.773C76.0143 246.281 75.6953 246.717 75.2852 247.082C74.875 247.44 74.3835 247.72 73.8105 247.922C73.2376 248.124 72.6061 248.225 71.916 248.225C71.2324 248.225 70.6042 248.124 70.0312 247.922C69.4648 247.72 68.9733 247.44 68.5566 247.082C68.1465 246.717 67.8242 246.281 67.5898 245.773C67.362 245.266 67.248 244.706 67.248 244.094ZM69.4551 243.898C69.4551 244.296 69.5137 244.654 69.6309 244.973C69.748 245.292 69.9141 245.562 70.1289 245.783C70.3438 246.005 70.6009 246.174 70.9004 246.291C71.2064 246.408 71.5449 246.467 71.916 246.467C72.2741 246.467 72.6029 246.408 72.9023 246.291C73.2018 246.167 73.459 245.995 73.6738 245.773C73.8952 245.546 74.0677 245.275 74.1914 244.963C74.3151 244.644 74.377 244.289 74.377 243.898C74.377 243.54 74.3184 243.205 74.2012 242.893C74.084 242.574 73.918 242.297 73.7031 242.062C73.4883 241.828 73.2279 241.643 72.9219 241.506C72.6224 241.369 72.2871 241.301 71.916 241.301C71.5645 241.301 71.2357 241.366 70.9297 241.496C70.6302 241.62 70.3698 241.799 70.1484 242.033C69.9336 242.261 69.7643 242.535 69.6406 242.854C69.5169 243.173 69.4551 243.521 69.4551 243.898ZM69.9336 237.57C69.9336 237.863 69.9857 238.137 70.0898 238.391C70.194 238.638 70.334 238.856 70.5098 239.045C70.6855 239.227 70.8906 239.37 71.125 239.475C71.3659 239.579 71.623 239.631 71.8965 239.631C72.1699 239.631 72.4238 239.579 72.6582 239.475C72.8991 239.364 73.1074 239.217 73.2832 239.035C73.4655 238.846 73.6087 238.628 73.7129 238.381C73.8171 238.127 73.8691 237.857 73.8691 237.57C73.8691 237.277 73.8171 237.004 73.7129 236.75C73.6152 236.496 73.4785 236.278 73.3027 236.096C73.127 235.913 72.9186 235.77 72.6777 235.666C72.4368 235.562 72.1764 235.51 71.8965 235.51C71.6035 235.51 71.3366 235.565 71.0957 235.676C70.8548 235.78 70.6465 235.926 70.4707 236.115C70.3014 236.304 70.168 236.525 70.0703 236.779C69.9792 237.027 69.9336 237.29 69.9336 237.57ZM87.5117 235.129C86.9258 236.203 86.3724 237.268 85.8516 238.322C85.3307 239.37 84.8587 240.425 84.4355 241.486C84.0124 242.548 83.6445 243.618 83.332 244.699C83.0195 245.773 82.7786 246.874 82.6094 248H80.2363C80.3926 246.997 80.6139 245.998 80.9004 245.002C81.1934 243.999 81.5352 243 81.9258 242.004C82.3164 241.001 82.7526 239.995 83.2344 238.986C83.7227 237.977 84.2402 236.958 84.7871 235.93H78.1562V233.996H87.5117V235.129ZM93.5957 248.234C92.1374 248.234 90.998 247.639 90.1777 246.447C89.3639 245.256 88.957 243.534 88.957 241.281C88.957 238.807 89.3835 236.936 90.2363 235.666C91.0892 234.396 92.3197 233.762 93.9277 233.762C97.0072 233.762 98.5469 236.154 98.5469 240.939C98.5469 243.309 98.1107 245.119 97.2383 246.369C96.3724 247.613 95.1582 248.234 93.5957 248.234ZM93.8203 235.568C92.1211 235.568 91.2715 237.44 91.2715 241.184C91.2715 244.686 92.1048 246.438 93.7715 246.438C95.4121 246.438 96.2324 244.657 96.2324 241.096C96.2324 237.411 95.4284 235.568 93.8203 235.568ZM109.709 243.498C109.709 244.201 109.592 244.842 109.357 245.422C109.13 246.001 108.811 246.503 108.4 246.926C107.99 247.342 107.502 247.668 106.936 247.902C106.376 248.13 105.767 248.244 105.109 248.244C104.406 248.244 103.758 248.107 103.166 247.834C102.58 247.561 102.072 247.154 101.643 246.613C101.219 246.073 100.891 245.402 100.656 244.602C100.422 243.794 100.305 242.86 100.305 241.799C100.305 240.503 100.458 239.354 100.764 238.352C101.076 237.349 101.503 236.509 102.043 235.832C102.583 235.155 103.218 234.641 103.947 234.289C104.676 233.938 105.464 233.762 106.311 233.762C106.838 233.762 107.316 233.798 107.746 233.869C108.182 233.941 108.531 234.038 108.791 234.162V236.203C108.459 236.034 108.104 235.891 107.727 235.773C107.349 235.656 106.916 235.598 106.428 235.598C105.881 235.598 105.376 235.708 104.914 235.93C104.452 236.151 104.051 236.477 103.713 236.906C103.381 237.329 103.117 237.857 102.922 238.488C102.733 239.113 102.635 239.836 102.629 240.656H102.688C102.987 240.194 103.391 239.829 103.898 239.562C104.413 239.296 105.015 239.162 105.705 239.162C106.317 239.162 106.867 239.263 107.355 239.465C107.85 239.66 108.27 239.947 108.615 240.324C108.967 240.695 109.237 241.151 109.426 241.691C109.615 242.225 109.709 242.827 109.709 243.498ZM107.424 243.684C107.424 243.28 107.375 242.912 107.277 242.58C107.186 242.248 107.043 241.965 106.848 241.73C106.659 241.49 106.418 241.304 106.125 241.174C105.839 241.044 105.5 240.979 105.109 240.979C104.719 240.979 104.374 241.05 104.074 241.193C103.781 241.33 103.534 241.512 103.332 241.74C103.13 241.968 102.977 242.229 102.873 242.521C102.775 242.814 102.727 243.114 102.727 243.42C102.727 243.752 102.772 244.094 102.863 244.445C102.961 244.79 103.107 245.106 103.303 245.393C103.498 245.679 103.745 245.917 104.045 246.105C104.351 246.288 104.712 246.379 105.129 246.379C105.5 246.379 105.829 246.311 106.115 246.174C106.402 246.037 106.639 245.848 106.828 245.607C107.023 245.367 107.17 245.083 107.268 244.758C107.372 244.426 107.424 244.068 107.424 243.684ZM116.486 233.684V248H114.221V236.457C113.811 236.75 113.368 237.001 112.893 237.209C112.424 237.411 111.887 237.59 111.281 237.746V235.812C111.659 235.689 112.023 235.559 112.375 235.422C112.727 235.285 113.072 235.132 113.41 234.963C113.755 234.794 114.1 234.605 114.445 234.396C114.797 234.188 115.158 233.951 115.529 233.684H116.486Z" fill="white"/>
</svg>
