<svg width="650" height="280" viewBox="0 0 650 280" fill="none" xmlns="http://www.w3.org/2000/svg">
<rect width="650" height="280" fill="#487061"/>
<path d="M452.168 195H433.052L423.604 168.267H382.295L373.213 195H354.17L393.501 89.9707H413.13L452.168 195ZM418.989 154.058L404.414 112.163C403.975 110.796 403.511 108.599 403.022 105.571H402.729C402.29 108.354 401.802 110.552 401.265 112.163L386.836 154.058H418.989ZM522.334 195H505.854V183.281H505.562C500.386 192.266 492.793 196.758 482.783 196.758C475.41 196.758 469.624 194.756 465.425 190.752C461.274 186.748 459.199 181.45 459.199 174.858C459.199 160.698 467.354 152.446 483.662 150.103L505.928 146.953C505.928 136.26 500.85 130.913 490.693 130.913C481.758 130.913 473.701 133.989 466.523 140.142V125.273C474.434 120.586 483.564 118.242 493.916 118.242C512.861 118.242 522.334 127.568 522.334 146.221V195ZM505.928 158.159L490.181 160.356C485.298 160.991 481.611 162.188 479.121 163.945C476.68 165.654 475.459 168.682 475.459 173.027C475.459 176.201 476.582 178.813 478.828 180.864C481.123 182.866 484.175 183.867 487.983 183.867C493.159 183.867 497.432 182.061 500.801 178.447C504.219 174.785 505.928 170.195 505.928 164.678V158.159Z" fill="#F6F6F6"/>
<path d="M123.117 177.48H119.074V190H117.434V177.48H113.4V175.996H123.117V177.48ZM125.93 177.461C125.643 177.461 125.399 177.363 125.197 177.168C124.995 176.973 124.895 176.725 124.895 176.426C124.895 176.126 124.995 175.879 125.197 175.684C125.399 175.482 125.643 175.381 125.93 175.381C126.223 175.381 126.47 175.482 126.672 175.684C126.88 175.879 126.984 176.126 126.984 176.426C126.984 176.712 126.88 176.956 126.672 177.158C126.47 177.36 126.223 177.461 125.93 177.461ZM126.711 190H125.109V180H126.711V190ZM131.594 188.555H131.555V194.6H129.953V180H131.555V181.758H131.594C132.382 180.43 133.534 179.766 135.051 179.766C136.34 179.766 137.346 180.215 138.068 181.113C138.791 182.005 139.152 183.203 139.152 184.707C139.152 186.38 138.745 187.721 137.932 188.73C137.118 189.733 136.005 190.234 134.592 190.234C133.296 190.234 132.297 189.674 131.594 188.555ZM131.555 184.521V185.918C131.555 186.745 131.822 187.448 132.355 188.027C132.896 188.6 133.579 188.887 134.406 188.887C135.376 188.887 136.135 188.516 136.682 187.773C137.235 187.031 137.512 185.999 137.512 184.678C137.512 183.564 137.255 182.692 136.74 182.061C136.226 181.429 135.529 181.113 134.65 181.113C133.719 181.113 132.971 181.439 132.404 182.09C131.838 182.734 131.555 183.545 131.555 184.521ZM145.891 190.234C144.413 190.234 143.231 189.769 142.346 188.838C141.467 187.9 141.027 186.66 141.027 185.117C141.027 183.438 141.486 182.126 142.404 181.182C143.322 180.238 144.562 179.766 146.125 179.766C147.616 179.766 148.778 180.225 149.611 181.143C150.451 182.061 150.871 183.333 150.871 184.961C150.871 186.556 150.419 187.835 149.514 188.799C148.615 189.756 147.408 190.234 145.891 190.234ZM146.008 181.113C144.979 181.113 144.165 181.465 143.566 182.168C142.967 182.865 142.668 183.828 142.668 185.059C142.668 186.243 142.971 187.178 143.576 187.861C144.182 188.545 144.992 188.887 146.008 188.887C147.043 188.887 147.837 188.551 148.391 187.881C148.951 187.21 149.23 186.257 149.23 185.02C149.23 183.77 148.951 182.806 148.391 182.129C147.837 181.452 147.043 181.113 146.008 181.113ZM161.965 189.199C161.965 192.871 160.207 194.707 156.691 194.707C155.454 194.707 154.374 194.473 153.449 194.004V192.402C154.576 193.027 155.65 193.34 156.672 193.34C159.133 193.34 160.363 192.031 160.363 189.414V188.32H160.324C159.562 189.596 158.417 190.234 156.887 190.234C155.643 190.234 154.641 189.792 153.879 188.906C153.124 188.014 152.746 186.82 152.746 185.322C152.746 183.623 153.153 182.272 153.967 181.27C154.787 180.267 155.907 179.766 157.326 179.766C158.674 179.766 159.673 180.306 160.324 181.387H160.363V180H161.965V189.199ZM160.363 185.479V184.004C160.363 183.21 160.093 182.529 159.553 181.963C159.019 181.396 158.352 181.113 157.551 181.113C156.561 181.113 155.786 181.475 155.227 182.197C154.667 182.913 154.387 183.919 154.387 185.215C154.387 186.328 154.654 187.22 155.188 187.891C155.728 188.555 156.441 188.887 157.326 188.887C158.225 188.887 158.954 188.568 159.514 187.93C160.08 187.292 160.363 186.475 160.363 185.479ZM170.422 181.621C170.142 181.406 169.738 181.299 169.211 181.299C168.527 181.299 167.954 181.621 167.492 182.266C167.036 182.91 166.809 183.789 166.809 184.902V190H165.207V180H166.809V182.061H166.848C167.076 181.357 167.424 180.811 167.893 180.42C168.361 180.023 168.885 179.824 169.465 179.824C169.882 179.824 170.201 179.87 170.422 179.961V181.621ZM179.318 190H177.717V188.438H177.678C176.981 189.635 175.956 190.234 174.602 190.234C173.605 190.234 172.824 189.971 172.258 189.443C171.698 188.916 171.418 188.216 171.418 187.344C171.418 185.475 172.518 184.388 174.719 184.082L177.717 183.662C177.717 181.963 177.03 181.113 175.656 181.113C174.452 181.113 173.365 181.523 172.395 182.344V180.703C173.378 180.078 174.51 179.766 175.793 179.766C178.143 179.766 179.318 181.009 179.318 183.496V190ZM177.717 184.941L175.305 185.273C174.562 185.378 174.003 185.563 173.625 185.83C173.247 186.09 173.059 186.556 173.059 187.227C173.059 187.715 173.231 188.115 173.576 188.428C173.928 188.734 174.393 188.887 174.973 188.887C175.767 188.887 176.421 188.61 176.936 188.057C177.456 187.497 177.717 186.79 177.717 185.938V184.941ZM187.277 176.602C186.965 176.426 186.61 176.338 186.213 176.338C185.093 176.338 184.533 177.044 184.533 178.457V180H186.877V181.367H184.533V190H182.941V181.367H181.232V180H182.941V178.379C182.941 177.331 183.244 176.504 183.85 175.898C184.455 175.286 185.21 174.98 186.115 174.98C186.604 174.98 186.991 175.039 187.277 175.156V176.602ZM190.207 190H188.605V180H190.207V190ZM191.643 174.902L189.084 178.105H187.844L190.021 174.902H191.643ZM200.607 190H199.006V188.438H198.967C198.27 189.635 197.245 190.234 195.891 190.234C194.895 190.234 194.113 189.971 193.547 189.443C192.987 188.916 192.707 188.216 192.707 187.344C192.707 185.475 193.807 184.388 196.008 184.082L199.006 183.662C199.006 181.963 198.319 181.113 196.945 181.113C195.741 181.113 194.654 181.523 193.684 182.344V180.703C194.667 180.078 195.799 179.766 197.082 179.766C199.432 179.766 200.607 181.009 200.607 183.496V190ZM199.006 184.941L196.594 185.273C195.852 185.378 195.292 185.563 194.914 185.83C194.536 186.09 194.348 186.556 194.348 187.227C194.348 187.715 194.52 188.115 194.865 188.428C195.217 188.734 195.682 188.887 196.262 188.887C197.056 188.887 197.71 188.61 198.225 188.057C198.745 187.497 199.006 186.79 199.006 185.938V184.941ZM210.754 188.555H210.715V194.6H209.113V180H210.715V181.758H210.754C211.542 180.43 212.694 179.766 214.211 179.766C215.5 179.766 216.506 180.215 217.229 181.113C217.951 182.005 218.312 183.203 218.312 184.707C218.312 186.38 217.906 187.721 217.092 188.73C216.278 189.733 215.165 190.234 213.752 190.234C212.456 190.234 211.457 189.674 210.754 188.555ZM210.715 184.521V185.918C210.715 186.745 210.982 187.448 211.516 188.027C212.056 188.6 212.74 188.887 213.566 188.887C214.536 188.887 215.295 188.516 215.842 187.773C216.395 187.031 216.672 185.999 216.672 184.678C216.672 183.564 216.415 182.692 215.9 182.061C215.386 181.429 214.689 181.113 213.811 181.113C212.88 181.113 212.131 181.439 211.564 182.09C210.998 182.734 210.715 183.545 210.715 184.521ZM226.086 181.621C225.806 181.406 225.402 181.299 224.875 181.299C224.191 181.299 223.618 181.621 223.156 182.266C222.701 182.91 222.473 183.789 222.473 184.902V190H220.871V180H222.473V182.061H222.512C222.74 181.357 223.088 180.811 223.557 180.42C224.025 180.023 224.549 179.824 225.129 179.824C225.546 179.824 225.865 179.87 226.086 179.961V181.621ZM228.645 177.461C228.358 177.461 228.114 177.363 227.912 177.168C227.71 176.973 227.609 176.725 227.609 176.426C227.609 176.126 227.71 175.879 227.912 175.684C228.114 175.482 228.358 175.381 228.645 175.381C228.938 175.381 229.185 175.482 229.387 175.684C229.595 175.879 229.699 176.126 229.699 176.426C229.699 176.712 229.595 176.956 229.387 177.158C229.185 177.36 228.938 177.461 228.645 177.461ZM229.426 190H227.824V180H229.426V190ZM240.969 190H239.367V184.297C239.367 182.174 238.592 181.113 237.043 181.113C236.242 181.113 235.578 181.416 235.051 182.021C234.53 182.62 234.27 183.379 234.27 184.297V190H232.668V180H234.27V181.66H234.309C235.064 180.397 236.158 179.766 237.59 179.766C238.684 179.766 239.52 180.12 240.1 180.83C240.679 181.533 240.969 182.552 240.969 183.887V190ZM250.812 189.541C250.044 190.003 249.133 190.234 248.078 190.234C246.652 190.234 245.5 189.772 244.621 188.848C243.749 187.917 243.312 186.712 243.312 185.234C243.312 183.587 243.785 182.266 244.729 181.27C245.673 180.267 246.932 179.766 248.508 179.766C249.387 179.766 250.161 179.928 250.832 180.254V181.895C250.09 181.374 249.296 181.113 248.449 181.113C247.427 181.113 246.587 181.481 245.93 182.217C245.279 182.946 244.953 183.906 244.953 185.098C244.953 186.27 245.259 187.194 245.871 187.871C246.49 188.548 247.316 188.887 248.352 188.887C249.224 188.887 250.044 188.597 250.812 188.018V189.541ZM254.055 177.461C253.768 177.461 253.524 177.363 253.322 177.168C253.12 176.973 253.02 176.725 253.02 176.426C253.02 176.126 253.12 175.879 253.322 175.684C253.524 175.482 253.768 175.381 254.055 175.381C254.348 175.381 254.595 175.482 254.797 175.684C255.005 175.879 255.109 176.126 255.109 176.426C255.109 176.712 255.005 176.956 254.797 177.158C254.595 177.36 254.348 177.461 254.055 177.461ZM254.836 190H253.234V180H254.836V190ZM259.719 188.555H259.68V194.6H258.078V180H259.68V181.758H259.719C260.507 180.43 261.659 179.766 263.176 179.766C264.465 179.766 265.471 180.215 266.193 181.113C266.916 182.005 267.277 183.203 267.277 184.707C267.277 186.38 266.87 187.721 266.057 188.73C265.243 189.733 264.13 190.234 262.717 190.234C261.421 190.234 260.422 189.674 259.719 188.555ZM259.68 184.521V185.918C259.68 186.745 259.947 187.448 260.48 188.027C261.021 188.6 261.704 188.887 262.531 188.887C263.501 188.887 264.26 188.516 264.807 187.773C265.36 187.031 265.637 185.999 265.637 184.678C265.637 183.564 265.38 182.692 264.865 182.061C264.351 181.429 263.654 181.113 262.775 181.113C261.844 181.113 261.096 181.439 260.529 182.09C259.963 182.734 259.68 183.545 259.68 184.521ZM276.994 190H275.393V188.438H275.354C274.657 189.635 273.632 190.234 272.277 190.234C271.281 190.234 270.5 189.971 269.934 189.443C269.374 188.916 269.094 188.216 269.094 187.344C269.094 185.475 270.194 184.388 272.395 184.082L275.393 183.662C275.393 181.963 274.706 181.113 273.332 181.113C272.128 181.113 271.04 181.523 270.07 182.344V180.703C271.053 180.078 272.186 179.766 273.469 179.766C275.819 179.766 276.994 181.009 276.994 183.496V190ZM275.393 184.941L272.98 185.273C272.238 185.378 271.678 185.563 271.301 185.83C270.923 186.09 270.734 186.556 270.734 187.227C270.734 187.715 270.907 188.115 271.252 188.428C271.604 188.734 272.069 188.887 272.648 188.887C273.443 188.887 274.097 188.61 274.611 188.057C275.132 187.497 275.393 186.79 275.393 185.938V184.941ZM281.613 190H280.012V175.195H281.613V190Z" fill="#F6F6F6"/>
<path d="M114.723 158.033V152.408C115.742 153.264 116.85 153.908 118.045 154.342C119.24 154.764 120.447 154.975 121.666 154.975C122.381 154.975 123.002 154.91 123.529 154.781C124.068 154.652 124.514 154.477 124.865 154.254C125.229 154.02 125.498 153.75 125.674 153.445C125.85 153.129 125.938 152.789 125.938 152.426C125.938 151.934 125.797 151.494 125.516 151.107C125.234 150.721 124.848 150.363 124.355 150.035C123.875 149.707 123.301 149.391 122.633 149.086C121.965 148.781 121.244 148.471 120.471 148.154C118.502 147.334 117.031 146.332 116.059 145.148C115.098 143.965 114.617 142.535 114.617 140.859C114.617 139.547 114.881 138.422 115.408 137.484C115.936 136.535 116.65 135.756 117.553 135.146C118.467 134.537 119.521 134.092 120.717 133.811C121.912 133.518 123.178 133.371 124.514 133.371C125.826 133.371 126.986 133.453 127.994 133.617C129.014 133.77 129.951 134.01 130.807 134.338V139.594C130.385 139.301 129.922 139.043 129.418 138.82C128.926 138.598 128.416 138.416 127.889 138.275C127.361 138.123 126.834 138.012 126.307 137.941C125.791 137.871 125.299 137.836 124.83 137.836C124.186 137.836 123.6 137.9 123.072 138.029C122.545 138.146 122.1 138.316 121.736 138.539C121.373 138.762 121.092 139.031 120.893 139.348C120.693 139.652 120.594 139.998 120.594 140.385C120.594 140.807 120.705 141.188 120.928 141.527C121.15 141.855 121.467 142.172 121.877 142.477C122.287 142.77 122.785 143.062 123.371 143.355C123.957 143.637 124.619 143.93 125.357 144.234C126.365 144.656 127.268 145.107 128.064 145.588C128.873 146.057 129.564 146.59 130.139 147.188C130.713 147.785 131.152 148.471 131.457 149.244C131.762 150.006 131.914 150.896 131.914 151.916C131.914 153.322 131.645 154.506 131.105 155.467C130.578 156.416 129.857 157.189 128.943 157.787C128.029 158.373 126.963 158.795 125.744 159.053C124.537 159.311 123.26 159.439 121.912 159.439C120.529 159.439 119.211 159.322 117.957 159.088C116.715 158.854 115.637 158.502 114.723 158.033ZM151.689 151.582H139.947C140.135 154.195 141.781 155.502 144.887 155.502C146.867 155.502 148.607 155.033 150.107 154.096V158.104C148.443 158.994 146.281 159.439 143.621 159.439C140.715 159.439 138.459 158.637 136.854 157.031C135.248 155.414 134.445 153.164 134.445 150.281C134.445 147.293 135.312 144.926 137.047 143.18C138.781 141.434 140.914 140.561 143.445 140.561C146.07 140.561 148.098 141.34 149.527 142.898C150.969 144.457 151.689 146.572 151.689 149.244V151.582ZM146.539 148.172C146.539 145.594 145.496 144.305 143.41 144.305C142.52 144.305 141.746 144.674 141.09 145.412C140.445 146.15 140.053 147.07 139.912 148.172H146.539ZM172.643 156.943C172.643 160.283 171.676 162.867 169.742 164.695C167.809 166.535 165.008 167.455 161.34 167.455C158.914 167.455 156.992 167.109 155.574 166.418V161.742C157.426 162.82 159.295 163.359 161.182 163.359C163.057 163.359 164.51 162.861 165.541 161.865C166.572 160.881 167.088 159.539 167.088 157.84V156.416H167.018C165.752 158.432 163.883 159.439 161.41 159.439C159.113 159.439 157.291 158.631 155.943 157.014C154.596 155.396 153.922 153.229 153.922 150.51C153.922 147.463 154.672 145.043 156.172 143.25C157.672 141.457 159.646 140.561 162.096 140.561C164.287 140.561 165.928 141.404 167.018 143.092H167.088V141H172.643V156.943ZM167.158 150.352V148.928C167.158 147.791 166.818 146.824 166.139 146.027C165.471 145.219 164.598 144.814 163.52 144.814C162.289 144.814 161.322 145.295 160.619 146.256C159.916 147.217 159.564 148.57 159.564 150.316C159.564 151.816 159.898 153.006 160.566 153.885C161.234 154.752 162.148 155.186 163.309 155.186C164.457 155.186 165.383 154.746 166.086 153.867C166.801 152.977 167.158 151.805 167.158 150.352ZM185.861 159.439C182.861 159.439 180.5 158.602 178.777 156.926C177.066 155.238 176.211 152.953 176.211 150.07C176.211 147.094 177.102 144.768 178.883 143.092C180.664 141.404 183.072 140.561 186.107 140.561C189.096 140.561 191.439 141.404 193.139 143.092C194.838 144.768 195.688 146.988 195.688 149.754C195.688 152.742 194.809 155.104 193.051 156.838C191.305 158.572 188.908 159.439 185.861 159.439ZM186.002 144.814C184.689 144.814 183.67 145.266 182.943 146.168C182.217 147.07 181.854 148.348 181.854 150C181.854 153.457 183.248 155.186 186.037 155.186C188.697 155.186 190.027 153.41 190.027 149.859C190.027 146.496 188.686 144.814 186.002 144.814ZM215.463 151.582H203.721C203.908 154.195 205.555 155.502 208.66 155.502C210.641 155.502 212.381 155.033 213.881 154.096V158.104C212.217 158.994 210.055 159.439 207.395 159.439C204.488 159.439 202.232 158.637 200.627 157.031C199.021 155.414 198.219 153.164 198.219 150.281C198.219 147.293 199.086 144.926 200.82 143.18C202.555 141.434 204.688 140.561 207.219 140.561C209.844 140.561 211.871 141.34 213.301 142.898C214.742 144.457 215.463 146.572 215.463 149.244V151.582ZM210.312 148.172C210.312 145.594 209.27 144.305 207.184 144.305C206.293 144.305 205.52 144.674 204.863 145.412C204.219 146.15 203.826 147.07 203.686 148.172H210.312ZM249.811 148.084C249.811 155.654 246.283 159.439 239.229 159.439C232.385 159.439 228.963 155.742 228.963 148.348V133.793H234.658V148.418C234.658 152.496 236.252 154.535 239.439 154.535C242.568 154.535 244.133 152.566 244.133 148.629V133.793H249.811V148.084ZM260.99 159H255.312V133.793H260.99V159Z" fill="#F6F6F6"/>
</svg>
