<svg width="650" height="280" viewBox="0 0 650 280" fill="none" xmlns="http://www.w3.org/2000/svg">
<rect width="650" height="280" fill="#BAC4BD"/>
<rect x="255" width="99" height="280" fill="#C9D0CA"/>
<rect x="354" width="98" height="280" fill="#D6DCD7"/>
<rect x="452" width="99" height="280" fill="#E4E7E5"/>
<rect x="551" width="99" height="280" fill="#F1F3F2"/>
<path d="M39.084 220.443V218.051C39.2988 218.246 39.5527 218.422 39.8457 218.578C40.1452 218.734 40.4609 218.868 40.793 218.979C41.125 219.083 41.457 219.164 41.7891 219.223C42.1211 219.281 42.4271 219.311 42.707 219.311C43.6836 219.311 44.4095 219.148 44.8848 218.822C45.3665 218.497 45.6074 218.025 45.6074 217.406C45.6074 217.074 45.526 216.788 45.3633 216.547C45.207 216.299 44.9857 216.075 44.6992 215.873C44.4128 215.671 44.0742 215.479 43.6836 215.297C43.2995 215.108 42.8861 214.913 42.4434 214.711C41.9681 214.457 41.5254 214.2 41.1152 213.939C40.7051 213.679 40.347 213.393 40.041 213.08C39.7415 212.761 39.5039 212.403 39.3281 212.006C39.1589 211.609 39.0742 211.143 39.0742 210.609C39.0742 209.952 39.2207 209.382 39.5137 208.9C39.8132 208.412 40.2038 208.012 40.6855 207.699C41.1738 207.38 41.7272 207.146 42.3457 206.996C42.9642 206.84 43.5957 206.762 44.2402 206.762C45.7051 206.762 46.7728 206.928 47.4434 207.26V209.555C46.6491 208.982 45.627 208.695 44.377 208.695C44.0319 208.695 43.6868 208.728 43.3418 208.793C43.0033 208.858 42.6973 208.965 42.4238 209.115C42.1569 209.265 41.9388 209.457 41.7695 209.691C41.6003 209.926 41.5156 210.209 41.5156 210.541C41.5156 210.854 41.5807 211.124 41.7109 211.352C41.8411 211.579 42.0299 211.788 42.2773 211.977C42.5312 212.165 42.8372 212.351 43.1953 212.533C43.5599 212.709 43.9798 212.901 44.4551 213.109C44.9434 213.363 45.4023 213.63 45.832 213.91C46.2682 214.19 46.6491 214.499 46.9746 214.838C47.3066 215.176 47.5671 215.554 47.7559 215.971C47.9512 216.381 48.0488 216.85 48.0488 217.377C48.0488 218.087 47.9056 218.686 47.6191 219.174C47.3327 219.662 46.9453 220.059 46.457 220.365C45.9753 220.671 45.4186 220.893 44.7871 221.029C44.1556 221.166 43.4883 221.234 42.7852 221.234C42.5508 221.234 42.2611 221.215 41.916 221.176C41.5775 221.143 41.2292 221.091 40.8711 221.02C40.513 220.954 40.1745 220.873 39.8555 220.775C39.5365 220.678 39.2793 220.567 39.084 220.443ZM58.8398 216.615H52.0234C52.0495 217.54 52.3327 218.253 52.873 218.754C53.4199 219.255 54.1686 219.506 55.1191 219.506C56.1868 219.506 57.1667 219.187 58.0586 218.549V220.375C57.1471 220.948 55.9427 221.234 54.4453 221.234C52.974 221.234 51.8184 220.782 50.9785 219.877C50.1452 218.965 49.7285 217.686 49.7285 216.039C49.7285 214.483 50.1875 213.217 51.1055 212.24C52.0299 211.257 53.1758 210.766 54.543 210.766C55.9102 210.766 56.9681 211.205 57.7168 212.084C58.4655 212.963 58.8398 214.184 58.8398 215.746V216.615ZM56.6523 215.014C56.6458 214.2 56.4538 213.568 56.0762 213.119C55.6986 212.663 55.1777 212.436 54.5137 212.436C53.8626 212.436 53.3092 212.673 52.8535 213.148C52.4043 213.624 52.1276 214.245 52.0234 215.014H56.6523ZM68.1562 220.541C67.3555 221.003 66.4082 221.234 65.3145 221.234C63.8301 221.234 62.6322 220.772 61.7207 219.848C60.8092 218.917 60.3535 217.712 60.3535 216.234C60.3535 214.587 60.8418 213.266 61.8184 212.27C62.8014 211.267 64.1133 210.766 65.7539 210.766C66.6654 210.766 67.4694 210.925 68.166 211.244V213.354C67.4694 212.833 66.7272 212.572 65.9395 212.572C64.9824 212.572 64.1979 212.898 63.5859 213.549C62.974 214.193 62.668 215.04 62.668 216.088C62.668 217.123 62.9544 217.94 63.5273 218.539C64.1068 219.138 64.8815 219.438 65.8516 219.438C66.6654 219.438 67.4336 219.148 68.1562 218.568V220.541ZM74.8457 221.234C73.3027 221.234 72.069 220.769 71.1445 219.838C70.2266 218.9 69.7676 217.66 69.7676 216.117C69.7676 214.438 70.2461 213.126 71.2031 212.182C72.1667 211.238 73.4622 210.766 75.0898 210.766C76.6523 210.766 77.8698 211.225 78.7422 212.143C79.6146 213.061 80.0508 214.333 80.0508 215.961C80.0508 217.556 79.5788 218.835 78.6348 219.799C77.6973 220.756 76.4342 221.234 74.8457 221.234ZM74.9531 212.572C74.0677 212.572 73.3678 212.882 72.8535 213.5C72.3392 214.118 72.082 214.971 72.082 216.059C72.082 217.107 72.3424 217.934 72.8633 218.539C73.3841 219.138 74.0807 219.438 74.9531 219.438C75.8451 219.438 76.5286 219.141 77.0039 218.549C77.4857 217.956 77.7266 217.113 77.7266 216.02C77.7266 214.919 77.4857 214.07 77.0039 213.471C76.5286 212.872 75.8451 212.572 74.9531 212.572ZM91.2715 221H89.0059V215.365C89.0059 213.497 88.3451 212.562 87.0234 212.562C86.3333 212.562 85.7637 212.823 85.3145 213.344C84.8652 213.858 84.6406 214.509 84.6406 215.297V221H82.3652V211H84.6406V212.66H84.6797C85.4284 211.397 86.5091 210.766 87.9219 210.766C89.0091 210.766 89.8392 211.12 90.4121 211.83C90.985 212.533 91.2715 213.552 91.2715 214.887V221ZM103.137 221H100.871V219.301H100.832C100.103 220.59 98.9798 221.234 97.4629 221.234C96.2324 221.234 95.2461 220.788 94.5039 219.896C93.7682 218.998 93.4004 217.777 93.4004 216.234C93.4004 214.581 93.8073 213.256 94.6211 212.26C95.4414 211.264 96.5319 210.766 97.8926 210.766C99.2402 210.766 100.22 211.306 100.832 212.387H100.871V206.195H103.137V221ZM100.9 216.43V215.121C100.9 214.411 100.669 213.809 100.207 213.314C99.7448 212.82 99.1556 212.572 98.4395 212.572C97.5931 212.572 96.9258 212.888 96.4375 213.52C95.9557 214.151 95.7148 215.027 95.7148 216.146C95.7148 217.162 95.946 217.966 96.4082 218.559C96.877 219.145 97.5052 219.438 98.293 219.438C99.0677 219.438 99.696 219.154 100.178 218.588C100.66 218.015 100.9 217.296 100.9 216.43ZM113.771 221H111.574V219.438H111.535C110.845 220.635 109.833 221.234 108.498 221.234C107.515 221.234 106.743 220.967 106.184 220.434C105.63 219.9 105.354 219.193 105.354 218.314C105.354 216.426 106.441 215.326 108.615 215.014L111.584 214.594C111.584 213.168 110.907 212.455 109.553 212.455C108.361 212.455 107.287 212.865 106.33 213.686V211.703C107.385 211.078 108.602 210.766 109.982 210.766C112.508 210.766 113.771 212.009 113.771 214.496V221ZM111.584 216.088L109.484 216.381C108.833 216.465 108.342 216.625 108.01 216.859C107.684 217.087 107.521 217.491 107.521 218.07C107.521 218.493 107.671 218.842 107.971 219.115C108.277 219.382 108.684 219.516 109.191 219.516C109.882 219.516 110.451 219.275 110.9 218.793C111.356 218.305 111.584 217.693 111.584 216.957V216.088ZM122.346 213.158C122.072 212.943 121.678 212.836 121.164 212.836C120.493 212.836 119.934 213.139 119.484 213.744C119.035 214.35 118.811 215.173 118.811 216.215V221H116.545V211H118.811V213.061H118.85C119.071 212.357 119.41 211.811 119.865 211.42C120.327 211.023 120.842 210.824 121.408 210.824C121.818 210.824 122.131 210.886 122.346 211.01V213.158ZM133.41 211L128.898 222.602C127.961 224.672 126.646 225.707 124.953 225.707C124.478 225.707 124.081 225.665 123.762 225.58V223.695C124.12 223.812 124.445 223.871 124.738 223.871C125.585 223.871 126.216 223.454 126.633 222.621L127.307 220.98L123.332 211H125.842L128.225 218.266C128.251 218.357 128.309 218.598 128.4 218.988H128.449C128.482 218.839 128.54 218.604 128.625 218.285L131.125 211H133.41ZM49.4258 237.756L49.123 239.123H46.9062L46.3398 241.818H48.7617L48.4199 243.186H46.0566L45.2559 246.799H43.7031L44.4844 243.186H42.1211L41.3594 246.799H39.8066L40.5684 243.186H38.332L38.6055 241.818H40.8711L41.4082 239.123H39.0254L39.3086 237.756H41.6914L42.4727 233.996H44.0449L43.2734 237.756H45.6367L46.4375 233.996H47.9805L47.1992 237.756H49.4258ZM45.3633 239.123H42.9805L42.3945 241.818H44.7871L45.3633 239.123ZM51.5645 248V233.996H56.0078C57.362 233.996 58.4329 234.292 59.2207 234.885C60.015 235.477 60.4121 236.249 60.4121 237.199C60.4121 237.993 60.1875 238.684 59.7383 239.27C59.2891 239.855 58.6673 240.272 57.873 240.52V240.559C58.8366 240.669 59.6048 241.027 60.1777 241.633C60.7572 242.232 61.0469 243.013 61.0469 243.977C61.0469 245.174 60.5749 246.145 59.6309 246.887C58.6868 247.629 57.4954 248 56.0566 248H51.5645ZM53.8789 235.861V239.846H55.3828C56.1901 239.846 56.8216 239.657 57.2773 239.279C57.7396 238.895 57.9707 238.355 57.9707 237.658C57.9707 236.46 57.1699 235.861 55.5684 235.861H53.8789ZM53.8789 241.711V246.145H55.8613C56.7272 246.145 57.3945 245.946 57.8633 245.549C58.3385 245.145 58.5762 244.592 58.5762 243.889C58.5762 242.437 57.5703 241.711 55.5586 241.711H53.8789ZM75.1582 248H72.6094L71.3496 244.436H65.8418L64.6309 248H62.0918L67.3359 233.996H69.9531L75.1582 248ZM70.7344 242.541L68.791 236.955C68.7324 236.773 68.6706 236.48 68.6055 236.076H68.5664C68.5078 236.447 68.4427 236.74 68.3711 236.955L66.4473 242.541H70.7344ZM86.5645 247.414C85.5098 247.961 84.1979 248.234 82.6289 248.234C80.5977 248.234 78.9701 247.593 77.7461 246.311C76.5221 245.028 75.9102 243.345 75.9102 241.262C75.9102 239.022 76.597 237.212 77.9707 235.832C79.3509 234.452 81.0924 233.762 83.1953 233.762C84.5495 233.762 85.6725 233.954 86.5645 234.338V236.643C85.6204 236.083 84.5788 235.803 83.4395 235.803C81.9225 235.803 80.6921 236.288 79.748 237.258C78.8105 238.228 78.3418 239.523 78.3418 241.145C78.3418 242.688 78.7812 243.918 79.6602 244.836C80.5391 245.747 81.6947 246.203 83.127 246.203C84.4486 246.203 85.5944 245.891 86.5645 245.266V247.414ZM96.5352 233.996V243.039H98.6152V244.924H96.5352V248H94.3379V244.924H88V243.02C88.5729 242.375 89.1589 241.678 89.7578 240.93C90.3633 240.174 90.9427 239.406 91.4961 238.625C92.056 237.837 92.5736 237.049 93.0488 236.262C93.5241 235.474 93.9245 234.719 94.25 233.996H96.5352ZM94.3379 243.039V237.16C93.6283 238.436 92.9251 239.549 92.2285 240.5C91.5384 241.451 90.8906 242.297 90.2852 243.039H94.3379ZM100.744 248V233.996H105.188C106.542 233.996 107.613 234.292 108.4 234.885C109.195 235.477 109.592 236.249 109.592 237.199C109.592 237.993 109.367 238.684 108.918 239.27C108.469 239.855 107.847 240.272 107.053 240.52V240.559C108.016 240.669 108.785 241.027 109.357 241.633C109.937 242.232 110.227 243.013 110.227 243.977C110.227 245.174 109.755 246.145 108.811 246.887C107.867 247.629 106.675 248 105.236 248H100.744ZM103.059 235.861V239.846H104.562C105.37 239.846 106.001 239.657 106.457 239.279C106.919 238.895 107.15 238.355 107.15 237.658C107.15 236.46 106.35 235.861 104.748 235.861H103.059ZM103.059 241.711V246.145H105.041C105.907 246.145 106.574 245.946 107.043 245.549C107.518 245.145 107.756 244.592 107.756 243.889C107.756 242.437 106.75 241.711 104.738 241.711H103.059ZM112.834 248V233.996H116.877C122.04 233.996 124.621 236.271 124.621 240.822C124.621 242.984 123.905 244.722 122.473 246.037C121.04 247.346 119.12 248 116.711 248H112.834ZM115.148 235.969V246.037H117.004C118.638 246.037 119.908 245.588 120.812 244.689C121.724 243.791 122.18 242.521 122.18 240.881C122.18 237.606 120.484 235.969 117.092 235.969H115.148Z" fill="#36554A"/>
</svg>
