<svg width="650" height="280" viewBox="0 0 650 280" fill="none" xmlns="http://www.w3.org/2000/svg">
<rect width="650" height="280" fill="#487061"/>
<path d="M366.971 175.2H372.071C375.071 175.2 377.721 174.05 380.021 171.75C382.321 169.35 384.071 166.45 385.271 163.05L416.921 70.5H423.221L455.321 167.55C457.021 172.65 459.971 175.2 464.171 175.2H470.171V180H417.521V175.2H428.321C429.521 175.2 430.471 174.75 431.171 173.85C431.971 172.85 432.371 171.7 432.371 170.4C432.371 169.3 432.071 167.85 431.471 166.05L426.671 151.65H395.171L392.021 160.8C390.921 163.6 390.371 166.15 390.371 168.45C390.371 170.25 391.071 171.85 392.471 173.25C393.971 174.55 395.871 175.2 398.171 175.2H405.221V180H366.971V175.2ZM397.121 146.1H424.871L411.221 104.85L397.121 146.1ZM500.157 181.8C494.657 181.8 489.957 180.45 486.057 177.75C482.257 175.05 480.357 170.5 480.357 164.1C480.357 157.6 482.707 152.5 487.407 148.8C492.207 145 498.257 141.85 505.557 139.35L516.657 135.45V125.25C516.657 120.15 515.607 116.45 513.507 114.15C511.407 111.85 508.707 110.7 505.407 110.7C502.607 110.7 500.157 111.35 498.057 112.65C496.057 113.85 495.057 115.55 495.057 117.75C495.057 118.35 495.207 119.1 495.507 120C495.907 120.8 496.557 121.5 497.457 122.1C498.957 123 500.007 123.95 500.607 124.95C501.307 125.95 501.657 127.25 501.657 128.85C501.657 131.25 500.757 133.15 498.957 134.55C497.257 135.85 495.357 136.5 493.257 136.5C490.657 136.5 488.407 135.65 486.507 133.95C484.707 132.15 483.807 129.6 483.807 126.3C483.807 122.5 484.957 119.15 487.257 116.25C489.557 113.25 492.507 111 496.107 109.5C499.707 107.9 503.357 107.1 507.057 107.1C514.257 107.1 520.557 109.05 525.957 112.95C531.357 116.75 534.057 122.85 534.057 131.25V169.2C534.057 172.8 535.057 174.6 537.057 174.6C538.857 174.6 540.207 173.1 541.107 170.1C542.007 167.1 542.457 163.65 542.457 159.75H546.657C546.657 167.05 545.557 172.4 543.357 175.8C542.257 177.6 540.707 179.05 538.707 180.15C536.707 181.25 534.407 181.8 531.807 181.8C527.707 181.8 524.607 181.2 522.507 180C520.407 178.7 518.657 176.6 517.257 173.7H516.957C512.957 179.1 507.357 181.8 500.157 181.8ZM507.507 175.8C511.407 175.8 514.457 173.6 516.657 169.2V139.5L508.257 142.5C504.957 143.7 502.507 146 500.907 149.4C499.407 152.7 498.657 157.15 498.657 162.75C498.657 167.65 499.557 171.05 501.357 172.95C503.157 174.85 505.207 175.8 507.507 175.8Z" fill="#F6F6F6"/>
<path d="M104.117 167.48H100.074V180H98.4336V167.48H94.4004V165.996H104.117V167.48ZM106.93 167.461C106.643 167.461 106.399 167.363 106.197 167.168C105.995 166.973 105.895 166.725 105.895 166.426C105.895 166.126 105.995 165.879 106.197 165.684C106.399 165.482 106.643 165.381 106.93 165.381C107.223 165.381 107.47 165.482 107.672 165.684C107.88 165.879 107.984 166.126 107.984 166.426C107.984 166.712 107.88 166.956 107.672 167.158C107.47 167.36 107.223 167.461 106.93 167.461ZM107.711 180H106.109V170H107.711V180ZM112.594 178.555H112.555V184.6H110.953V170H112.555V171.758H112.594C113.382 170.43 114.534 169.766 116.051 169.766C117.34 169.766 118.346 170.215 119.068 171.113C119.791 172.005 120.152 173.203 120.152 174.707C120.152 176.38 119.745 177.721 118.932 178.73C118.118 179.733 117.005 180.234 115.592 180.234C114.296 180.234 113.297 179.674 112.594 178.555ZM112.555 174.521V175.918C112.555 176.745 112.822 177.448 113.355 178.027C113.896 178.6 114.579 178.887 115.406 178.887C116.376 178.887 117.135 178.516 117.682 177.773C118.235 177.031 118.512 175.999 118.512 174.678C118.512 173.564 118.255 172.692 117.74 172.061C117.226 171.429 116.529 171.113 115.65 171.113C114.719 171.113 113.971 171.439 113.404 172.09C112.838 172.734 112.555 173.545 112.555 174.521ZM126.891 180.234C125.413 180.234 124.231 179.769 123.346 178.838C122.467 177.9 122.027 176.66 122.027 175.117C122.027 173.438 122.486 172.126 123.404 171.182C124.322 170.238 125.562 169.766 127.125 169.766C128.616 169.766 129.778 170.225 130.611 171.143C131.451 172.061 131.871 173.333 131.871 174.961C131.871 176.556 131.419 177.835 130.514 178.799C129.615 179.756 128.408 180.234 126.891 180.234ZM127.008 171.113C125.979 171.113 125.165 171.465 124.566 172.168C123.967 172.865 123.668 173.828 123.668 175.059C123.668 176.243 123.971 177.178 124.576 177.861C125.182 178.545 125.992 178.887 127.008 178.887C128.043 178.887 128.837 178.551 129.391 177.881C129.951 177.21 130.23 176.257 130.23 175.02C130.23 173.77 129.951 172.806 129.391 172.129C128.837 171.452 128.043 171.113 127.008 171.113ZM142.965 179.199C142.965 182.871 141.207 184.707 137.691 184.707C136.454 184.707 135.374 184.473 134.449 184.004V182.402C135.576 183.027 136.65 183.34 137.672 183.34C140.133 183.34 141.363 182.031 141.363 179.414V178.32H141.324C140.562 179.596 139.417 180.234 137.887 180.234C136.643 180.234 135.641 179.792 134.879 178.906C134.124 178.014 133.746 176.82 133.746 175.322C133.746 173.623 134.153 172.272 134.967 171.27C135.787 170.267 136.907 169.766 138.326 169.766C139.674 169.766 140.673 170.306 141.324 171.387H141.363V170H142.965V179.199ZM141.363 175.479V174.004C141.363 173.21 141.093 172.529 140.553 171.963C140.019 171.396 139.352 171.113 138.551 171.113C137.561 171.113 136.786 171.475 136.227 172.197C135.667 172.913 135.387 173.919 135.387 175.215C135.387 176.328 135.654 177.22 136.188 177.891C136.728 178.555 137.441 178.887 138.326 178.887C139.225 178.887 139.954 178.568 140.514 177.93C141.08 177.292 141.363 176.475 141.363 175.479ZM151.422 171.621C151.142 171.406 150.738 171.299 150.211 171.299C149.527 171.299 148.954 171.621 148.492 172.266C148.036 172.91 147.809 173.789 147.809 174.902V180H146.207V170H147.809V172.061H147.848C148.076 171.357 148.424 170.811 148.893 170.42C149.361 170.023 149.885 169.824 150.465 169.824C150.882 169.824 151.201 169.87 151.422 169.961V171.621ZM160.318 180H158.717V178.438H158.678C157.981 179.635 156.956 180.234 155.602 180.234C154.605 180.234 153.824 179.971 153.258 179.443C152.698 178.916 152.418 178.216 152.418 177.344C152.418 175.475 153.518 174.388 155.719 174.082L158.717 173.662C158.717 171.963 158.03 171.113 156.656 171.113C155.452 171.113 154.365 171.523 153.395 172.344V170.703C154.378 170.078 155.51 169.766 156.793 169.766C159.143 169.766 160.318 171.009 160.318 173.496V180ZM158.717 174.941L156.305 175.273C155.562 175.378 155.003 175.563 154.625 175.83C154.247 176.09 154.059 176.556 154.059 177.227C154.059 177.715 154.231 178.115 154.576 178.428C154.928 178.734 155.393 178.887 155.973 178.887C156.767 178.887 157.421 178.61 157.936 178.057C158.456 177.497 158.717 176.79 158.717 175.938V174.941ZM168.277 166.602C167.965 166.426 167.61 166.338 167.213 166.338C166.093 166.338 165.533 167.044 165.533 168.457V170H167.877V171.367H165.533V180H163.941V171.367H162.232V170H163.941V168.379C163.941 167.331 164.244 166.504 164.85 165.898C165.455 165.286 166.21 164.98 167.115 164.98C167.604 164.98 167.991 165.039 168.277 165.156V166.602ZM171.207 180H169.605V170H171.207V180ZM172.643 164.902L170.084 168.105H168.844L171.021 164.902H172.643ZM181.607 180H180.006V178.438H179.967C179.27 179.635 178.245 180.234 176.891 180.234C175.895 180.234 175.113 179.971 174.547 179.443C173.987 178.916 173.707 178.216 173.707 177.344C173.707 175.475 174.807 174.388 177.008 174.082L180.006 173.662C180.006 171.963 179.319 171.113 177.945 171.113C176.741 171.113 175.654 171.523 174.684 172.344V170.703C175.667 170.078 176.799 169.766 178.082 169.766C180.432 169.766 181.607 171.009 181.607 173.496V180ZM180.006 174.941L177.594 175.273C176.852 175.378 176.292 175.563 175.914 175.83C175.536 176.09 175.348 176.556 175.348 177.227C175.348 177.715 175.52 178.115 175.865 178.428C176.217 178.734 176.682 178.887 177.262 178.887C178.056 178.887 178.71 178.61 179.225 178.057C179.745 177.497 180.006 176.79 180.006 175.938V174.941ZM189.508 179.639V177.92C190.38 178.564 191.34 178.887 192.389 178.887C193.795 178.887 194.498 178.418 194.498 177.48C194.498 177.214 194.436 176.989 194.312 176.807C194.195 176.618 194.033 176.452 193.824 176.309C193.622 176.165 193.382 176.038 193.102 175.928C192.828 175.811 192.532 175.69 192.213 175.566C191.77 175.391 191.38 175.215 191.041 175.039C190.709 174.857 190.429 174.655 190.201 174.434C189.98 174.206 189.811 173.949 189.693 173.662C189.583 173.376 189.527 173.04 189.527 172.656C189.527 172.188 189.635 171.774 189.85 171.416C190.064 171.051 190.351 170.749 190.709 170.508C191.067 170.26 191.474 170.075 191.93 169.951C192.392 169.827 192.867 169.766 193.355 169.766C194.221 169.766 194.996 169.915 195.68 170.215V171.836C194.944 171.354 194.098 171.113 193.141 171.113C192.841 171.113 192.571 171.149 192.33 171.221C192.089 171.286 191.881 171.38 191.705 171.504C191.536 171.628 191.402 171.777 191.305 171.953C191.214 172.122 191.168 172.311 191.168 172.52C191.168 172.78 191.214 172.998 191.305 173.174C191.402 173.35 191.542 173.506 191.725 173.643C191.907 173.779 192.128 173.903 192.389 174.014C192.649 174.124 192.945 174.245 193.277 174.375C193.72 174.544 194.117 174.72 194.469 174.902C194.82 175.078 195.12 175.28 195.367 175.508C195.615 175.729 195.803 175.986 195.934 176.279C196.07 176.572 196.139 176.921 196.139 177.324C196.139 177.819 196.028 178.249 195.807 178.613C195.592 178.978 195.302 179.281 194.938 179.521C194.573 179.762 194.153 179.941 193.678 180.059C193.202 180.176 192.704 180.234 192.184 180.234C191.155 180.234 190.263 180.036 189.508 179.639ZM206.646 175.4H199.586C199.612 176.514 199.911 177.373 200.484 177.979C201.057 178.584 201.845 178.887 202.848 178.887C203.974 178.887 205.009 178.516 205.953 177.773V179.277C205.074 179.915 203.912 180.234 202.467 180.234C201.054 180.234 199.944 179.782 199.137 178.877C198.329 177.965 197.926 176.686 197.926 175.039C197.926 173.483 198.365 172.217 199.244 171.24C200.13 170.257 201.227 169.766 202.535 169.766C203.844 169.766 204.856 170.189 205.572 171.035C206.288 171.882 206.646 173.057 206.646 174.561V175.4ZM205.006 174.043C204.999 173.118 204.775 172.399 204.332 171.885C203.896 171.37 203.287 171.113 202.506 171.113C201.751 171.113 201.109 171.383 200.582 171.924C200.055 172.464 199.729 173.171 199.605 174.043H205.006ZM215.895 179.541C215.126 180.003 214.215 180.234 213.16 180.234C211.734 180.234 210.582 179.772 209.703 178.848C208.831 177.917 208.395 176.712 208.395 175.234C208.395 173.587 208.867 172.266 209.811 171.27C210.755 170.267 212.014 169.766 213.59 169.766C214.469 169.766 215.243 169.928 215.914 170.254V171.895C215.172 171.374 214.378 171.113 213.531 171.113C212.509 171.113 211.669 171.481 211.012 172.217C210.361 172.946 210.035 173.906 210.035 175.098C210.035 176.27 210.341 177.194 210.953 177.871C211.572 178.548 212.398 178.887 213.434 178.887C214.306 178.887 215.126 178.597 215.895 178.018V179.541ZM226.402 180H224.801V178.418H224.762C224.098 179.629 223.069 180.234 221.676 180.234C219.293 180.234 218.102 178.815 218.102 175.977V170H219.693V175.723C219.693 177.832 220.501 178.887 222.115 178.887C222.896 178.887 223.538 178.6 224.039 178.027C224.547 177.448 224.801 176.693 224.801 175.762V170H226.402V180ZM237.945 180H236.344V174.297C236.344 172.174 235.569 171.113 234.02 171.113C233.219 171.113 232.555 171.416 232.027 172.021C231.507 172.62 231.246 173.379 231.246 174.297V180H229.645V170H231.246V171.66H231.285C232.04 170.397 233.134 169.766 234.566 169.766C235.66 169.766 236.497 170.12 237.076 170.83C237.656 171.533 237.945 172.552 237.945 173.887V180ZM249.508 180H247.906V178.301H247.867C247.125 179.59 245.979 180.234 244.43 180.234C243.173 180.234 242.167 179.788 241.412 178.896C240.663 177.998 240.289 176.777 240.289 175.234C240.289 173.581 240.706 172.256 241.539 171.26C242.372 170.264 243.482 169.766 244.869 169.766C246.243 169.766 247.242 170.306 247.867 171.387H247.906V165.195H249.508V180ZM247.906 175.479V174.004C247.906 173.197 247.639 172.513 247.105 171.953C246.572 171.393 245.895 171.113 245.074 171.113C244.098 171.113 243.329 171.471 242.77 172.188C242.21 172.904 241.93 173.893 241.93 175.156C241.93 176.309 242.197 177.22 242.73 177.891C243.271 178.555 243.993 178.887 244.898 178.887C245.79 178.887 246.513 178.564 247.066 177.92C247.626 177.275 247.906 176.462 247.906 175.479ZM259.908 180H258.307V178.438H258.268C257.571 179.635 256.546 180.234 255.191 180.234C254.195 180.234 253.414 179.971 252.848 179.443C252.288 178.916 252.008 178.216 252.008 177.344C252.008 175.475 253.108 174.388 255.309 174.082L258.307 173.662C258.307 171.963 257.62 171.113 256.246 171.113C255.042 171.113 253.954 171.523 252.984 172.344V170.703C253.967 170.078 255.1 169.766 256.383 169.766C258.733 169.766 259.908 171.009 259.908 173.496V180ZM258.307 174.941L255.895 175.273C255.152 175.378 254.592 175.563 254.215 175.83C253.837 176.09 253.648 176.556 253.648 177.227C253.648 177.715 253.821 178.115 254.166 178.428C254.518 178.734 254.983 178.887 255.562 178.887C256.357 178.887 257.011 178.61 257.525 178.057C258.046 177.497 258.307 176.79 258.307 175.938V174.941ZM268.141 171.621C267.861 171.406 267.457 171.299 266.93 171.299C266.246 171.299 265.673 171.621 265.211 172.266C264.755 172.91 264.527 173.789 264.527 174.902V180H262.926V170H264.527V172.061H264.566C264.794 171.357 265.143 170.811 265.611 170.42C266.08 170.023 266.604 169.824 267.184 169.824C267.6 169.824 267.919 169.87 268.141 169.961V171.621ZM270.699 167.461C270.413 167.461 270.169 167.363 269.967 167.168C269.765 166.973 269.664 166.725 269.664 166.426C269.664 166.126 269.765 165.879 269.967 165.684C270.169 165.482 270.413 165.381 270.699 165.381C270.992 165.381 271.24 165.482 271.441 165.684C271.65 165.879 271.754 166.126 271.754 166.426C271.754 166.712 271.65 166.956 271.441 167.158C271.24 167.36 270.992 167.461 270.699 167.461ZM271.48 180H269.879V170H271.48V180ZM281.881 180H280.279V178.438H280.24C279.544 179.635 278.518 180.234 277.164 180.234C276.168 180.234 275.387 179.971 274.82 179.443C274.26 178.916 273.98 178.216 273.98 177.344C273.98 175.475 275.081 174.388 277.281 174.082L280.279 173.662C280.279 171.963 279.592 171.113 278.219 171.113C277.014 171.113 275.927 171.523 274.957 172.344V170.703C275.94 170.078 277.073 169.766 278.355 169.766C280.706 169.766 281.881 171.009 281.881 173.496V180ZM280.279 174.941L277.867 175.273C277.125 175.378 276.565 175.563 276.188 175.83C275.81 176.09 275.621 176.556 275.621 177.227C275.621 177.715 275.794 178.115 276.139 178.428C276.49 178.734 276.956 178.887 277.535 178.887C278.329 178.887 278.984 178.61 279.498 178.057C280.019 177.497 280.279 176.79 280.279 175.938V174.941Z" fill="#F6F6F6"/>
<path d="M106.031 150.391C102.823 150.391 100.208 149.349 98.1875 147.266C96.1667 145.172 95.1562 142.448 95.1562 139.094C95.1562 135.552 96.1823 132.688 98.2344 130.5C100.286 128.312 103.005 127.219 106.391 127.219C109.589 127.219 112.172 128.266 114.141 130.359C116.12 132.453 117.109 135.214 117.109 138.641C117.109 142.161 116.083 145 114.031 147.156C111.99 149.312 109.323 150.391 106.031 150.391ZM106.25 131.562C104.479 131.562 103.073 132.229 102.031 133.562C100.99 134.885 100.469 136.641 100.469 138.828C100.469 141.047 100.99 142.802 102.031 144.094C103.073 145.385 104.438 146.031 106.125 146.031C107.865 146.031 109.245 145.406 110.266 144.156C111.286 142.896 111.797 141.151 111.797 138.922C111.797 136.599 111.302 134.792 110.312 133.5C109.323 132.208 107.969 131.562 106.25 131.562ZM125.297 150H120.359V126.312H125.297V150ZM145.109 150H140.172V147.797H140.109C138.984 149.526 137.333 150.391 135.156 150.391C133.156 150.391 131.547 149.688 130.328 148.281C129.109 146.865 128.5 144.891 128.5 142.359C128.5 139.714 129.172 137.594 130.516 136C131.859 134.406 133.62 133.609 135.797 133.609C137.859 133.609 139.297 134.349 140.109 135.828H140.172V126.312H145.109V150ZM140.266 142.219V141.016C140.266 139.974 139.964 139.109 139.359 138.422C138.755 137.734 137.969 137.391 137 137.391C135.906 137.391 135.052 137.823 134.438 138.688C133.823 139.542 133.516 140.719 133.516 142.219C133.516 143.625 133.812 144.708 134.406 145.469C135 146.229 135.823 146.609 136.875 146.609C137.875 146.609 138.688 146.208 139.312 145.406C139.948 144.604 140.266 143.542 140.266 142.219ZM157.562 149.141V144.141C158.469 144.901 159.453 145.474 160.516 145.859C161.578 146.234 162.651 146.422 163.734 146.422C164.37 146.422 164.922 146.365 165.391 146.25C165.87 146.135 166.266 145.979 166.578 145.781C166.901 145.573 167.141 145.333 167.297 145.062C167.453 144.781 167.531 144.479 167.531 144.156C167.531 143.719 167.406 143.328 167.156 142.984C166.906 142.641 166.562 142.323 166.125 142.031C165.698 141.74 165.188 141.458 164.594 141.188C164 140.917 163.359 140.641 162.672 140.359C160.922 139.63 159.615 138.74 158.75 137.688C157.896 136.635 157.469 135.365 157.469 133.875C157.469 132.708 157.703 131.708 158.172 130.875C158.641 130.031 159.276 129.339 160.078 128.797C160.891 128.255 161.828 127.859 162.891 127.609C163.953 127.349 165.078 127.219 166.266 127.219C167.432 127.219 168.464 127.292 169.359 127.438C170.266 127.573 171.099 127.786 171.859 128.078V132.75C171.484 132.49 171.073 132.26 170.625 132.062C170.188 131.865 169.734 131.703 169.266 131.578C168.797 131.443 168.328 131.344 167.859 131.281C167.401 131.219 166.964 131.188 166.547 131.188C165.974 131.188 165.453 131.245 164.984 131.359C164.516 131.464 164.12 131.615 163.797 131.812C163.474 132.01 163.224 132.25 163.047 132.531C162.87 132.802 162.781 133.109 162.781 133.453C162.781 133.828 162.88 134.167 163.078 134.469C163.276 134.76 163.557 135.042 163.922 135.312C164.286 135.573 164.729 135.833 165.25 136.094C165.771 136.344 166.359 136.604 167.016 136.875C167.911 137.25 168.714 137.651 169.422 138.078C170.141 138.495 170.755 138.969 171.266 139.5C171.776 140.031 172.167 140.641 172.438 141.328C172.708 142.005 172.844 142.797 172.844 143.703C172.844 144.953 172.604 146.005 172.125 146.859C171.656 147.703 171.016 148.391 170.203 148.922C169.391 149.443 168.443 149.818 167.359 150.047C166.286 150.276 165.151 150.391 163.953 150.391C162.724 150.391 161.552 150.286 160.438 150.078C159.333 149.87 158.375 149.557 157.562 149.141ZM184.906 149.812C184.177 150.198 183.078 150.391 181.609 150.391C178.13 150.391 176.391 148.583 176.391 144.969V137.641H173.797V134H176.391V130.547L181.312 129.141V134H184.906V137.641H181.312V144.109C181.312 145.776 181.974 146.609 183.297 146.609C183.818 146.609 184.354 146.458 184.906 146.156V149.812ZM201.016 150H196.344V147.703H196.281C195.208 149.495 193.62 150.391 191.516 150.391C189.964 150.391 188.74 149.953 187.844 149.078C186.958 148.193 186.516 147.016 186.516 145.547C186.516 142.443 188.354 140.651 192.031 140.172L196.375 139.594C196.375 137.844 195.427 136.969 193.531 136.969C191.625 136.969 189.812 137.536 188.094 138.672V134.953C188.781 134.599 189.719 134.286 190.906 134.016C192.104 133.745 193.193 133.609 194.172 133.609C198.734 133.609 201.016 135.885 201.016 140.438V150ZM196.375 143.5V142.422L193.469 142.797C191.865 143.005 191.062 143.729 191.062 144.969C191.062 145.531 191.255 145.995 191.641 146.359C192.036 146.714 192.568 146.891 193.234 146.891C194.161 146.891 194.917 146.573 195.5 145.938C196.083 145.292 196.375 144.479 196.375 143.5ZM220.375 150H215.453V141.109C215.453 138.63 214.568 137.391 212.797 137.391C211.943 137.391 211.24 137.719 210.688 138.375C210.135 139.031 209.859 139.865 209.859 140.875V150H204.922V134H209.859V136.531H209.922C211.099 134.583 212.812 133.609 215.062 133.609C218.604 133.609 220.375 135.807 220.375 140.203V150ZM239.953 150H235.016V147.797H234.953C233.828 149.526 232.177 150.391 230 150.391C228 150.391 226.391 149.688 225.172 148.281C223.953 146.865 223.344 144.891 223.344 142.359C223.344 139.714 224.016 137.594 225.359 136C226.703 134.406 228.464 133.609 230.641 133.609C232.703 133.609 234.141 134.349 234.953 135.828H235.016V126.312H239.953V150ZM235.109 142.219V141.016C235.109 139.974 234.807 139.109 234.203 138.422C233.599 137.734 232.812 137.391 231.844 137.391C230.75 137.391 229.896 137.823 229.281 138.688C228.667 139.542 228.359 140.719 228.359 142.219C228.359 143.625 228.656 144.708 229.25 145.469C229.844 146.229 230.667 146.609 231.719 146.609C232.719 146.609 233.531 146.208 234.156 145.406C234.792 144.604 235.109 143.542 235.109 142.219ZM257.422 150H252.75V147.703H252.688C251.615 149.495 250.026 150.391 247.922 150.391C246.37 150.391 245.146 149.953 244.25 149.078C243.365 148.193 242.922 147.016 242.922 145.547C242.922 142.443 244.76 140.651 248.438 140.172L252.781 139.594C252.781 137.844 251.833 136.969 249.938 136.969C248.031 136.969 246.219 137.536 244.5 138.672V134.953C245.188 134.599 246.125 134.286 247.312 134.016C248.51 133.745 249.599 133.609 250.578 133.609C255.141 133.609 257.422 135.885 257.422 140.438V150ZM252.781 143.5V142.422L249.875 142.797C248.271 143.005 247.469 143.729 247.469 144.969C247.469 145.531 247.661 145.995 248.047 146.359C248.443 146.714 248.974 146.891 249.641 146.891C250.568 146.891 251.323 146.573 251.906 145.938C252.49 145.292 252.781 144.479 252.781 143.5ZM271.766 138.453C271.172 138.13 270.479 137.969 269.688 137.969C268.615 137.969 267.776 138.365 267.172 139.156C266.568 139.938 266.266 141.005 266.266 142.359V150H261.328V134H266.266V136.969H266.328C267.109 134.802 268.516 133.719 270.547 133.719C271.068 133.719 271.474 133.781 271.766 133.906V138.453ZM289.609 150H284.672V147.797H284.609C283.484 149.526 281.833 150.391 279.656 150.391C277.656 150.391 276.047 149.688 274.828 148.281C273.609 146.865 273 144.891 273 142.359C273 139.714 273.672 137.594 275.016 136C276.359 134.406 278.12 133.609 280.297 133.609C282.359 133.609 283.797 134.349 284.609 135.828H284.672V126.312H289.609V150ZM284.766 142.219V141.016C284.766 139.974 284.464 139.109 283.859 138.422C283.255 137.734 282.469 137.391 281.5 137.391C280.406 137.391 279.552 137.823 278.938 138.688C278.323 139.542 278.016 140.719 278.016 142.219C278.016 143.625 278.312 144.708 278.906 145.469C279.5 146.229 280.323 146.609 281.375 146.609C282.375 146.609 283.188 146.208 283.812 145.406C284.448 144.604 284.766 143.542 284.766 142.219ZM318.828 131.703H312.438V150H307.375V131.703H301.016V127.594H318.828V131.703ZM338.234 131.703H331.844V150H326.781V131.703H320.422V127.594H338.234V131.703Z" fill="#F6F6F6"/>
</svg>
