<svg width="650" height="280" viewBox="0 0 650 280" fill="none" xmlns="http://www.w3.org/2000/svg">
<rect width="650" height="280" fill="#0B124A"/>
<path d="M370.4 141V137.68H373.08V121H370.4V117.68H383.08C385.907 117.68 388.04 118.253 389.48 119.4C390.92 120.547 391.64 122.293 391.64 124.64C391.64 126.987 390.907 128.733 389.44 129.88C388 131 386.013 131.56 383.48 131.56H382.76L386.2 129.96L391 137.68H393.92V141H387.6L381.76 131.56H379.48V128.24H382.32C383.973 128.24 385.147 127.92 385.84 127.28C386.533 126.64 386.88 125.76 386.88 124.64C386.88 123.493 386.547 122.6 385.88 121.96C385.213 121.32 384.027 121 382.32 121H377.68V137.68H380.36V141H370.4ZM404.431 141.4C402.697 141.4 401.177 141.027 399.871 140.28C398.564 139.533 397.551 138.52 396.831 137.24C396.111 135.96 395.751 134.547 395.751 133C395.751 131.427 396.111 130.013 396.831 128.76C397.551 127.507 398.564 126.507 399.871 125.76C401.177 125.013 402.697 124.64 404.431 124.64C406.164 124.64 407.684 125.013 408.991 125.76C410.297 126.507 411.311 127.507 412.031 128.76C412.751 130.013 413.111 131.427 413.111 133C413.111 134.547 412.751 135.96 412.031 137.24C411.311 138.52 410.297 139.533 408.991 140.28C407.684 141.027 406.164 141.4 404.431 141.4ZM404.431 138.04C405.844 138.04 406.977 137.573 407.831 136.64C408.711 135.68 409.151 134.467 409.151 133C409.151 131.533 408.711 130.333 407.831 129.4C406.977 128.467 405.844 128 404.431 128C402.991 128 401.844 128.467 400.991 129.4C400.137 130.333 399.711 131.533 399.711 133C399.711 134.467 400.137 135.68 400.991 136.64C401.844 137.573 402.991 138.04 404.431 138.04ZM421.629 137.92H423.629V141H415.029V137.92H417.549V120.76H414.869V117.68H421.629V132.68L427.909 128.12H425.549V125.04H433.789V128.12H431.589L424.349 133.28L425.669 131.44L431.869 137.92H434.629V141H429.069L421.629 133.04V137.92ZM441.98 137.92H443.98V141H435.38V137.92H437.9V120.76H435.22V117.68H441.98V132.68L448.26 128.12H445.9V125.04H454.14V128.12H451.94L444.7 133.28L446.02 131.44L452.22 137.92H454.98V141H449.42L441.98 133.04V137.92ZM456.012 141V137.92H458.492V128.12H455.812V125.04H462.572V137.92H464.852V141H456.012ZM460.532 122.52C459.705 122.52 459.065 122.28 458.612 121.8C458.159 121.32 457.932 120.707 457.932 119.96C457.932 119.187 458.159 118.56 458.612 118.08C459.065 117.573 459.705 117.32 460.532 117.32C461.332 117.32 461.959 117.573 462.412 118.08C462.865 118.56 463.092 119.187 463.092 119.96C463.092 120.707 462.865 121.32 462.412 121.8C461.959 122.28 461.332 122.52 460.532 122.52ZM474.597 141.4C472.89 141.4 471.477 140.933 470.357 140C469.264 139.04 468.717 137.507 468.717 135.4V128.12H466.037V125.04H468.717V119.8L472.797 119.08V125.04H477.197V128.12H472.797V134.84C472.797 136.013 473.05 136.813 473.557 137.24C474.064 137.667 474.757 137.88 475.637 137.88C476.01 137.88 476.357 137.84 476.677 137.76C477.024 137.653 477.33 137.547 477.597 137.44L478.157 140.52C477.73 140.76 477.197 140.96 476.557 141.12C475.944 141.307 475.29 141.4 474.597 141.4ZM487.253 141.4C485.546 141.4 484.133 140.933 483.013 140C481.92 139.04 481.373 137.507 481.373 135.4V128.12H478.693V125.04H481.373V119.8L485.453 119.08V125.04H489.853V128.12H485.453V134.84C485.453 136.013 485.706 136.813 486.213 137.24C486.72 137.667 487.413 137.88 488.293 137.88C488.666 137.88 489.013 137.84 489.333 137.76C489.68 137.653 489.986 137.547 490.253 137.44L490.813 140.52C490.386 140.76 489.853 140.96 489.213 141.12C488.6 141.307 487.946 141.4 487.253 141.4Z" fill="#E2FDCB"/>
<path d="M375.144 184V168.304H369.096V167.2H382.416V168.304H376.368V184H375.144ZM385.067 184V171.472H386.267V184H385.067ZM385.667 168.424C385.395 168.424 385.163 168.328 384.971 168.136C384.779 167.944 384.683 167.72 384.683 167.464C384.683 167.192 384.779 166.96 384.971 166.768C385.163 166.576 385.395 166.48 385.667 166.48C385.955 166.48 386.187 166.576 386.363 166.768C386.555 166.944 386.651 167.168 386.651 167.44C386.651 167.712 386.555 167.944 386.363 168.136C386.187 168.328 385.955 168.424 385.667 168.424ZM397.613 184.096C396.509 184.096 395.509 183.84 394.613 183.328C393.733 182.816 393.029 182.088 392.501 181.144C391.989 180.184 391.733 179.048 391.733 177.736C391.733 176.424 391.989 175.296 392.501 174.352C393.029 173.392 393.733 172.656 394.613 172.144C395.509 171.632 396.509 171.376 397.613 171.376C398.797 171.376 399.853 171.648 400.781 172.192C401.725 172.72 402.461 173.464 402.989 174.424C403.533 175.384 403.805 176.488 403.805 177.736C403.805 178.984 403.533 180.088 402.989 181.048C402.461 182.008 401.725 182.76 400.781 183.304C399.853 183.832 398.797 184.096 397.613 184.096ZM391.325 188.656V171.472H392.477V175.576L392.285 177.76L392.525 179.944V188.656H391.325ZM397.541 183.016C398.501 183.016 399.365 182.8 400.133 182.368C400.901 181.92 401.501 181.296 401.933 180.496C402.381 179.696 402.605 178.776 402.605 177.736C402.605 176.68 402.381 175.76 401.933 174.976C401.501 174.176 400.901 173.56 400.133 173.128C399.365 172.68 398.501 172.456 397.541 172.456C396.581 172.456 395.717 172.68 394.949 173.128C394.197 173.56 393.597 174.176 393.149 174.976C392.717 175.76 392.501 176.68 392.501 177.736C392.501 178.776 392.717 179.696 393.149 180.496C393.597 181.296 394.197 181.92 394.949 182.368C395.717 182.8 396.581 183.016 397.541 183.016ZM412.417 184.096C411.217 184.096 410.145 183.824 409.201 183.28C408.273 182.736 407.529 181.984 406.969 181.024C406.425 180.064 406.153 178.968 406.153 177.736C406.153 176.488 406.425 175.392 406.969 174.448C407.529 173.488 408.273 172.736 409.201 172.192C410.145 171.648 411.217 171.376 412.417 171.376C413.617 171.376 414.689 171.648 415.633 172.192C416.577 172.736 417.321 173.488 417.865 174.448C418.409 175.392 418.681 176.488 418.681 177.736C418.681 178.968 418.409 180.064 417.865 181.024C417.321 181.984 416.577 182.736 415.633 183.28C414.689 183.824 413.617 184.096 412.417 184.096ZM412.417 183.016C413.377 183.016 414.241 182.8 415.009 182.368C415.777 181.92 416.377 181.296 416.809 180.496C417.241 179.696 417.457 178.776 417.457 177.736C417.457 176.68 417.241 175.76 416.809 174.976C416.377 174.176 415.777 173.56 415.009 173.128C414.241 172.68 413.377 172.456 412.417 172.456C411.457 172.456 410.593 172.68 409.825 173.128C409.073 173.56 408.473 174.176 408.025 174.976C407.593 175.76 407.377 176.68 407.377 177.736C407.377 178.776 407.593 179.696 408.025 180.496C408.473 181.296 409.073 181.92 409.825 182.368C410.593 182.8 411.457 183.016 412.417 183.016ZM427.611 188.752C426.475 188.752 425.395 188.576 424.371 188.224C423.347 187.872 422.515 187.384 421.875 186.76L422.523 185.848C423.147 186.424 423.891 186.872 424.755 187.192C425.635 187.512 426.579 187.672 427.587 187.672C429.267 187.672 430.499 187.28 431.283 186.496C432.083 185.712 432.483 184.48 432.483 182.8V179.32L432.723 177.448L432.531 175.576V171.472H433.683V182.656C433.683 184.752 433.171 186.288 432.147 187.264C431.139 188.256 429.627 188.752 427.611 188.752ZM427.275 183.544C426.091 183.544 425.027 183.288 424.083 182.776C423.155 182.248 422.411 181.528 421.851 180.616C421.307 179.688 421.035 178.632 421.035 177.448C421.035 176.248 421.307 175.192 421.851 174.28C422.411 173.368 423.155 172.656 424.083 172.144C425.027 171.632 426.091 171.376 427.275 171.376C428.411 171.376 429.427 171.624 430.323 172.12C431.235 172.6 431.955 173.296 432.483 174.208C433.011 175.104 433.275 176.184 433.275 177.448C433.275 178.696 433.011 179.776 432.483 180.688C431.955 181.6 431.235 182.304 430.323 182.8C429.427 183.296 428.411 183.544 427.275 183.544ZM427.371 182.464C428.379 182.464 429.267 182.256 430.035 181.84C430.803 181.408 431.403 180.816 431.835 180.064C432.283 179.296 432.507 178.424 432.507 177.448C432.507 176.456 432.283 175.584 431.835 174.832C431.403 174.08 430.803 173.496 430.035 173.08C429.267 172.664 428.379 172.456 427.371 172.456C426.395 172.456 425.515 172.664 424.731 173.08C423.963 173.496 423.355 174.08 422.907 174.832C422.475 175.584 422.259 176.456 422.259 177.448C422.259 178.424 422.475 179.296 422.907 180.064C423.355 180.816 423.963 181.408 424.731 181.84C425.515 182.256 426.395 182.464 427.371 182.464ZM438.763 184V171.472H439.915V174.904L439.795 174.52C440.147 173.512 440.739 172.736 441.571 172.192C442.403 171.648 443.443 171.376 444.691 171.376V172.552C444.643 172.552 444.595 172.552 444.547 172.552C444.499 172.536 444.451 172.528 444.403 172.528C443.011 172.528 441.923 172.968 441.139 173.848C440.355 174.712 439.963 175.92 439.963 177.472V184H438.763ZM455.19 184V181.144L455.142 180.712V176.008C455.142 174.84 454.822 173.952 454.182 173.344C453.558 172.736 452.638 172.432 451.422 172.432C450.558 172.432 449.75 172.584 448.998 172.888C448.262 173.176 447.63 173.552 447.102 174.016L446.502 173.152C447.126 172.592 447.878 172.16 448.758 171.856C449.638 171.536 450.558 171.376 451.518 171.376C453.07 171.376 454.262 171.768 455.094 172.552C455.926 173.336 456.342 174.504 456.342 176.056V184H455.19ZM450.678 184.096C449.75 184.096 448.942 183.952 448.254 183.664C447.582 183.36 447.062 182.936 446.694 182.392C446.342 181.848 446.166 181.224 446.166 180.52C446.166 179.88 446.31 179.304 446.598 178.792C446.902 178.264 447.398 177.84 448.086 177.52C448.774 177.184 449.694 177.016 450.846 177.016H455.454V177.952H450.87C449.574 177.952 448.662 178.192 448.134 178.672C447.622 179.152 447.366 179.752 447.366 180.472C447.366 181.272 447.67 181.912 448.278 182.392C448.886 182.872 449.742 183.112 450.846 183.112C451.902 183.112 452.79 182.872 453.51 182.392C454.246 181.912 454.79 181.216 455.142 180.304L455.478 181.12C455.142 182.032 454.566 182.76 453.75 183.304C452.95 183.832 451.926 184.096 450.678 184.096ZM461.526 184V169.552C461.526 168.512 461.822 167.68 462.414 167.056C463.022 166.416 463.886 166.096 465.006 166.096C465.47 166.096 465.926 166.168 466.374 166.312C466.822 166.44 467.19 166.64 467.478 166.912L466.998 167.824C466.758 167.584 466.47 167.408 466.134 167.296C465.798 167.184 465.438 167.128 465.054 167.128C464.286 167.128 463.702 167.344 463.302 167.776C462.902 168.192 462.702 168.816 462.702 169.648V171.76L462.726 172.336V184H461.526ZM459.222 172.504V171.472H466.71V172.504H459.222ZM469.161 184V171.472H470.361V184H469.161ZM468.393 169.432L471.729 166.6H473.457L469.689 169.432H468.393ZM483.315 184V181.144L483.267 180.712V176.008C483.267 174.84 482.947 173.952 482.307 173.344C481.683 172.736 480.763 172.432 479.547 172.432C478.683 172.432 477.875 172.584 477.123 172.888C476.387 173.176 475.755 173.552 475.227 174.016L474.627 173.152C475.251 172.592 476.003 172.16 476.883 171.856C477.763 171.536 478.683 171.376 479.643 171.376C481.195 171.376 482.387 171.768 483.219 172.552C484.051 173.336 484.467 174.504 484.467 176.056V184H483.315ZM478.803 184.096C477.875 184.096 477.067 183.952 476.379 183.664C475.707 183.36 475.187 182.936 474.819 182.392C474.467 181.848 474.291 181.224 474.291 180.52C474.291 179.88 474.435 179.304 474.723 178.792C475.027 178.264 475.523 177.84 476.211 177.52C476.899 177.184 477.819 177.016 478.971 177.016H483.579V177.952H478.995C477.699 177.952 476.787 178.192 476.259 178.672C475.747 179.152 475.491 179.752 475.491 180.472C475.491 181.272 475.795 181.912 476.403 182.392C477.011 182.872 477.867 183.112 478.971 183.112C480.027 183.112 480.915 182.872 481.635 182.392C482.371 181.912 482.915 181.216 483.267 180.304L483.603 181.12C483.267 182.032 482.691 182.76 481.875 183.304C481.075 183.832 480.051 184.096 478.803 184.096ZM498.023 184L493.271 171.472H494.423L498.839 183.328H498.335L502.871 171.472H503.903L508.415 183.328H507.887L512.375 171.472H513.479L508.727 184H507.599L503.183 172.624H503.567L499.127 184H498.023ZM521.007 184.096C519.743 184.096 518.623 183.824 517.647 183.28C516.687 182.736 515.927 181.984 515.367 181.024C514.823 180.064 514.551 178.968 514.551 177.736C514.551 176.488 514.807 175.392 515.319 174.448C515.847 173.488 516.567 172.736 517.479 172.192C518.391 171.648 519.415 171.376 520.551 171.376C521.687 171.376 522.703 171.64 523.599 172.168C524.511 172.696 525.223 173.44 525.735 174.4C526.263 175.344 526.527 176.44 526.527 177.688C526.527 177.736 526.519 177.792 526.503 177.856C526.503 177.904 526.503 177.96 526.503 178.024H515.439V177.088H525.855L525.375 177.544C525.391 176.568 525.183 175.696 524.751 174.928C524.335 174.144 523.767 173.536 523.047 173.104C522.327 172.656 521.495 172.432 520.551 172.432C519.623 172.432 518.791 172.656 518.055 173.104C517.335 173.536 516.767 174.144 516.351 174.928C515.935 175.696 515.727 176.576 515.727 177.568V177.784C515.727 178.808 515.951 179.72 516.399 180.52C516.863 181.304 517.495 181.92 518.295 182.368C519.095 182.8 520.007 183.016 521.031 183.016C521.831 183.016 522.575 182.872 523.263 182.584C523.967 182.296 524.559 181.856 525.039 181.264L525.735 182.056C525.191 182.728 524.503 183.24 523.671 183.592C522.855 183.928 521.967 184.096 521.007 184.096ZM536.527 184.096C535.423 184.096 534.423 183.84 533.527 183.328C532.647 182.816 531.943 182.08 531.415 181.12C530.903 180.16 530.647 179.032 530.647 177.736C530.647 176.408 530.903 175.272 531.415 174.328C531.943 173.384 532.647 172.656 533.527 172.144C534.423 171.632 535.423 171.376 536.527 171.376C537.711 171.376 538.767 171.648 539.695 172.192C540.639 172.72 541.375 173.464 541.903 174.424C542.447 175.368 542.719 176.472 542.719 177.736C542.719 178.984 542.447 180.088 541.903 181.048C541.375 182.008 540.639 182.76 539.695 183.304C538.767 183.832 537.711 184.096 536.527 184.096ZM530.239 184V166.192H531.439V175.528L531.199 177.712L531.391 179.896V184H530.239ZM536.455 183.016C537.415 183.016 538.279 182.8 539.047 182.368C539.815 181.92 540.415 181.296 540.847 180.496C541.295 179.696 541.519 178.776 541.519 177.736C541.519 176.68 541.295 175.76 540.847 174.976C540.415 174.176 539.815 173.56 539.047 173.128C538.279 172.68 537.415 172.456 536.455 172.456C535.495 172.456 534.631 172.68 533.863 173.128C533.111 173.56 532.511 174.176 532.063 174.976C531.631 175.76 531.415 176.68 531.415 177.736C531.415 178.776 531.631 179.696 532.063 180.496C532.511 181.296 533.111 181.92 533.863 182.368C534.631 182.8 535.495 183.016 536.455 183.016Z" fill="#E2FDCB"/>
<path d="M107.34 189V174.89H118.05L145.42 104H133.86V89.89H193.36V104H181.8L209.17 174.89H219.88V189H178.23V174.89H189.62L179.42 147.35L185.54 152.79H142.02L147.29 147.35L137.26 174.89H148.65V189H107.34ZM148.31 144.29L145.25 139.53H181.29L178.57 144.29L163.78 104.17H163.1L148.31 144.29ZM252.013 190.7C243.739 190.7 237.393 188.83 232.973 185.09C228.666 181.237 226.513 176.25 226.513 170.13C226.513 163.783 228.836 158.797 233.483 155.17C238.243 151.543 245.269 149.73 254.563 149.73C257.509 149.73 260.853 150.013 264.593 150.58C268.333 151.147 271.789 151.883 274.963 152.79L272.073 154.66V147.18C272.073 143.1 270.713 139.983 267.993 137.83C265.273 135.563 261.136 134.43 255.583 134.43C251.729 134.43 247.933 134.94 244.193 135.96C240.453 136.98 236.883 138.453 233.483 140.38L229.233 126.61C233.653 124.23 238.413 122.473 243.513 121.34C248.613 120.093 253.259 119.47 257.453 119.47C267.879 119.47 275.813 121.85 281.253 126.61C286.693 131.257 289.413 138.17 289.413 147.35V175.91H299.103V189H273.433V177.95L275.983 179.99C273.149 183.39 269.523 186.053 265.103 187.98C260.683 189.793 256.319 190.7 252.013 190.7ZM255.923 177.44C259.209 177.44 262.553 176.817 265.953 175.57C269.466 174.21 272.073 172.567 273.773 170.64L272.073 175.74V159.76L274.963 164.52C272.016 163.613 269.069 162.99 266.123 162.65C263.176 162.31 260.343 162.14 257.623 162.14C253.089 162.14 249.576 162.82 247.083 164.18C244.703 165.427 243.513 167.353 243.513 169.96C243.513 172.34 244.589 174.21 246.743 175.57C248.896 176.817 251.956 177.44 255.923 177.44Z" fill="#E2FDCB"/>
</svg>
