<svg width="650" height="280" viewBox="0 0 650 280" fill="none" xmlns="http://www.w3.org/2000/svg">
<rect width="650" height="280" fill="#21329B"/>
<path d="M42.9 218L49.2 204H51.76L58.08 218H55.36L49.94 205.38H50.98L45.58 218H42.9ZM45.8 214.76L46.5 212.72H54.06L54.76 214.76H45.8ZM58.7209 218V216.42L65.3009 208.46L65.7609 209.32H58.8409V207.32H67.7609V208.9L61.1809 216.86L60.6809 216H67.9409V218H58.7209ZM74.7655 218.14C73.8588 218.14 73.0588 217.973 72.3655 217.64C71.6721 217.293 71.1321 216.773 70.7455 216.08C70.3588 215.373 70.1655 214.487 70.1655 213.42V207.32H72.6655V213.08C72.6655 214.04 72.8788 214.76 73.3055 215.24C73.7455 215.707 74.3655 215.94 75.1655 215.94C75.7521 215.94 76.2588 215.82 76.6855 215.58C77.1255 215.34 77.4655 214.98 77.7055 214.5C77.9588 214.02 78.0855 213.427 78.0855 212.72V207.32H80.5855V218H78.2055V215.12L78.6255 216C78.2655 216.693 77.7388 217.227 77.0455 217.6C76.3521 217.96 75.5921 218.14 74.7655 218.14ZM83.8588 218V203.16H86.3588V218H83.8588ZM93.4273 218L99.7273 204H102.287L108.607 218H105.887L100.467 205.38H101.507L96.1073 218H93.4273ZM96.3273 214.76L97.0273 212.72H104.587L105.287 214.76H96.3273ZM112.525 218V206.2H107.885V204H119.765V206.2H115.125V218H112.525ZM121.716 218V204H127.836C129.356 204 130.689 204.293 131.836 204.88C132.983 205.467 133.876 206.28 134.516 207.32C135.156 208.36 135.476 209.587 135.476 211C135.476 212.4 135.156 213.627 134.516 214.68C133.876 215.72 132.983 216.533 131.836 217.12C130.689 217.707 129.356 218 127.836 218H121.716ZM124.316 215.8H127.716C128.756 215.8 129.663 215.6 130.436 215.2C131.209 214.8 131.803 214.24 132.216 213.52C132.643 212.8 132.856 211.96 132.856 211C132.856 210.027 132.643 209.187 132.216 208.48C131.803 207.76 131.209 207.2 130.436 206.8C129.663 206.4 128.756 206.2 127.716 206.2H124.316V215.8ZM45.74 242L47.48 228H49.3L47.56 242H45.74ZM43.46 238.6V236.78H56.1V238.6H43.46ZM50.94 242L52.66 228H54.48L52.76 242H50.94ZM44.14 233.22V231.4H56.74L56.76 233.22H44.14ZM57.9188 242V240.26L63.4788 234.98C63.9454 234.54 64.2921 234.153 64.5188 233.82C64.7454 233.487 64.8921 233.18 64.9588 232.9C65.0388 232.607 65.0788 232.333 65.0788 232.08C65.0788 231.44 64.8588 230.947 64.4188 230.6C63.9788 230.24 63.3321 230.06 62.4788 230.06C61.7988 230.06 61.1788 230.18 60.6188 230.42C60.0721 230.66 59.5988 231.027 59.1988 231.52L57.3788 230.12C57.9254 229.387 58.6588 228.82 59.5788 228.42C60.5121 228.007 61.5521 227.8 62.6988 227.8C63.7121 227.8 64.5921 227.967 65.3388 228.3C66.0988 228.62 66.6788 229.08 67.0788 229.68C67.4921 230.28 67.6988 230.993 67.6988 231.82C67.6988 232.273 67.6388 232.727 67.5188 233.18C67.3988 233.62 67.1721 234.087 66.8388 234.58C66.5054 235.073 66.0188 235.627 65.3788 236.24L60.5988 240.78L60.0588 239.8H68.2387V242H57.9188ZM71.9794 242V229L73.1194 230.18H69.0194V228H74.5794V242H71.9794ZM81.7566 242.2C80.7699 242.2 79.8032 242.06 78.8566 241.78C77.9232 241.487 77.1366 241.087 76.4966 240.58L77.6166 238.56C78.1232 238.973 78.7366 239.307 79.4566 239.56C80.1766 239.813 80.9299 239.94 81.7166 239.94C82.6499 239.94 83.3766 239.753 83.8966 239.38C84.4166 238.993 84.6766 238.473 84.6766 237.82C84.6766 237.18 84.4366 236.673 83.9566 236.3C83.4766 235.927 82.7032 235.74 81.6366 235.74H80.3566V233.96L84.3566 229.2L84.6966 230.18H77.1766V228H86.7166V229.74L82.7166 234.5L81.3566 233.7H82.1366C83.8566 233.7 85.1432 234.087 85.9966 234.86C86.8632 235.62 87.2966 236.6 87.2966 237.8C87.2966 238.587 87.0966 239.313 86.6966 239.98C86.2966 240.647 85.6832 241.187 84.8566 241.6C84.0432 242 83.0099 242.2 81.7566 242.2ZM88.7195 242V240.26L94.2795 234.98C94.7462 234.54 95.0929 234.153 95.3195 233.82C95.5462 233.487 95.6929 233.18 95.7595 232.9C95.8395 232.607 95.8795 232.333 95.8795 232.08C95.8795 231.44 95.6595 230.947 95.2195 230.6C94.7795 230.24 94.1329 230.06 93.2795 230.06C92.5995 230.06 91.9795 230.18 91.4195 230.42C90.8729 230.66 90.3995 231.027 89.9995 231.52L88.1795 230.12C88.7262 229.387 89.4595 228.82 90.3795 228.42C91.3129 228.007 92.3529 227.8 93.4995 227.8C94.5129 227.8 95.3929 227.967 96.1395 228.3C96.8995 228.62 97.4795 229.08 97.8795 229.68C98.2929 230.28 98.4995 230.993 98.4995 231.82C98.4995 232.273 98.4395 232.727 98.3195 233.18C98.1995 233.62 97.9729 234.087 97.6395 234.58C97.3062 235.073 96.8195 235.627 96.1795 236.24L91.3995 240.78L90.8595 239.8H99.0395V242H88.7195ZM104.46 242.2C103.753 242.2 103.08 242.127 102.44 241.98C101.8 241.833 101.247 241.607 100.78 241.3L101.74 239.34C102.127 239.593 102.547 239.773 103 239.88C103.453 239.973 103.92 240.02 104.4 240.02C105.72 240.02 106.767 239.613 107.54 238.8C108.313 237.987 108.7 236.787 108.7 235.2C108.7 234.947 108.693 234.653 108.68 234.32C108.667 233.973 108.62 233.627 108.54 233.28L109.34 234.16C109.113 234.707 108.787 235.167 108.36 235.54C107.933 235.9 107.433 236.173 106.86 236.36C106.287 236.547 105.653 236.64 104.96 236.64C104.053 236.64 103.233 236.467 102.5 236.12C101.78 235.76 101.207 235.26 100.78 234.62C100.353 233.967 100.14 233.207 100.14 232.34C100.14 231.407 100.367 230.607 100.82 229.94C101.273 229.26 101.887 228.733 102.66 228.36C103.447 227.987 104.313 227.8 105.26 227.8C106.54 227.8 107.627 228.073 108.52 228.62C109.427 229.153 110.12 229.933 110.6 230.96C111.08 231.987 111.32 233.253 111.32 234.76C111.32 236.36 111.027 237.713 110.44 238.82C109.867 239.927 109.067 240.767 108.04 241.34C107.013 241.913 105.82 242.2 104.46 242.2ZM105.46 234.6C106.02 234.6 106.513 234.5 106.94 234.3C107.367 234.087 107.7 233.8 107.94 233.44C108.18 233.067 108.3 232.653 108.3 232.2C108.3 231.76 108.187 231.367 107.96 231.02C107.733 230.66 107.407 230.373 106.98 230.16C106.553 229.947 106.027 229.84 105.4 229.84C104.867 229.84 104.393 229.94 103.98 230.14C103.567 230.327 103.24 230.6 103 230.96C102.773 231.307 102.66 231.727 102.66 232.22C102.66 232.953 102.913 233.533 103.42 233.96C103.927 234.387 104.607 234.6 105.46 234.6ZM114.079 242V228H120.639C122.319 228 123.599 228.333 124.479 229C125.359 229.653 125.799 230.533 125.799 231.64C125.799 232.387 125.626 233.027 125.279 233.56C124.933 234.08 124.466 234.487 123.879 234.78C123.306 235.06 122.679 235.2 121.999 235.2L122.359 234.48C123.146 234.48 123.853 234.627 124.479 234.92C125.106 235.2 125.599 235.613 125.959 236.16C126.333 236.707 126.519 237.387 126.519 238.2C126.519 239.4 126.059 240.333 125.139 241C124.219 241.667 122.853 242 121.039 242H114.079ZM116.679 239.96H120.879C121.853 239.96 122.599 239.8 123.119 239.48C123.639 239.16 123.899 238.647 123.899 237.94C123.899 237.247 123.639 236.74 123.119 236.42C122.599 236.087 121.853 235.92 120.879 235.92H116.479V233.9H120.359C121.266 233.9 121.959 233.74 122.439 233.42C122.933 233.1 123.179 232.62 123.179 231.98C123.179 231.327 122.933 230.84 122.439 230.52C121.959 230.2 121.266 230.04 120.359 230.04H116.679V239.96Z" fill="white"/>
<rect x="325" width="325" height="280" fill="#868686"/>
<path d="M367.42 218.2C366.327 218.2 365.32 218.027 364.4 217.68C363.493 217.32 362.7 216.82 362.02 216.18C361.34 215.527 360.813 214.76 360.44 213.88C360.067 213 359.88 212.04 359.88 211C359.88 209.96 360.067 209 360.44 208.12C360.813 207.24 361.34 206.48 362.02 205.84C362.713 205.187 363.52 204.687 364.44 204.34C365.36 203.98 366.367 203.8 367.46 203.8C368.647 203.8 369.713 203.993 370.66 204.38C371.62 204.767 372.427 205.333 373.08 206.08L371.44 207.68C370.893 207.133 370.3 206.733 369.66 206.48C369.033 206.213 368.34 206.08 367.58 206.08C366.847 206.08 366.167 206.2 365.54 206.44C364.913 206.68 364.373 207.02 363.92 207.46C363.467 207.9 363.113 208.42 362.86 209.02C362.62 209.62 362.5 210.28 362.5 211C362.5 211.707 362.62 212.36 362.86 212.96C363.113 213.56 363.467 214.087 363.92 214.54C364.373 214.98 364.907 215.32 365.52 215.56C366.133 215.8 366.813 215.92 367.56 215.92C368.253 215.92 368.92 215.813 369.56 215.6C370.213 215.373 370.833 215 371.42 214.48L372.9 216.42C372.167 217.007 371.313 217.453 370.34 217.76C369.38 218.053 368.407 218.2 367.42 218.2ZM372.9 216.42L370.44 216.08V210.84H372.9V216.42ZM376.089 218V207.32H378.469V210.26L378.189 209.4C378.509 208.68 379.009 208.133 379.689 207.76C380.383 207.387 381.243 207.2 382.269 207.2V209.58C382.163 209.553 382.063 209.54 381.969 209.54C381.876 209.527 381.783 209.52 381.689 209.52C380.743 209.52 379.989 209.8 379.429 210.36C378.869 210.907 378.589 211.727 378.589 212.82V218H376.089ZM384.39 218V207.32H386.89V218H384.39ZM385.65 205.56C385.183 205.56 384.797 205.413 384.49 205.12C384.197 204.827 384.05 204.473 384.05 204.06C384.05 203.633 384.197 203.28 384.49 203C384.797 202.707 385.183 202.56 385.65 202.56C386.117 202.56 386.497 202.7 386.79 202.98C387.097 203.247 387.25 203.587 387.25 204C387.25 204.44 387.103 204.813 386.81 205.12C386.517 205.413 386.13 205.56 385.65 205.56ZM393.471 218.14C392.578 218.14 391.718 218.027 390.891 217.8C390.078 217.56 389.431 217.273 388.951 216.94L389.911 215.04C390.391 215.347 390.965 215.6 391.631 215.8C392.298 216 392.965 216.1 393.631 216.1C394.418 216.1 394.985 215.993 395.331 215.78C395.691 215.567 395.871 215.28 395.871 214.92C395.871 214.627 395.751 214.407 395.511 214.26C395.271 214.1 394.958 213.98 394.571 213.9C394.185 213.82 393.751 213.747 393.271 213.68C392.805 213.613 392.331 213.527 391.851 213.42C391.385 213.3 390.958 213.133 390.571 212.92C390.185 212.693 389.871 212.393 389.631 212.02C389.391 211.647 389.271 211.153 389.271 210.54C389.271 209.86 389.465 209.273 389.851 208.78C390.238 208.273 390.778 207.887 391.471 207.62C392.178 207.34 393.011 207.2 393.971 207.2C394.691 207.2 395.418 207.28 396.151 207.44C396.885 207.6 397.491 207.827 397.971 208.12L397.011 210.02C396.505 209.713 395.991 209.507 395.471 209.4C394.965 209.28 394.458 209.22 393.951 209.22C393.191 209.22 392.625 209.333 392.251 209.56C391.891 209.787 391.711 210.073 391.711 210.42C391.711 210.74 391.831 210.98 392.071 211.14C392.311 211.3 392.625 211.427 393.011 211.52C393.398 211.613 393.825 211.693 394.291 211.76C394.771 211.813 395.245 211.9 395.711 212.02C396.178 212.14 396.605 212.307 396.991 212.52C397.391 212.72 397.711 213.007 397.951 213.38C398.191 213.753 398.311 214.24 398.311 214.84C398.311 215.507 398.111 216.087 397.711 216.58C397.325 217.073 396.771 217.46 396.051 217.74C395.331 218.007 394.471 218.14 393.471 218.14ZM404.252 218L410.552 204H413.112L419.432 218H416.712L411.292 205.38H412.332L406.932 218H404.252ZM407.152 214.76L407.852 212.72H415.412L416.112 214.76H407.152ZM423.349 218V206.2H418.709V204H430.589V206.2H425.949V218H423.349ZM432.54 218V204H438.66C440.18 204 441.513 204.293 442.66 204.88C443.807 205.467 444.7 206.28 445.34 207.32C445.98 208.36 446.3 209.587 446.3 211C446.3 212.4 445.98 213.627 445.34 214.68C444.7 215.72 443.807 216.533 442.66 217.12C441.513 217.707 440.18 218 438.66 218H432.54ZM435.14 215.8H438.54C439.58 215.8 440.487 215.6 441.26 215.2C442.033 214.8 442.627 214.24 443.04 213.52C443.467 212.8 443.68 211.96 443.68 211C443.68 210.027 443.467 209.187 443.04 208.48C442.627 207.76 442.033 207.2 441.26 206.8C440.487 206.4 439.58 206.2 438.54 206.2H435.14V215.8ZM361.74 242L363.48 228H365.3L363.56 242H361.74ZM359.46 238.6V236.78H372.1V238.6H359.46ZM366.94 242L368.66 228H370.48L368.76 242H366.94ZM360.14 233.22V231.4H372.74L372.76 233.22H360.14ZM379.719 242.2C378.559 242.2 377.552 242.027 376.699 241.68C375.845 241.333 375.185 240.847 374.719 240.22C374.252 239.58 374.019 238.833 374.019 237.98C374.019 237.127 374.245 236.407 374.699 235.82C375.152 235.233 375.805 234.787 376.659 234.48C377.512 234.173 378.532 234.02 379.719 234.02C380.905 234.02 381.925 234.173 382.779 234.48C383.645 234.787 384.305 235.24 384.759 235.84C385.225 236.427 385.459 237.14 385.459 237.98C385.459 238.833 385.219 239.58 384.739 240.22C384.272 240.847 383.605 241.333 382.739 241.68C381.885 242.027 380.879 242.2 379.719 242.2ZM379.719 240.16C380.679 240.16 381.439 239.96 381.999 239.56C382.559 239.16 382.839 238.607 382.839 237.9C382.839 237.207 382.559 236.66 381.999 236.26C381.439 235.86 380.679 235.66 379.719 235.66C378.759 235.66 378.005 235.86 377.459 236.26C376.912 236.66 376.639 237.207 376.639 237.9C376.639 238.607 376.912 239.16 377.459 239.56C378.005 239.96 378.759 240.16 379.719 240.16ZM379.719 233.78C380.545 233.78 381.199 233.607 381.679 233.26C382.159 232.9 382.399 232.42 382.399 231.82C382.399 231.193 382.152 230.707 381.659 230.36C381.165 230.013 380.519 229.84 379.719 229.84C378.919 229.84 378.279 230.013 377.799 230.36C377.319 230.707 377.079 231.193 377.079 231.82C377.079 232.42 377.312 232.9 377.779 233.26C378.259 233.607 378.905 233.78 379.719 233.78ZM379.719 235.38C378.639 235.38 377.712 235.24 376.939 234.96C376.165 234.667 375.565 234.247 375.139 233.7C374.725 233.14 374.519 232.473 374.519 231.7C374.519 230.9 374.732 230.213 375.159 229.64C375.599 229.053 376.212 228.6 376.999 228.28C377.785 227.96 378.692 227.8 379.719 227.8C380.759 227.8 381.672 227.96 382.459 228.28C383.245 228.6 383.859 229.053 384.299 229.64C384.739 230.213 384.959 230.9 384.959 231.7C384.959 232.473 384.745 233.14 384.319 233.7C383.905 234.247 383.305 234.667 382.519 234.96C381.732 235.24 380.799 235.38 379.719 235.38ZM393.206 242.2C391.939 242.2 390.852 241.933 389.946 241.4C389.039 240.853 388.346 240.067 387.866 239.04C387.386 238.013 387.146 236.747 387.146 235.24C387.146 233.64 387.432 232.287 388.006 231.18C388.592 230.073 389.399 229.233 390.426 228.66C391.466 228.087 392.659 227.8 394.006 227.8C394.712 227.8 395.386 227.873 396.026 228.02C396.679 228.167 397.232 228.393 397.686 228.7L396.726 230.66C396.339 230.407 395.919 230.233 395.466 230.14C395.026 230.033 394.559 229.98 394.066 229.98C392.746 229.98 391.699 230.387 390.926 231.2C390.152 232.013 389.766 233.213 389.766 234.8C389.766 235.053 389.772 235.353 389.786 235.7C389.799 236.033 389.846 236.373 389.926 236.72L389.126 235.84C389.366 235.293 389.692 234.84 390.106 234.48C390.532 234.107 391.032 233.827 391.606 233.64C392.192 233.453 392.826 233.36 393.506 233.36C394.426 233.36 395.246 233.54 395.966 233.9C396.686 234.247 397.259 234.747 397.686 235.4C398.112 236.04 398.326 236.793 398.326 237.66C398.326 238.58 398.099 239.38 397.646 240.06C397.192 240.74 396.579 241.267 395.806 241.64C395.032 242.013 394.166 242.2 393.206 242.2ZM393.066 240.16C393.599 240.16 394.072 240.067 394.486 239.88C394.899 239.68 395.219 239.4 395.446 239.04C395.686 238.68 395.806 238.26 395.806 237.78C395.806 237.047 395.552 236.467 395.046 236.04C394.539 235.613 393.859 235.4 393.006 235.4C392.446 235.4 391.952 235.507 391.526 235.72C391.112 235.92 390.779 236.2 390.526 236.56C390.286 236.92 390.166 237.333 390.166 237.8C390.166 238.227 390.279 238.62 390.506 238.98C390.732 239.34 391.059 239.627 391.486 239.84C391.926 240.053 392.452 240.16 393.066 240.16ZM405.305 242.2C404.145 242.2 403.138 242.027 402.285 241.68C401.431 241.333 400.771 240.847 400.305 240.22C399.838 239.58 399.605 238.833 399.605 237.98C399.605 237.127 399.831 236.407 400.285 235.82C400.738 235.233 401.391 234.787 402.245 234.48C403.098 234.173 404.118 234.02 405.305 234.02C406.491 234.02 407.511 234.173 408.365 234.48C409.231 234.787 409.891 235.24 410.345 235.84C410.811 236.427 411.045 237.14 411.045 237.98C411.045 238.833 410.805 239.58 410.325 240.22C409.858 240.847 409.191 241.333 408.325 241.68C407.471 242.027 406.465 242.2 405.305 242.2ZM405.305 240.16C406.265 240.16 407.025 239.96 407.585 239.56C408.145 239.16 408.425 238.607 408.425 237.9C408.425 237.207 408.145 236.66 407.585 236.26C407.025 235.86 406.265 235.66 405.305 235.66C404.345 235.66 403.591 235.86 403.045 236.26C402.498 236.66 402.225 237.207 402.225 237.9C402.225 238.607 402.498 239.16 403.045 239.56C403.591 239.96 404.345 240.16 405.305 240.16ZM405.305 233.78C406.131 233.78 406.785 233.607 407.265 233.26C407.745 232.9 407.985 232.42 407.985 231.82C407.985 231.193 407.738 230.707 407.245 230.36C406.751 230.013 406.105 229.84 405.305 229.84C404.505 229.84 403.865 230.013 403.385 230.36C402.905 230.707 402.665 231.193 402.665 231.82C402.665 232.42 402.898 232.9 403.365 233.26C403.845 233.607 404.491 233.78 405.305 233.78ZM405.305 235.38C404.225 235.38 403.298 235.24 402.525 234.96C401.751 234.667 401.151 234.247 400.725 233.7C400.311 233.14 400.105 232.473 400.105 231.7C400.105 230.9 400.318 230.213 400.745 229.64C401.185 229.053 401.798 228.6 402.585 228.28C403.371 227.96 404.278 227.8 405.305 227.8C406.345 227.8 407.258 227.96 408.045 228.28C408.831 228.6 409.445 229.053 409.885 229.64C410.325 230.213 410.545 230.9 410.545 231.7C410.545 232.473 410.331 233.14 409.905 233.7C409.491 234.247 408.891 234.667 408.105 234.96C407.318 235.24 406.385 235.38 405.305 235.38ZM418.792 242.2C417.525 242.2 416.438 241.933 415.532 241.4C414.625 240.853 413.932 240.067 413.452 239.04C412.972 238.013 412.732 236.747 412.732 235.24C412.732 233.64 413.018 232.287 413.592 231.18C414.178 230.073 414.985 229.233 416.012 228.66C417.052 228.087 418.245 227.8 419.592 227.8C420.298 227.8 420.972 227.873 421.612 228.02C422.265 228.167 422.818 228.393 423.272 228.7L422.312 230.66C421.925 230.407 421.505 230.233 421.052 230.14C420.612 230.033 420.145 229.98 419.652 229.98C418.332 229.98 417.285 230.387 416.512 231.2C415.738 232.013 415.352 233.213 415.352 234.8C415.352 235.053 415.358 235.353 415.372 235.7C415.385 236.033 415.432 236.373 415.512 236.72L414.712 235.84C414.952 235.293 415.278 234.84 415.692 234.48C416.118 234.107 416.618 233.827 417.192 233.64C417.778 233.453 418.412 233.36 419.092 233.36C420.012 233.36 420.832 233.54 421.552 233.9C422.272 234.247 422.845 234.747 423.272 235.4C423.698 236.04 423.912 236.793 423.912 237.66C423.912 238.58 423.685 239.38 423.232 240.06C422.778 240.74 422.165 241.267 421.392 241.64C420.618 242.013 419.752 242.2 418.792 242.2ZM418.652 240.16C419.185 240.16 419.658 240.067 420.072 239.88C420.485 239.68 420.805 239.4 421.032 239.04C421.272 238.68 421.392 238.26 421.392 237.78C421.392 237.047 421.138 236.467 420.632 236.04C420.125 235.613 419.445 235.4 418.592 235.4C418.032 235.4 417.538 235.507 417.112 235.72C416.698 235.92 416.365 236.2 416.112 236.56C415.872 236.92 415.752 237.333 415.752 237.8C415.752 238.227 415.865 238.62 416.092 238.98C416.318 239.34 416.645 239.627 417.072 239.84C417.512 240.053 418.038 240.16 418.652 240.16ZM430.891 242.2C429.731 242.2 428.724 242.027 427.871 241.68C427.017 241.333 426.357 240.847 425.891 240.22C425.424 239.58 425.191 238.833 425.191 237.98C425.191 237.127 425.417 236.407 425.871 235.82C426.324 235.233 426.977 234.787 427.831 234.48C428.684 234.173 429.704 234.02 430.891 234.02C432.077 234.02 433.097 234.173 433.951 234.48C434.817 234.787 435.477 235.24 435.931 235.84C436.397 236.427 436.631 237.14 436.631 237.98C436.631 238.833 436.391 239.58 435.911 240.22C435.444 240.847 434.777 241.333 433.911 241.68C433.057 242.027 432.051 242.2 430.891 242.2ZM430.891 240.16C431.851 240.16 432.611 239.96 433.171 239.56C433.731 239.16 434.011 238.607 434.011 237.9C434.011 237.207 433.731 236.66 433.171 236.26C432.611 235.86 431.851 235.66 430.891 235.66C429.931 235.66 429.177 235.86 428.631 236.26C428.084 236.66 427.811 237.207 427.811 237.9C427.811 238.607 428.084 239.16 428.631 239.56C429.177 239.96 429.931 240.16 430.891 240.16ZM430.891 233.78C431.717 233.78 432.371 233.607 432.851 233.26C433.331 232.9 433.571 232.42 433.571 231.82C433.571 231.193 433.324 230.707 432.831 230.36C432.337 230.013 431.691 229.84 430.891 229.84C430.091 229.84 429.451 230.013 428.971 230.36C428.491 230.707 428.251 231.193 428.251 231.82C428.251 232.42 428.484 232.9 428.951 233.26C429.431 233.607 430.077 233.78 430.891 233.78ZM430.891 235.38C429.811 235.38 428.884 235.24 428.111 234.96C427.337 234.667 426.737 234.247 426.311 233.7C425.897 233.14 425.691 232.473 425.691 231.7C425.691 230.9 425.904 230.213 426.331 229.64C426.771 229.053 427.384 228.6 428.171 228.28C428.957 227.96 429.864 227.8 430.891 227.8C431.931 227.8 432.844 227.96 433.631 228.28C434.417 228.6 435.031 229.053 435.471 229.64C435.911 230.213 436.131 230.9 436.131 231.7C436.131 232.473 435.917 233.14 435.491 233.7C435.077 234.247 434.477 234.667 433.691 234.96C432.904 235.24 431.971 235.38 430.891 235.38ZM444.378 242.2C443.111 242.2 442.024 241.933 441.118 241.4C440.211 240.853 439.518 240.067 439.038 239.04C438.558 238.013 438.318 236.747 438.318 235.24C438.318 233.64 438.604 232.287 439.178 231.18C439.764 230.073 440.571 229.233 441.598 228.66C442.638 228.087 443.831 227.8 445.178 227.8C445.884 227.8 446.558 227.873 447.198 228.02C447.851 228.167 448.404 228.393 448.858 228.7L447.898 230.66C447.511 230.407 447.091 230.233 446.638 230.14C446.198 230.033 445.731 229.98 445.238 229.98C443.918 229.98 442.871 230.387 442.098 231.2C441.324 232.013 440.938 233.213 440.938 234.8C440.938 235.053 440.944 235.353 440.958 235.7C440.971 236.033 441.018 236.373 441.098 236.72L440.298 235.84C440.538 235.293 440.864 234.84 441.278 234.48C441.704 234.107 442.204 233.827 442.778 233.64C443.364 233.453 443.998 233.36 444.678 233.36C445.598 233.36 446.418 233.54 447.138 233.9C447.858 234.247 448.431 234.747 448.858 235.4C449.284 236.04 449.498 236.793 449.498 237.66C449.498 238.58 449.271 239.38 448.818 240.06C448.364 240.74 447.751 241.267 446.978 241.64C446.204 242.013 445.338 242.2 444.378 242.2ZM444.238 240.16C444.771 240.16 445.244 240.067 445.658 239.88C446.071 239.68 446.391 239.4 446.618 239.04C446.858 238.68 446.978 238.26 446.978 237.78C446.978 237.047 446.724 236.467 446.218 236.04C445.711 235.613 445.031 235.4 444.178 235.4C443.618 235.4 443.124 235.507 442.698 235.72C442.284 235.92 441.951 236.2 441.698 236.56C441.458 236.92 441.338 237.333 441.338 237.8C441.338 238.227 441.451 238.62 441.678 238.98C441.904 239.34 442.231 239.627 442.658 239.84C443.098 240.053 443.624 240.16 444.238 240.16Z" fill="#21329B"/>
</svg>
