<svg width="650" height="280" viewBox="0 0 650 280" fill="none" xmlns="http://www.w3.org/2000/svg">
<rect width="650" height="280" fill="white"/>
<g clip-path="url(#clip0_210_7)">
<path d="M212.619 124.465H228.525L231.602 131.669H237.755L223.387 100.633H217.726L203.42 131.639H209.573L212.619 124.465ZM220.587 106.456L226.556 120.053H214.619L220.587 106.456Z" fill="#868686"/>
<path d="M245.108 130.468C247.001 131.456 249.115 131.972 251.261 131.969C253.203 132.006 255.122 131.551 256.83 130.649C257.801 130.099 258.657 129.376 259.353 128.517V131.519H264.737V98.5023H259.014V110.508C258.354 109.77 257.575 109.141 256.707 108.647C255.036 107.765 253.16 107.32 251.261 107.357C249.113 107.34 246.995 107.857 245.108 108.858C243.266 109.844 241.75 111.322 240.739 113.12C239.635 115.064 239.082 117.261 239.139 119.483C239.079 121.725 239.631 123.941 240.739 125.906C241.718 127.803 243.234 129.387 245.108 130.468ZM245.846 115.881C246.46 114.822 247.352 113.941 248.431 113.33C249.556 112.739 250.814 112.429 252.092 112.429C253.37 112.429 254.628 112.739 255.753 113.33C256.832 113.941 257.724 114.822 258.337 115.881C259.012 117.085 259.351 118.441 259.322 119.813C259.344 121.184 259.005 122.538 258.337 123.745C257.743 124.834 256.848 125.739 255.753 126.356C254.628 126.947 253.37 127.257 252.092 127.257C250.814 127.257 249.556 126.947 248.431 126.356C247.336 125.739 246.441 124.834 245.846 123.745C245.179 122.538 244.84 121.184 244.862 119.813C244.842 118.438 245.192 117.083 245.877 115.881H245.846Z" fill="#868686"/>
<path d="M307.409 131.639H313.04V118.072C313.132 116 312.698 113.938 311.778 112.069C310.987 110.601 309.752 109.406 308.24 108.647C306.625 107.904 304.857 107.534 303.071 107.567C300.855 107.524 298.671 108.085 296.764 109.188C295.707 109.829 294.779 110.653 294.026 111.619C293.472 110.656 292.704 109.826 291.78 109.188C290.016 108.101 287.958 107.557 285.873 107.627C284 107.578 282.145 108.002 280.489 108.858C279.488 109.402 278.61 110.137 277.905 111.019V108.017H272.336V131.639H277.997V119.633C277.952 118.293 278.215 116.96 278.766 115.731C279.251 114.737 280.034 113.91 281.012 113.36C282.016 112.808 283.152 112.528 284.304 112.549C285.057 112.503 285.811 112.618 286.513 112.888C287.215 113.158 287.847 113.575 288.365 114.11C289.427 115.441 289.943 117.111 289.811 118.793V131.639H295.441V119.633C295.386 118.289 295.661 116.951 296.241 115.731C296.706 114.733 297.481 113.904 298.456 113.36C299.46 112.808 300.597 112.528 301.748 112.549C302.501 112.503 303.255 112.618 303.957 112.888C304.659 113.158 305.292 113.575 305.81 114.11C306.872 115.441 307.387 117.111 307.256 118.793L307.409 131.639Z" fill="#868686"/>
<path d="M325.838 107.987H320.208V131.669H325.838V107.987Z" fill="#868686"/>
<path d="M323.008 97.4217C322.526 97.406 322.046 97.4855 321.597 97.6558C321.147 97.826 320.738 98.0833 320.393 98.4122C320.062 98.7029 319.801 99.0601 319.625 99.4591C319.45 99.8581 319.365 100.289 319.378 100.723C319.369 101.166 319.454 101.605 319.629 102.013C319.804 102.422 320.064 102.79 320.393 103.095C321.112 103.734 322.05 104.088 323.023 104.088C323.996 104.088 324.934 103.734 325.654 103.095C325.981 102.777 326.236 102.397 326.406 101.979C326.575 101.561 326.654 101.113 326.638 100.663C326.651 100.229 326.566 99.7981 326.391 99.3991C326.216 99 325.954 98.6429 325.623 98.3522C324.906 97.7265 323.97 97.3934 323.008 97.4217Z" fill="#868686"/>
<path d="M351.559 118.793V131.639H357.22V118.072C357.32 115.993 356.864 113.924 355.897 112.069C355.074 110.604 353.82 109.412 352.297 108.647C350.593 107.911 348.745 107.543 346.881 107.569C345.017 107.595 343.181 108.014 341.498 108.797C340.439 109.347 339.515 110.115 338.791 111.049V107.867H333.376V131.639H339.006V119.633C338.957 118.267 339.242 116.909 339.837 115.671C340.363 114.655 341.202 113.825 342.237 113.3C343.328 112.744 344.545 112.465 345.775 112.489C346.56 112.44 347.348 112.553 348.085 112.822C348.822 113.092 349.492 113.51 350.051 114.05C351.164 115.381 351.705 117.081 351.559 118.793Z" fill="#868686"/>
<path d="M370.142 107.987H364.511V131.669H370.142V107.987Z" fill="#868686"/>
<path d="M367.311 97.4217C366.829 97.406 366.349 97.4855 365.9 97.6558C365.45 97.826 365.041 98.0833 364.696 98.4122C364.366 98.7029 364.104 99.0601 363.928 99.4591C363.753 99.8581 363.669 100.289 363.681 100.723C363.672 101.166 363.757 101.605 363.932 102.013C364.107 102.422 364.367 102.79 364.696 103.095C365.416 103.734 366.354 104.088 367.327 104.088C368.3 104.088 369.238 103.734 369.957 103.095C370.278 102.773 370.53 102.393 370.699 101.975C370.868 101.558 370.951 101.112 370.942 100.663C370.954 100.229 370.869 99.7981 370.694 99.3991C370.519 99 370.257 98.6429 369.926 98.3522C369.209 97.7265 368.273 97.3934 367.311 97.4217Z" fill="#868686"/>
<path d="M389.371 126.717C388.166 127.252 386.845 127.489 385.525 127.407C383.972 127.411 382.426 127.188 380.941 126.747C379.563 126.385 378.247 125.828 377.033 125.096L374.849 129.298C376.224 130.155 377.73 130.793 379.31 131.189C381.222 131.712 383.2 131.975 385.186 131.969C387.164 132.014 389.135 131.709 391.001 131.069C392.469 130.554 393.773 129.675 394.785 128.517C395.687 127.421 396.166 126.051 396.139 124.645C396.182 123.51 395.894 122.386 395.308 121.404C394.772 120.594 394.03 119.932 393.155 119.483C392.18 119.005 391.146 118.652 390.078 118.432C389.065 118.17 388.038 117.96 387.002 117.802C385.925 117.802 384.971 117.472 383.925 117.262C383.17 117.129 382.449 116.854 381.802 116.451C381.534 116.28 381.316 116.042 381.17 115.763C381.025 115.484 380.956 115.173 380.971 114.861C380.983 114.463 381.106 114.075 381.329 113.742C381.552 113.408 381.864 113.141 382.233 112.97C383.432 112.417 384.755 112.17 386.079 112.249C387.247 112.252 388.412 112.373 389.555 112.609C390.775 112.891 391.947 113.347 393.032 113.96L395.247 109.758C393.935 109.03 392.512 108.513 391.032 108.227C389.416 107.873 387.765 107.692 386.109 107.687C384.179 107.64 382.257 107.956 380.448 108.617C378.993 109.121 377.713 110.016 376.756 111.199C375.988 112.232 375.533 113.457 375.446 114.731C375.359 116.006 375.643 117.278 376.264 118.402C376.787 119.228 377.518 119.91 378.387 120.383C379.309 120.874 380.291 121.247 381.31 121.494C382.387 121.734 383.463 121.944 384.54 122.094C385.617 122.244 386.602 122.394 387.463 122.574C388.225 122.7 388.955 122.965 389.617 123.355C389.872 123.509 390.08 123.726 390.221 123.985C390.361 124.243 390.429 124.533 390.417 124.826C390.433 125.203 390.344 125.579 390.16 125.911C389.976 126.244 389.703 126.522 389.371 126.717Z" fill="#868686"/>
<path d="M415.614 130.378L413.984 126.416C413.11 127.091 412.02 127.442 410.907 127.407C410.438 127.433 409.969 127.364 409.53 127.204C409.09 127.043 408.69 126.796 408.353 126.476C407.705 125.759 407.373 124.82 407.43 123.865V112.429H413.984V107.987H407.43V102.764H401.8V107.987H397.801V112.429H401.8V124.045C401.713 125.139 401.862 126.239 402.239 127.273C402.615 128.307 403.21 129.253 403.985 130.048C405.693 131.467 407.898 132.188 410.138 132.059C411.176 132.056 412.21 131.925 413.214 131.669C414.085 131.379 414.898 130.942 415.614 130.378Z" fill="#868686"/>
<path d="M425.736 111.619V107.987H420.352V131.639H425.982V120.173C425.903 119.175 426.031 118.171 426.359 117.222C426.687 116.273 427.208 115.399 427.89 114.65C428.584 114.026 429.398 113.542 430.285 113.228C431.173 112.913 432.116 112.774 433.059 112.82H433.551H434.197V107.627C432.201 107.565 430.221 107.998 428.444 108.888C427.303 109.54 426.367 110.485 425.736 111.619Z" fill="#868686"/>
<path d="M447.057 107.627C445.164 107.617 443.279 107.87 441.458 108.377C439.775 108.824 438.191 109.567 436.781 110.568L439.027 114.62C440.025 113.842 441.162 113.252 442.381 112.88C443.665 112.485 445.003 112.283 446.35 112.279C447.997 112.158 449.631 112.64 450.934 113.63C451.455 114.115 451.862 114.704 452.128 115.356C452.394 116.009 452.511 116.71 452.472 117.412V117.772H446.165C444.152 117.692 442.143 118.008 440.258 118.703C438.927 119.175 437.792 120.061 437.028 121.224C436.375 122.315 436.045 123.562 436.074 124.826C436.058 126.118 436.444 127.384 437.181 128.457C437.948 129.567 439.012 130.45 440.258 131.009C441.763 131.637 443.389 131.944 445.027 131.909C446.885 131.983 448.732 131.58 450.38 130.739C451.31 130.2 452.092 129.448 452.657 128.548V131.549H458.164V117.652C458.28 116.255 458.085 114.85 457.591 113.534C457.097 112.218 456.316 111.022 455.303 110.028C452.954 108.258 450.016 107.402 447.057 107.627ZM450.134 126.927C448.991 127.56 447.695 127.881 446.38 127.857C445.176 127.932 443.979 127.626 442.965 126.987C442.605 126.719 442.311 126.376 442.102 125.984C441.893 125.592 441.776 125.159 441.758 124.718C441.741 124.276 441.823 123.836 442 123.43C442.177 123.023 442.443 122.659 442.781 122.364C443.917 121.61 445.293 121.28 446.657 121.434H452.564V124.195C452.087 125.387 451.193 126.375 450.042 126.987L450.134 126.927Z" fill="#868686"/>
<path d="M482.777 130.528C484.545 129.605 485.975 128.168 486.869 126.416L482.561 123.955C481.903 124.996 480.982 125.854 479.885 126.446C478.843 126.988 477.68 127.266 476.5 127.257C475.191 127.276 473.898 126.966 472.747 126.356C471.63 125.761 470.711 124.865 470.101 123.775C469.44 122.556 469.112 121.192 469.147 119.813C469.109 118.444 469.438 117.088 470.101 115.881C470.721 114.806 471.638 113.922 472.747 113.33C473.898 112.72 475.191 112.41 476.5 112.429C477.68 112.42 478.843 112.699 479.885 113.24C480.98 113.82 481.903 114.668 482.561 115.701L486.869 113.21C486 111.441 484.563 109.997 482.777 109.098C480.878 108.135 478.763 107.65 476.623 107.687C474.258 107.637 471.919 108.174 469.824 109.248C467.901 110.233 466.286 111.705 465.148 113.51C464.057 115.435 463.485 117.598 463.485 119.798C463.485 121.998 464.057 124.161 465.148 126.086C466.275 127.907 467.893 129.391 469.824 130.378C471.916 131.462 474.255 132.01 476.623 131.969C478.765 131.995 480.88 131.5 482.777 130.528Z" fill="#868686"/>
<path d="M494.13 97.4217C493.648 97.406 493.168 97.4855 492.718 97.6558C492.269 97.826 491.859 98.0833 491.514 98.4122C491.184 98.7029 490.922 99.0601 490.747 99.4591C490.572 99.8581 490.487 100.289 490.499 100.723C490.49 101.166 490.576 101.605 490.751 102.013C490.925 102.422 491.186 102.79 491.514 103.095C492.234 103.734 493.172 104.088 494.145 104.088C495.118 104.088 496.056 103.734 496.776 103.095C497.096 102.773 497.349 102.393 497.517 101.975C497.686 101.558 497.769 101.112 497.76 100.663C497.772 100.229 497.688 99.7981 497.512 99.3991C497.337 99 497.075 98.6429 496.745 98.3522C496.027 97.7265 495.091 97.3934 494.13 97.4217Z" fill="#868686"/>
<path d="M496.96 107.987H491.33V131.669H496.96V107.987Z" fill="#868686"/>
<path d="M522.065 109.248C520.003 108.178 517.694 107.64 515.358 107.687C513.042 107.64 510.753 108.178 508.713 109.248C506.822 110.243 505.239 111.715 504.129 113.51C503.021 115.424 502.438 117.585 502.438 119.783C502.438 121.981 503.021 124.142 504.129 126.056C505.231 127.883 506.828 129.378 508.743 130.378C510.771 131.455 513.05 132.003 515.358 131.969C517.686 132.003 519.984 131.455 522.034 130.378C523.949 129.39 525.546 127.904 526.649 126.086C527.74 124.161 528.312 121.998 528.312 119.798C528.312 117.598 527.74 115.435 526.649 113.51C525.539 111.715 523.956 110.243 522.065 109.248ZM521.635 123.745C521.061 124.839 520.174 125.746 519.081 126.356C517.942 126.97 516.659 127.28 515.358 127.257C514.088 127.273 512.836 126.962 511.728 126.356C510.619 125.756 509.719 124.847 509.143 123.745C508.476 122.538 508.137 121.184 508.159 119.813C508.13 118.441 508.469 117.085 509.143 115.881C509.74 114.809 510.637 113.925 511.728 113.33C512.859 112.739 514.121 112.429 515.404 112.429C516.687 112.429 517.95 112.739 519.081 113.33C520.157 113.934 521.041 114.817 521.635 115.881C522.298 117.088 522.627 118.444 522.588 119.813C522.62 121.182 522.291 122.535 521.635 123.745Z" fill="#868686"/>
<path d="M524.373 98.6524H517.635L511.512 104.745H516.404L524.373 98.6524Z" fill="#868686"/>
<path d="M550.462 114.11C551.574 115.418 552.116 117.099 551.97 118.793V131.639H557.662V118.072C557.752 115.99 557.285 113.922 556.308 112.069C555.487 110.612 554.246 109.423 552.739 108.647C551.029 107.91 549.176 107.542 547.307 107.568C545.438 107.594 543.597 108.013 541.909 108.797C540.856 109.355 539.933 110.122 539.202 111.049V107.867H533.787V131.639H539.448V119.633C539.399 118.267 539.684 116.909 540.279 115.671C540.791 114.656 541.621 113.825 542.648 113.3C543.75 112.744 544.976 112.465 546.217 112.489C547.002 112.444 547.789 112.566 548.522 112.845C549.255 113.125 549.917 113.557 550.462 114.11Z" fill="#868686"/>
<path d="M211.265 158.923L205.881 147.367H203.943L210.096 160.934L209.481 162.255C209.202 162.938 208.759 163.545 208.188 164.025C207.73 164.367 207.166 164.547 206.589 164.536C206.113 164.539 205.642 164.447 205.204 164.266C204.781 164.072 204.396 163.808 204.066 163.485L203.174 164.866C203.611 165.282 204.136 165.599 204.712 165.796C205.304 166.003 205.929 166.104 206.558 166.096C207.19 166.114 207.819 166.002 208.404 165.766C208.989 165.531 209.506 165.16 209.911 164.686C210.466 164.065 210.904 163.354 211.204 162.585L218.187 147.367H216.342L211.265 158.923Z" fill="#868686"/>
<path d="M240.185 142.835H225.202V144.516H231.725V160.964H233.663V144.516H240.185V142.835Z" fill="#868686"/>
<path d="M250.215 148.117C249.155 147.533 247.956 147.232 246.739 147.247C245.532 147.224 244.342 147.522 243.296 148.109C242.25 148.696 241.387 149.55 240.801 150.579C240.197 151.676 239.89 152.905 239.908 154.15C239.88 155.4 240.199 156.635 240.831 157.722C241.441 158.762 242.336 159.614 243.416 160.184C244.586 160.8 245.901 161.111 247.231 161.084C248.285 161.098 249.332 160.904 250.307 160.514C251.199 160.148 251.989 159.582 252.615 158.863L251.538 157.662C251.033 158.253 250.389 158.717 249.661 159.013C248.91 159.314 248.105 159.467 247.292 159.463C246.288 159.469 245.297 159.242 244.4 158.803C243.593 158.379 242.922 157.745 242.462 156.972C242.069 156.281 241.848 155.51 241.816 154.721H253.476V154.15C253.506 152.898 253.209 151.659 252.615 150.549C252.07 149.531 251.237 148.687 250.215 148.117ZM242.37 151.299C242.78 150.54 243.398 149.906 244.154 149.468C244.945 149.043 245.836 148.825 246.739 148.838C247.632 148.822 248.514 149.04 249.292 149.468C250.027 149.919 250.639 150.537 251.077 151.269C251.397 151.919 251.596 152.621 251.661 153.34H241.816C241.85 152.629 242.039 151.933 242.37 151.299Z" fill="#868686"/>
<path d="M260.276 149.648C261.037 149.247 261.882 149.022 262.746 148.99C263.611 148.959 264.471 149.123 265.26 149.468C265.983 149.815 266.599 150.344 267.044 150.999L268.429 150.068C267.912 149.187 267.127 148.484 266.183 148.057C265.221 147.611 264.171 147.375 263.106 147.367C261.82 147.349 260.55 147.648 259.414 148.237C258.349 148.812 257.457 149.651 256.83 150.669C256.202 151.769 255.884 153.012 255.907 154.271C255.879 155.521 256.198 156.755 256.83 157.842C257.439 158.882 258.335 159.734 259.414 160.304C260.468 160.857 261.639 161.164 262.835 161.201C264.031 161.237 265.219 161.002 266.306 160.514C267.244 160.077 268.026 159.377 268.552 158.503L267.167 157.572C266.73 158.227 266.111 158.747 265.383 159.073C264.663 159.411 263.874 159.585 263.075 159.583C262.141 159.586 261.22 159.359 260.399 158.923C259.607 158.486 258.957 157.841 258.522 157.062C258.036 156.209 257.792 155.246 257.814 154.271C257.801 153.296 258.044 152.335 258.522 151.479C258.925 150.725 259.532 150.092 260.276 149.648Z" fill="#868686"/>
<path d="M282.058 147.877C281.102 147.422 280.045 147.205 278.982 147.247C277.765 147.207 276.561 147.498 275.505 148.087C274.735 148.541 274.099 149.183 273.659 149.948V147.367H271.875V160.964H273.751V153.82C273.719 152.906 273.92 151.999 274.336 151.179C274.707 150.461 275.299 149.873 276.028 149.498C276.824 149.089 277.713 148.883 278.612 148.898C279.175 148.875 279.737 148.961 280.265 149.151C280.793 149.342 281.277 149.633 281.689 150.008C282.081 150.451 282.379 150.966 282.564 151.523C282.749 152.08 282.817 152.667 282.766 153.25V160.964H284.673V153.07C284.715 151.936 284.461 150.81 283.935 149.798C283.511 148.996 282.859 148.329 282.058 147.877Z" fill="#868686"/>
<path d="M299.103 148.147C297.988 147.531 296.723 147.22 295.441 147.247C294.175 147.232 292.926 147.532 291.811 148.117C290.77 148.703 289.901 149.54 289.288 150.549C288.682 151.652 288.365 152.884 288.365 154.135C288.365 155.387 288.682 156.619 289.288 157.722C289.882 158.753 290.755 159.604 291.811 160.184C292.918 160.792 294.171 161.103 295.441 161.084C296.722 161.104 297.985 160.793 299.103 160.184C300.165 159.612 301.039 158.758 301.625 157.722C302.231 156.625 302.549 155.397 302.549 154.15C302.549 152.904 302.231 151.676 301.625 150.579C301.021 149.564 300.15 148.725 299.103 148.147ZM299.964 156.942C299.523 157.707 298.887 158.348 298.118 158.803C297.301 159.236 296.387 159.463 295.457 159.463C294.527 159.463 293.612 159.236 292.796 158.803C292.029 158.355 291.401 157.711 290.98 156.942C290.517 156.081 290.275 155.123 290.275 154.15C290.275 153.178 290.517 152.22 290.98 151.359C291.405 150.59 292.045 149.955 292.826 149.528C293.637 149.095 294.547 148.867 295.472 148.867C296.397 148.867 297.307 149.095 298.118 149.528C298.892 149.964 299.531 150.597 299.964 151.359C300.408 152.226 300.639 153.181 300.639 154.15C300.639 155.119 300.408 156.075 299.964 156.942Z" fill="#868686"/>
<path d="M308.148 141.754H306.271V160.934H308.148V141.754Z" fill="#868686"/>
<path d="M322.608 148.147C321.48 147.535 320.207 147.224 318.916 147.247C317.65 147.232 316.401 147.532 315.286 148.117C314.254 148.705 313.395 149.542 312.794 150.549C312.169 151.646 311.841 152.88 311.841 154.135C311.841 155.391 312.169 156.625 312.794 157.722C313.377 158.751 314.239 159.602 315.286 160.184C316.405 160.775 317.658 161.084 318.931 161.084C320.205 161.084 321.458 160.775 322.577 160.184C323.649 159.614 324.534 158.761 325.131 157.722C325.716 156.618 326.022 155.393 326.022 154.15C326.022 152.908 325.716 151.683 325.131 150.579C324.518 149.57 323.649 148.733 322.608 148.147ZM323.439 156.942C323.015 157.719 322.375 158.364 321.593 158.803C320.774 159.246 319.852 159.474 318.916 159.463C318.007 159.483 317.11 159.258 316.323 158.813C315.536 158.369 314.89 157.721 314.455 156.942C313.991 156.081 313.749 155.123 313.749 154.15C313.749 153.178 313.991 152.22 314.455 151.359C314.888 150.597 315.527 149.964 316.301 149.528C317.112 149.095 318.022 148.867 318.947 148.867C319.872 148.867 320.782 149.095 321.593 149.528C322.381 149.946 323.023 150.584 323.439 151.359C323.883 152.226 324.114 153.181 324.114 154.15C324.114 155.119 323.883 156.075 323.439 156.942Z" fill="#868686"/>
<path d="M340.852 149.978C340.315 149.142 339.562 148.459 338.668 147.997C337.641 147.482 336.5 147.224 335.345 147.247C334.092 147.226 332.853 147.515 331.746 148.087C330.713 148.62 329.851 149.42 329.254 150.399C328.627 151.434 328.307 152.618 328.331 153.82C328.311 155.031 328.63 156.225 329.254 157.272C329.859 158.252 330.718 159.06 331.746 159.613C332.859 160.172 334.094 160.46 335.345 160.454C336.502 160.466 337.644 160.198 338.668 159.673C339.519 159.214 340.238 158.553 340.76 157.752V159.523C340.822 160.197 340.745 160.876 340.533 161.52C340.322 162.165 339.981 162.761 339.529 163.275C338.992 163.717 338.37 164.051 337.699 164.257C337.028 164.463 336.322 164.537 335.622 164.476C334.574 164.481 333.533 164.308 332.546 163.965C331.649 163.682 330.822 163.222 330.115 162.615L329.161 163.995C329.962 164.73 330.933 165.266 331.992 165.556C333.177 165.918 334.411 166.1 335.653 166.096C337.536 166.233 339.4 165.652 340.852 164.476C341.488 163.776 341.971 162.957 342.272 162.07C342.574 161.183 342.687 160.245 342.606 159.313V147.307H340.822L340.852 149.978ZM338.237 158.172C337.405 158.605 336.473 158.822 335.53 158.803C334.578 158.815 333.638 158.598 332.792 158.172C332.013 157.772 331.364 157.17 330.915 156.432C330.46 155.633 330.227 154.733 330.238 153.82C330.228 152.917 330.462 152.027 330.915 151.239C331.364 150.501 332.013 149.898 332.792 149.498C333.638 149.072 334.578 148.856 335.53 148.868C336.473 148.848 337.405 149.065 338.237 149.498C339.025 149.896 339.685 150.499 340.145 151.239C340.612 152.021 340.847 152.915 340.822 153.82C340.846 154.735 340.612 155.638 340.145 156.432C339.668 157.18 338.986 157.783 338.176 158.172H338.237Z" fill="#868686"/>
<path d="M347.006 145.266H348.852L353.159 142.054H350.636L347.006 145.266Z" fill="#868686"/>
<path d="M349.651 147.367H347.775V160.934H349.651V147.367Z" fill="#868686"/>
<path d="M359.712 147.247C358.667 147.242 357.627 147.404 356.635 147.727C355.708 148.024 354.843 148.482 354.082 149.078L354.943 150.459C355.554 149.952 356.252 149.555 357.005 149.288C357.833 148.996 358.709 148.853 359.589 148.868C360.14 148.813 360.696 148.868 361.224 149.028C361.753 149.188 362.243 149.45 362.666 149.798C363.007 150.149 363.271 150.564 363.441 151.019C363.61 151.473 363.681 151.957 363.65 152.44V153.28H359.22C358.167 153.25 357.119 153.434 356.143 153.82C355.444 154.095 354.851 154.578 354.451 155.201C354.107 155.785 353.927 156.448 353.928 157.122C353.919 157.856 354.133 158.577 354.543 159.193C354.975 159.812 355.585 160.293 356.297 160.574C357.164 160.926 358.096 161.1 359.035 161.084C360.189 161.12 361.329 160.84 362.327 160.274C362.963 159.894 363.484 159.355 363.835 158.713V160.964H365.619V152.65C365.679 151.925 365.577 151.196 365.323 150.512C365.068 149.828 364.665 149.206 364.142 148.688C363.541 148.169 362.839 147.775 362.078 147.527C361.316 147.28 360.512 147.184 359.712 147.247ZM361.773 158.923C360.953 159.42 360.001 159.67 359.035 159.643C358.12 159.691 357.213 159.449 356.451 158.953C356.158 158.736 355.921 158.454 355.761 158.13C355.6 157.807 355.521 157.451 355.528 157.092C355.516 156.764 355.58 156.438 355.712 156.137C355.845 155.836 356.045 155.568 356.297 155.351C357.113 154.797 358.109 154.551 359.097 154.661H363.466V156.882C363.138 157.738 362.519 158.458 361.712 158.923H361.773Z" fill="#868686"/>
<path d="M387.832 148.117C386.74 147.532 385.51 147.232 384.264 147.247C383.112 147.23 381.977 147.51 380.972 148.057C380.109 148.555 379.389 149.257 378.879 150.098V147.367H377.095V165.976H378.972V158.293C379.469 159.107 380.167 159.788 381.002 160.274C381.998 160.817 383.122 161.097 384.264 161.084C385.51 161.099 386.74 160.799 387.832 160.214C388.863 159.635 389.713 158.795 390.294 157.782C390.9 156.668 391.217 155.427 391.217 154.166C391.217 152.904 390.9 151.663 390.294 150.549C389.732 149.523 388.877 148.678 387.832 148.117ZM388.632 156.942C388.191 157.707 387.555 158.348 386.786 158.803C385.978 159.242 385.066 159.47 384.14 159.463C383.206 159.466 382.285 159.239 381.464 158.803C380.695 158.348 380.059 157.707 379.618 156.942C379.15 156.084 378.916 155.122 378.941 154.15C378.913 153.188 379.147 152.235 379.618 151.389C380.057 150.601 380.713 149.947 381.512 149.502C382.311 149.056 383.221 148.837 384.14 148.868C385.068 148.846 385.983 149.075 386.786 149.528C387.555 149.983 388.191 150.624 388.632 151.389C389.114 152.232 389.358 153.185 389.34 154.15C389.354 155.125 389.11 156.086 388.632 156.942Z" fill="#868686"/>
<path d="M399.708 147.247C398.663 147.242 397.623 147.404 396.632 147.727C395.704 148.024 394.839 148.482 394.078 149.078L394.939 150.459C395.55 149.952 396.248 149.555 397.001 149.288C397.829 148.998 398.705 148.856 399.585 148.868C400.136 148.813 400.692 148.868 401.22 149.028C401.749 149.188 402.239 149.45 402.662 149.798C403.003 150.149 403.267 150.564 403.437 151.019C403.606 151.473 403.677 151.957 403.646 152.44V153.28H399.216C398.163 153.25 397.115 153.434 396.139 153.82C395.44 154.095 394.848 154.578 394.447 155.201C394.103 155.785 393.923 156.448 393.924 157.122C393.915 157.856 394.129 158.577 394.539 159.193C394.982 159.815 395.603 160.295 396.324 160.574C397.18 160.927 398.102 161.1 399.031 161.084C400.185 161.12 401.326 160.84 402.323 160.274C402.959 159.894 403.48 159.355 403.831 158.713V160.964H405.615V152.65C405.671 151.927 405.571 151.202 405.322 150.519C405.073 149.837 404.68 149.213 404.169 148.688C402.936 147.651 401.332 147.132 399.708 147.247ZM401.769 158.923C400.95 159.423 399.997 159.674 399.031 159.643C398.116 159.691 397.209 159.449 396.447 158.953C396.154 158.736 395.917 158.454 395.757 158.13C395.597 157.807 395.517 157.451 395.524 157.092C395.513 156.764 395.576 156.438 395.709 156.137C395.842 155.836 396.041 155.568 396.293 155.351C397.109 154.797 398.105 154.551 399.093 154.661H403.462V156.882C403.173 157.716 402.611 158.433 401.862 158.923H401.769Z" fill="#868686"/>
<path d="M412.23 150.098V147.367H410.415V160.964H412.322V154.03C412.226 152.682 412.667 151.348 413.553 150.309C414 149.866 414.538 149.522 415.133 149.299C415.727 149.077 416.363 148.981 416.999 149.018H417.429V147.217C416.237 147.177 415.055 147.458 414.014 148.027C413.213 148.52 412.59 149.244 412.23 150.098Z" fill="#868686"/>
<path d="M424.875 147.247C423.829 147.242 422.79 147.404 421.798 147.727C420.871 148.024 420.006 148.482 419.245 149.078L420.106 150.459C420.716 149.952 421.414 149.556 422.167 149.288C422.996 148.998 423.872 148.856 424.752 148.868C425.302 148.814 425.859 148.868 426.387 149.028C426.916 149.188 427.406 149.45 427.828 149.798C428.17 150.149 428.434 150.564 428.603 151.019C428.773 151.473 428.844 151.957 428.813 152.44V153.28H424.321C423.268 153.25 422.221 153.434 421.244 153.82C420.545 154.095 419.953 154.578 419.552 155.201C419.208 155.785 419.028 156.448 419.029 157.122C419.02 157.856 419.235 158.577 419.645 159.193C420.087 159.815 420.708 160.295 421.429 160.574C422.285 160.927 423.207 161.1 424.137 161.084C425.29 161.12 426.431 160.84 427.428 160.274C428.065 159.894 428.585 159.355 428.936 158.713V160.964H430.474V152.65C430.53 151.927 430.43 151.202 430.181 150.519C429.932 149.837 429.539 149.213 429.028 148.688C427.874 147.723 426.394 147.21 424.875 147.247ZM426.936 158.923C426.117 159.423 425.164 159.674 424.198 159.643C423.283 159.691 422.376 159.449 421.614 158.953C421.32 158.736 421.084 158.454 420.924 158.13C420.763 157.807 420.683 157.451 420.691 157.092C420.679 156.764 420.742 156.438 420.875 156.137C421.008 155.836 421.208 155.568 421.46 155.351C422.276 154.797 423.271 154.551 424.26 154.661H428.628V156.882C428.316 157.729 427.72 158.448 426.936 158.923Z" fill="#868686"/>
<path d="M451.211 148.117C450.141 147.529 448.931 147.229 447.703 147.247C446.502 147.229 445.318 147.53 444.278 148.117C443.238 148.703 442.38 149.554 441.796 150.579C441.192 151.676 440.885 152.905 440.904 154.15C440.876 155.4 441.195 156.635 441.827 157.722C442.427 158.769 443.325 159.624 444.411 160.184C445.465 160.713 446.622 161.016 447.805 161.073C448.989 161.13 450.171 160.939 451.272 160.514C452.178 160.158 452.981 159.591 453.611 158.863L452.534 157.662C452.029 158.253 451.385 158.717 450.657 159.013C449.905 159.314 449.1 159.467 448.288 159.463C447.283 159.477 446.29 159.25 445.396 158.803C444.586 158.373 443.906 157.741 443.427 156.972C443.062 156.27 442.843 155.505 442.781 154.721H454.441C454.426 154.621 454.426 154.52 454.441 154.421V154.15C454.471 152.898 454.174 151.659 453.58 150.549C453.043 149.535 452.221 148.692 451.211 148.117ZM443.365 151.299C443.776 150.54 444.393 149.906 445.15 149.468C445.719 149.128 446.353 148.905 447.014 148.812C447.674 148.719 448.347 148.758 448.992 148.926C449.636 149.095 450.239 149.389 450.763 149.792C451.288 150.195 451.722 150.697 452.041 151.269C452.392 151.908 452.592 152.616 452.626 153.34H442.781C442.824 152.627 443.024 151.931 443.365 151.299Z" fill="#868686"/>
<path d="M460.071 141.754H458.195V160.934H460.071V141.754Z" fill="#868686"/>
<path d="M485.146 144.005C483.538 143.207 481.75 142.815 479.946 142.865H472.409V160.874H479.946C481.753 160.914 483.54 160.512 485.146 159.703C486.602 158.99 487.819 157.886 488.653 156.522C489.461 155.076 489.884 153.456 489.884 151.809C489.884 150.163 489.461 148.543 488.653 147.097C487.796 145.773 486.583 144.703 485.146 144.005ZM486.961 155.741C486.282 156.849 485.302 157.752 484.131 158.353C482.808 159.01 481.339 159.34 479.854 159.313H474.347V144.516H479.854C481.336 144.479 482.805 144.799 484.131 145.446C485.302 146.046 486.282 146.95 486.961 148.057C487.632 149.231 487.971 150.556 487.946 151.899C487.951 153.211 487.612 154.503 486.961 155.651V155.741Z" fill="#868686"/>
<path d="M495.637 147.367H493.76V160.934H495.637V147.367Z" fill="#868686"/>
<path d="M494.714 141.784C494.35 141.773 493.996 141.903 493.729 142.144C493.598 142.262 493.493 142.406 493.424 142.567C493.355 142.727 493.323 142.901 493.329 143.075C493.327 143.248 493.361 143.421 493.43 143.581C493.499 143.741 493.601 143.885 493.729 144.005C493.993 144.255 494.346 144.395 494.714 144.396C494.897 144.399 495.078 144.366 495.247 144.299C495.416 144.232 495.57 144.132 495.698 144.005C495.828 143.88 495.93 143.73 495.999 143.565C496.068 143.4 496.102 143.223 496.098 143.045C496.097 142.876 496.061 142.71 495.992 142.555C495.923 142.4 495.823 142.261 495.698 142.144C495.432 141.903 495.078 141.773 494.714 141.784Z" fill="#868686"/>
<path d="M508.467 154.361C507.898 154.094 507.299 153.892 506.682 153.76L504.744 153.37C504.141 153.278 503.545 153.148 502.96 152.98C502.481 152.849 502.039 152.613 501.667 152.29C501.501 152.137 501.37 151.95 501.285 151.742C501.2 151.535 501.162 151.312 501.175 151.089C501.176 150.768 501.258 150.452 501.413 150.169C501.569 149.887 501.793 149.646 502.067 149.468C502.902 148.985 503.869 148.764 504.836 148.838C505.553 148.839 506.266 148.93 506.959 149.108C507.667 149.298 508.341 149.591 508.959 149.978L509.759 148.508C509.069 148.104 508.323 147.801 507.544 147.607C506.662 147.37 505.751 147.249 504.836 147.247C503.786 147.219 502.741 147.392 501.76 147.757C501.019 148.045 500.371 148.522 499.883 149.138C499.482 149.725 499.268 150.414 499.268 151.119C499.218 151.775 499.391 152.429 499.76 152.98C500.074 153.463 500.522 153.848 501.052 154.09C501.602 154.376 502.193 154.578 502.806 154.691L504.744 155.051C505.39 155.051 506.005 155.291 506.528 155.441C506.998 155.565 507.438 155.779 507.821 156.071C507.983 156.228 508.11 156.415 508.195 156.622C508.279 156.828 508.32 157.05 508.313 157.272C508.316 157.589 508.235 157.902 508.079 158.181C507.923 158.459 507.696 158.694 507.421 158.863C506.555 159.352 505.557 159.572 504.559 159.493C503.617 159.497 502.681 159.345 501.79 159.043C501.007 158.8 500.27 158.435 499.606 157.962L498.745 159.403C499.473 159.945 500.296 160.352 501.175 160.604C502.228 160.935 503.33 161.097 504.436 161.084C505.483 161.109 506.526 160.946 507.513 160.604C508.288 160.345 508.971 159.877 509.482 159.253C509.928 158.662 510.166 157.946 510.159 157.212C510.181 156.577 510.01 155.951 509.667 155.411C509.359 154.972 508.948 154.611 508.467 154.361Z" fill="#868686"/>
<path d="M522.434 148.117C521.376 147.529 520.176 147.228 518.958 147.247C517.736 147.231 516.534 147.543 515.481 148.147C514.46 148.728 513.62 149.568 513.051 150.579C512.455 151.68 512.144 152.906 512.144 154.15C512.144 155.395 512.455 156.621 513.051 157.722C513.651 158.769 514.548 159.624 515.635 160.184C516.688 160.713 517.846 161.016 519.029 161.073C520.212 161.13 521.394 160.939 522.496 160.514C523.387 160.148 524.178 159.582 524.803 158.863L523.757 157.662C523.241 158.254 522.587 158.717 521.85 159.013C521.1 159.32 520.294 159.474 519.481 159.463C518.486 159.472 517.505 159.245 516.62 158.803C515.803 158.381 515.121 157.748 514.651 156.972C514.257 156.281 514.036 155.51 514.004 154.721H525.849V154.421C525.864 154.331 525.864 154.24 525.849 154.15C525.868 152.896 525.561 151.657 524.957 150.549C524.393 149.504 523.512 148.655 522.434 148.117ZM514.62 151.299C515.03 150.54 515.648 149.906 516.404 149.468C516.973 149.128 517.608 148.905 518.268 148.812C518.929 148.719 519.601 148.758 520.246 148.926C520.891 149.095 521.493 149.389 522.018 149.792C522.542 150.195 522.977 150.697 523.296 151.269C523.633 151.913 523.832 152.618 523.88 153.34H514.035C514.094 152.629 514.292 151.936 514.62 151.299Z" fill="#868686"/>
<path d="M533.172 143.795C533.288 143.65 533.438 143.533 533.609 143.455C533.78 143.377 533.968 143.339 534.156 143.345C534.436 143.354 534.705 143.448 534.926 143.615C535.187 143.808 535.433 144.019 535.664 144.245C535.931 144.472 536.219 144.673 536.525 144.846C536.865 145.026 537.246 145.119 537.633 145.116C537.957 145.121 538.279 145.053 538.572 144.917C538.865 144.782 539.123 144.583 539.325 144.335C539.794 143.768 540.034 143.053 540.002 142.324H538.864C538.873 142.748 538.732 143.162 538.464 143.495C538.254 143.736 537.956 143.887 537.634 143.915C537.311 143.943 536.99 143.846 536.741 143.645C536.473 143.472 536.225 143.271 536.002 143.045C535.723 142.811 535.425 142.6 535.11 142.415C534.66 142.173 534.137 142.092 533.632 142.185C533.127 142.278 532.67 142.539 532.341 142.925C531.884 143.523 531.636 144.249 531.634 144.996H532.772C532.787 144.567 532.925 144.151 533.172 143.795Z" fill="#868686"/>
<path d="M539.51 147.877C538.493 147.428 537.385 147.213 536.27 147.25C535.154 147.286 534.063 147.573 533.08 148.087C532.303 148.533 531.665 149.177 531.234 149.948V147.367H529.449V160.964H531.326V153.82C531.294 152.906 531.494 151.999 531.911 151.179C532.282 150.461 532.873 149.873 533.603 149.498C534.399 149.089 535.288 148.883 536.187 148.898C536.75 148.875 537.311 148.961 537.84 149.151C538.368 149.342 538.852 149.633 539.264 150.008C540.041 150.911 540.427 152.074 540.34 153.25V160.964H542.217V153.07C542.269 151.938 542.025 150.813 541.51 149.798C541.053 148.979 540.357 148.31 539.51 147.877Z" fill="#868686"/>
<path d="M559.077 150.579C558.472 149.564 557.602 148.725 556.554 148.147C555.439 147.531 554.174 147.22 552.893 147.247C551.626 147.228 550.376 147.528 549.262 148.117C548.215 148.695 547.344 149.534 546.74 150.549C546.134 151.652 545.817 152.884 545.817 154.135C545.817 155.387 546.134 156.619 546.74 157.722C547.326 158.758 548.2 159.612 549.262 160.184C550.368 160.796 551.622 161.107 552.893 161.084C554.173 161.104 555.436 160.793 556.554 160.184C557.616 159.612 558.491 158.758 559.077 157.722C559.683 156.625 560 155.397 560 154.15C560 152.904 559.683 151.676 559.077 150.579ZM557.416 156.942C556.974 157.707 556.339 158.348 555.57 158.803C554.753 159.236 553.838 159.463 552.908 159.463C551.979 159.463 551.064 159.236 550.247 158.803C549.478 158.348 548.842 157.707 548.401 156.942C547.957 156.075 547.726 155.119 547.726 154.15C547.726 153.181 547.957 152.226 548.401 151.359C548.838 150.589 549.488 149.954 550.278 149.528C551.089 149.095 551.999 148.867 552.924 148.867C553.849 148.867 554.758 149.095 555.57 149.528C556.344 149.964 556.982 150.597 557.416 151.359C557.86 152.226 558.091 153.181 558.091 154.15C558.091 155.119 557.86 156.075 557.416 156.942Z" fill="#868686"/>
<path d="M177.022 164.956L175.546 161.234C175.358 160.725 175.067 160.258 174.691 159.861C174.315 159.464 173.862 159.143 173.357 158.92C172.852 158.696 172.307 158.573 171.753 158.558C171.199 158.543 170.647 158.637 170.131 158.833C168.537 159.366 166.862 159.63 165.177 159.613C163.867 159.675 162.557 159.463 161.337 158.992C160.117 158.521 159.014 157.802 158.101 156.882C156.524 154.978 155.656 152.607 155.64 150.158V135.901H165.885C167.075 135.918 168.225 135.483 169.092 134.687C169.959 133.892 170.475 132.799 170.531 131.639V128.127C170.491 126.957 169.981 125.849 169.113 125.04C168.244 124.232 167.085 123.789 165.885 123.805H155.701C155.701 113.75 152.871 106.276 147.271 101.414C141.672 96.5513 133.673 94.1201 123.274 94.1201C117.728 94.1046 112.207 94.8523 106.875 96.3412C103.668 97.2066 100.571 98.425 97.6455 99.973C96.3781 100.679 95.4473 101.844 95.0556 103.215C94.6638 104.587 94.8428 106.053 95.5534 107.297L96.7533 109.488C97.4518 110.757 98.6357 111.705 100.047 112.127C101.459 112.548 102.984 112.409 104.291 111.739C105.959 110.885 107.698 110.172 109.491 109.608C113.235 108.412 117.149 107.794 121.089 107.777C125.963 107.416 130.801 108.839 134.657 111.769C136.175 113.198 137.36 114.93 138.13 116.847C138.9 118.764 139.237 120.819 139.118 122.875V123.925H120.659C114.746 123.705 108.848 124.633 103.307 126.657C99.5071 128.119 96.2773 130.713 94.0767 134.07C92.1505 137.271 91.1608 140.925 91.2154 144.636C91.1552 148.449 92.2933 152.188 94.4766 155.351C96.7744 158.623 99.9743 161.193 103.706 162.765C108.119 164.636 112.895 165.548 117.705 165.436C123.165 165.655 128.59 164.498 133.457 162.074C136.359 160.518 138.798 158.253 140.534 155.501C141.073 159.892 143.047 163.996 146.164 167.207C148.47 169.284 151.181 170.886 154.136 171.917C157.091 172.949 160.229 173.388 163.362 173.21C166.144 173.208 168.911 172.814 171.577 172.04C172.811 171.597 173.997 171.034 175.115 170.359C176.047 169.834 176.754 168.998 177.105 168.005C177.455 167.013 177.426 165.929 177.022 164.956ZM132.042 150.759C128.68 152.596 124.881 153.538 121.028 153.49C117.493 153.694 113.986 152.778 111.029 150.879C109.89 150.109 108.965 149.075 108.336 147.87C107.708 146.665 107.396 145.327 107.429 143.975C107.41 142.708 107.675 141.452 108.207 140.296C108.738 139.139 109.523 138.111 110.506 137.282C112.536 135.511 116.321 134.611 121.92 134.611H139.272V142.685C137.864 146.094 135.317 148.94 132.042 150.759Z" fill="#21329B"/>
</g>
<path d="M283.1 253V239H289C290.493 239 291.807 239.293 292.94 239.88C294.087 240.467 294.973 241.287 295.6 242.34C296.24 243.393 296.56 244.613 296.56 246C296.56 247.387 296.24 248.607 295.6 249.66C294.973 250.713 294.087 251.533 292.94 252.12C291.807 252.707 290.493 253 289 253H283.1ZM285.1 251.26H288.88C290.04 251.26 291.04 251.04 291.88 250.6C292.733 250.16 293.393 249.547 293.86 248.76C294.327 247.96 294.56 247.04 294.56 246C294.56 244.947 294.327 244.027 293.86 243.24C293.393 242.453 292.733 241.84 291.88 241.4C291.04 240.96 290.04 240.74 288.88 240.74H285.1V251.26ZM304.063 253.12C302.93 253.12 301.93 252.887 301.063 252.42C300.21 251.953 299.543 251.313 299.063 250.5C298.597 249.687 298.363 248.753 298.363 247.7C298.363 246.647 298.59 245.713 299.043 244.9C299.51 244.087 300.143 243.453 300.943 243C301.757 242.533 302.67 242.3 303.683 242.3C304.71 242.3 305.617 242.527 306.403 242.98C307.19 243.433 307.803 244.073 308.243 244.9C308.697 245.713 308.923 246.667 308.923 247.76C308.923 247.84 308.917 247.933 308.903 248.04C308.903 248.147 308.897 248.247 308.883 248.34H299.863V246.96H307.883L307.103 247.44C307.117 246.76 306.977 246.153 306.683 245.62C306.39 245.087 305.983 244.673 305.463 244.38C304.957 244.073 304.363 243.92 303.683 243.92C303.017 243.92 302.423 244.073 301.903 244.38C301.383 244.673 300.977 245.093 300.683 245.64C300.39 246.173 300.243 246.787 300.243 247.48V247.8C300.243 248.507 300.403 249.14 300.723 249.7C301.057 250.247 301.517 250.673 302.103 250.98C302.69 251.287 303.363 251.44 304.123 251.44C304.75 251.44 305.317 251.333 305.823 251.12C306.343 250.907 306.797 250.587 307.183 250.16L308.243 251.4C307.763 251.96 307.163 252.387 306.443 252.68C305.737 252.973 304.943 253.12 304.063 253.12ZM314.63 253.12C313.75 253.12 312.91 253 312.11 252.76C311.323 252.52 310.703 252.227 310.25 251.88L311.05 250.36C311.503 250.667 312.063 250.927 312.73 251.14C313.396 251.353 314.076 251.46 314.77 251.46C315.663 251.46 316.303 251.333 316.69 251.08C317.09 250.827 317.29 250.473 317.29 250.02C317.29 249.687 317.17 249.427 316.93 249.24C316.69 249.053 316.37 248.913 315.97 248.82C315.583 248.727 315.15 248.647 314.67 248.58C314.19 248.5 313.71 248.407 313.23 248.3C312.75 248.18 312.31 248.02 311.91 247.82C311.51 247.607 311.19 247.32 310.95 246.96C310.71 246.587 310.59 246.093 310.59 245.48C310.59 244.84 310.77 244.28 311.13 243.8C311.49 243.32 311.996 242.953 312.65 242.7C313.316 242.433 314.103 242.3 315.01 242.3C315.703 242.3 316.403 242.387 317.11 242.56C317.83 242.72 318.416 242.953 318.87 243.26L318.05 244.78C317.57 244.46 317.07 244.24 316.55 244.12C316.03 244 315.51 243.94 314.99 243.94C314.15 243.94 313.523 244.08 313.11 244.36C312.696 244.627 312.49 244.973 312.49 245.4C312.49 245.76 312.61 246.04 312.85 246.24C313.103 246.427 313.423 246.573 313.81 246.68C314.21 246.787 314.65 246.88 315.13 246.96C315.61 247.027 316.09 247.12 316.57 247.24C317.05 247.347 317.483 247.5 317.87 247.7C318.27 247.9 318.59 248.18 318.83 248.54C319.083 248.9 319.21 249.38 319.21 249.98C319.21 250.62 319.023 251.173 318.65 251.64C318.276 252.107 317.75 252.473 317.07 252.74C316.39 252.993 315.576 253.12 314.63 253.12ZM327.229 253.12C326.349 253.12 325.542 252.92 324.809 252.52C324.089 252.107 323.509 251.5 323.069 250.7C322.642 249.9 322.429 248.9 322.429 247.7C322.429 246.5 322.636 245.5 323.049 244.7C323.476 243.9 324.049 243.3 324.769 242.9C325.502 242.5 326.322 242.3 327.229 242.3C328.269 242.3 329.189 242.527 329.989 242.98C330.789 243.433 331.422 244.067 331.889 244.88C332.356 245.68 332.589 246.62 332.589 247.7C332.589 248.78 332.356 249.727 331.889 250.54C331.422 251.353 330.789 251.987 329.989 252.44C329.189 252.893 328.269 253.12 327.229 253.12ZM321.609 256.88V242.4H323.449V245.26L323.329 247.72L323.529 250.18V256.88H321.609ZM327.069 251.44C327.749 251.44 328.356 251.287 328.889 250.98C329.436 250.673 329.862 250.24 330.169 249.68C330.489 249.107 330.649 248.447 330.649 247.7C330.649 246.94 330.489 246.287 330.169 245.74C329.862 245.18 329.436 244.747 328.889 244.44C328.356 244.133 327.749 243.98 327.069 243.98C326.402 243.98 325.796 244.133 325.249 244.44C324.716 244.747 324.289 245.18 323.969 245.74C323.662 246.287 323.509 246.94 323.509 247.7C323.509 248.447 323.662 249.107 323.969 249.68C324.289 250.24 324.716 250.673 325.249 250.98C325.796 251.287 326.402 251.44 327.069 251.44ZM339.702 253.12C338.795 253.12 337.995 252.953 337.302 252.62C336.622 252.287 336.089 251.78 335.702 251.1C335.329 250.407 335.142 249.54 335.142 248.5V242.4H337.062V248.28C337.062 249.32 337.309 250.1 337.802 250.62C338.309 251.14 339.015 251.4 339.922 251.4C340.589 251.4 341.169 251.267 341.662 251C342.155 250.72 342.535 250.32 342.802 249.8C343.069 249.267 343.202 248.627 343.202 247.88V242.4H345.122V253H343.302V250.14L343.602 250.9C343.255 251.607 342.735 252.153 342.042 252.54C341.349 252.927 340.569 253.12 339.702 253.12ZM353.497 253.12C352.364 253.12 351.364 252.887 350.497 252.42C349.644 251.953 348.977 251.313 348.497 250.5C348.03 249.687 347.797 248.753 347.797 247.7C347.797 246.647 348.024 245.713 348.477 244.9C348.944 244.087 349.577 243.453 350.377 243C351.19 242.533 352.104 242.3 353.117 242.3C354.144 242.3 355.05 242.527 355.837 242.98C356.624 243.433 357.237 244.073 357.677 244.9C358.13 245.713 358.357 246.667 358.357 247.76C358.357 247.84 358.35 247.933 358.337 248.04C358.337 248.147 358.33 248.247 358.317 248.34H349.297V246.96H357.317L356.537 247.44C356.55 246.76 356.41 246.153 356.117 245.62C355.824 245.087 355.417 244.673 354.897 244.38C354.39 244.073 353.797 243.92 353.117 243.92C352.45 243.92 351.857 244.073 351.337 244.38C350.817 244.673 350.41 245.093 350.117 245.64C349.824 246.173 349.677 246.787 349.677 247.48V247.8C349.677 248.507 349.837 249.14 350.157 249.7C350.49 250.247 350.95 250.673 351.537 250.98C352.124 251.287 352.797 251.44 353.557 251.44C354.184 251.44 354.75 251.333 355.257 251.12C355.777 250.907 356.23 250.587 356.617 250.16L357.677 251.4C357.197 251.96 356.597 252.387 355.877 252.68C355.17 252.973 354.377 253.12 353.497 253.12ZM351.597 240.86L354.317 238.26H356.757L353.397 240.86H351.597ZM364.063 253.12C363.183 253.12 362.343 253 361.543 252.76C360.756 252.52 360.136 252.227 359.683 251.88L360.483 250.36C360.936 250.667 361.496 250.927 362.163 251.14C362.83 251.353 363.51 251.46 364.203 251.46C365.096 251.46 365.736 251.333 366.123 251.08C366.523 250.827 366.723 250.473 366.723 250.02C366.723 249.687 366.603 249.427 366.363 249.24C366.123 249.053 365.803 248.913 365.403 248.82C365.016 248.727 364.583 248.647 364.103 248.58C363.623 248.5 363.143 248.407 362.663 248.3C362.183 248.18 361.743 248.02 361.343 247.82C360.943 247.607 360.623 247.32 360.383 246.96C360.143 246.587 360.023 246.093 360.023 245.48C360.023 244.84 360.203 244.28 360.563 243.8C360.923 243.32 361.43 242.953 362.083 242.7C362.75 242.433 363.536 242.3 364.443 242.3C365.136 242.3 365.836 242.387 366.543 242.56C367.263 242.72 367.85 242.953 368.303 243.26L367.483 244.78C367.003 244.46 366.503 244.24 365.983 244.12C365.463 244 364.943 243.94 364.423 243.94C363.583 243.94 362.956 244.08 362.543 244.36C362.13 244.627 361.923 244.973 361.923 245.4C361.923 245.76 362.043 246.04 362.283 246.24C362.536 246.427 362.856 246.573 363.243 246.68C363.643 246.787 364.083 246.88 364.563 246.96C365.043 247.027 365.523 247.12 366.003 247.24C366.483 247.347 366.916 247.5 367.303 247.7C367.703 247.9 368.023 248.18 368.263 248.54C368.516 248.9 368.643 249.38 368.643 249.98C368.643 250.62 368.456 251.173 368.083 251.64C367.71 252.107 367.183 252.473 366.503 252.74C365.823 252.993 365.01 253.12 364.063 253.12Z" fill="#868686"/>
<defs>
<clipPath id="clip0_210_7">
<rect width="469" height="79" fill="white" transform="translate(91 94)"/>
</clipPath>
</defs>
</svg>
