<svg width="650" height="280" viewBox="0 0 650 280" fill="none" xmlns="http://www.w3.org/2000/svg">
<rect width="650" height="280" fill="#0B124A"/>
<path d="M44.88 218V204H50.64C51.88 204 52.94 204.2 53.82 204.6C54.7133 205 55.4 205.573 55.88 206.32C56.36 207.067 56.6 207.953 56.6 208.98C56.6 210.007 56.36 210.893 55.88 211.64C55.4 212.387 54.7133 212.96 53.82 213.36C52.94 213.76 51.88 213.96 50.64 213.96H46.32L47.48 212.74V218H44.88ZM47.48 213.02L46.32 211.76H50.52C51.6667 211.76 52.5267 211.52 53.1 211.04C53.6867 210.547 53.98 209.86 53.98 208.98C53.98 208.087 53.6867 207.4 53.1 206.92C52.5267 206.44 51.6667 206.2 50.52 206.2H46.32L47.48 204.92V213.02ZM58.8588 218V207.32H61.2388V210.26L60.9588 209.4C61.2788 208.68 61.7788 208.133 62.4588 207.76C63.1521 207.387 64.0121 207.2 65.0388 207.2V209.58C64.9321 209.553 64.8321 209.54 64.7388 209.54C64.6454 209.527 64.5521 209.52 64.4588 209.52C63.5121 209.52 62.7588 209.8 62.1988 210.36C61.6388 210.907 61.3588 211.727 61.3588 212.82V218H58.8588ZM67.1595 218V207.32H69.6595V218H67.1595ZM68.4195 205.56C67.9529 205.56 67.5662 205.413 67.2595 205.12C66.9662 204.827 66.8195 204.473 66.8195 204.06C66.8195 203.633 66.9662 203.28 67.2595 203C67.5662 202.707 67.9529 202.56 68.4195 202.56C68.8862 202.56 69.2662 202.7 69.5595 202.98C69.8662 203.247 70.0195 203.587 70.0195 204C70.0195 204.44 69.8729 204.813 69.5795 205.12C69.2862 205.413 68.8995 205.56 68.4195 205.56ZM72.9408 218V207.32H75.3208V210.16L74.9008 209.32C75.2608 208.627 75.7808 208.1 76.4608 207.74C77.1541 207.38 77.9408 207.2 78.8208 207.2C79.8208 207.2 80.6874 207.447 81.4208 207.94C82.1674 208.433 82.6608 209.18 82.9008 210.18L81.9208 209.84C82.2674 209.04 82.8408 208.4 83.6408 207.92C84.4408 207.44 85.3674 207.2 86.4208 207.2C87.2741 207.2 88.0274 207.367 88.6808 207.7C89.3474 208.033 89.8674 208.547 90.2408 209.24C90.6141 209.92 90.8008 210.8 90.8008 211.88V218H88.3008V212.2C88.3008 211.253 88.0941 210.547 87.6808 210.08C87.2674 209.613 86.6741 209.38 85.9008 209.38C85.3541 209.38 84.8674 209.5 84.4408 209.74C84.0274 209.98 83.7008 210.333 83.4608 210.8C83.2341 211.267 83.1208 211.86 83.1208 212.58V218H80.6208V212.2C80.6208 211.253 80.4141 210.547 80.0008 210.08C79.5874 209.613 78.9941 209.38 78.2208 209.38C77.6741 209.38 77.1874 209.5 76.7608 209.74C76.3474 209.98 76.0208 210.333 75.7808 210.8C75.5541 211.267 75.4408 211.86 75.4408 212.58V218H72.9408ZM100.575 218V215.84L100.435 215.38V211.6C100.435 210.867 100.215 210.3 99.7755 209.9C99.3355 209.487 98.6688 209.28 97.7755 209.28C97.1755 209.28 96.5821 209.373 95.9955 209.56C95.4221 209.747 94.9355 210.007 94.5355 210.34L93.5555 208.52C94.1288 208.08 94.8088 207.753 95.5955 207.54C96.3955 207.313 97.2221 207.2 98.0755 207.2C99.6221 207.2 100.815 207.573 101.655 208.32C102.509 209.053 102.935 210.193 102.935 211.74V218H100.575ZM97.2155 218.14C96.4155 218.14 95.7155 218.007 95.1155 217.74C94.5155 217.46 94.0488 217.08 93.7155 216.6C93.3955 216.107 93.2355 215.553 93.2355 214.94C93.2355 214.34 93.3755 213.8 93.6555 213.32C93.9488 212.84 94.4221 212.46 95.0755 212.18C95.7288 211.9 96.5955 211.76 97.6755 211.76H100.775V213.42H97.8555C97.0021 213.42 96.4288 213.56 96.1355 213.84C95.8421 214.107 95.6955 214.44 95.6955 214.84C95.6955 215.293 95.8755 215.653 96.2355 215.92C96.5955 216.187 97.0955 216.32 97.7355 216.32C98.3488 216.32 98.8955 216.18 99.3755 215.9C99.8688 215.62 100.222 215.207 100.435 214.66L100.855 216.16C100.615 216.787 100.182 217.273 99.5555 217.62C98.9421 217.967 98.1621 218.14 97.2155 218.14ZM106.144 218V207.32H108.524V210.26L108.244 209.4C108.564 208.68 109.064 208.133 109.744 207.76C110.437 207.387 111.297 207.2 112.324 207.2V209.58C112.217 209.553 112.117 209.54 112.024 209.54C111.931 209.527 111.837 209.52 111.744 209.52C110.797 209.52 110.044 209.8 109.484 210.36C108.924 210.907 108.644 211.727 108.644 212.82V218H106.144ZM115.422 222.02C114.902 222.02 114.382 221.933 113.862 221.76C113.342 221.587 112.909 221.347 112.562 221.04L113.562 219.2C113.816 219.427 114.102 219.607 114.422 219.74C114.742 219.873 115.069 219.94 115.402 219.94C115.856 219.94 116.222 219.827 116.502 219.6C116.782 219.373 117.042 218.993 117.282 218.46L117.902 217.06L118.102 216.76L122.142 207.32H124.542L119.542 218.86C119.209 219.66 118.836 220.293 118.422 220.76C118.022 221.227 117.569 221.553 117.062 221.74C116.569 221.927 116.022 222.02 115.422 222.02ZM117.622 218.38L112.802 207.32H115.402L119.322 216.54L117.622 218.38ZM45.74 242L47.48 228H49.3L47.56 242H45.74ZM43.46 238.6V236.78H56.1V238.6H43.46ZM50.94 242L52.66 228H54.48L52.76 242H50.94ZM44.14 233.22V231.4H56.74L56.76 233.22H44.14ZM63.9388 242.2C62.8321 242.2 61.8321 241.92 60.9388 241.36C60.0588 240.8 59.3654 239.987 58.8588 238.92C58.3521 237.84 58.0988 236.533 58.0988 235C58.0988 233.467 58.3521 232.167 58.8588 231.1C59.3654 230.02 60.0588 229.2 60.9388 228.64C61.8321 228.08 62.8321 227.8 63.9388 227.8C65.0588 227.8 66.0588 228.08 66.9388 228.64C67.8188 229.2 68.5121 230.02 69.0188 231.1C69.5388 232.167 69.7988 233.467 69.7988 235C69.7988 236.533 69.5388 237.84 69.0188 238.92C68.5121 239.987 67.8188 240.8 66.9388 241.36C66.0588 241.92 65.0588 242.2 63.9388 242.2ZM63.9388 239.94C64.5921 239.94 65.1588 239.767 65.6388 239.42C66.1188 239.06 66.4921 238.513 66.7588 237.78C67.0388 237.047 67.1788 236.12 67.1788 235C67.1788 233.867 67.0388 232.94 66.7588 232.22C66.4921 231.487 66.1188 230.947 65.6388 230.6C65.1588 230.24 64.5921 230.06 63.9388 230.06C63.3121 230.06 62.7521 230.24 62.2588 230.6C61.7788 230.947 61.3988 231.487 61.1188 232.22C60.8521 232.94 60.7188 233.867 60.7188 235C60.7188 236.12 60.8521 237.047 61.1188 237.78C61.3988 238.513 61.7788 239.06 62.2588 239.42C62.7521 239.767 63.3121 239.94 63.9388 239.94ZM72.5558 242V228H79.1158C80.7958 228 82.0758 228.333 82.9558 229C83.8358 229.653 84.2758 230.533 84.2758 231.64C84.2758 232.387 84.1024 233.027 83.7558 233.56C83.4091 234.08 82.9424 234.487 82.3558 234.78C81.7824 235.06 81.1558 235.2 80.4758 235.2L80.8358 234.48C81.6224 234.48 82.3291 234.627 82.9558 234.92C83.5824 235.2 84.0758 235.613 84.4358 236.16C84.8091 236.707 84.9958 237.387 84.9958 238.2C84.9958 239.4 84.5358 240.333 83.6158 241C82.6958 241.667 81.3291 242 79.5158 242H72.5558ZM75.1558 239.96H79.3558C80.3291 239.96 81.0758 239.8 81.5958 239.48C82.1158 239.16 82.3758 238.647 82.3758 237.94C82.3758 237.247 82.1158 236.74 81.5958 236.42C81.0758 236.087 80.3291 235.92 79.3558 235.92H74.9558V233.9H78.8358C79.7424 233.9 80.4358 233.74 80.9158 233.42C81.4091 233.1 81.6558 232.62 81.6558 231.98C81.6558 231.327 81.4091 230.84 80.9158 230.52C80.4358 230.2 79.7424 230.04 78.8358 230.04H75.1558V239.96ZM89.0106 242V229L90.1506 230.18H86.0506V228H91.6106V242H89.0106ZM94.2078 242V240.26L99.7678 234.98C100.234 234.54 100.581 234.153 100.808 233.82C101.034 233.487 101.181 233.18 101.248 232.9C101.328 232.607 101.368 232.333 101.368 232.08C101.368 231.44 101.148 230.947 100.708 230.6C100.268 230.24 99.6211 230.06 98.7678 230.06C98.0878 230.06 97.4678 230.18 96.9078 230.42C96.3611 230.66 95.8878 231.027 95.4878 231.52L93.6678 230.12C94.2145 229.387 94.9478 228.82 95.8678 228.42C96.8011 228.007 97.8411 227.8 98.9878 227.8C100.001 227.8 100.881 227.967 101.628 228.3C102.388 228.62 102.968 229.08 103.368 229.68C103.781 230.28 103.988 230.993 103.988 231.82C103.988 232.273 103.928 232.727 103.808 233.18C103.688 233.62 103.461 234.087 103.128 234.58C102.794 235.073 102.308 235.627 101.668 236.24L96.8878 240.78L96.3478 239.8H104.528V242H94.2078ZM105.535 238.82V237.02L112.435 228H115.215L108.415 237.02L107.115 236.62H118.215V238.82H105.535ZM113.215 242V238.82L113.295 236.62V233.8H115.735V242H113.215ZM118.33 242L124.63 228H127.19L133.51 242H130.79L125.37 229.38H126.41L121.01 242H118.33ZM121.23 238.76L121.93 236.72H129.49L130.19 238.76H121.23Z" fill="#E2FDCB"/>
<rect x="325" width="325" height="280" fill="#E2FDCB"/>
<path d="M365.22 218.2C364.127 218.2 363.08 218.047 362.08 217.74C361.08 217.42 360.287 217.013 359.7 216.52L360.6 214.5C361.16 214.94 361.853 215.307 362.68 215.6C363.507 215.893 364.353 216.04 365.22 216.04C365.953 216.04 366.547 215.96 367 215.8C367.453 215.64 367.787 215.427 368 215.16C368.213 214.88 368.32 214.567 368.32 214.22C368.32 213.793 368.167 213.453 367.86 213.2C367.553 212.933 367.153 212.727 366.66 212.58C366.18 212.42 365.64 212.273 365.04 212.14C364.453 212.007 363.86 211.853 363.26 211.68C362.673 211.493 362.133 211.26 361.64 210.98C361.16 210.687 360.767 210.3 360.46 209.82C360.153 209.34 360 208.727 360 207.98C360 207.22 360.2 206.527 360.6 205.9C361.013 205.26 361.633 204.753 362.46 204.38C363.3 203.993 364.36 203.8 365.64 203.8C366.48 203.8 367.313 203.907 368.14 204.12C368.967 204.333 369.687 204.64 370.3 205.04L369.48 207.06C368.853 206.687 368.207 206.413 367.54 206.24C366.873 206.053 366.233 205.96 365.62 205.96C364.9 205.96 364.313 206.047 363.86 206.22C363.42 206.393 363.093 206.62 362.88 206.9C362.68 207.18 362.58 207.5 362.58 207.86C362.58 208.287 362.727 208.633 363.02 208.9C363.327 209.153 363.72 209.353 364.2 209.5C364.693 209.647 365.24 209.793 365.84 209.94C366.44 210.073 367.033 210.227 367.62 210.4C368.22 210.573 368.76 210.8 369.24 211.08C369.733 211.36 370.127 211.74 370.42 212.22C370.727 212.7 370.88 213.307 370.88 214.04C370.88 214.787 370.673 215.48 370.26 216.12C369.86 216.747 369.24 217.253 368.4 217.64C367.56 218.013 366.5 218.2 365.22 218.2ZM378.238 218.14C377.051 218.14 376.011 217.907 375.118 217.44C374.238 216.96 373.551 216.307 373.058 215.48C372.578 214.653 372.338 213.713 372.338 212.66C372.338 211.593 372.571 210.653 373.038 209.84C373.518 209.013 374.171 208.367 374.998 207.9C375.838 207.433 376.791 207.2 377.858 207.2C378.898 207.2 379.825 207.427 380.638 207.88C381.451 208.333 382.091 208.973 382.558 209.8C383.025 210.627 383.258 211.6 383.258 212.72C383.258 212.827 383.251 212.947 383.238 213.08C383.238 213.213 383.231 213.34 383.218 213.46H374.318V211.8H381.898L380.918 212.32C380.931 211.707 380.805 211.167 380.538 210.7C380.271 210.233 379.905 209.867 379.438 209.6C378.985 209.333 378.458 209.2 377.858 209.2C377.245 209.2 376.705 209.333 376.238 209.6C375.785 209.867 375.425 210.24 375.158 210.72C374.905 211.187 374.778 211.74 374.778 212.38V212.78C374.778 213.42 374.925 213.987 375.218 214.48C375.511 214.973 375.925 215.353 376.458 215.62C376.991 215.887 377.605 216.02 378.298 216.02C378.898 216.02 379.438 215.927 379.918 215.74C380.398 215.553 380.825 215.26 381.198 214.86L382.538 216.4C382.058 216.96 381.451 217.393 380.718 217.7C379.998 217.993 379.171 218.14 378.238 218.14ZM390.56 218.14C389.44 218.14 388.44 217.907 387.56 217.44C386.693 216.96 386.013 216.307 385.52 215.48C385.026 214.653 384.78 213.713 384.78 212.66C384.78 211.593 385.026 210.653 385.52 209.84C386.013 209.013 386.693 208.367 387.56 207.9C388.44 207.433 389.44 207.2 390.56 207.2C391.6 207.2 392.513 207.413 393.3 207.84C394.1 208.253 394.706 208.867 395.12 209.68L393.2 210.8C392.88 210.293 392.486 209.92 392.02 209.68C391.566 209.44 391.073 209.32 390.54 209.32C389.926 209.32 389.373 209.453 388.88 209.72C388.386 209.987 388 210.373 387.72 210.88C387.44 211.373 387.3 211.967 387.3 212.66C387.3 213.353 387.44 213.953 387.72 214.46C388 214.953 388.386 215.333 388.88 215.6C389.373 215.867 389.926 216 390.54 216C391.073 216 391.566 215.88 392.02 215.64C392.486 215.4 392.88 215.027 393.2 214.52L395.12 215.64C394.706 216.44 394.1 217.06 393.3 217.5C392.513 217.927 391.6 218.14 390.56 218.14ZM401.924 218.14C400.831 218.14 399.858 217.907 399.004 217.44C398.151 216.96 397.478 216.307 396.984 215.48C396.491 214.653 396.244 213.713 396.244 212.66C396.244 211.593 396.491 210.653 396.984 209.84C397.478 209.013 398.151 208.367 399.004 207.9C399.858 207.433 400.831 207.2 401.924 207.2C403.031 207.2 404.011 207.433 404.864 207.9C405.731 208.367 406.404 209.007 406.884 209.82C407.378 210.633 407.624 211.58 407.624 212.66C407.624 213.713 407.378 214.653 406.884 215.48C406.404 216.307 405.731 216.96 404.864 217.44C404.011 217.907 403.031 218.14 401.924 218.14ZM401.924 216C402.538 216 403.084 215.867 403.564 215.6C404.044 215.333 404.418 214.947 404.684 214.44C404.964 213.933 405.104 213.34 405.104 212.66C405.104 211.967 404.964 211.373 404.684 210.88C404.418 210.373 404.044 209.987 403.564 209.72C403.084 209.453 402.544 209.32 401.944 209.32C401.331 209.32 400.784 209.453 400.304 209.72C399.838 209.987 399.464 210.373 399.184 210.88C398.904 211.373 398.764 211.967 398.764 212.66C398.764 213.34 398.904 213.933 399.184 214.44C399.464 214.947 399.838 215.333 400.304 215.6C400.784 215.867 401.324 216 401.924 216ZM410.015 218V207.32H412.395V210.2L411.975 209.32C412.348 208.64 412.888 208.12 413.595 207.76C414.315 207.387 415.142 207.2 416.075 207.2C416.928 207.2 417.688 207.367 418.355 207.7C419.035 208.033 419.568 208.547 419.955 209.24C420.342 209.92 420.535 210.8 420.535 211.88V218H418.035V212.2C418.035 211.253 417.808 210.547 417.355 210.08C416.915 209.613 416.295 209.38 415.495 209.38C414.908 209.38 414.388 209.5 413.935 209.74C413.482 209.98 413.128 210.34 412.875 210.82C412.635 211.287 412.515 211.88 412.515 212.6V218H410.015ZM428.246 218.14C427.219 218.14 426.293 217.913 425.466 217.46C424.653 216.993 424.013 216.353 423.546 215.54C423.079 214.727 422.846 213.767 422.846 212.66C422.846 211.553 423.079 210.593 423.546 209.78C424.013 208.967 424.653 208.333 425.466 207.88C426.293 207.427 427.219 207.2 428.246 207.2C429.139 207.2 429.939 207.4 430.646 207.8C431.353 208.187 431.913 208.78 432.326 209.58C432.739 210.38 432.946 211.407 432.946 212.66C432.946 213.9 432.746 214.927 432.346 215.74C431.946 216.54 431.393 217.14 430.686 217.54C429.979 217.94 429.166 218.14 428.246 218.14ZM428.546 216C429.146 216 429.679 215.867 430.146 215.6C430.626 215.333 431.006 214.947 431.286 214.44C431.579 213.933 431.726 213.34 431.726 212.66C431.726 211.967 431.579 211.373 431.286 210.88C431.006 210.373 430.626 209.987 430.146 209.72C429.679 209.453 429.146 209.32 428.546 209.32C427.946 209.32 427.406 209.453 426.926 209.72C426.459 209.987 426.079 210.373 425.786 210.88C425.506 211.373 425.366 211.967 425.366 212.66C425.366 213.34 425.506 213.933 425.786 214.44C426.079 214.947 426.459 215.333 426.926 215.6C427.406 215.867 427.946 216 428.546 216ZM431.786 218V215.48L431.886 212.64L431.686 209.8V203.16H434.166V218H431.786ZM444.036 218V215.84L443.896 215.38V211.6C443.896 210.867 443.676 210.3 443.236 209.9C442.796 209.487 442.13 209.28 441.236 209.28C440.636 209.28 440.043 209.373 439.456 209.56C438.883 209.747 438.396 210.007 437.996 210.34L437.016 208.52C437.59 208.08 438.27 207.753 439.056 207.54C439.856 207.313 440.683 207.2 441.536 207.2C443.083 207.2 444.276 207.573 445.116 208.32C445.97 209.053 446.396 210.193 446.396 211.74V218H444.036ZM440.676 218.14C439.876 218.14 439.176 218.007 438.576 217.74C437.976 217.46 437.51 217.08 437.176 216.6C436.856 216.107 436.696 215.553 436.696 214.94C436.696 214.34 436.836 213.8 437.116 213.32C437.41 212.84 437.883 212.46 438.536 212.18C439.19 211.9 440.056 211.76 441.136 211.76H444.236V213.42H441.316C440.463 213.42 439.89 213.56 439.596 213.84C439.303 214.107 439.156 214.44 439.156 214.84C439.156 215.293 439.336 215.653 439.696 215.92C440.056 216.187 440.556 216.32 441.196 216.32C441.81 216.32 442.356 216.18 442.836 215.9C443.33 215.62 443.683 215.207 443.896 214.66L444.316 216.16C444.076 216.787 443.643 217.273 443.016 217.62C442.403 217.967 441.623 218.14 440.676 218.14ZM449.605 218V207.32H451.985V210.26L451.705 209.4C452.025 208.68 452.525 208.133 453.205 207.76C453.898 207.387 454.758 207.2 455.785 207.2V209.58C455.678 209.553 455.578 209.54 455.485 209.54C455.392 209.527 455.298 209.52 455.205 209.52C454.258 209.52 453.505 209.8 452.945 210.36C452.385 210.907 452.105 211.727 452.105 212.82V218H449.605ZM458.883 222.02C458.363 222.02 457.843 221.933 457.323 221.76C456.803 221.587 456.37 221.347 456.023 221.04L457.023 219.2C457.277 219.427 457.563 219.607 457.883 219.74C458.203 219.873 458.53 219.94 458.863 219.94C459.317 219.94 459.683 219.827 459.963 219.6C460.243 219.373 460.503 218.993 460.743 218.46L461.363 217.06L461.563 216.76L465.603 207.32H468.003L463.003 218.86C462.67 219.66 462.297 220.293 461.883 220.76C461.483 221.227 461.03 221.553 460.523 221.74C460.03 221.927 459.483 222.02 458.883 222.02ZM461.083 218.38L456.263 207.32H458.863L462.783 216.54L461.083 218.38ZM361.74 242L363.48 228H365.3L363.56 242H361.74ZM359.46 238.6V236.78H372.1V238.6H359.46ZM366.94 242L368.66 228H370.48L368.76 242H366.94ZM360.14 233.22V231.4H372.74L372.76 233.22H360.14ZM375.099 242V228H385.319V230.18H377.699V239.82H385.599V242H375.099ZM377.499 235.96V233.82H384.459V235.96H377.499ZM387.22 242V240.26L392.78 234.98C393.246 234.54 393.593 234.153 393.82 233.82C394.046 233.487 394.193 233.18 394.26 232.9C394.34 232.607 394.38 232.333 394.38 232.08C394.38 231.44 394.16 230.947 393.72 230.6C393.28 230.24 392.633 230.06 391.78 230.06C391.1 230.06 390.48 230.18 389.92 230.42C389.373 230.66 388.9 231.027 388.5 231.52L386.68 230.12C387.226 229.387 387.96 228.82 388.88 228.42C389.813 228.007 390.853 227.8 392 227.8C393.013 227.8 393.893 227.967 394.64 228.3C395.4 228.62 395.98 229.08 396.38 229.68C396.793 230.28 397 230.993 397 231.82C397 232.273 396.94 232.727 396.82 233.18C396.7 233.62 396.473 234.087 396.14 234.58C395.806 235.073 395.32 235.627 394.68 236.24L389.9 240.78L389.36 239.8H397.54V242H387.22ZM400.04 242V228H410.26V230.18H402.64V242H400.04ZM402.42 236.64V234.44H409.4V236.64H402.42ZM412.775 242V228H418.895C420.415 228 421.748 228.293 422.895 228.88C424.041 229.467 424.935 230.28 425.575 231.32C426.215 232.36 426.535 233.587 426.535 235C426.535 236.4 426.215 237.627 425.575 238.68C424.935 239.72 424.041 240.533 422.895 241.12C421.748 241.707 420.415 242 418.895 242H412.775ZM415.375 239.8H418.775C419.815 239.8 420.721 239.6 421.495 239.2C422.268 238.8 422.861 238.24 423.275 237.52C423.701 236.8 423.915 235.96 423.915 235C423.915 234.027 423.701 233.187 423.275 232.48C422.861 231.76 422.268 231.2 421.495 230.8C420.721 230.4 419.815 230.2 418.775 230.2H415.375V239.8ZM435.778 242.2C434.711 242.2 433.718 242.027 432.798 241.68C431.891 241.32 431.098 240.82 430.418 240.18C429.751 239.527 429.231 238.76 428.858 237.88C428.485 237 428.298 236.04 428.298 235C428.298 233.96 428.485 233 428.858 232.12C429.231 231.24 429.758 230.48 430.438 229.84C431.118 229.187 431.911 228.687 432.818 228.34C433.725 227.98 434.718 227.8 435.798 227.8C436.945 227.8 437.991 228 438.938 228.4C439.885 228.787 440.685 229.367 441.338 230.14L439.658 231.72C439.151 231.173 438.585 230.767 437.958 230.5C437.331 230.22 436.651 230.08 435.918 230.08C435.185 230.08 434.511 230.2 433.898 230.44C433.298 230.68 432.771 231.02 432.318 231.46C431.878 231.9 431.531 232.42 431.278 233.02C431.038 233.62 430.918 234.28 430.918 235C430.918 235.72 431.038 236.38 431.278 236.98C431.531 237.58 431.878 238.1 432.318 238.54C432.771 238.98 433.298 239.32 433.898 239.56C434.511 239.8 435.185 239.92 435.918 239.92C436.651 239.92 437.331 239.787 437.958 239.52C438.585 239.24 439.151 238.82 439.658 238.26L441.338 239.86C440.685 240.62 439.885 241.2 438.938 241.6C437.991 242 436.938 242.2 435.778 242.2ZM443.653 242V228H450.213C451.893 228 453.173 228.333 454.053 229C454.933 229.653 455.373 230.533 455.373 231.64C455.373 232.387 455.2 233.027 454.853 233.56C454.507 234.08 454.04 234.487 453.453 234.78C452.88 235.06 452.253 235.2 451.573 235.2L451.933 234.48C452.72 234.48 453.427 234.627 454.053 234.92C454.68 235.2 455.173 235.613 455.533 236.16C455.907 236.707 456.093 237.387 456.093 238.2C456.093 239.4 455.633 240.333 454.713 241C453.793 241.667 452.427 242 450.613 242H443.653ZM446.253 239.96H450.453C451.427 239.96 452.173 239.8 452.693 239.48C453.213 239.16 453.473 238.647 453.473 237.94C453.473 237.247 453.213 236.74 452.693 236.42C452.173 236.087 451.427 235.92 450.453 235.92H446.053V233.9H449.933C450.84 233.9 451.533 233.74 452.013 233.42C452.507 233.1 452.753 232.62 452.753 231.98C452.753 231.327 452.507 230.84 452.013 230.52C451.533 230.2 450.84 230.04 449.933 230.04H446.253V239.96Z" fill="#0B124A"/>
</svg>
