<svg width="650" height="280" viewBox="0 0 650 280" fill="none" xmlns="http://www.w3.org/2000/svg">
<rect width="650" height="280" fill="white"/>
<path d="M300.588 114.779L307.103 114.738H303.825L300.588 114.779Z" fill="#9F9F9E"/>
<path d="M307.103 114.738L300.588 114.738L302.719 107.629L303.293 105.354L303.743 103.242L304.194 105.354L304.891 107.71L307.103 114.738ZM302.473 100.804L295.343 124.366H297.761L300.015 116.729H307.431L309.726 124.488H312.266L305.095 100.967L302.473 100.804Z" fill="#9F9F9E"/>
<path d="M321.362 109.213L320.338 109.335L321.199 109.213H321.362Z" fill="#9F9F9E"/>
<path d="M321.199 124.691L321.649 124.65L320.707 124.772L321.199 124.691Z" fill="#9F9F9E"/>
<path d="M325.624 117.541V119.41L325.255 120.263L324.682 121.157L324.108 121.807L323.452 122.294L322.51 122.578H320.584L319.682 122.213L318.863 121.563L318.166 120.71L317.716 119.694L317.388 118.557L317.142 117.46V114.697L317.388 113.357L317.798 112.219L318.289 111.204L318.986 110.351L319.765 109.823L320.666 109.335H322.51L323.206 109.579L323.862 109.945L324.559 110.594L325.132 111.204L325.501 112.057L325.829 113.073V114.291L325.624 117.541ZM327.96 99.7074H325.583V109.823L325.337 109.335L324.886 108.807L324.436 108.36L323.985 107.954L323.288 107.588H322.715L321.936 107.304H319.15L318.617 107.67L317.921 107.913L317.47 108.441L316.855 108.807L316.405 109.416L315.954 110.066L315.626 110.676L315.257 111.448L314.93 112.179V117.947L315.421 119.532L315.995 121.035L316.691 122.253L317.593 123.31L318.166 123.635L318.74 124L319.314 124.285L319.887 124.488H322.96L323.78 124.122L324.313 123.756L325.009 123.269L325.46 122.741L325.952 122.132L326.279 121.482V124.366H328.328V120.303L327.96 99.7074Z" fill="#9F9F9E"/>
<path d="M353.569 113.194L353.487 112.341L353.2 111.448L353.118 110.716L352.749 110.066L352.585 109.457L351.848 108.482L351.069 107.832L350.25 107.466L349.471 107.223L348.652 107.101L347.873 107.263L347.054 107.345L346.357 107.71L345.702 108.116L345.087 108.645L344.513 109.091L344.063 109.741L343.735 110.473H343.612L343.407 109.741L343.038 109.132L342.588 108.523L342.014 108.116L341.44 107.629L340.867 107.385L340.17 107.263L339.391 107.141L338.572 107.263L337.793 107.385L337.097 107.629L336.523 108.035L335.95 108.523L335.499 109.01L335.048 109.66L334.72 110.269H334.597L334.474 107.507L332.426 107.548L332.549 111.894L332.59 124.366H334.884L334.843 114.007L334.966 113.154L335.171 112.26L335.499 111.366L335.95 110.635L336.523 110.148L337.22 109.66L337.916 109.416L338.695 109.254L339.391 109.376L340.088 109.66L340.662 109.985L341.112 110.635L341.44 111.366L341.686 112.138L341.809 112.991L341.932 113.966L341.973 124.325L344.227 124.447L344.186 113.763L344.308 112.829L344.554 111.976L344.882 111.244L345.333 110.594L345.907 109.985L346.48 109.62L347.177 109.376L347.873 109.213L348.652 109.335L349.348 109.62L349.922 110.066L350.373 110.716L350.824 111.448L351.069 112.463L351.151 113.479L351.274 114.697L351.192 124.406H353.61L353.569 114.169V113.194Z" fill="#9F9F9E"/>
<path d="M360.412 101.576L359.961 101.21L359.387 101.089L358.691 101.21L358.24 101.576L357.912 102.104L357.789 102.835L357.912 103.445L358.24 104.095L358.732 104.46L359.305 104.582L359.961 104.46L360.412 104.095L360.78 103.567L360.862 102.835L360.78 102.064L360.412 101.576Z" fill="#9F9F9E"/>
<path d="M358.158 124.447L360.453 124.406L360.535 107.588H358.158V124.447Z" fill="#9F9F9E"/>
<path d="M377.498 113.113L377.375 112.26L377.252 111.366L377.007 110.635L376.679 109.985L376.433 109.376L375.613 108.523L374.835 107.913L373.933 107.385L373.114 107.141H371.393L370.614 107.385L369.918 107.67L369.221 108.035L368.648 108.523L368.115 109.051L367.746 109.66L367.418 110.31H367.295L367.173 107.548H365.124V111.935L365.165 124.406L367.541 124.366V114.047L367.664 113.032L367.869 112.057L368.32 111.285L368.771 110.554L369.467 110.026L370.164 109.66L370.86 109.416L371.639 109.295L372.54 109.416L373.237 109.62L373.933 110.148L374.384 110.919L374.712 111.651L374.958 112.504L375.204 113.397V114.494L375.245 124.366L377.539 124.325L377.498 114.129V113.113Z" fill="#9F9F9E"/>
<path d="M382.128 107.507L382.087 124.447H384.505L384.423 107.507H382.128Z" fill="#9F9F9E"/>
<path d="M384.423 101.617L383.972 101.251L383.276 101.129L382.702 101.251L382.128 101.657L381.924 102.145L381.678 102.754L381.801 103.526L382.128 104.135L382.579 104.501L383.276 104.623L383.849 104.501L384.423 104.135L384.669 103.526L384.915 102.876L384.792 102.145L384.423 101.617Z" fill="#9F9F9E"/>
<path d="M396.92 117.297L396.47 116.688L396.019 116.038L395.322 115.551L394.544 115.063L393.601 114.697L392.372 114.088L391.43 113.316L391.061 112.951L390.774 112.098V111.569L390.856 111.082L390.938 110.716L391.061 110.188L391.43 109.863L391.798 109.579L392.249 109.335L392.782 109.213L393.356 109.091L394.421 109.213L395.199 109.457L395.896 109.823L396.347 110.066L397.043 108.198L396.347 107.832L395.527 107.466L394.626 107.223L393.478 107.101L392.454 107.223L391.43 107.466L390.487 107.954L389.832 108.604L389.258 109.213L388.766 110.066L388.561 110.96L388.439 111.976L388.561 112.748L388.684 113.316L389.012 114.088L389.463 114.697L389.955 115.226L390.61 115.672L391.43 116.201L392.372 116.688L393.724 117.419L394.175 117.704L394.667 118.069L394.872 118.557L395.117 118.922L395.199 119.45V120.547L395.117 121.035L394.872 121.563L394.544 121.928L394.093 122.294L393.519 122.538L392.946 122.7L392.126 122.822L391.225 122.7L390.2 122.457L389.381 122.05L388.684 121.603L388.029 123.553L388.93 124.081L389.873 124.406L390.979 124.65L392.044 124.772L393.274 124.65L394.298 124.406L395.322 123.919L396.019 123.391L396.715 122.66L397.166 121.807L397.494 120.791V118.922L397.289 118.069L396.92 117.297Z" fill="#9F9F9E"/>
<path d="M404.091 103.567L401.796 104.46L401.837 107.548L399.42 107.588V109.579H401.837L401.755 119.288L401.878 120.913L402.001 121.766L402.329 122.66L402.78 123.513L403.108 123.878L403.476 124.122L403.927 124.406L404.378 124.61L404.951 124.731H405.648L407 124.61L407.943 124.366L407.82 122.375L407.123 122.497L406.222 122.619L405.648 122.497L405.32 122.375L404.829 122.132L404.624 121.766L404.378 121.238L404.255 120.791L404.173 119.288L404.132 109.579L408.107 109.538V107.548H404.091V103.567Z" fill="#9F9F9E"/>
<path d="M416.793 107.263L416.22 107.507L415.523 107.751L414.949 108.157L414.499 108.766L414.048 109.416L413.597 109.985L413.392 110.757H413.269L413.146 107.507H411.057L411.221 110.026V112.626L411.262 124.366H413.556L413.515 115.226L413.597 114.251L413.843 113.154L414.048 112.26L414.499 111.366L415.072 110.635L415.769 110.107L416.465 109.741L417.367 109.62L418.268 109.741V107.263L417.572 107.141L416.793 107.263Z" fill="#9F9F9E"/>
<path d="M424.824 122.822L425.767 122.7H425.521L424.824 122.822Z" fill="#9F9F9E"/>
<path d="M425.521 109.173L425.849 109.213L425.234 109.091L425.521 109.173Z" fill="#9F9F9E"/>
<path d="M426.545 115.835L425.398 115.957H425.521L426.545 115.835Z" fill="#9F9F9E"/>
<path d="M428.758 119.613L428.512 120.344L428.143 120.953L427.692 121.563L427.119 122.091L426.422 122.457L425.767 122.7L423.923 122.7L423.021 122.213L422.653 121.725V118.11L423.021 117.744L423.267 117.338L423.718 117.013L424.497 116.485L425.521 116.079H428.963V119.207L428.758 119.613ZM431.134 120.466V112.666L430.889 111.569L430.561 110.31L430.069 109.335L429.741 108.929L429.291 108.441L428.84 108.198L428.348 107.832L427.774 107.588H424.373L423.103 107.832L421.956 108.32L420.932 108.97L421.505 110.716L422.325 110.188L423.349 109.823L424.251 109.579H426.258L426.709 109.823H427.16L427.733 110.473L428.225 111.204L428.43 111.976V113.966H426.381L424.538 114.372L423.021 114.738L422.366 115.104L421.219 115.835L420.768 116.363L420.276 116.891L419.948 117.5V117.988L419.703 118.719V120.994L419.948 121.847L420.276 122.741L420.768 123.472L421.423 124.081L422.12 124.488L423.062 124.813H425.685L426.34 124.528L426.914 124.285L427.488 123.919L427.938 123.432L428.307 122.903L428.635 122.416L428.84 124.65H431.052L430.807 122.619L431.134 120.466Z" fill="#9F9F9E"/>
<path d="M437.281 113.438L437.731 112.301L438.305 111.326L439.125 110.432L440.026 109.782L441.173 109.416L442.403 109.295H443.427L444.369 109.538L445.066 109.782L445.64 110.148L446.172 108.035L445.599 107.791L444.82 107.426L442.525 107.182H441.624L440.805 107.304L440.026 107.548L439.206 107.832L438.551 108.157L437.854 108.685L437.281 109.213L436.707 109.701L436.256 110.31L435.806 111.041L435.478 111.813L435.109 112.585L434.904 113.438L434.658 114.291V115.185L434.535 116.16V117.054L434.658 118.069L434.904 118.922L435.109 119.654L435.355 120.425L435.683 121.157L436.174 121.807L436.625 122.416L437.076 122.903L437.649 123.391L438.223 123.756L438.879 124.163L439.616 124.406L440.272 124.61L441.091 124.731H441.87L443.263 124.61L444.533 124.366L445.435 124.122L446.09 123.756L445.681 121.766L445.107 122.132L444.287 122.375L443.345 122.497L442.362 122.619L441.173 122.497L440.149 122.132L439.247 121.644L438.428 120.872L437.895 119.897L437.404 118.8L437.076 117.419L436.953 116.038L437.076 114.657L437.281 113.438Z" fill="#9F9F9E"/>
<path d="M451.663 101.657L451.171 101.292L450.598 101.048L449.942 101.17L449.491 101.535L449.122 102.145L449 102.795L449.122 103.526L449.491 104.054L449.942 104.42L450.516 104.542L451.212 104.42L451.663 104.176L451.991 103.526L452.114 102.795L451.991 102.145L451.663 101.657Z" fill="#9F9F9E"/>
<path d="M449.45 124.366H451.745L451.786 107.507H449.368L449.45 124.366Z" fill="#9F9F9E"/>
<path d="M462.439 124.772L463.587 124.65L462.357 124.772H462.439Z" fill="#9F9F9E"/>
<path d="M467.233 115.957V117.338L467.029 118.557L466.578 119.816L466.004 120.832L465.267 121.563L464.488 122.213L463.587 122.578L462.562 122.822L461.62 122.578L460.718 122.213L459.899 121.603L459.038 120.791L458.465 119.816L457.973 118.557V114.697L458.219 113.601L458.547 112.341L458.997 111.326L459.694 110.473L460.513 109.701L460.964 109.457H464.406L464.857 109.863L465.676 110.513L466.332 111.488L466.824 112.463L467.151 113.601L467.397 114.819L467.233 115.957ZM469.159 112.341L468.831 111.61L468.586 110.838L468.135 110.229L467.684 109.579L467.192 108.97L466.742 108.604L466.168 108.116L465.513 107.751L464.816 107.507H461.169L459.776 107.995L459.202 108.36L458.629 108.766L458.055 109.132L457.481 109.741L457.031 110.391L456.58 111.001L456.252 111.773L456.006 112.504L455.637 113.357V119.125L455.842 119.979L456.211 120.75L456.539 121.482L456.908 122.132L457.359 122.741L457.809 123.228L458.383 123.716L458.956 124.081L459.653 124.488L460.227 124.731H463.669L464.898 124.366L466.168 123.594L466.742 123.228L467.315 122.741L467.766 122.132L468.217 121.482L468.545 120.75L468.913 119.979L469.282 119.004V114.007L469.159 112.341Z" fill="#9F9F9E"/>
<path d="M462.767 105.232L466.619 100.235H463.914L461.005 105.232H462.767Z" fill="#9F9F9E"/>
<path d="M485.426 113.154L485.303 112.138L485.18 111.407L484.935 110.676L484.73 110.026L484.361 109.416L483.582 108.523L482.763 107.913L481.861 107.426L481.042 107.182H479.362L478.542 107.426L477.846 107.71L477.19 108.035L476.043 109.091L475.715 109.66L475.346 110.31H475.223L475.101 107.588H473.052L473.175 111.935L473.093 124.406H475.51L475.469 114.047L475.592 113.073L475.838 112.057L476.289 111.326L476.74 110.554L477.395 110.066L478.092 109.66L478.788 109.416L479.567 109.295L480.509 109.416L481.165 109.66L481.861 110.148L482.312 110.798L482.681 111.651L482.886 112.544L483.132 113.397V114.413L483.173 124.366H485.467L485.549 114.129L485.426 113.154Z" fill="#9F9F9E"/>
<path d="M314.561 131.069V127.941L304.973 127.981V131.069H308.496L308.455 145.246H311.037L310.996 131.069H314.561Z" fill="#9F9F9E"/>
<path d="M320.256 137.569H316.159V135.578L316.405 135.253L316.732 135.009H318.289L318.617 135.253L318.986 135.578V136.878L320.256 137.569ZM321.936 134.603L321.281 133.466L320.83 133.059L320.379 132.734L319.928 132.491L319.355 132.287H317.388L316.568 132.612L315.79 133.181L315.134 133.953L314.561 134.928L314.233 136.065V140.615L314.479 142.037L314.93 143.134L315.134 143.703L315.462 144.15L316.159 144.799L316.937 145.246L317.675 145.571H319.478L320.379 145.246L321.158 144.556L321.813 143.784L322.141 143.256L322.387 142.687V141.468H320.051L319.847 141.996L319.6 142.362V142.687H317.798L317.224 142.362L316.896 141.956L316.568 141.387V139.762H322.96V137.203L322.715 135.781L321.936 134.603Z" fill="#9F9F9E"/>
<path d="M325.829 137.65L325.952 136.675L326.157 135.903L326.648 135.456L327.099 135.09L327.509 135.009H327.959L328.287 135.212L328.533 135.456L328.738 135.781L328.984 136.35L329.066 137L331.401 137.081L331.278 135.781L331.074 134.765L330.664 133.872L330.172 133.222L329.639 132.775L328.943 132.45L328.287 132.247L327.509 132.125L326.648 132.247L325.747 132.694L325.05 133.262L324.395 134.034L323.944 135.009L323.616 136.228L323.411 137.568L323.288 139.112L323.411 140.453L323.657 141.793L323.862 142.89L324.313 143.865L324.886 144.678L325.665 145.206L326.402 145.531L327.427 145.653H328L328.451 145.531L328.902 145.287L329.353 145.084L329.68 144.759L330.09 144.434L330.664 143.418L330.992 142.728L331.196 142.078L331.319 141.306L331.401 140.656L329.107 140.534L328.984 141.55L328.656 142.2L328.451 142.525L328.205 142.646L327.878 142.85H327.55L326.976 142.768L326.525 142.403L326.198 141.996L325.952 141.225L325.747 140.331V138.99L325.829 137.65Z" fill="#9F9F9E"/>
<path d="M340.867 135.537L340.785 134.644L340.539 133.872L340.088 133.181L339.637 132.734L339.105 132.409L338.531 132.206H337.425L336.851 132.328L336.523 132.653L336.073 132.978L335.745 133.547L335.294 134.319V132.531L333.04 132.572L332.999 145.165H335.335V138.3L335.417 137.203L335.54 136.431L335.868 135.781L336.195 135.334L336.646 135.09L337.179 135.009H337.548L337.957 135.212L338.244 135.537L338.408 135.984L338.531 136.634L338.695 137.528L338.572 145.165L341.03 145.246L340.99 136.634L340.867 135.537Z" fill="#9F9F9E"/>
<path d="M349.061 140.615V141.265L348.816 141.834L348.488 142.281L348.16 142.606L347.832 142.809H346.849L346.357 142.606L346.029 142.281L345.702 141.834L345.456 141.306V136.553L345.784 135.944L346.029 135.497L346.357 135.172H348.078L348.529 135.497L348.775 135.944L348.98 136.512L349.226 137.203V139.843L349.061 140.615ZM351.315 136.309L350.946 135.172L350.496 134.075L349.84 133.181L349.512 132.856H349.021L348.57 132.612H345.579L344.677 133.1L344.35 133.425L343.694 134.278L343.243 135.375L342.915 136.512V140.372L343.161 141.712L343.489 142.809L343.94 143.906L344.595 144.678L344.923 145.124L345.374 145.368L345.702 145.612H346.275L347.3 145.856H348.406L348.857 145.612H349.267L349.717 145.368L350.045 145.043L350.742 144.15L351.192 143.053L351.52 141.956V137.934L351.315 136.309Z" fill="#9F9F9E"/>
<path d="M353.323 145.246H355.536L355.618 127.941H353.241L353.323 145.246Z" fill="#9F9F9E"/>
<path d="M363.895 138.909V141.225L363.649 141.793L363.321 142.362H362.952L362.542 142.606H361.641L361.19 142.362H360.862L360.535 141.793V135.944L360.862 135.497L361.231 135.172L361.641 134.928H362.665L362.993 135.172L363.362 135.497L363.69 135.944L363.895 136.472L364.14 137.244V138.015L363.895 138.909ZM366.025 136.35L365.697 135.131L365.247 134.156L364.55 133.262L364.222 132.937L363.813 132.572H360.371L359.92 132.816L359.469 133.141L359.141 133.466L358.486 134.359L357.994 135.375L357.584 136.472V140.453L357.789 141.671L358.117 142.89L358.691 143.906L359.264 144.759L359.715 145.124L360.043 145.328H360.494L361.067 145.571H363.608L364.058 145.328L364.386 145.003L364.878 144.678L365.411 143.784L365.943 142.809L366.271 141.55L366.517 140.372V137.69L366.025 136.35Z" fill="#9F9F9E"/>
<path d="M373.646 138.787V141.103L373.319 141.631V141.996L372.991 142.321H371.639L371.188 141.996L370.86 141.428L370.492 140.737V136.634L370.819 135.903L371.147 135.456L371.598 135.131H372.95L373.278 135.456L373.646 135.903L373.852 136.35V137.812L373.646 138.787ZM373.646 134.359L373.319 133.709L372.991 133.222L372.622 132.816L372.294 132.45H370.287L369.508 132.816L368.852 133.344L368.279 134.278L367.951 135.253L367.623 136.472L367.418 137.69V140.453L367.664 141.671V142.809L368.115 143.662L368.689 144.434L369.344 145.003L370 145.328H371.803L372.13 145.084L372.581 144.759L372.909 144.231L373.237 143.54V146.993L372.909 147.562L372.581 147.887H370.205V147.115H367.623V148.74L367.992 149.431L368.525 149.959L369.098 150.284L369.754 150.609L370.451 150.852H373.565L374.015 150.487L374.466 150.162L374.794 149.715L374.999 149.187L375.327 148.496V133.344H373.073L373.646 134.359Z" fill="#9F9F9E"/>
<path d="M377.949 130.784H379.629L382.087 127.331H379.506L377.949 130.784Z" fill="#9F9F9E"/>
<path d="M378.072 132.531L378.113 145.287L380.448 145.246L380.407 132.531H378.072Z" fill="#9F9F9E"/>
<path d="M387.578 140.29V142.159L387.332 142.606L387.004 142.809L386.677 143.053H385.611L385.12 142.728L384.915 142.281V140.615L385.16 140.25L385.611 140.047L386.226 139.803H386.677L387.332 139.6L387.783 139.275L387.578 140.29ZM390.2 144.596V135.09L389.955 134.197L389.627 133.506L389.176 133.1L388.52 132.653L387.947 132.45H385.488L384.587 132.775L384.218 133.019L383.358 133.994L383.153 134.562L382.907 135.212V136.797H385.16V136.106L385.406 135.578L385.611 135.334H387.578V136.634L387.127 136.837H385.98L384.833 137.162L383.931 137.609L383.399 138.259L383.071 139.031L382.743 139.925V142.687L383.071 143.256L383.399 143.784L383.726 144.231L384.3 144.596H386.062L386.472 144.353L387.045 143.825L387.578 143.012V144.596H390.159V144.068L390.2 144.596Z" fill="#9F9F9E"/>
<path d="M398.231 142.362V142.931L397.986 143.378L397.781 143.825L397.535 144.068L397.207 144.271H395.732L395.404 143.946L395.199 143.5L394.953 142.931V141.103L395.199 140.453L395.404 139.843L395.732 139.518L396.183 139.315H397.084L397.535 139.518L397.863 139.843L398.109 140.331V141.753L398.231 142.362ZM399.256 140.29L399.01 139.722L398.682 139.153L397.781 138.503H396.101L395.568 138.828L395.199 139.072L394.872 139.518V138.625H393.888V148.009H394.994V144.637L395.322 144.962H395.691L396.224 145.287H398.068L398.437 144.962L398.887 144.393L399.215 143.703V141.062L399.256 140.29Z" fill="#9F9F9E"/>
<path d="M404.583 142.728V143.581L404.255 143.946L403.927 144.271H402.124L401.878 143.946V142.809L402.124 142.565H404.788L404.583 142.728ZM405.935 144.515V139.397L405.689 139.031L405.361 138.828H402.042L401.714 139.031L401.469 139.478V140.534H402.452V139.64H402.657L402.903 139.437H404.255L404.788 139.64V141.103H402.78L401.96 141.346L401.305 141.753V141.996L401.059 142.321V143.987L401.305 144.312V144.678H404.132L404.665 144.231L404.992 143.865L405.238 144.475L405.566 144.799H405.976H405.771H406.099V144.353L405.935 144.515Z" fill="#9F9F9E"/>
<path d="M410.155 138.381L409.5 138.503L409.049 138.828L408.598 139.275L408.393 139.722V138.503H407.369V145.246H408.516V141.346L408.598 140.697L408.926 140.128L409.172 139.803L409.377 139.722L409.705 139.6H410.483V138.381H410.155Z" fill="#9F9F9E"/>
<path d="M415.318 142.728V143.946L414.867 144.271L414.294 144.515H413.31L412.983 144.271L412.737 143.946V143.134L412.983 142.931L413.187 142.687H415.523L415.318 142.728ZM416.752 144.515V139.193L416.384 138.99H413.024L412.696 139.315L412.45 139.64V140.778H413.433V140.006L413.638 139.762L413.966 139.559H415.195L415.687 139.762V141.021L415.441 141.225H413.433L412.655 141.468L411.999 141.875V142.118L411.753 142.443V144.109L411.999 144.434V144.799H414.785L415.359 144.475L415.687 143.987L415.933 144.678L416.261 144.921H417.49V144.15H417.121L416.752 144.515Z" fill="#9F9F9E"/>
<path d="M424.046 141.387H422.161L422.366 140.615V139.965L422.694 139.722L422.939 139.478H424.497L424.865 139.722V140.168L425.07 140.615V141.265L424.046 141.387ZM426.381 139.6L425.931 139.153L425.357 138.706H422.98L422.407 139.031L421.997 139.478L421.628 140.047L421.423 140.697V143.54L421.628 144.231L421.997 144.678L422.407 145.124L422.857 145.368H425.562L426.013 144.921L426.34 144.556V144.271L426.586 143.784V143.337H425.48V143.784L425.234 144.109L424.906 144.475H422.776L422.53 144.231L422.161 143.134V142.281H426.709V140.168L426.381 139.6Z" fill="#9F9F9E"/>
<path d="M429.291 136.065H428.266V145.246H429.291V136.065Z" fill="#9F9F9E"/>
<path d="M299.892 138.422L298.253 143.987L296.573 138.422H295.343L297.679 145.409L297.351 146.099L297.228 146.628L296.9 146.871L296.778 146.953H296.368L295.917 146.871V147.846L296.245 147.968H297.023L297.351 147.846L297.556 147.603L297.802 147.399L298.335 146.303L299.113 144.312L300.137 141.428L301.162 138.422H299.892Z" fill="#9F9F9E"/>
<path d="M440.108 138.178L439.78 139.722L439.329 140.859L439.125 141.306L438.756 141.631L438.305 141.875H435.355V130.581H438.387L439.043 130.825L439.493 131.272L439.944 131.962L440.149 132.734V135.944L440.108 138.178ZM442.116 131.881L441.706 130.541L441.214 129.891L440.804 129.2L440.231 128.794L439.657 128.469L438.756 128.103H432.651V145.165H439.534L440.108 144.678L440.559 144.271L440.969 143.703L441.337 143.175L441.788 142.403L442.116 141.062L442.485 139.722V133.75L442.116 131.881Z" fill="#9F9F9E"/>
<path d="M444.451 130.987H446.828V127.981L444.451 127.859V130.987Z" fill="#9F9F9E"/>
<path d="M444.328 145.246H446.664L446.828 132.491H444.451L444.328 145.246Z" fill="#9F9F9E"/>
<path d="M456.293 140.047L456.088 139.518L455.842 139.072L455.433 138.625L454.982 138.178L454.367 137.853L453.712 137.609L452.155 137.04L451.376 136.715L451.048 136.269V135.415L451.376 135.09L451.745 134.847L452.4 134.725H452.851L453.179 134.847L453.507 135.09L453.712 135.415L453.835 135.822L453.958 136.39H456.293L456.088 135.294L455.842 134.4L455.515 133.75L455.064 133.181L454.49 132.734L453.835 132.409L453.179 132.166H452.4L451.622 132.287L450.843 132.491L450.147 132.856L449.696 133.384L449.245 134.075L448.918 134.847L448.795 135.619L448.713 136.512V137.162L448.795 137.69L449.04 138.259L449.245 138.747L449.696 139.153L450.147 139.518L450.72 139.843L451.376 140.047L453.056 140.697L453.835 141.143L454.039 141.468L454.162 141.915L454.039 142.484L453.712 142.809L453.261 143.053L452.605 143.175L452.155 143.053L451.745 142.931L451.376 142.728L451.048 142.484L450.843 141.915L450.72 141.143H448.385L448.467 142.159L448.713 142.931L448.918 143.703L449.368 144.353L449.942 144.921L450.72 145.368L451.499 145.571L452.482 145.693L453.384 145.571L454.285 145.368L454.982 145.003L455.515 144.474L455.965 143.825L456.211 143.175L456.416 142.403L456.539 141.387L456.416 140.697L456.293 140.047Z" fill="#9F9F9E"/>
<path d="M460.104 136.553V136.065L460.35 135.74V135.415L460.677 135.172H462.275L462.603 135.415L462.849 135.862V137.528H458.752L460.104 136.553ZM466.209 139.843V137.406L465.963 135.944L465.554 134.725L465.185 134.075L464.857 133.628L464.447 133.222L464.078 132.897L463.546 132.531H461.087L460.186 132.856L459.53 133.425L458.875 134.197L458.26 135.172L457.932 136.39L457.604 137.731V140.94L457.932 142.281L458.26 143.459L458.629 143.906L458.956 144.353L459.653 145.043L460.391 145.612H462.972L463.873 145.287L464.652 144.718L465.308 143.946L465.635 143.256L465.881 142.728L466.086 142.159V141.631H463.751V142.078L463.505 142.484L463.177 142.728L462.849 142.931H461.497L460.923 142.606L460.472 142.078V139.843H466.906H466.209Z" fill="#9F9F9E"/>
<path d="M475.142 134.725L474.937 133.994L474.486 133.303L474.035 132.856L473.503 132.491L472.929 132.409L472.232 132.287H471.823L471.249 132.491L470.921 132.734L470.47 133.059L470.143 133.628L469.692 134.522V132.612H467.479L467.356 145.246L469.692 145.368V138.422L469.815 137.406L469.938 136.512L470.266 135.822L470.593 135.415L471.044 135.172L471.577 135.09H472.027L472.396 135.294L472.601 135.619L472.806 136.065L472.929 136.715L473.052 137.609V145.368H475.387V136.715L475.264 135.619L475.142 134.725Z" fill="#9F9F9E"/>
<path d="M469.569 130.297L469.692 129.972L469.938 129.769H470.47L470.798 129.891L471.454 130.216L471.946 130.419L472.601 130.541H473.052L473.38 130.297L473.707 130.094L473.953 129.769L474.281 128.753L474.486 127.656H473.38L473.175 128.428L472.929 128.631H472.355L471.946 128.428L471.249 127.981L470.798 127.859L470.47 127.738L469.938 127.859L469.569 128.103L469.159 128.428L468.913 128.875L468.586 129.647L468.463 130.744H469.487L469.569 130.297Z" fill="#9F9F9E"/>
<path d="M483.623 139.072V140.737L483.378 141.387L483.132 141.956L482.927 142.403L482.476 142.728L482.148 142.931H481.206L480.755 142.728L480.427 142.403L480.1 141.956L479.854 141.387V136.634L480.181 136.065L480.427 135.659L480.878 135.294H482.64L482.968 135.659L483.173 136.065L483.5 136.634V138.056L483.623 139.072ZM486 137.731L485.754 136.431L485.426 135.294L484.976 134.319L484.32 133.425L483.951 132.978H483.541L483.05 132.734H480.059L479.526 132.978H479.075L478.747 133.303L478.092 134.197L477.641 135.294L477.313 136.431L477.067 137.65V140.412L477.313 141.631L477.641 142.728L478.092 143.825L478.747 144.718L479.075 145.043L479.526 145.165H479.977L480.427 145.409H482.517L482.927 145.165H483.419L483.828 144.921L484.197 144.596L484.853 143.703L485.303 142.606L485.631 141.509L485.877 140.29V138.95L486 137.731Z" fill="#9F9F9E"/>
<path d="M271.332 147.115C271.332 150.649 269.037 156.093 264.858 156.093H205.608C201.511 156.093 199.134 150.527 199.134 147.115V132.978C199.462 129.363 201.675 124.488 206.059 124.488H252.565C253.871 124.602 255.086 125.198 255.971 126.156C256.856 127.115 257.347 128.368 257.347 129.667C257.347 130.967 256.856 132.219 255.971 133.178C255.086 134.137 253.871 134.732 252.565 134.847H221.384C220.01 134.808 218.636 134.917 217.286 135.172C208.067 137 209.378 145.409 221.384 145.409H248.14C265.227 145.409 264.53 115.754 248.468 115.876H205.69C204.342 115.759 203.087 115.146 202.173 114.157C201.259 113.168 200.752 111.875 200.752 110.534C200.752 109.192 201.259 107.899 202.173 106.91C203.087 105.921 204.342 105.308 205.69 105.192H264.94C269.037 105.192 271.414 110.594 271.414 114.169L271.332 147.115ZM300.015 160.765H285.304V96.4169C285.304 94.4091 284.503 92.483 283.075 91.0596C281.647 89.6361 279.708 88.831 277.683 88.8203H196.799V77.3238C196.676 75.8722 196.008 74.5194 194.926 73.5333C193.845 72.5473 192.429 72 190.96 72C189.49 72 188.075 72.5473 186.993 73.5333C185.912 74.5194 185.244 75.8722 185.121 77.3238V88.6984H170.37C168.906 88.8201 167.541 89.4827 166.547 90.5549C165.552 91.6271 165 93.0306 165 94.4872C165 95.9439 165.552 97.3474 166.547 98.4196C167.541 99.4918 168.906 100.154 170.37 100.276H185.121V164.746C185.121 166.746 185.917 168.666 187.336 170.089C188.755 171.511 190.683 172.321 192.701 172.342H273.627V183.676C273.749 185.128 274.418 186.481 275.499 187.467C276.581 188.453 277.996 189 279.466 189C280.935 189 282.351 188.453 283.432 187.467C284.513 186.481 285.182 185.128 285.304 183.676V172.342H300.015C301.479 172.221 302.843 171.558 303.838 170.486C304.833 169.414 305.385 168.01 305.385 166.553C305.385 165.097 304.833 163.693 303.838 162.621C302.843 161.549 301.479 160.886 300.015 160.765Z" fill="#272E66"/>
<path d="M393.192 170.758C393.101 170.762 393.012 170.736 392.938 170.685C392.864 170.633 392.809 170.559 392.782 170.474C392.748 170.068 392.748 169.66 392.782 169.255V166.046H393.97V164.38H392.782V161.415L391.02 162.633V164.218H390.242V165.883H391.02V169.539C390.954 170.133 390.954 170.733 391.02 171.327C391.081 171.679 391.271 171.997 391.553 172.22C391.862 172.443 392.236 172.557 392.618 172.545C393.088 172.544 393.551 172.433 393.97 172.22V170.595C393.74 170.639 393.504 170.639 393.274 170.595" fill="#272E66"/>
<path d="M456.416 164.339H454.654V172.302H456.416V164.339Z" fill="#272E66"/>
<path d="M444.451 170.433C444.327 170.564 444.172 170.663 444.001 170.723C443.83 170.783 443.647 170.802 443.467 170.778C443.287 170.755 443.115 170.689 442.966 170.586C442.816 170.484 442.693 170.348 442.607 170.189C442.268 169.583 442.125 168.888 442.198 168.199C442.137 167.562 442.281 166.922 442.607 166.371C442.713 166.198 442.864 166.057 443.045 165.964C443.225 165.87 443.429 165.828 443.632 165.842C444.287 165.842 444.656 166.249 444.779 167.102L446.5 166.736C446.366 165.998 446.009 165.318 445.476 164.786C444.939 164.371 444.272 164.155 443.591 164.177C443.142 164.166 442.697 164.259 442.291 164.45C441.886 164.64 441.531 164.922 441.255 165.274C440.623 166.176 440.319 167.265 440.395 168.361C440.379 169.388 440.648 170.4 441.173 171.286C441.426 171.679 441.779 171.999 442.196 172.213C442.613 172.427 443.08 172.528 443.55 172.505C445.271 172.505 446.254 171.57 446.623 169.62L444.902 169.295C444.857 169.708 444.702 170.101 444.451 170.433Z" fill="#272E66"/>
<path d="M430.356 168.93C430.414 169.348 430.414 169.771 430.356 170.189C430.248 170.433 430.061 170.633 429.823 170.758C429.667 170.879 429.485 170.963 429.291 171.002C429.16 171.01 429.03 170.988 428.909 170.939C428.789 170.89 428.681 170.814 428.594 170.717C428.497 170.614 428.421 170.493 428.372 170.36C428.322 170.228 428.301 170.087 428.307 169.945C428.3 169.693 428.387 169.447 428.553 169.255C428.825 169.065 429.131 168.927 429.455 168.849C429.813 168.803 430.16 168.692 430.479 168.524L430.356 168.93ZM432.036 169.702V167.224C432.086 166.574 431.988 165.921 431.749 165.314C431.675 165.131 431.564 164.965 431.423 164.825C431.282 164.685 431.115 164.575 430.93 164.502C430.405 164.26 429.828 164.148 429.25 164.177C428.615 164.165 427.994 164.365 427.488 164.746C426.981 165.187 426.647 165.791 426.545 166.452L428.102 166.777C428.19 166.488 428.345 166.224 428.553 166.005C428.777 165.917 429.026 165.917 429.25 166.005C429.493 165.959 429.743 165.959 429.987 166.005C430.116 166.092 430.227 166.202 430.315 166.33C430.348 166.613 430.348 166.9 430.315 167.183L429.127 167.63C428.965 167.597 428.797 167.597 428.635 167.63C428.121 167.716 427.623 167.881 427.16 168.117C426.876 168.34 426.639 168.616 426.463 168.93C426.307 169.318 426.223 169.731 426.217 170.149C426.204 170.761 426.424 171.355 426.832 171.814C427.036 172.029 427.285 172.198 427.56 172.31C427.836 172.423 428.133 172.475 428.43 172.464C428.661 172.506 428.897 172.506 429.127 172.464H429.495C429.861 172.258 430.193 171.998 430.479 171.692V172.586H432.2C432.065 172.228 431.955 171.862 431.872 171.489C431.841 170.975 431.841 170.46 431.872 169.945" fill="#272E66"/>
<path d="M416.179 170.027C416.073 170.196 415.929 170.339 415.759 170.445C415.588 170.551 415.395 170.616 415.195 170.636C414.991 170.63 414.793 170.571 414.62 170.464C414.447 170.357 414.306 170.206 414.212 170.027C413.884 169.461 413.741 168.808 413.802 168.158C413.75 167.535 413.893 166.911 414.212 166.371C414.321 166.199 414.472 166.056 414.651 165.957C414.83 165.858 415.031 165.804 415.236 165.802C415.444 165.812 415.647 165.873 415.825 165.98C416.004 166.086 416.153 166.234 416.261 166.411C416.562 166.972 416.704 167.604 416.67 168.239C416.71 168.867 416.552 169.491 416.22 170.027M416.752 165.477C416.518 165.097 416.212 164.766 415.851 164.502C415.665 164.379 415.456 164.296 415.236 164.258H414.745C414.355 164.264 413.973 164.363 413.631 164.547C413.288 164.731 412.996 164.994 412.778 165.314C412.171 166.227 411.884 167.311 411.958 168.402C411.919 169.469 412.22 170.52 412.819 171.408C413.016 171.716 413.289 171.97 413.611 172.148C413.933 172.325 414.294 172.42 414.663 172.423C414.852 172.462 415.047 172.462 415.236 172.423C415.413 172.45 415.592 172.45 415.769 172.423C416.117 172.157 416.409 171.826 416.629 171.449V172.586C416.71 172.961 416.71 173.349 416.629 173.723C416.541 173.897 416.415 174.05 416.261 174.17C415.964 174.235 415.656 174.235 415.359 174.17C415.119 174.245 414.862 174.245 414.622 174.17C414.542 174.09 414.479 173.995 414.437 173.89C414.395 173.785 414.374 173.674 414.376 173.561L412.368 173.236V173.52C412.346 173.976 412.46 174.428 412.696 174.82C412.942 175.186 413.281 175.48 413.679 175.673C414.232 175.867 414.814 175.964 415.4 175.958C416.036 175.992 416.67 175.866 417.244 175.592C417.697 175.321 418.044 174.906 418.227 174.414C418.48 173.613 418.591 172.775 418.555 171.936V164.38H416.916L416.752 165.477Z" fill="#272E66"/>
<path d="M485.385 165.477C485.257 165.078 485.015 164.726 484.689 164.461C484.305 164.194 483.847 164.052 483.378 164.055C482.946 164.056 482.523 164.168 482.148 164.38C481.775 164.659 481.455 165.003 481.206 165.396V164.258H479.526V172.383H481.247V168.727C481.154 168.107 481.154 167.478 481.247 166.858C481.308 166.549 481.483 166.273 481.738 166.086C481.842 165.99 481.965 165.915 482.099 165.866C482.233 165.817 482.375 165.795 482.517 165.802C482.714 165.723 482.935 165.723 483.132 165.802C483.325 165.971 483.455 166.2 483.5 166.452C483.537 166.979 483.537 167.509 483.5 168.036V172.098H485.262V167.386C485.278 166.784 485.208 166.182 485.057 165.599" fill="#272E66"/>
<path d="M469.159 170.189C469.039 170.373 468.875 170.524 468.683 170.63C468.49 170.736 468.274 170.794 468.053 170.799C467.837 170.777 467.627 170.712 467.436 170.607C467.246 170.502 467.079 170.36 466.947 170.189C466.586 169.649 466.413 169.007 466.455 168.361C466.407 167.714 466.58 167.07 466.947 166.533C467.056 166.337 467.216 166.173 467.411 166.059C467.605 165.945 467.827 165.884 468.053 165.883C468.284 165.885 468.511 165.946 468.712 166.06C468.913 166.173 469.081 166.336 469.2 166.533C469.528 167.071 469.685 167.693 469.651 168.32C469.685 168.973 469.528 169.622 469.2 170.189M468.053 164.177C467.457 164.17 466.871 164.339 466.373 164.664C465.84 165.019 465.415 165.51 465.144 166.086C464.83 166.761 464.676 167.497 464.693 168.239C464.607 169.374 464.943 170.501 465.635 171.408C466.129 171.983 466.816 172.361 467.569 172.473C468.322 172.585 469.091 172.423 469.733 172.017C470.277 171.659 470.705 171.15 470.962 170.555C471.294 169.856 471.462 169.092 471.454 168.32C471.484 167.287 471.167 166.272 470.552 165.436C470.271 165.04 469.897 164.718 469.461 164.498C469.025 164.279 468.542 164.168 468.053 164.177Z" fill="#272E66"/>
<path d="M468.258 163.405L469.938 161.171H467.971L467.11 163.405H468.258Z" fill="#272E66"/>
<path d="M456.416 161.333H454.654V163.283H456.416V161.333Z" fill="#272E66"/>
<path d="M339.719 164.583C339.351 164.316 338.905 164.174 338.449 164.177C338.031 164.178 337.621 164.29 337.261 164.502C336.821 164.754 336.432 165.084 336.113 165.477V164.339H334.515V172.464H336.237V168.727C336.174 168.105 336.174 167.479 336.237 166.858C336.329 166.552 336.515 166.283 336.769 166.086C336.984 165.898 337.261 165.797 337.548 165.802C337.748 165.744 337.961 165.744 338.162 165.802C338.341 165.982 338.469 166.206 338.531 166.452C338.596 166.978 338.596 167.51 338.531 168.036V172.098H340.252V167.386C340.267 166.784 340.198 166.182 340.047 165.599C339.902 165.198 339.646 164.847 339.31 164.583" fill="#272E66"/>
<path d="M326.116 161.333H324.313V172.302H326.116V161.333Z" fill="#272E66"/>
<path d="M403.722 161.333H401.96V163.283H403.722V161.333Z" fill="#272E66"/>
<path d="M352.217 168.442L351.807 169.783L351.479 168.442L350.25 164.339H348.406L351.069 172.302H352.626L355.208 164.339H353.446L352.217 168.442Z" fill="#272E66"/>
<path d="M403.722 164.339H401.96V172.302H403.722V164.339Z" fill="#272E66"/>
<path d="M364.427 167.671C364.393 167.176 364.538 166.686 364.837 166.289C364.943 166.139 365.084 166.016 365.248 165.931C365.412 165.846 365.594 165.802 365.779 165.802C365.947 165.809 366.111 165.853 366.26 165.931C366.409 166.008 366.538 166.116 366.64 166.249C366.945 166.658 367.09 167.163 367.05 167.671H364.427ZM365.779 164.177C365.379 164.161 364.982 164.246 364.624 164.424C364.265 164.601 363.958 164.866 363.731 165.192C363.043 166.104 362.695 167.224 362.747 168.361C362.676 169.494 363.01 170.616 363.69 171.53C363.963 171.845 364.303 172.095 364.686 172.264C365.068 172.433 365.484 172.515 365.902 172.505C366.558 172.521 367.197 172.305 367.705 171.895C368.23 171.433 368.601 170.824 368.771 170.149L367.009 169.783C367.009 170.555 366.476 170.92 365.902 170.92C365.719 170.911 365.54 170.863 365.377 170.779C365.215 170.695 365.072 170.577 364.96 170.433C364.655 169.992 364.511 169.462 364.55 168.93H368.894C368.989 167.699 368.673 166.471 367.992 165.436C367.753 165.109 367.438 164.843 367.075 164.659C366.712 164.476 366.31 164.38 365.902 164.38" fill="#272E66"/>
<path d="M380.08 167.346C379.536 167.23 379.012 167.038 378.522 166.777C378.45 166.735 378.389 166.676 378.346 166.605C378.303 166.534 378.279 166.453 378.277 166.371C378.273 166.275 378.294 166.181 378.337 166.096C378.38 166.011 378.444 165.937 378.522 165.883C378.831 165.802 379.156 165.802 379.465 165.883C379.751 165.858 380.035 165.941 380.263 166.114C380.49 166.286 380.644 166.538 380.694 166.817L382.333 166.452C382.228 165.826 381.892 165.262 381.391 164.868C380.807 164.491 380.119 164.307 379.424 164.339C378.683 164.297 377.953 164.528 377.375 164.989C377.136 165.228 376.951 165.515 376.831 165.83C376.711 166.145 376.659 166.481 376.679 166.817C376.658 167.136 376.709 167.454 376.83 167.75C376.95 168.045 377.137 168.31 377.375 168.524C378.216 169.051 379.146 169.423 380.121 169.62C380.311 169.669 380.492 169.752 380.653 169.864C380.68 169.929 380.694 169.998 380.694 170.067C380.694 170.137 380.68 170.206 380.653 170.27C380.657 170.397 380.629 170.523 380.571 170.636C380.514 170.749 380.43 170.847 380.325 170.92C380.041 171.09 379.714 171.175 379.383 171.164C379.031 171.175 378.689 171.05 378.429 170.815C378.169 170.58 378.011 170.253 377.99 169.905L376.269 170.23C376.364 170.946 376.73 171.6 377.293 172.058C377.906 172.477 378.639 172.691 379.383 172.667C380.185 172.693 380.97 172.434 381.596 171.936C381.852 171.689 382.053 171.391 382.187 171.062C382.321 170.734 382.385 170.381 382.374 170.027C382.399 169.471 382.225 168.924 381.882 168.483C381.338 167.973 380.654 167.634 379.916 167.508" fill="#272E66"/>
<path d="M295.251 253L301.591 239H303.571L309.931 253H307.831L302.171 240.12H302.971L297.311 253H295.251ZM297.951 249.5L298.491 247.9H306.371L306.951 249.5H297.951ZM311.74 253V242.4H313.58V245.26L313.28 244.5C313.627 243.807 314.16 243.267 314.88 242.88C315.6 242.493 316.44 242.3 317.4 242.3C318.267 242.3 319.027 242.467 319.68 242.8C320.347 243.133 320.867 243.64 321.24 244.32C321.613 245 321.8 245.86 321.8 246.9V253H319.88V247.12C319.88 246.093 319.627 245.32 319.12 244.8C318.627 244.28 317.927 244.02 317.02 244.02C316.34 244.02 315.747 244.153 315.24 244.42C314.733 244.687 314.34 245.08 314.06 245.6C313.793 246.12 313.66 246.767 313.66 247.54V253H311.74ZM328.993 253.12C327.927 253.12 327.1 252.833 326.513 252.26C325.927 251.687 325.633 250.867 325.633 249.8V240.08H327.553V249.72C327.553 250.293 327.693 250.733 327.973 251.04C328.267 251.347 328.68 251.5 329.213 251.5C329.813 251.5 330.313 251.333 330.713 251L331.313 252.38C331.02 252.633 330.667 252.82 330.253 252.94C329.853 253.06 329.433 253.12 328.993 253.12ZM323.833 243.98V242.4H330.593V243.98H323.833ZM338.003 253.12C336.87 253.12 335.87 252.887 335.003 252.42C334.15 251.953 333.483 251.313 333.003 250.5C332.536 249.687 332.303 248.753 332.303 247.7C332.303 246.647 332.53 245.713 332.983 244.9C333.45 244.087 334.083 243.453 334.883 243C335.696 242.533 336.61 242.3 337.623 242.3C338.65 242.3 339.556 242.527 340.343 242.98C341.13 243.433 341.743 244.073 342.183 244.9C342.636 245.713 342.863 246.667 342.863 247.76C342.863 247.84 342.856 247.933 342.843 248.04C342.843 248.147 342.836 248.247 342.823 248.34H333.803V246.96H341.823L341.043 247.44C341.056 246.76 340.916 246.153 340.623 245.62C340.33 245.087 339.923 244.673 339.403 244.38C338.896 244.073 338.303 243.92 337.623 243.92C336.956 243.92 336.363 244.073 335.843 244.38C335.323 244.673 334.916 245.093 334.623 245.64C334.33 246.173 334.183 246.787 334.183 247.48V247.8C334.183 248.507 334.343 249.14 334.663 249.7C334.996 250.247 335.456 250.673 336.043 250.98C336.63 251.287 337.303 251.44 338.063 251.44C338.69 251.44 339.256 251.333 339.763 251.12C340.283 250.907 340.736 250.587 341.123 250.16L342.183 251.4C341.703 251.96 341.103 252.387 340.383 252.68C339.676 252.973 338.883 253.12 338.003 253.12ZM348.569 253.12C347.689 253.12 346.849 253 346.049 252.76C345.262 252.52 344.642 252.227 344.189 251.88L344.989 250.36C345.442 250.667 346.002 250.927 346.669 251.14C347.336 251.353 348.016 251.46 348.709 251.46C349.602 251.46 350.242 251.333 350.629 251.08C351.029 250.827 351.229 250.473 351.229 250.02C351.229 249.687 351.109 249.427 350.869 249.24C350.629 249.053 350.309 248.913 349.909 248.82C349.522 248.727 349.089 248.647 348.609 248.58C348.129 248.5 347.649 248.407 347.169 248.3C346.689 248.18 346.249 248.02 345.849 247.82C345.449 247.607 345.129 247.32 344.889 246.96C344.649 246.587 344.529 246.093 344.529 245.48C344.529 244.84 344.709 244.28 345.069 243.8C345.429 243.32 345.936 242.953 346.589 242.7C347.256 242.433 348.042 242.3 348.949 242.3C349.642 242.3 350.342 242.387 351.049 242.56C351.769 242.72 352.356 242.953 352.809 243.26L351.989 244.78C351.509 244.46 351.009 244.24 350.489 244.12C349.969 244 349.449 243.94 348.929 243.94C348.089 243.94 347.462 244.08 347.049 244.36C346.636 244.627 346.429 244.973 346.429 245.4C346.429 245.76 346.549 246.04 346.789 246.24C347.042 246.427 347.362 246.573 347.749 246.68C348.149 246.787 348.589 246.88 349.069 246.96C349.549 247.027 350.029 247.12 350.509 247.24C350.989 247.347 351.422 247.5 351.809 247.7C352.209 247.9 352.529 248.18 352.769 248.54C353.022 248.9 353.149 249.38 353.149 249.98C353.149 250.62 352.962 251.173 352.589 251.64C352.216 252.107 351.689 252.473 351.009 252.74C350.329 252.993 349.516 253.12 348.569 253.12Z" fill="#868686"/>
</svg>
