<svg width="650" height="280" viewBox="0 0 650 280" fill="none" xmlns="http://www.w3.org/2000/svg">
<rect width="650" height="280" fill="#0B124A"/>
<path d="M339.384 144V118.8H343.236L354.252 137.196H352.236L363.072 118.8H366.924L366.96 144H362.532L362.496 125.748H363.432L354.216 141.12H352.128L342.768 125.748H343.848V144H339.384ZM381.975 144.252C380.007 144.252 378.255 143.832 376.719 142.992C375.183 142.128 373.971 140.952 373.083 139.464C372.195 137.976 371.751 136.284 371.751 134.388C371.751 132.468 372.195 130.776 373.083 129.312C373.971 127.824 375.183 126.66 376.719 125.82C378.255 124.98 380.007 124.56 381.975 124.56C383.967 124.56 385.731 124.98 387.267 125.82C388.827 126.66 390.039 127.812 390.903 129.276C391.791 130.74 392.235 132.444 392.235 134.388C392.235 136.284 391.791 137.976 390.903 139.464C390.039 140.952 388.827 142.128 387.267 142.992C385.731 143.832 383.967 144.252 381.975 144.252ZM381.975 140.4C383.079 140.4 384.063 140.16 384.927 139.68C385.791 139.2 386.463 138.504 386.943 137.592C387.447 136.68 387.699 135.612 387.699 134.388C387.699 133.14 387.447 132.072 386.943 131.184C386.463 130.272 385.791 129.576 384.927 129.096C384.063 128.616 383.091 128.376 382.011 128.376C380.907 128.376 379.923 128.616 379.059 129.096C378.219 129.576 377.547 130.272 377.043 131.184C376.539 132.072 376.287 133.14 376.287 134.388C376.287 135.612 376.539 136.68 377.043 137.592C377.547 138.504 378.219 139.2 379.059 139.68C379.923 140.16 380.895 140.4 381.975 140.4ZM396.538 144V124.776H400.822V129.96L400.066 128.376C400.738 127.152 401.71 126.216 402.982 125.568C404.278 124.896 405.766 124.56 407.446 124.56C408.982 124.56 410.35 124.86 411.55 125.46C412.774 126.06 413.734 126.984 414.43 128.232C415.126 129.456 415.474 131.04 415.474 132.984V144H410.974V133.56C410.974 131.856 410.566 130.584 409.75 129.744C408.958 128.904 407.842 128.484 406.402 128.484C405.346 128.484 404.41 128.7 403.594 129.132C402.778 129.564 402.142 130.212 401.686 131.076C401.254 131.916 401.038 132.984 401.038 134.28V144H396.538ZM428.418 144.252C426.306 144.252 424.674 143.712 423.522 142.632C422.37 141.528 421.794 139.908 421.794 137.772V120.528H426.294V137.664C426.294 138.576 426.522 139.284 426.978 139.788C427.458 140.292 428.118 140.544 428.958 140.544C429.966 140.544 430.806 140.28 431.478 139.752L432.738 142.956C432.21 143.388 431.562 143.712 430.794 143.928C430.026 144.144 429.234 144.252 428.418 144.252ZM418.626 128.376V124.776H431.442V128.376H418.626ZM442.38 144.252C440.772 144.252 439.224 144.048 437.736 143.64C436.272 143.208 435.108 142.692 434.244 142.092L435.972 138.672C436.836 139.224 437.868 139.68 439.068 140.04C440.268 140.4 441.468 140.58 442.668 140.58C444.084 140.58 445.104 140.388 445.728 140.004C446.376 139.62 446.7 139.104 446.7 138.456C446.7 137.928 446.484 137.532 446.052 137.268C445.62 136.98 445.056 136.764 444.36 136.62C443.664 136.476 442.884 136.344 442.02 136.224C441.18 136.104 440.328 135.948 439.464 135.756C438.624 135.54 437.856 135.24 437.16 134.856C436.464 134.448 435.9 133.908 435.468 133.236C435.036 132.564 434.82 131.676 434.82 130.572C434.82 129.348 435.168 128.292 435.864 127.404C436.56 126.492 437.532 125.796 438.78 125.316C440.052 124.812 441.552 124.56 443.28 124.56C444.576 124.56 445.884 124.704 447.204 124.992C448.524 125.28 449.616 125.688 450.48 126.216L448.752 129.636C447.84 129.084 446.916 128.712 445.98 128.52C445.068 128.304 444.156 128.196 443.244 128.196C441.876 128.196 440.856 128.4 440.184 128.808C439.536 129.216 439.212 129.732 439.212 130.356C439.212 130.932 439.428 131.364 439.86 131.652C440.292 131.94 440.856 132.168 441.552 132.336C442.248 132.504 443.016 132.648 443.856 132.768C444.72 132.864 445.572 133.02 446.412 133.236C447.252 133.452 448.02 133.752 448.716 134.136C449.436 134.496 450.012 135.012 450.444 135.684C450.876 136.356 451.092 137.232 451.092 138.312C451.092 139.512 450.732 140.556 450.012 141.444C449.316 142.332 448.32 143.028 447.024 143.532C445.728 144.012 444.18 144.252 442.38 144.252ZM464.004 144.252C461.868 144.252 459.996 143.832 458.388 142.992C456.804 142.128 455.568 140.952 454.68 139.464C453.816 137.976 453.384 136.284 453.384 134.388C453.384 132.468 453.804 130.776 454.644 129.312C455.508 127.824 456.684 126.66 458.172 125.82C459.684 124.98 461.4 124.56 463.32 124.56C465.192 124.56 466.86 124.968 468.324 125.784C469.788 126.6 470.94 127.752 471.78 129.24C472.62 130.728 473.04 132.48 473.04 134.496C473.04 134.688 473.028 134.904 473.004 135.144C473.004 135.384 472.992 135.612 472.968 135.828H456.948V132.84H470.592L468.828 133.776C468.852 132.672 468.624 131.7 468.144 130.86C467.664 130.02 467.004 129.36 466.164 128.88C465.348 128.4 464.4 128.16 463.32 128.16C462.216 128.16 461.244 128.4 460.404 128.88C459.588 129.36 458.94 130.032 458.46 130.896C458.004 131.736 457.776 132.732 457.776 133.884V134.604C457.776 135.756 458.04 136.776 458.568 137.664C459.096 138.552 459.84 139.236 460.8 139.716C461.76 140.196 462.864 140.436 464.112 140.436C465.192 140.436 466.164 140.268 467.028 139.932C467.892 139.596 468.66 139.068 469.332 138.348L471.744 141.12C470.88 142.128 469.788 142.908 468.468 143.46C467.172 143.988 465.684 144.252 464.004 144.252ZM477.362 144V124.776H481.646V130.068L481.142 128.52C481.718 127.224 482.618 126.24 483.842 125.568C485.09 124.896 486.638 124.56 488.486 124.56V128.844C488.294 128.796 488.114 128.772 487.946 128.772C487.778 128.748 487.61 128.736 487.442 128.736C485.738 128.736 484.382 129.24 483.374 130.248C482.366 131.232 481.862 132.708 481.862 134.676V144H477.362ZM492.304 144V124.776H496.588V130.068L496.084 128.52C496.66 127.224 497.56 126.24 498.784 125.568C500.032 124.896 501.58 124.56 503.428 124.56V128.844C503.236 128.796 503.056 128.772 502.888 128.772C502.72 128.748 502.552 128.736 502.384 128.736C500.68 128.736 499.324 129.24 498.316 130.248C497.308 131.232 496.804 132.708 496.804 134.676V144H492.304ZM517.718 144V140.112L517.466 139.284V132.48C517.466 131.16 517.07 130.14 516.278 129.42C515.486 128.676 514.286 128.304 512.678 128.304C511.598 128.304 510.53 128.472 509.474 128.808C508.442 129.144 507.566 129.612 506.846 130.212L505.082 126.936C506.114 126.144 507.338 125.556 508.754 125.172C510.194 124.764 511.682 124.56 513.218 124.56C516.002 124.56 518.15 125.232 519.662 126.576C521.198 127.896 521.966 129.948 521.966 132.732V144H517.718ZM511.67 144.252C510.23 144.252 508.97 144.012 507.89 143.532C506.81 143.028 505.97 142.344 505.37 141.48C504.794 140.592 504.506 139.596 504.506 138.492C504.506 137.412 504.758 136.44 505.262 135.576C505.79 134.712 506.642 134.028 507.818 133.524C508.994 133.02 510.554 132.768 512.498 132.768H518.078V135.756H512.822C511.286 135.756 510.254 136.008 509.726 136.512C509.198 136.992 508.934 137.592 508.934 138.312C508.934 139.128 509.258 139.776 509.906 140.256C510.554 140.736 511.454 140.976 512.606 140.976C513.71 140.976 514.694 140.724 515.558 140.22C516.446 139.716 517.082 138.972 517.466 137.988L518.222 140.688C517.79 141.816 517.01 142.692 515.882 143.316C514.778 143.94 513.374 144.252 511.67 144.252ZM534.977 144.252C532.865 144.252 531.233 143.712 530.081 142.632C528.929 141.528 528.353 139.908 528.353 137.772V120.528H532.853V137.664C532.853 138.576 533.081 139.284 533.537 139.788C534.017 140.292 534.677 140.544 535.517 140.544C536.525 140.544 537.365 140.28 538.037 139.752L539.297 142.956C538.769 143.388 538.121 143.712 537.353 143.928C536.585 144.144 535.793 144.252 534.977 144.252ZM525.185 128.376V124.776H538.001V128.376H525.185Z" fill="#E2FDCB"/>
<path d="M342.144 184V168.304H336.096V167.2H349.416V168.304H343.368V184H342.144ZM352.067 184V171.472H353.267V184H352.067ZM352.667 168.424C352.395 168.424 352.163 168.328 351.971 168.136C351.779 167.944 351.683 167.72 351.683 167.464C351.683 167.192 351.779 166.96 351.971 166.768C352.163 166.576 352.395 166.48 352.667 166.48C352.955 166.48 353.187 166.576 353.363 166.768C353.555 166.944 353.651 167.168 353.651 167.44C353.651 167.712 353.555 167.944 353.363 168.136C353.187 168.328 352.955 168.424 352.667 168.424ZM364.613 184.096C363.509 184.096 362.509 183.84 361.613 183.328C360.733 182.816 360.029 182.088 359.501 181.144C358.989 180.184 358.733 179.048 358.733 177.736C358.733 176.424 358.989 175.296 359.501 174.352C360.029 173.392 360.733 172.656 361.613 172.144C362.509 171.632 363.509 171.376 364.613 171.376C365.797 171.376 366.853 171.648 367.781 172.192C368.725 172.72 369.461 173.464 369.989 174.424C370.533 175.384 370.805 176.488 370.805 177.736C370.805 178.984 370.533 180.088 369.989 181.048C369.461 182.008 368.725 182.76 367.781 183.304C366.853 183.832 365.797 184.096 364.613 184.096ZM358.325 188.656V171.472H359.477V175.576L359.285 177.76L359.525 179.944V188.656H358.325ZM364.541 183.016C365.501 183.016 366.365 182.8 367.133 182.368C367.901 181.92 368.501 181.296 368.933 180.496C369.381 179.696 369.605 178.776 369.605 177.736C369.605 176.68 369.381 175.76 368.933 174.976C368.501 174.176 367.901 173.56 367.133 173.128C366.365 172.68 365.501 172.456 364.541 172.456C363.581 172.456 362.717 172.68 361.949 173.128C361.197 173.56 360.597 174.176 360.149 174.976C359.717 175.76 359.501 176.68 359.501 177.736C359.501 178.776 359.717 179.696 360.149 180.496C360.597 181.296 361.197 181.92 361.949 182.368C362.717 182.8 363.581 183.016 364.541 183.016ZM379.417 184.096C378.217 184.096 377.145 183.824 376.201 183.28C375.273 182.736 374.529 181.984 373.969 181.024C373.425 180.064 373.153 178.968 373.153 177.736C373.153 176.488 373.425 175.392 373.969 174.448C374.529 173.488 375.273 172.736 376.201 172.192C377.145 171.648 378.217 171.376 379.417 171.376C380.617 171.376 381.689 171.648 382.633 172.192C383.577 172.736 384.321 173.488 384.865 174.448C385.409 175.392 385.681 176.488 385.681 177.736C385.681 178.968 385.409 180.064 384.865 181.024C384.321 181.984 383.577 182.736 382.633 183.28C381.689 183.824 380.617 184.096 379.417 184.096ZM379.417 183.016C380.377 183.016 381.241 182.8 382.009 182.368C382.777 181.92 383.377 181.296 383.809 180.496C384.241 179.696 384.457 178.776 384.457 177.736C384.457 176.68 384.241 175.76 383.809 174.976C383.377 174.176 382.777 173.56 382.009 173.128C381.241 172.68 380.377 172.456 379.417 172.456C378.457 172.456 377.593 172.68 376.825 173.128C376.073 173.56 375.473 174.176 375.025 174.976C374.593 175.76 374.377 176.68 374.377 177.736C374.377 178.776 374.593 179.696 375.025 180.496C375.473 181.296 376.073 181.92 376.825 182.368C377.593 182.8 378.457 183.016 379.417 183.016ZM394.611 188.752C393.475 188.752 392.395 188.576 391.371 188.224C390.347 187.872 389.515 187.384 388.875 186.76L389.523 185.848C390.147 186.424 390.891 186.872 391.755 187.192C392.635 187.512 393.579 187.672 394.587 187.672C396.267 187.672 397.499 187.28 398.283 186.496C399.083 185.712 399.483 184.48 399.483 182.8V179.32L399.723 177.448L399.531 175.576V171.472H400.683V182.656C400.683 184.752 400.171 186.288 399.147 187.264C398.139 188.256 396.627 188.752 394.611 188.752ZM394.275 183.544C393.091 183.544 392.027 183.288 391.083 182.776C390.155 182.248 389.411 181.528 388.851 180.616C388.307 179.688 388.035 178.632 388.035 177.448C388.035 176.248 388.307 175.192 388.851 174.28C389.411 173.368 390.155 172.656 391.083 172.144C392.027 171.632 393.091 171.376 394.275 171.376C395.411 171.376 396.427 171.624 397.323 172.12C398.235 172.6 398.955 173.296 399.483 174.208C400.011 175.104 400.275 176.184 400.275 177.448C400.275 178.696 400.011 179.776 399.483 180.688C398.955 181.6 398.235 182.304 397.323 182.8C396.427 183.296 395.411 183.544 394.275 183.544ZM394.371 182.464C395.379 182.464 396.267 182.256 397.035 181.84C397.803 181.408 398.403 180.816 398.835 180.064C399.283 179.296 399.507 178.424 399.507 177.448C399.507 176.456 399.283 175.584 398.835 174.832C398.403 174.08 397.803 173.496 397.035 173.08C396.267 172.664 395.379 172.456 394.371 172.456C393.395 172.456 392.515 172.664 391.731 173.08C390.963 173.496 390.355 174.08 389.907 174.832C389.475 175.584 389.259 176.456 389.259 177.448C389.259 178.424 389.475 179.296 389.907 180.064C390.355 180.816 390.963 181.408 391.731 181.84C392.515 182.256 393.395 182.464 394.371 182.464ZM405.763 184V171.472H406.915V174.904L406.795 174.52C407.147 173.512 407.739 172.736 408.571 172.192C409.403 171.648 410.443 171.376 411.691 171.376V172.552C411.643 172.552 411.595 172.552 411.547 172.552C411.499 172.536 411.451 172.528 411.403 172.528C410.011 172.528 408.923 172.968 408.139 173.848C407.355 174.712 406.963 175.92 406.963 177.472V184H405.763ZM422.19 184V181.144L422.142 180.712V176.008C422.142 174.84 421.822 173.952 421.182 173.344C420.558 172.736 419.638 172.432 418.422 172.432C417.558 172.432 416.75 172.584 415.998 172.888C415.262 173.176 414.63 173.552 414.102 174.016L413.502 173.152C414.126 172.592 414.878 172.16 415.758 171.856C416.638 171.536 417.558 171.376 418.518 171.376C420.07 171.376 421.262 171.768 422.094 172.552C422.926 173.336 423.342 174.504 423.342 176.056V184H422.19ZM417.678 184.096C416.75 184.096 415.942 183.952 415.254 183.664C414.582 183.36 414.062 182.936 413.694 182.392C413.342 181.848 413.166 181.224 413.166 180.52C413.166 179.88 413.31 179.304 413.598 178.792C413.902 178.264 414.398 177.84 415.086 177.52C415.774 177.184 416.694 177.016 417.846 177.016H422.454V177.952H417.87C416.574 177.952 415.662 178.192 415.134 178.672C414.622 179.152 414.366 179.752 414.366 180.472C414.366 181.272 414.67 181.912 415.278 182.392C415.886 182.872 416.742 183.112 417.846 183.112C418.902 183.112 419.79 182.872 420.51 182.392C421.246 181.912 421.79 181.216 422.142 180.304L422.478 181.12C422.142 182.032 421.566 182.76 420.75 183.304C419.95 183.832 418.926 184.096 417.678 184.096ZM428.526 184V169.552C428.526 168.512 428.822 167.68 429.414 167.056C430.022 166.416 430.886 166.096 432.006 166.096C432.47 166.096 432.926 166.168 433.374 166.312C433.822 166.44 434.19 166.64 434.478 166.912L433.998 167.824C433.758 167.584 433.47 167.408 433.134 167.296C432.798 167.184 432.438 167.128 432.054 167.128C431.286 167.128 430.702 167.344 430.302 167.776C429.902 168.192 429.702 168.816 429.702 169.648V171.76L429.726 172.336V184H428.526ZM426.222 172.504V171.472H433.71V172.504H426.222ZM436.161 184V171.472H437.361V184H436.161ZM435.393 169.432L438.729 166.6H440.457L436.689 169.432H435.393ZM450.315 184V181.144L450.267 180.712V176.008C450.267 174.84 449.947 173.952 449.307 173.344C448.683 172.736 447.763 172.432 446.547 172.432C445.683 172.432 444.875 172.584 444.123 172.888C443.387 173.176 442.755 173.552 442.227 174.016L441.627 173.152C442.251 172.592 443.003 172.16 443.883 171.856C444.763 171.536 445.683 171.376 446.643 171.376C448.195 171.376 449.387 171.768 450.219 172.552C451.051 173.336 451.467 174.504 451.467 176.056V184H450.315ZM445.803 184.096C444.875 184.096 444.067 183.952 443.379 183.664C442.707 183.36 442.187 182.936 441.819 182.392C441.467 181.848 441.291 181.224 441.291 180.52C441.291 179.88 441.435 179.304 441.723 178.792C442.027 178.264 442.523 177.84 443.211 177.52C443.899 177.184 444.819 177.016 445.971 177.016H450.579V177.952H445.995C444.699 177.952 443.787 178.192 443.259 178.672C442.747 179.152 442.491 179.752 442.491 180.472C442.491 181.272 442.795 181.912 443.403 182.392C444.011 182.872 444.867 183.112 445.971 183.112C447.027 183.112 447.915 182.872 448.635 182.392C449.371 181.912 449.915 181.216 450.267 180.304L450.603 181.12C450.267 182.032 449.691 182.76 448.875 183.304C448.075 183.832 447.051 184.096 445.803 184.096ZM468.863 184.096C467.759 184.096 466.759 183.84 465.863 183.328C464.983 182.816 464.279 182.088 463.751 181.144C463.239 180.184 462.983 179.048 462.983 177.736C462.983 176.424 463.239 175.296 463.751 174.352C464.279 173.392 464.983 172.656 465.863 172.144C466.759 171.632 467.759 171.376 468.863 171.376C470.047 171.376 471.103 171.648 472.031 172.192C472.975 172.72 473.711 173.464 474.239 174.424C474.783 175.384 475.055 176.488 475.055 177.736C475.055 178.984 474.783 180.088 474.239 181.048C473.711 182.008 472.975 182.76 472.031 183.304C471.103 183.832 470.047 184.096 468.863 184.096ZM462.575 188.656V171.472H463.727V175.576L463.535 177.76L463.775 179.944V188.656H462.575ZM468.791 183.016C469.751 183.016 470.615 182.8 471.383 182.368C472.151 181.92 472.751 181.296 473.183 180.496C473.631 179.696 473.855 178.776 473.855 177.736C473.855 176.68 473.631 175.76 473.183 174.976C472.751 174.176 472.151 173.56 471.383 173.128C470.615 172.68 469.751 172.456 468.791 172.456C467.831 172.456 466.967 172.68 466.199 173.128C465.447 173.56 464.847 174.176 464.399 174.976C463.967 175.76 463.751 176.68 463.751 177.736C463.751 178.776 463.967 179.696 464.399 180.496C464.847 181.296 465.447 181.92 466.199 182.368C466.967 182.8 467.831 183.016 468.791 183.016ZM478.771 184V171.472H479.923V174.904L479.803 174.52C480.155 173.512 480.747 172.736 481.579 172.192C482.411 171.648 483.451 171.376 484.699 171.376V172.552C484.651 172.552 484.603 172.552 484.555 172.552C484.507 172.536 484.459 172.528 484.411 172.528C483.019 172.528 481.931 172.968 481.147 173.848C480.363 174.712 479.971 175.92 479.971 177.472V184H478.771ZM488.005 184V171.472H489.205V184H488.005ZM488.605 168.424C488.333 168.424 488.101 168.328 487.909 168.136C487.717 167.944 487.621 167.72 487.621 167.464C487.621 167.192 487.717 166.96 487.909 166.768C488.101 166.576 488.333 166.48 488.605 166.48C488.893 166.48 489.125 166.576 489.301 166.768C489.493 166.944 489.589 167.168 489.589 167.44C489.589 167.712 489.493 167.944 489.301 168.136C489.125 168.328 488.893 168.424 488.605 168.424ZM494.263 184V171.472H495.415V174.952L495.247 174.568C495.631 173.576 496.263 172.8 497.143 172.24C498.023 171.664 499.103 171.376 500.383 171.376C501.407 171.376 502.295 171.576 503.047 171.976C503.815 172.36 504.407 172.952 504.823 173.752C505.255 174.536 505.471 175.512 505.471 176.68V184H504.271V176.776C504.271 175.368 503.911 174.296 503.191 173.56C502.487 172.824 501.495 172.456 500.215 172.456C499.239 172.456 498.391 172.656 497.671 173.056C496.951 173.456 496.399 174.016 496.015 174.736C495.647 175.456 495.463 176.32 495.463 177.328V184H494.263ZM515.379 184.096C514.163 184.096 513.075 183.824 512.115 183.28C511.171 182.736 510.419 181.984 509.859 181.024C509.315 180.064 509.043 178.968 509.043 177.736C509.043 176.488 509.315 175.384 509.859 174.424C510.419 173.464 511.171 172.72 512.115 172.192C513.075 171.648 514.163 171.376 515.379 171.376C516.387 171.376 517.299 171.568 518.115 171.952C518.947 172.336 519.619 172.912 520.131 173.68L519.243 174.328C518.795 173.688 518.235 173.216 517.563 172.912C516.891 172.608 516.163 172.456 515.379 172.456C514.403 172.456 513.523 172.68 512.739 173.128C511.971 173.56 511.363 174.176 510.915 174.976C510.483 175.76 510.267 176.68 510.267 177.736C510.267 178.792 510.483 179.72 510.915 180.52C511.363 181.304 511.971 181.92 512.739 182.368C513.523 182.8 514.403 183.016 515.379 183.016C516.163 183.016 516.891 182.864 517.563 182.56C518.235 182.256 518.795 181.784 519.243 181.144L520.131 181.792C519.619 182.56 518.947 183.136 518.115 183.52C517.299 183.904 516.387 184.096 515.379 184.096ZM523.513 184V171.472H524.713V184H523.513ZM524.113 168.424C523.841 168.424 523.609 168.328 523.417 168.136C523.225 167.944 523.129 167.72 523.129 167.464C523.129 167.192 523.225 166.96 523.417 166.768C523.609 166.576 523.841 166.48 524.113 166.48C524.401 166.48 524.633 166.576 524.809 166.768C525.001 166.944 525.097 167.168 525.097 167.44C525.097 167.712 525.001 167.944 524.809 168.136C524.633 168.328 524.401 168.424 524.113 168.424ZM536.059 184.096C534.955 184.096 533.955 183.84 533.059 183.328C532.179 182.816 531.475 182.088 530.947 181.144C530.435 180.184 530.179 179.048 530.179 177.736C530.179 176.424 530.435 175.296 530.947 174.352C531.475 173.392 532.179 172.656 533.059 172.144C533.955 171.632 534.955 171.376 536.059 171.376C537.243 171.376 538.299 171.648 539.227 172.192C540.171 172.72 540.907 173.464 541.435 174.424C541.979 175.384 542.251 176.488 542.251 177.736C542.251 178.984 541.979 180.088 541.435 181.048C540.907 182.008 540.171 182.76 539.227 183.304C538.299 183.832 537.243 184.096 536.059 184.096ZM529.771 188.656V171.472H530.923V175.576L530.731 177.76L530.971 179.944V188.656H529.771ZM535.987 183.016C536.947 183.016 537.811 182.8 538.579 182.368C539.347 181.92 539.947 181.296 540.379 180.496C540.827 179.696 541.051 178.776 541.051 177.736C541.051 176.68 540.827 175.76 540.379 174.976C539.947 174.176 539.347 173.56 538.579 173.128C537.811 172.68 536.947 172.456 535.987 172.456C535.027 172.456 534.163 172.68 533.395 173.128C532.643 173.56 532.043 174.176 531.595 174.976C531.163 175.76 530.947 176.68 530.947 177.736C530.947 178.776 531.163 179.696 531.595 180.496C532.043 181.296 532.643 181.92 533.395 182.368C534.163 182.8 535.027 183.016 535.987 183.016ZM553.815 184V181.144L553.767 180.712V176.008C553.767 174.84 553.447 173.952 552.807 173.344C552.183 172.736 551.263 172.432 550.047 172.432C549.183 172.432 548.375 172.584 547.623 172.888C546.887 173.176 546.255 173.552 545.727 174.016L545.127 173.152C545.751 172.592 546.503 172.16 547.383 171.856C548.263 171.536 549.183 171.376 550.143 171.376C551.695 171.376 552.887 171.768 553.719 172.552C554.551 173.336 554.967 174.504 554.967 176.056V184H553.815ZM549.303 184.096C548.375 184.096 547.567 183.952 546.879 183.664C546.207 183.36 545.687 182.936 545.319 182.392C544.967 181.848 544.791 181.224 544.791 180.52C544.791 179.88 544.935 179.304 545.223 178.792C545.527 178.264 546.023 177.84 546.711 177.52C547.399 177.184 548.319 177.016 549.471 177.016H554.079V177.952H549.495C548.199 177.952 547.287 178.192 546.759 178.672C546.247 179.152 545.991 179.752 545.991 180.472C545.991 181.272 546.295 181.912 546.903 182.392C547.511 182.872 548.367 183.112 549.471 183.112C550.527 183.112 551.415 182.872 552.135 182.392C552.871 181.912 553.415 181.216 553.767 180.304L554.103 181.12C553.767 182.032 553.191 182.76 552.375 183.304C551.575 183.832 550.551 184.096 549.303 184.096ZM559.911 184V166.192H561.111V184H559.911Z" fill="#E2FDCB"/>
<path d="M86.25 192L133.5 87H152.7L200.1 192H179.7L139.05 97.35H146.85L106.35 192H86.25ZM108 167.7L113.25 152.4H169.95L175.2 167.7H108ZM261.004 192V175.8L259.954 172.35V144C259.954 138.5 258.304 134.25 255.004 131.25C251.704 128.15 246.704 126.6 240.004 126.6C235.504 126.6 231.054 127.3 226.654 128.7C222.354 130.1 218.704 132.05 215.704 134.55L208.354 120.9C212.654 117.6 217.754 115.15 223.654 113.55C229.654 111.85 235.854 111 242.254 111C253.854 111 262.804 113.8 269.104 119.4C275.504 124.9 278.704 133.45 278.704 145.05V192H261.004ZM235.804 193.05C229.804 193.05 224.554 192.05 220.054 190.05C215.554 187.95 212.054 185.1 209.554 181.5C207.154 177.8 205.954 173.65 205.954 169.05C205.954 164.55 207.004 160.5 209.104 156.9C211.304 153.3 214.854 150.45 219.754 148.35C224.654 146.25 231.154 145.2 239.254 145.2H262.504V157.65H240.604C234.204 157.65 229.904 158.7 227.704 160.8C225.504 162.8 224.404 165.3 224.404 168.3C224.404 171.7 225.754 174.4 228.454 176.4C231.154 178.4 234.904 179.4 239.704 179.4C244.304 179.4 248.404 178.35 252.004 176.25C255.704 174.15 258.354 171.05 259.954 166.95L263.104 178.2C261.304 182.9 258.054 186.55 253.354 189.15C248.754 191.75 242.904 193.05 235.804 193.05Z" fill="#E2FDCB"/>
</svg>
