<svg width="650" height="280" viewBox="0 0 650 280" fill="none" xmlns="http://www.w3.org/2000/svg">
<g clip-path="url(#clip0_229_254)">
<rect width="650" height="280" fill="#2C58D1"/>
<rect width="217" height="280" fill="#2C58D1"/>
<rect x="217" width="216" height="280" fill="#548EEA"/>
<rect x="433" width="217" height="280" fill="#AED6F4"/>
<path d="M60.0123 231L61.7523 217H63.1723L61.4323 231H60.0123ZM57.6923 227.4V225.94H70.0323V227.4H57.6923ZM65.2123 231L66.9323 217H68.3523L66.6323 231H65.2123ZM58.3323 222.06V220.6H70.6723V222.06H58.3323ZM71.9548 231V229.64L77.6548 224.14C78.1615 223.66 78.5348 223.24 78.7748 222.88C79.0282 222.507 79.1948 222.167 79.2748 221.86C79.3682 221.54 79.4148 221.233 79.4148 220.94C79.4148 220.22 79.1615 219.653 78.6548 219.24C78.1482 218.827 77.4082 218.62 76.4348 218.62C75.6882 218.62 75.0148 218.747 74.4148 219C73.8148 219.24 73.2948 219.62 72.8548 220.14L71.4948 218.96C72.0282 218.28 72.7415 217.76 73.6348 217.4C74.5415 217.027 75.5348 216.84 76.6148 216.84C77.5882 216.84 78.4348 217 79.1548 217.32C79.8748 217.627 80.4282 218.073 80.8148 218.66C81.2148 219.247 81.4148 219.94 81.4148 220.74C81.4148 221.193 81.3548 221.64 81.2348 222.08C81.1148 222.52 80.8882 222.987 80.5548 223.48C80.2215 223.973 79.7415 224.527 79.1148 225.14L74.0348 230.04L73.5548 229.26H82.0148V231H71.9548ZM91.0592 231.16C89.9926 231.16 89.0059 230.987 88.0992 230.64C87.2059 230.28 86.4259 229.78 85.7592 229.14C85.1059 228.487 84.5926 227.727 84.2192 226.86C83.8459 225.993 83.6592 225.04 83.6592 224C83.6592 222.96 83.8459 222.007 84.2192 221.14C84.5926 220.273 85.1126 219.52 85.7792 218.88C86.4459 218.227 87.2259 217.727 88.1192 217.38C89.0259 217.02 90.0126 216.84 91.0792 216.84C92.1592 216.84 93.1526 217.027 94.0592 217.4C94.9792 217.76 95.7592 218.3 96.3992 219.02L95.0992 220.28C94.5659 219.72 93.9659 219.307 93.2992 219.04C92.6326 218.76 91.9192 218.62 91.1592 218.62C90.3726 218.62 89.6392 218.753 88.9592 219.02C88.2926 219.287 87.7126 219.66 87.2192 220.14C86.7259 220.62 86.3392 221.193 86.0592 221.86C85.7926 222.513 85.6592 223.227 85.6592 224C85.6592 224.773 85.7926 225.493 86.0592 226.16C86.3392 226.813 86.7259 227.38 87.2192 227.86C87.7126 228.34 88.2926 228.713 88.9592 228.98C89.6392 229.247 90.3726 229.38 91.1592 229.38C91.9192 229.38 92.6326 229.247 93.2992 228.98C93.9659 228.7 94.5659 228.273 95.0992 227.7L96.3992 228.96C95.7592 229.68 94.9792 230.227 94.0592 230.6C93.1526 230.973 92.1526 231.16 91.0592 231.16ZM102.242 231.16C101.255 231.16 100.295 231.007 99.3617 230.7C98.4417 230.393 97.6884 229.98 97.1017 229.46L98.0217 227.88C98.4884 228.32 99.0951 228.68 99.8417 228.96C100.588 229.24 101.382 229.38 102.222 229.38C103.288 229.38 104.108 229.153 104.682 228.7C105.255 228.247 105.542 227.64 105.542 226.88C105.542 226.36 105.415 225.907 105.162 225.52C104.908 225.133 104.468 224.84 103.842 224.64C103.228 224.427 102.382 224.32 101.302 224.32H98.1217L98.8617 217H106.762V218.74H99.6017L100.642 217.76L100.062 223.54L99.0217 222.58H101.722C103.122 222.58 104.248 222.76 105.102 223.12C105.955 223.48 106.575 223.98 106.962 224.62C107.348 225.247 107.542 225.973 107.542 226.8C107.542 227.6 107.348 228.333 106.962 229C106.575 229.653 105.988 230.18 105.202 230.58C104.428 230.967 103.442 231.16 102.242 231.16ZM114.666 231.16C113.533 231.16 112.553 230.993 111.726 230.66C110.899 230.327 110.259 229.853 109.806 229.24C109.353 228.613 109.126 227.88 109.126 227.04C109.126 226.213 109.339 225.513 109.766 224.94C110.206 224.353 110.839 223.913 111.666 223.62C112.493 223.313 113.493 223.16 114.666 223.16C115.839 223.16 116.839 223.313 117.666 223.62C118.506 223.913 119.146 224.353 119.586 224.94C120.026 225.527 120.246 226.227 120.246 227.04C120.246 227.88 120.019 228.613 119.566 229.24C119.113 229.853 118.466 230.327 117.626 230.66C116.786 230.993 115.799 231.16 114.666 231.16ZM114.666 229.54C115.786 229.54 116.659 229.313 117.286 228.86C117.926 228.393 118.246 227.767 118.246 226.98C118.246 226.207 117.926 225.6 117.286 225.16C116.659 224.707 115.786 224.48 114.666 224.48C113.559 224.48 112.693 224.707 112.066 225.16C111.439 225.6 111.126 226.207 111.126 226.98C111.126 227.767 111.439 228.393 112.066 228.86C112.693 229.313 113.559 229.54 114.666 229.54ZM114.666 222.96C115.639 222.96 116.399 222.76 116.946 222.36C117.506 221.96 117.786 221.413 117.786 220.72C117.786 220.013 117.499 219.46 116.926 219.06C116.353 218.66 115.599 218.46 114.666 218.46C113.733 218.46 112.986 218.66 112.426 219.06C111.879 219.46 111.606 220.013 111.606 220.72C111.606 221.413 111.873 221.96 112.406 222.36C112.953 222.76 113.706 222.96 114.666 222.96ZM114.666 224.24C113.599 224.24 112.693 224.1 111.946 223.82C111.199 223.527 110.626 223.113 110.226 222.58C109.826 222.033 109.626 221.387 109.626 220.64C109.626 219.853 109.833 219.18 110.246 218.62C110.673 218.047 111.266 217.607 112.026 217.3C112.786 216.993 113.666 216.84 114.666 216.84C115.679 216.84 116.566 216.993 117.326 217.3C118.086 217.607 118.679 218.047 119.106 218.62C119.533 219.18 119.746 219.853 119.746 220.64C119.746 221.387 119.546 222.033 119.146 222.58C118.746 223.113 118.166 223.527 117.406 223.82C116.646 224.1 115.733 224.24 114.666 224.24ZM123.217 231V217H129.117C130.611 217 131.924 217.293 133.057 217.88C134.204 218.467 135.091 219.287 135.717 220.34C136.357 221.393 136.677 222.613 136.677 224C136.677 225.387 136.357 226.607 135.717 227.66C135.091 228.713 134.204 229.533 133.057 230.12C131.924 230.707 130.611 231 129.117 231H123.217ZM125.217 229.26H128.997C130.157 229.26 131.157 229.04 131.997 228.6C132.851 228.16 133.511 227.547 133.977 226.76C134.444 225.96 134.677 225.04 134.677 224C134.677 222.947 134.444 222.027 133.977 221.24C133.511 220.453 132.851 219.84 131.997 219.4C131.157 218.96 130.157 218.74 128.997 218.74H125.217V229.26ZM140.765 231V217.8L141.625 218.74H137.605V217H142.745V231H140.765Z" fill="white"/>
<path d="M281.141 231L282.881 217H284.301L282.561 231H281.141ZM278.821 227.4V225.94H291.161V227.4H278.821ZM286.341 231L288.061 217H289.481L287.761 231H286.341ZM279.461 222.06V220.6H291.801V222.06H279.461ZM297.824 231.16C296.837 231.16 295.877 231.007 294.944 230.7C294.024 230.393 293.27 229.98 292.684 229.46L293.604 227.88C294.07 228.32 294.677 228.68 295.424 228.96C296.17 229.24 296.964 229.38 297.804 229.38C298.87 229.38 299.69 229.153 300.264 228.7C300.837 228.247 301.124 227.64 301.124 226.88C301.124 226.36 300.997 225.907 300.744 225.52C300.49 225.133 300.05 224.84 299.424 224.64C298.81 224.427 297.964 224.32 296.884 224.32H293.704L294.444 217H302.344V218.74H295.184L296.224 217.76L295.644 223.54L294.604 222.58H297.304C298.704 222.58 299.83 222.76 300.684 223.12C301.537 223.48 302.157 223.98 302.544 224.62C302.93 225.247 303.124 225.973 303.124 226.8C303.124 227.6 302.93 228.333 302.544 229C302.157 229.653 301.57 230.18 300.784 230.58C300.01 230.967 299.024 231.16 297.824 231.16ZM304.588 227.56V226.16L311.748 217H313.908L306.808 226.16L305.788 225.84H316.968V227.56H304.588ZM312.368 231V227.56L312.428 225.84V222.8H314.308V231H312.368ZM323.822 231.16C322.689 231.16 321.709 230.993 320.882 230.66C320.056 230.327 319.416 229.853 318.962 229.24C318.509 228.613 318.282 227.88 318.282 227.04C318.282 226.213 318.496 225.513 318.922 224.94C319.362 224.353 319.996 223.913 320.822 223.62C321.649 223.313 322.649 223.16 323.822 223.16C324.996 223.16 325.996 223.313 326.822 223.62C327.662 223.913 328.302 224.353 328.742 224.94C329.182 225.527 329.402 226.227 329.402 227.04C329.402 227.88 329.176 228.613 328.722 229.24C328.269 229.853 327.622 230.327 326.782 230.66C325.942 230.993 324.956 231.16 323.822 231.16ZM323.822 229.54C324.942 229.54 325.816 229.313 326.442 228.86C327.082 228.393 327.402 227.767 327.402 226.98C327.402 226.207 327.082 225.6 326.442 225.16C325.816 224.707 324.942 224.48 323.822 224.48C322.716 224.48 321.849 224.707 321.222 225.16C320.596 225.6 320.282 226.207 320.282 226.98C320.282 227.767 320.596 228.393 321.222 228.86C321.849 229.313 322.716 229.54 323.822 229.54ZM323.822 222.96C324.796 222.96 325.556 222.76 326.102 222.36C326.662 221.96 326.942 221.413 326.942 220.72C326.942 220.013 326.656 219.46 326.082 219.06C325.509 218.66 324.756 218.46 323.822 218.46C322.889 218.46 322.142 218.66 321.582 219.06C321.036 219.46 320.762 220.013 320.762 220.72C320.762 221.413 321.029 221.96 321.562 222.36C322.109 222.76 322.862 222.96 323.822 222.96ZM323.822 224.24C322.756 224.24 321.849 224.1 321.102 223.82C320.356 223.527 319.782 223.113 319.382 222.58C318.982 222.033 318.782 221.387 318.782 220.64C318.782 219.853 318.989 219.18 319.402 218.62C319.829 218.047 320.422 217.607 321.182 217.3C321.942 216.993 322.822 216.84 323.822 216.84C324.836 216.84 325.722 216.993 326.482 217.3C327.242 217.607 327.836 218.047 328.262 218.62C328.689 219.18 328.902 219.853 328.902 220.64C328.902 221.387 328.702 222.033 328.302 222.58C327.902 223.113 327.322 223.527 326.562 223.82C325.802 224.1 324.889 224.24 323.822 224.24ZM332.373 231V217H342.253V218.74H334.373V229.26H342.533V231H332.373ZM334.193 224.74V223.04H341.393V224.74H334.193ZM345.772 231V217H355.652V218.74H347.772V229.26H355.932V231H345.772ZM347.592 224.74V223.04H354.792V224.74H347.592ZM357.05 231L363.39 217H365.37L371.73 231H369.63L363.97 218.12H364.77L359.11 231H357.05ZM359.75 227.5L360.29 225.9H368.17L368.75 227.5H359.75Z" fill="white"/>
<path d="M496.979 231L498.719 217H500.139L498.399 231H496.979ZM494.659 227.4V225.94H506.999V227.4H494.659ZM502.179 231L503.899 217H505.319L503.599 231H502.179ZM495.299 222.06V220.6H507.639V222.06H495.299ZM512.942 231.16C512.288 231.16 511.655 231.093 511.042 230.96C510.442 230.827 509.915 230.62 509.462 230.34L510.222 228.78C510.595 229.02 511.008 229.193 511.462 229.3C511.928 229.393 512.415 229.44 512.922 229.44C514.335 229.44 515.462 229 516.302 228.12C517.142 227.227 517.562 225.907 517.562 224.16C517.562 223.88 517.548 223.547 517.522 223.16C517.495 222.773 517.435 222.393 517.342 222.02L518.002 222.7C517.815 223.313 517.502 223.833 517.062 224.26C516.635 224.673 516.115 224.987 515.502 225.2C514.902 225.4 514.242 225.5 513.522 225.5C512.602 225.5 511.782 225.327 511.062 224.98C510.342 224.633 509.775 224.147 509.362 223.52C508.948 222.88 508.742 222.127 508.742 221.26C508.742 220.353 508.955 219.573 509.382 218.92C509.822 218.253 510.415 217.74 511.162 217.38C511.922 217.02 512.762 216.84 513.682 216.84C514.948 216.84 516.015 217.113 516.882 217.66C517.762 218.207 518.428 219 518.882 220.04C519.335 221.067 519.562 222.327 519.562 223.82C519.562 225.407 519.282 226.747 518.722 227.84C518.162 228.933 517.388 229.76 516.402 230.32C515.415 230.88 514.262 231.16 512.942 231.16ZM513.862 223.88C514.502 223.88 515.062 223.76 515.542 223.52C516.035 223.28 516.415 222.953 516.682 222.54C516.962 222.127 517.102 221.667 517.102 221.16C517.102 220.667 516.975 220.22 516.722 219.82C516.468 219.42 516.095 219.093 515.602 218.84C515.108 218.587 514.495 218.46 513.762 218.46C513.162 218.46 512.628 218.573 512.162 218.8C511.695 219.027 511.328 219.34 511.062 219.74C510.808 220.14 510.682 220.62 510.682 221.18C510.682 222.007 510.968 222.667 511.542 223.16C512.115 223.64 512.888 223.88 513.862 223.88ZM522.625 231V217H532.505V218.74H524.625V229.26H532.785V231H522.625ZM524.445 224.74V223.04H531.645V224.74H524.445ZM536.024 231V217H541.924C543.417 217 544.73 217.293 545.864 217.88C547.01 218.467 547.897 219.287 548.524 220.34C549.164 221.393 549.484 222.613 549.484 224C549.484 225.387 549.164 226.607 548.524 227.66C547.897 228.713 547.01 229.533 545.864 230.12C544.73 230.707 543.417 231 541.924 231H536.024ZM538.024 229.26H541.804C542.964 229.26 543.964 229.04 544.804 228.6C545.657 228.16 546.317 227.547 546.784 226.76C547.25 225.96 547.484 225.04 547.484 224C547.484 222.947 547.25 222.027 546.784 221.24C546.317 220.453 545.657 219.84 544.804 219.4C543.964 218.96 542.964 218.74 541.804 218.74H538.024V229.26ZM557.127 231.16C556.034 231.16 555.054 230.88 554.187 230.32C553.334 229.76 552.654 228.947 552.147 227.88C551.654 226.813 551.407 225.52 551.407 224C551.407 222.48 551.654 221.187 552.147 220.12C552.654 219.053 553.334 218.24 554.187 217.68C555.054 217.12 556.034 216.84 557.127 216.84C558.207 216.84 559.181 217.12 560.047 217.68C560.914 218.24 561.594 219.053 562.087 220.12C562.581 221.187 562.827 222.48 562.827 224C562.827 225.52 562.581 226.813 562.087 227.88C561.594 228.947 560.914 229.76 560.047 230.32C559.181 230.88 558.207 231.16 557.127 231.16ZM557.127 229.38C557.861 229.38 558.501 229.18 559.047 228.78C559.607 228.38 560.041 227.78 560.347 226.98C560.667 226.18 560.827 225.187 560.827 224C560.827 222.813 560.667 221.82 560.347 221.02C560.041 220.22 559.607 219.62 559.047 219.22C558.501 218.82 557.861 218.62 557.127 218.62C556.394 218.62 555.747 218.82 555.187 219.22C554.627 219.62 554.187 220.22 553.867 221.02C553.561 221.82 553.407 222.813 553.407 224C553.407 225.187 553.561 226.18 553.867 226.98C554.187 227.78 554.627 228.38 555.187 228.78C555.747 229.18 556.394 229.38 557.127 229.38ZM565.887 231V217H575.767V218.74H567.887V229.26H576.047V231H565.887ZM567.707 224.74V223.04H574.907V224.74H567.707ZM579.286 231V217H589.166V218.74H581.286V231H579.286ZM581.086 225.34V223.62H588.306V225.34H581.086Z" fill="#2C58D1"/>
</g>
<defs>
<clipPath id="clip0_229_254">
<rect width="650" height="280" fill="white"/>
</clipPath>
</defs>
</svg>
