<svg width="650" height="280" viewBox="0 0 650 280" fill="none" xmlns="http://www.w3.org/2000/svg">
<rect width="650" height="280" fill="#2C58D1"/>
<path d="M339.76 152V124H344.04L356.28 144.44H354.04L366.08 124H370.36L370.4 152H365.48L365.44 131.72H366.48L356.24 148.8H353.92L343.52 131.72H344.72V152H339.76ZM387.083 152.28C384.896 152.28 382.95 151.813 381.243 150.88C379.536 149.92 378.19 148.613 377.203 146.96C376.216 145.307 375.723 143.427 375.723 141.32C375.723 139.187 376.216 137.307 377.203 135.68C378.19 134.027 379.536 132.733 381.243 131.8C382.95 130.867 384.896 130.4 387.083 130.4C389.296 130.4 391.256 130.867 392.963 131.8C394.696 132.733 396.043 134.013 397.003 135.64C397.99 137.267 398.483 139.16 398.483 141.32C398.483 143.427 397.99 145.307 397.003 146.96C396.043 148.613 394.696 149.92 392.963 150.88C391.256 151.813 389.296 152.28 387.083 152.28ZM387.083 148C388.31 148 389.403 147.733 390.363 147.2C391.323 146.667 392.07 145.893 392.603 144.88C393.163 143.867 393.443 142.68 393.443 141.32C393.443 139.933 393.163 138.747 392.603 137.76C392.07 136.747 391.323 135.973 390.363 135.44C389.403 134.907 388.323 134.64 387.123 134.64C385.896 134.64 384.803 134.907 383.843 135.44C382.91 135.973 382.163 136.747 381.603 137.76C381.043 138.747 380.763 139.933 380.763 141.32C380.763 142.68 381.043 143.867 381.603 144.88C382.163 145.893 382.91 146.667 383.843 147.2C384.803 147.733 385.883 148 387.083 148ZM403.264 152V130.64H408.024V136.4L407.184 134.64C407.931 133.28 409.011 132.24 410.424 131.52C411.864 130.773 413.518 130.4 415.384 130.4C417.091 130.4 418.611 130.733 419.944 131.4C421.304 132.067 422.371 133.093 423.144 134.48C423.918 135.84 424.304 137.6 424.304 139.76V152H419.304V140.4C419.304 138.507 418.851 137.093 417.944 136.16C417.064 135.227 415.824 134.76 414.224 134.76C413.051 134.76 412.011 135 411.104 135.48C410.198 135.96 409.491 136.68 408.984 137.64C408.504 138.573 408.264 139.76 408.264 141.2V152H403.264ZM438.687 152.28C436.341 152.28 434.527 151.68 433.247 150.48C431.967 149.253 431.327 147.453 431.327 145.08V125.92H436.327V144.96C436.327 145.973 436.581 146.76 437.087 147.32C437.621 147.88 438.354 148.16 439.287 148.16C440.407 148.16 441.341 147.867 442.087 147.28L443.487 150.84C442.901 151.32 442.181 151.68 441.327 151.92C440.474 152.16 439.594 152.28 438.687 152.28ZM427.807 134.64V130.64H442.047V134.64H427.807ZM454.2 152.28C452.414 152.28 450.694 152.053 449.04 151.6C447.414 151.12 446.12 150.547 445.16 149.88L447.08 146.08C448.04 146.693 449.187 147.2 450.52 147.6C451.854 148 453.187 148.2 454.52 148.2C456.094 148.2 457.227 147.987 457.92 147.56C458.64 147.133 459 146.56 459 145.84C459 145.253 458.76 144.813 458.28 144.52C457.8 144.2 457.174 143.96 456.4 143.8C455.627 143.64 454.76 143.493 453.8 143.36C452.867 143.227 451.92 143.053 450.96 142.84C450.027 142.6 449.174 142.267 448.4 141.84C447.627 141.387 447 140.787 446.52 140.04C446.04 139.293 445.8 138.307 445.8 137.08C445.8 135.72 446.187 134.547 446.96 133.56C447.734 132.547 448.814 131.773 450.2 131.24C451.614 130.68 453.28 130.4 455.2 130.4C456.64 130.4 458.094 130.56 459.56 130.88C461.027 131.2 462.24 131.653 463.2 132.24L461.28 136.04C460.267 135.427 459.24 135.013 458.2 134.8C457.187 134.56 456.174 134.44 455.16 134.44C453.64 134.44 452.507 134.667 451.76 135.12C451.04 135.573 450.68 136.147 450.68 136.84C450.68 137.48 450.92 137.96 451.4 138.28C451.88 138.6 452.507 138.853 453.28 139.04C454.054 139.227 454.907 139.387 455.84 139.52C456.8 139.627 457.747 139.8 458.68 140.04C459.614 140.28 460.467 140.613 461.24 141.04C462.04 141.44 462.68 142.013 463.16 142.76C463.64 143.507 463.88 144.48 463.88 145.68C463.88 147.013 463.48 148.173 462.68 149.16C461.907 150.147 460.8 150.92 459.36 151.48C457.92 152.013 456.2 152.28 454.2 152.28ZM478.226 152.28C475.853 152.28 473.773 151.813 471.986 150.88C470.226 149.92 468.853 148.613 467.866 146.96C466.906 145.307 466.426 143.427 466.426 141.32C466.426 139.187 466.893 137.307 467.826 135.68C468.786 134.027 470.093 132.733 471.746 131.8C473.426 130.867 475.333 130.4 477.466 130.4C479.546 130.4 481.4 130.853 483.026 131.76C484.653 132.667 485.933 133.947 486.866 135.6C487.8 137.253 488.266 139.2 488.266 141.44C488.266 141.653 488.253 141.893 488.226 142.16C488.226 142.427 488.213 142.68 488.186 142.92H470.386V139.6H485.546L483.586 140.64C483.613 139.413 483.36 138.333 482.826 137.4C482.293 136.467 481.56 135.733 480.626 135.2C479.72 134.667 478.666 134.4 477.466 134.4C476.24 134.4 475.16 134.667 474.226 135.2C473.32 135.733 472.6 136.48 472.066 137.44C471.56 138.373 471.306 139.48 471.306 140.76V141.56C471.306 142.84 471.6 143.973 472.186 144.96C472.773 145.947 473.6 146.707 474.666 147.24C475.733 147.773 476.96 148.04 478.346 148.04C479.546 148.04 480.626 147.853 481.586 147.48C482.546 147.107 483.4 146.52 484.146 145.72L486.826 148.8C485.866 149.92 484.653 150.787 483.186 151.4C481.746 151.987 480.093 152.28 478.226 152.28ZM493.069 152V130.64H497.829V136.52L497.269 134.8C497.909 133.36 498.909 132.267 500.269 131.52C501.656 130.773 503.376 130.4 505.429 130.4V135.16C505.216 135.107 505.016 135.08 504.829 135.08C504.642 135.053 504.456 135.04 504.269 135.04C502.376 135.04 500.869 135.6 499.749 136.72C498.629 137.813 498.069 139.453 498.069 141.64V152H493.069ZM509.671 152V130.64H514.431V136.52L513.871 134.8C514.511 133.36 515.511 132.267 516.871 131.52C518.257 130.773 519.977 130.4 522.031 130.4V135.16C521.817 135.107 521.617 135.08 521.431 135.08C521.244 135.053 521.057 135.04 520.871 135.04C518.977 135.04 517.471 135.6 516.351 136.72C515.231 137.813 514.671 139.453 514.671 141.64V152H509.671ZM537.909 152V147.68L537.629 146.76V139.2C537.629 137.733 537.189 136.6 536.309 135.8C535.429 134.973 534.095 134.56 532.309 134.56C531.109 134.56 529.922 134.747 528.749 135.12C527.602 135.493 526.629 136.013 525.829 136.68L523.869 133.04C525.015 132.16 526.375 131.507 527.949 131.08C529.549 130.627 531.202 130.4 532.909 130.4C536.002 130.4 538.389 131.147 540.069 132.64C541.775 134.107 542.629 136.387 542.629 139.48V152H537.909ZM531.189 152.28C529.589 152.28 528.189 152.013 526.989 151.48C525.789 150.92 524.855 150.16 524.189 149.2C523.549 148.213 523.229 147.107 523.229 145.88C523.229 144.68 523.509 143.6 524.069 142.64C524.655 141.68 525.602 140.92 526.909 140.36C528.215 139.8 529.949 139.52 532.109 139.52H538.309V142.84H532.469C530.762 142.84 529.615 143.12 529.029 143.68C528.442 144.213 528.149 144.88 528.149 145.68C528.149 146.587 528.509 147.307 529.229 147.84C529.949 148.373 530.949 148.64 532.229 148.64C533.455 148.64 534.549 148.36 535.509 147.8C536.495 147.24 537.202 146.413 537.629 145.32L538.469 148.32C537.989 149.573 537.122 150.547 535.869 151.24C534.642 151.933 533.082 152.28 531.189 152.28ZM557.086 152.28C554.739 152.28 552.926 151.68 551.646 150.48C550.366 149.253 549.726 147.453 549.726 145.08V125.92H554.726V144.96C554.726 145.973 554.979 146.76 555.486 147.32C556.019 147.88 556.752 148.16 557.686 148.16C558.806 148.16 559.739 147.867 560.486 147.28L561.886 150.84C561.299 151.32 560.579 151.68 559.726 151.92C558.872 152.16 557.992 152.28 557.086 152.28ZM546.206 134.64V130.64H560.446V134.64H546.206Z" fill="white"/>
<path d="M341.12 181V167.92H336.08V167H347.18V167.92H342.14V181H341.12ZM349.39 181V170.56H350.39V181H349.39ZM349.89 168.02C349.663 168.02 349.47 167.94 349.31 167.78C349.15 167.62 349.07 167.433 349.07 167.22C349.07 166.993 349.15 166.8 349.31 166.64C349.47 166.48 349.663 166.4 349.89 166.4C350.13 166.4 350.323 166.48 350.47 166.64C350.63 166.787 350.71 166.973 350.71 167.2C350.71 167.427 350.63 167.62 350.47 167.78C350.323 167.94 350.13 168.02 349.89 168.02ZM359.844 181.08C358.924 181.08 358.091 180.867 357.344 180.44C356.611 180.013 356.024 179.407 355.584 178.62C355.158 177.82 354.944 176.873 354.944 175.78C354.944 174.687 355.158 173.747 355.584 172.96C356.024 172.16 356.611 171.547 357.344 171.12C358.091 170.693 358.924 170.48 359.844 170.48C360.831 170.48 361.711 170.707 362.484 171.16C363.271 171.6 363.884 172.22 364.324 173.02C364.778 173.82 365.004 174.74 365.004 175.78C365.004 176.82 364.778 177.74 364.324 178.54C363.884 179.34 363.271 179.967 362.484 180.42C361.711 180.86 360.831 181.08 359.844 181.08ZM354.604 184.88V170.56H355.564V173.98L355.404 175.8L355.604 177.62V184.88H354.604ZM359.784 180.18C360.584 180.18 361.304 180 361.944 179.64C362.584 179.267 363.084 178.747 363.444 178.08C363.818 177.413 364.004 176.647 364.004 175.78C364.004 174.9 363.818 174.133 363.444 173.48C363.084 172.813 362.584 172.3 361.944 171.94C361.304 171.567 360.584 171.38 359.784 171.38C358.984 171.38 358.264 171.567 357.624 171.94C356.998 172.3 356.498 172.813 356.124 173.48C355.764 174.133 355.584 174.9 355.584 175.78C355.584 176.647 355.764 177.413 356.124 178.08C356.498 178.747 356.998 179.267 357.624 179.64C358.264 180 358.984 180.18 359.784 180.18ZM372.18 181.08C371.18 181.08 370.287 180.853 369.5 180.4C368.727 179.947 368.107 179.32 367.64 178.52C367.187 177.72 366.96 176.807 366.96 175.78C366.96 174.74 367.187 173.827 367.64 173.04C368.107 172.24 368.727 171.613 369.5 171.16C370.287 170.707 371.18 170.48 372.18 170.48C373.18 170.48 374.074 170.707 374.86 171.16C375.647 171.613 376.267 172.24 376.72 173.04C377.174 173.827 377.4 174.74 377.4 175.78C377.4 176.807 377.174 177.72 376.72 178.52C376.267 179.32 375.647 179.947 374.86 180.4C374.074 180.853 373.18 181.08 372.18 181.08ZM372.18 180.18C372.98 180.18 373.7 180 374.34 179.64C374.98 179.267 375.48 178.747 375.84 178.08C376.2 177.413 376.38 176.647 376.38 175.78C376.38 174.9 376.2 174.133 375.84 173.48C375.48 172.813 374.98 172.3 374.34 171.94C373.7 171.567 372.98 171.38 372.18 171.38C371.38 171.38 370.66 171.567 370.02 171.94C369.394 172.3 368.894 172.813 368.52 173.48C368.16 174.133 367.98 174.9 367.98 175.78C367.98 176.647 368.16 177.413 368.52 178.08C368.894 178.747 369.394 179.267 370.02 179.64C370.66 180 371.38 180.18 372.18 180.18ZM384.843 184.96C383.896 184.96 382.996 184.813 382.143 184.52C381.289 184.227 380.596 183.82 380.063 183.3L380.603 182.54C381.123 183.02 381.743 183.393 382.463 183.66C383.196 183.927 383.983 184.06 384.823 184.06C386.223 184.06 387.249 183.733 387.903 183.08C388.569 182.427 388.903 181.4 388.903 180V177.1L389.103 175.54L388.943 173.98V170.56H389.903V179.88C389.903 181.627 389.476 182.907 388.623 183.72C387.783 184.547 386.523 184.96 384.843 184.96ZM384.563 180.62C383.576 180.62 382.689 180.407 381.903 179.98C381.129 179.54 380.509 178.94 380.043 178.18C379.589 177.407 379.363 176.527 379.363 175.54C379.363 174.54 379.589 173.66 380.043 172.9C380.509 172.14 381.129 171.547 381.903 171.12C382.689 170.693 383.576 170.48 384.563 170.48C385.509 170.48 386.356 170.687 387.103 171.1C387.863 171.5 388.463 172.08 388.903 172.84C389.343 173.587 389.563 174.487 389.563 175.54C389.563 176.58 389.343 177.48 388.903 178.24C388.463 179 387.863 179.587 387.103 180C386.356 180.413 385.509 180.62 384.563 180.62ZM384.643 179.72C385.483 179.72 386.223 179.547 386.863 179.2C387.503 178.84 388.003 178.347 388.363 177.72C388.736 177.08 388.923 176.353 388.923 175.54C388.923 174.713 388.736 173.987 388.363 173.36C388.003 172.733 387.503 172.247 386.863 171.9C386.223 171.553 385.483 171.38 384.643 171.38C383.829 171.38 383.096 171.553 382.443 171.9C381.803 172.247 381.296 172.733 380.923 173.36C380.563 173.987 380.383 174.713 380.383 175.54C380.383 176.353 380.563 177.08 380.923 177.72C381.296 178.347 381.803 178.84 382.443 179.2C383.096 179.547 383.829 179.72 384.643 179.72ZM394.136 181V170.56H395.096V173.42L394.996 173.1C395.289 172.26 395.782 171.613 396.476 171.16C397.169 170.707 398.036 170.48 399.076 170.48V171.46C399.036 171.46 398.996 171.46 398.956 171.46C398.916 171.447 398.876 171.44 398.836 171.44C397.676 171.44 396.769 171.807 396.116 172.54C395.462 173.26 395.136 174.267 395.136 175.56V181H394.136ZM407.825 181V178.62L407.785 178.26V174.34C407.785 173.367 407.518 172.627 406.985 172.12C406.465 171.613 405.698 171.36 404.685 171.36C403.965 171.36 403.292 171.487 402.665 171.74C402.052 171.98 401.525 172.293 401.085 172.68L400.585 171.96C401.105 171.493 401.732 171.133 402.465 170.88C403.198 170.613 403.965 170.48 404.765 170.48C406.058 170.48 407.052 170.807 407.745 171.46C408.438 172.113 408.785 173.087 408.785 174.38V181H407.825ZM404.065 181.08C403.292 181.08 402.618 180.96 402.045 180.72C401.485 180.467 401.052 180.113 400.745 179.66C400.452 179.207 400.305 178.687 400.305 178.1C400.305 177.567 400.425 177.087 400.665 176.66C400.918 176.22 401.332 175.867 401.905 175.6C402.478 175.32 403.245 175.18 404.205 175.18H408.045V175.96H404.225C403.145 175.96 402.385 176.16 401.945 176.56C401.518 176.96 401.305 177.46 401.305 178.06C401.305 178.727 401.558 179.26 402.065 179.66C402.572 180.06 403.285 180.26 404.205 180.26C405.085 180.26 405.825 180.06 406.425 179.66C407.038 179.26 407.492 178.68 407.785 177.92L408.065 178.6C407.785 179.36 407.305 179.967 406.625 180.42C405.958 180.86 405.105 181.08 404.065 181.08ZM413.105 181V168.96C413.105 168.093 413.352 167.4 413.845 166.88C414.352 166.347 415.072 166.08 416.005 166.08C416.392 166.08 416.772 166.14 417.145 166.26C417.518 166.367 417.825 166.533 418.065 166.76L417.665 167.52C417.465 167.32 417.225 167.173 416.945 167.08C416.665 166.987 416.365 166.94 416.045 166.94C415.405 166.94 414.918 167.12 414.585 167.48C414.252 167.827 414.085 168.347 414.085 169.04V170.8L414.105 171.28V181H413.105ZM411.185 171.42V170.56H417.425V171.42H411.185ZM419.468 181V170.56H420.468V181H419.468ZM418.828 168.86L421.608 166.5H423.048L419.908 168.86H418.828ZM431.263 181V178.62L431.223 178.26V174.34C431.223 173.367 430.956 172.627 430.423 172.12C429.903 171.613 429.136 171.36 428.123 171.36C427.403 171.36 426.729 171.487 426.103 171.74C425.489 171.98 424.963 172.293 424.523 172.68L424.023 171.96C424.543 171.493 425.169 171.133 425.903 170.88C426.636 170.613 427.403 170.48 428.203 170.48C429.496 170.48 430.489 170.807 431.183 171.46C431.876 172.113 432.223 173.087 432.223 174.38V181H431.263ZM427.503 181.08C426.729 181.08 426.056 180.96 425.483 180.72C424.923 180.467 424.489 180.113 424.183 179.66C423.889 179.207 423.743 178.687 423.743 178.1C423.743 177.567 423.863 177.087 424.103 176.66C424.356 176.22 424.769 175.867 425.343 175.6C425.916 175.32 426.683 175.18 427.643 175.18H431.483V175.96H427.663C426.583 175.96 425.823 176.16 425.383 176.56C424.956 176.96 424.743 177.46 424.743 178.06C424.743 178.727 424.996 179.26 425.502 179.66C426.009 180.06 426.723 180.26 427.643 180.26C428.523 180.26 429.263 180.06 429.863 179.66C430.476 179.26 430.929 178.68 431.223 177.92L431.503 178.6C431.223 179.36 430.743 179.967 430.063 180.42C429.396 180.86 428.543 181.08 427.503 181.08ZM446.719 181.08C445.799 181.08 444.966 180.867 444.219 180.44C443.486 180.013 442.899 179.407 442.459 178.62C442.033 177.82 441.819 176.873 441.819 175.78C441.819 174.687 442.033 173.747 442.459 172.96C442.899 172.16 443.486 171.547 444.219 171.12C444.966 170.693 445.799 170.48 446.719 170.48C447.706 170.48 448.586 170.707 449.359 171.16C450.146 171.6 450.759 172.22 451.199 173.02C451.653 173.82 451.879 174.74 451.879 175.78C451.879 176.82 451.653 177.74 451.199 178.54C450.759 179.34 450.146 179.967 449.359 180.42C448.586 180.86 447.706 181.08 446.719 181.08ZM441.479 184.88V170.56H442.439V173.98L442.279 175.8L442.479 177.62V184.88H441.479ZM446.659 180.18C447.459 180.18 448.179 180 448.819 179.64C449.459 179.267 449.959 178.747 450.319 178.08C450.693 177.413 450.879 176.647 450.879 175.78C450.879 174.9 450.693 174.133 450.319 173.48C449.959 172.813 449.459 172.3 448.819 171.94C448.179 171.567 447.459 171.38 446.659 171.38C445.859 171.38 445.139 171.567 444.499 171.94C443.873 172.3 443.373 172.813 442.999 173.48C442.639 174.133 442.459 174.9 442.459 175.78C442.459 176.647 442.639 177.413 442.999 178.08C443.373 178.747 443.873 179.267 444.499 179.64C445.139 180 445.859 180.18 446.659 180.18ZM454.975 181V170.56H455.935V173.42L455.835 173.1C456.129 172.26 456.622 171.613 457.315 171.16C458.009 170.707 458.875 170.48 459.915 170.48V171.46C459.875 171.46 459.835 171.46 459.795 171.46C459.755 171.447 459.715 171.44 459.675 171.44C458.515 171.44 457.609 171.807 456.955 172.54C456.302 173.26 455.975 174.267 455.975 175.56V181H454.975ZM462.671 181V170.56H463.671V181H462.671ZM463.171 168.02C462.944 168.02 462.751 167.94 462.591 167.78C462.431 167.62 462.351 167.433 462.351 167.22C462.351 166.993 462.431 166.8 462.591 166.64C462.751 166.48 462.944 166.4 463.171 166.4C463.411 166.4 463.604 166.48 463.751 166.64C463.911 166.787 463.991 166.973 463.991 167.2C463.991 167.427 463.911 167.62 463.751 167.78C463.604 167.94 463.411 168.02 463.171 168.02ZM467.886 181V170.56H468.846V173.46L468.706 173.14C469.026 172.313 469.552 171.667 470.286 171.2C471.019 170.72 471.919 170.48 472.986 170.48C473.839 170.48 474.579 170.647 475.206 170.98C475.846 171.3 476.339 171.793 476.686 172.46C477.046 173.113 477.226 173.927 477.226 174.9V181H476.226V174.98C476.226 173.807 475.926 172.913 475.326 172.3C474.739 171.687 473.912 171.38 472.846 171.38C472.032 171.38 471.326 171.547 470.726 171.88C470.126 172.213 469.666 172.68 469.346 173.28C469.039 173.88 468.886 174.6 468.886 175.44V181H467.886ZM485.483 181.08C484.469 181.08 483.563 180.853 482.763 180.4C481.976 179.947 481.349 179.32 480.883 178.52C480.429 177.72 480.203 176.807 480.203 175.78C480.203 174.74 480.429 173.82 480.883 173.02C481.349 172.22 481.976 171.6 482.763 171.16C483.563 170.707 484.469 170.48 485.483 170.48C486.323 170.48 487.083 170.64 487.763 170.96C488.456 171.28 489.016 171.76 489.443 172.4L488.703 172.94C488.329 172.407 487.863 172.013 487.303 171.76C486.743 171.507 486.136 171.38 485.483 171.38C484.669 171.38 483.936 171.567 483.283 171.94C482.643 172.3 482.136 172.813 481.763 173.48C481.403 174.133 481.223 174.9 481.223 175.78C481.223 176.66 481.403 177.433 481.763 178.1C482.136 178.753 482.643 179.267 483.283 179.64C483.936 180 484.669 180.18 485.483 180.18C486.136 180.18 486.743 180.053 487.303 179.8C487.863 179.547 488.329 179.153 488.703 178.62L489.443 179.16C489.016 179.8 488.456 180.28 487.763 180.6C487.083 180.92 486.323 181.08 485.483 181.08ZM492.261 181V170.56H493.261V181H492.261ZM492.761 168.02C492.534 168.02 492.341 167.94 492.181 167.78C492.021 167.62 491.941 167.433 491.941 167.22C491.941 166.993 492.021 166.8 492.181 166.64C492.341 166.48 492.534 166.4 492.761 166.4C493.001 166.4 493.194 166.48 493.341 166.64C493.501 166.787 493.581 166.973 493.581 167.2C493.581 167.427 493.501 167.62 493.341 167.78C493.194 167.94 493.001 168.02 492.761 168.02ZM502.715 181.08C501.795 181.08 500.962 180.867 500.215 180.44C499.482 180.013 498.895 179.407 498.455 178.62C498.029 177.82 497.815 176.873 497.815 175.78C497.815 174.687 498.029 173.747 498.455 172.96C498.895 172.16 499.482 171.547 500.215 171.12C500.962 170.693 501.795 170.48 502.715 170.48C503.702 170.48 504.582 170.707 505.355 171.16C506.142 171.6 506.755 172.22 507.195 173.02C507.649 173.82 507.875 174.74 507.875 175.78C507.875 176.82 507.649 177.74 507.195 178.54C506.755 179.34 506.142 179.967 505.355 180.42C504.582 180.86 503.702 181.08 502.715 181.08ZM497.475 184.88V170.56H498.435V173.98L498.275 175.8L498.475 177.62V184.88H497.475ZM502.655 180.18C503.455 180.18 504.175 180 504.815 179.64C505.455 179.267 505.955 178.747 506.315 178.08C506.689 177.413 506.875 176.647 506.875 175.78C506.875 174.9 506.689 174.133 506.315 173.48C505.955 172.813 505.455 172.3 504.815 171.94C504.175 171.567 503.455 171.38 502.655 171.38C501.855 171.38 501.135 171.567 500.495 171.94C499.869 172.3 499.369 172.813 498.995 173.48C498.635 174.133 498.455 174.9 498.455 175.78C498.455 176.647 498.635 177.413 498.995 178.08C499.369 178.747 499.869 179.267 500.495 179.64C501.135 180 501.855 180.18 502.655 180.18ZM517.513 181V178.62L517.473 178.26V174.34C517.473 173.367 517.206 172.627 516.673 172.12C516.153 171.613 515.386 171.36 514.373 171.36C513.653 171.36 512.979 171.487 512.353 171.74C511.739 171.98 511.213 172.293 510.773 172.68L510.273 171.96C510.793 171.493 511.419 171.133 512.153 170.88C512.886 170.613 513.653 170.48 514.453 170.48C515.746 170.48 516.739 170.807 517.433 171.46C518.126 172.113 518.473 173.087 518.473 174.38V181H517.513ZM513.753 181.08C512.979 181.08 512.306 180.96 511.733 180.72C511.173 180.467 510.739 180.113 510.433 179.66C510.139 179.207 509.993 178.687 509.993 178.1C509.993 177.567 510.113 177.087 510.353 176.66C510.606 176.22 511.019 175.867 511.593 175.6C512.166 175.32 512.933 175.18 513.893 175.18H517.733V175.96H513.913C512.833 175.96 512.073 176.16 511.633 176.56C511.206 176.96 510.993 177.46 510.993 178.06C510.993 178.727 511.246 179.26 511.752 179.66C512.259 180.06 512.973 180.26 513.893 180.26C514.773 180.26 515.513 180.06 516.113 179.66C516.726 179.26 517.179 178.68 517.473 177.92L517.753 178.6C517.473 179.36 516.993 179.967 516.313 180.42C515.646 180.86 514.793 181.08 513.753 181.08ZM522.593 181V166.16H523.593V181H522.593Z" fill="white"/>
<path d="M86.25 192L133.5 87H152.7L200.1 192H179.7L139.05 97.35H146.85L106.35 192H86.25ZM108 167.7L113.25 152.4H169.95L175.2 167.7H108ZM261.004 192V175.8L259.954 172.35V144C259.954 138.5 258.304 134.25 255.004 131.25C251.704 128.15 246.704 126.6 240.004 126.6C235.504 126.6 231.054 127.3 226.654 128.7C222.354 130.1 218.704 132.05 215.704 134.55L208.354 120.9C212.654 117.6 217.754 115.15 223.654 113.55C229.654 111.85 235.854 111 242.254 111C253.854 111 262.804 113.8 269.104 119.4C275.504 124.9 278.704 133.45 278.704 145.05V192H261.004ZM235.804 193.05C229.804 193.05 224.554 192.05 220.054 190.05C215.554 187.95 212.054 185.1 209.554 181.5C207.154 177.8 205.954 173.65 205.954 169.05C205.954 164.55 207.004 160.5 209.104 156.9C211.304 153.3 214.854 150.45 219.754 148.35C224.654 146.25 231.154 145.2 239.254 145.2H262.504V157.65H240.604C234.204 157.65 229.904 158.7 227.704 160.8C225.504 162.8 224.404 165.3 224.404 168.3C224.404 171.7 225.754 174.4 228.454 176.4C231.154 178.4 234.904 179.4 239.704 179.4C244.304 179.4 248.404 178.35 252.004 176.25C255.704 174.15 258.354 171.05 259.954 166.95L263.104 178.2C261.304 182.9 258.054 186.55 253.354 189.15C248.754 191.75 242.904 193.05 235.804 193.05Z" fill="white"/>
</svg>
