<svg width="650" height="280" viewBox="0 0 650 280" fill="none" xmlns="http://www.w3.org/2000/svg">
<rect width="650" height="280" fill="white"/>
<path d="M263.824 147.579C263.824 147.579 258.652 156.768 256.475 160.912C251.508 169.994 245.705 178.592 239.141 186.595C234.549 192.219 220.026 207.059 215.81 209.916C213.549 211.469 211.823 213.681 210.864 216.251C209.906 218.821 209.763 221.624 210.454 224.278C219.346 222.009 238.287 204.816 247.556 193.487C254.904 184.454 262.069 175.293 266.276 167.528L266.341 167.409C267.79 164.725 268.478 161.696 268.331 158.65C268.184 155.603 267.206 152.655 265.505 150.124L263.824 147.579Z" fill="#548EEA"/>
<path d="M340.791 69.1247C330.363 72.7118 320.752 78.3374 312.517 85.6744C304.282 93.0114 297.587 101.913 292.823 111.862V111.945L288.938 119.654L282.26 132.215C281.764 133.141 281.317 134.092 280.918 135.064C278.79 140.219 278.045 145.842 278.76 151.374L273.496 143.481C272.075 140.957 271.297 138.122 271.231 135.226C271.166 132.33 271.814 129.462 273.12 126.877L283.095 107.084C293.482 85.5863 311.592 68.7989 333.81 60.0737C334.302 59.8784 334.83 59.7877 335.359 59.8076C335.888 59.8274 336.407 59.9573 336.883 60.189C337.36 60.4207 337.782 60.7491 338.125 61.1532C338.467 61.5574 338.721 62.0284 338.872 62.5363L340.791 69.1247Z" fill="#548EEA"/>
<path d="M307.925 203.466L332.653 66.3497C332.75 65.8343 332.734 65.3039 332.607 64.7952C332.479 64.2865 332.242 63.8117 331.913 63.4036C331.583 62.9955 331.169 62.6638 330.699 62.4316C330.229 62.1993 329.714 62.072 329.19 62.0585L334.995 59.9175C335.873 59.7731 336.773 59.8436 337.618 60.1229C338.463 60.4022 339.228 60.882 339.847 61.5213C340.466 62.1607 340.922 62.9405 341.174 63.7941C341.427 64.6477 341.469 65.5498 341.297 66.4232L318.011 192.595C317.52 195.172 316.314 197.559 314.53 199.481C312.746 201.404 310.457 202.785 307.925 203.466Z" fill="#2C58D1"/>
<path d="M350.528 118.597L278.723 151.374C278.009 145.842 278.753 140.219 280.882 135.064L348.645 113.534C349.3 113.354 349.999 113.426 350.603 113.738C351.207 114.05 351.671 114.578 351.902 115.217C352.134 115.856 352.117 116.558 351.854 117.185C351.59 117.812 351.101 118.316 350.482 118.597H350.528Z" fill="#AED6F4"/>
<path d="M307.263 35.4109C316.393 35.4036 325.434 37.1969 333.87 40.688C342.306 44.1792 349.971 49.2998 356.426 55.7569C362.882 62.214 368.002 69.8809 371.493 78.3192C374.984 86.7574 376.778 95.8013 376.772 104.934V142.112C378.941 142.095 381.014 141.221 382.541 139.68C384.067 138.139 384.922 136.057 384.92 133.888V104.934C384.92 84.331 376.738 64.5721 362.175 50.0038C347.611 35.4356 327.859 27.2512 307.263 27.2512H287.606C277.408 27.2512 267.31 29.2606 257.889 33.1646C248.468 37.0686 239.908 42.7908 232.697 50.0044C225.487 57.218 219.768 65.7817 215.866 75.2065C211.965 84.6314 209.957 94.7327 209.958 104.934C209.958 104.934 209.958 180.512 210.041 181.716C212.372 181.013 214.415 179.578 215.868 177.624C217.32 175.669 218.105 173.299 218.106 170.864V104.934C218.096 95.8011 219.887 86.7563 223.377 78.317C226.866 69.8777 231.985 62.2098 238.44 55.752C244.896 49.2943 252.561 44.1737 260.998 40.6833C269.434 37.1928 278.476 35.4012 287.606 35.4109H307.263ZM240.519 241.094C254.037 251.435 270.588 257.026 287.606 257H307.263C324.38 257.03 341.023 251.374 354.579 240.919C354.092 240.064 353.439 239.315 352.657 238.718C351.876 238.12 350.982 237.685 350.03 237.439C349.077 237.193 348.085 237.141 347.112 237.286C346.139 237.431 345.204 237.769 344.365 238.282C341.145 240.227 337.786 241.932 334.315 243.382C325.758 247.008 316.556 248.865 307.263 248.84H287.606C274.69 248.861 262.027 245.268 251.046 238.466C250.188 237.929 249.229 237.571 248.229 237.413C247.229 237.255 246.208 237.3 245.225 237.545C244.243 237.79 243.32 238.231 242.511 238.841C241.703 239.45 241.025 240.217 240.519 241.094Z" fill="#2C58D1"/>
<path d="M369.01 175.302H359.016L357.096 179.896H351.971L361.606 158.284H366.548L376.203 179.896H370.958L369.01 175.302ZM367.43 171.498L364.004 163.228L360.578 171.498H367.43Z" fill="#2C58D1"/>
<path d="M385.012 163.687C386.087 163.261 387.236 163.052 388.392 163.072V167.519C387.859 167.519 387.474 167.455 387.308 167.455C386.719 167.42 386.129 167.505 385.574 167.704C385.018 167.903 384.508 168.212 384.075 168.612C383.654 169.081 383.332 169.631 383.13 170.228C382.928 170.825 382.849 171.457 382.899 172.086V179.933H378.086V163.32H382.679V165.516C383.27 164.7 384.078 164.066 385.012 163.687Z" fill="#2C58D1"/>
<path d="M417.484 164.909C418.708 166.134 419.321 167.972 419.321 170.423V179.933H414.507V171.167C414.587 170.118 414.298 169.075 413.69 168.217C413.401 167.888 413.04 167.629 412.636 167.46C412.232 167.291 411.794 167.217 411.357 167.243C410.857 167.219 410.358 167.305 409.895 167.493C409.431 167.682 409.015 167.97 408.674 168.337C407.95 169.263 407.596 170.426 407.682 171.599V179.933H402.869V171.167C402.869 168.551 401.819 167.243 399.718 167.243C399.223 167.222 398.729 167.309 398.27 167.498C397.812 167.686 397.4 167.973 397.064 168.337C396.342 169.264 395.991 170.427 396.081 171.599V179.933H391.258V163.32H395.851V165.231C396.474 164.53 397.25 163.982 398.12 163.632C399.055 163.25 400.058 163.059 401.069 163.072C402.168 163.053 403.256 163.293 404.247 163.77C405.18 164.221 405.971 164.92 406.534 165.791C407.217 164.924 408.1 164.233 409.106 163.779C410.181 163.301 411.347 163.06 412.523 163.072C413.431 163.025 414.34 163.164 415.192 163.48C416.045 163.796 416.825 164.282 417.484 164.909Z" fill="#2C58D1"/>
<path d="M436.268 164.909C437.646 166.134 438.335 167.972 438.335 170.423V179.905H433.825V177.838C432.925 179.382 431.238 180.154 428.764 180.154C427.624 180.179 426.493 179.957 425.448 179.501C424.574 179.123 423.828 178.501 423.298 177.709C422.806 176.935 422.551 176.035 422.563 175.118C422.531 174.409 422.674 173.704 422.978 173.063C423.283 172.422 423.739 171.866 424.309 171.443C425.466 170.524 427.266 170.119 429.691 170.119H433.522C433.549 169.669 433.477 169.218 433.31 168.799C433.144 168.379 432.887 168.002 432.557 167.693C431.737 167.071 430.718 166.77 429.691 166.848C428.806 166.848 427.925 166.988 427.083 167.262C426.294 167.503 425.557 167.886 424.906 168.392L423.179 165.029C424.168 164.348 425.269 163.845 426.43 163.54C427.705 163.19 429.022 163.014 430.344 163.016C432.485 162.891 434.596 163.566 436.268 164.909ZM432.162 176.368C432.798 175.983 433.279 175.388 433.522 174.686V172.986H430.215C428.24 172.986 427.257 173.629 427.257 174.925C427.247 175.21 427.307 175.493 427.432 175.75C427.557 176.006 427.743 176.228 427.974 176.395C428.563 176.786 429.262 176.976 429.967 176.937C430.737 176.95 431.496 176.753 432.162 176.368Z" fill="#2C58D1"/>
<path d="M457.763 164.928C459.031 166.159 459.665 167.997 459.665 170.441V179.951H454.851V171.167C454.921 170.104 454.594 169.053 453.933 168.217C453.614 167.881 453.225 167.619 452.793 167.45C452.361 167.282 451.897 167.211 451.434 167.243C450.899 167.219 450.365 167.306 449.865 167.499C449.366 167.692 448.911 167.987 448.531 168.364C447.752 169.3 447.366 170.503 447.457 171.718V179.933H442.643V163.32H447.236V165.268C447.898 164.555 448.711 163.999 449.615 163.641C450.608 163.254 451.665 163.061 452.729 163.071C453.65 163.025 454.571 163.165 455.436 163.484C456.301 163.803 457.093 164.294 457.763 164.928Z" fill="#2C58D1"/>
<path d="M481.113 157.025V179.933H476.521V178.022C475.88 178.754 475.08 179.33 474.181 179.704C473.283 180.079 472.311 180.242 471.34 180.181C469.858 180.202 468.395 179.838 467.096 179.124C465.837 178.436 464.804 177.399 464.12 176.138C463.408 174.741 463.036 173.195 463.036 171.626C463.036 170.058 463.408 168.512 464.12 167.115C464.806 165.853 465.839 164.813 467.096 164.119C468.398 163.412 469.859 163.052 471.34 163.071C472.265 163.021 473.19 163.175 474.049 163.523C474.908 163.87 475.68 164.404 476.309 165.084V157.025H481.113ZM475.189 174.98C475.967 174.036 476.392 172.85 476.392 171.626C476.392 170.403 475.967 169.217 475.189 168.272C474.379 167.472 473.286 167.023 472.148 167.023C471.01 167.023 469.917 167.472 469.108 168.272C468.33 169.217 467.904 170.403 467.904 171.626C467.904 172.85 468.33 174.036 469.108 174.98C469.917 175.78 471.01 176.229 472.148 176.229C473.286 176.229 474.379 175.78 475.189 174.98Z" fill="#2C58D1"/>
<path d="M488.756 179.078C487.405 178.391 486.275 177.337 485.495 176.037C484.73 174.691 484.328 173.17 484.328 171.622C484.328 170.074 484.73 168.552 485.495 167.206C486.281 165.911 487.409 164.858 488.756 164.165C490.218 163.446 491.825 163.072 493.455 163.072C495.084 163.072 496.691 163.446 498.153 164.165C499.493 164.861 500.615 165.914 501.396 167.206C502.161 168.552 502.563 170.074 502.563 171.622C502.563 173.17 502.161 174.691 501.396 176.037C500.62 177.334 499.497 178.388 498.153 179.078C496.693 179.804 495.085 180.181 493.455 180.181C491.824 180.181 490.216 179.804 488.756 179.078ZM496.5 174.98C497.273 174.034 497.695 172.849 497.695 171.626C497.695 170.404 497.273 169.219 496.5 168.272C496.109 167.862 495.637 167.538 495.113 167.323C494.589 167.107 494.025 167.005 493.459 167.023C492.892 167.007 492.327 167.11 491.802 167.325C491.277 167.54 490.803 167.863 490.409 168.272C489.627 169.215 489.198 170.401 489.198 171.626C489.198 172.851 489.627 174.038 490.409 174.98C490.803 175.39 491.277 175.713 491.802 175.928C492.327 176.143 492.892 176.246 493.459 176.23C494.025 176.247 494.589 176.145 495.113 175.93C495.637 175.715 496.109 175.391 496.5 174.98Z" fill="#2C58D1"/>
<path d="M368.459 206.002H356.517C356.704 206.943 357.251 207.774 358.042 208.317C358.922 208.91 359.967 209.21 361.028 209.172C361.773 209.182 362.513 209.057 363.214 208.804C363.874 208.537 364.476 208.144 364.987 207.647L367.412 210.284C365.93 211.981 363.762 212.829 360.908 212.829C359.278 212.859 357.663 212.504 356.196 211.791C354.886 211.155 353.788 210.153 353.036 208.905C352.308 207.632 351.925 206.191 351.925 204.725C351.925 203.258 352.308 201.817 353.036 200.544C353.754 199.314 354.801 198.308 356.058 197.64C357.372 196.972 358.824 196.625 360.297 196.625C361.771 196.625 363.223 196.972 364.537 197.64C365.772 198.288 366.793 199.281 367.476 200.498C368.212 201.816 368.583 203.307 368.551 204.816C368.551 204.835 368.514 205.257 368.459 206.002ZM357.767 200.939C357.053 201.549 356.594 202.405 356.481 203.337H364.243C364.121 202.408 363.66 201.556 362.948 200.948C362.232 200.336 361.317 200.009 360.375 200.029C359.425 200.007 358.498 200.33 357.767 200.939Z" fill="#548EEA"/>
<path d="M371.591 190.859H376.184V212.609H371.591V190.859Z" fill="#548EEA"/>
<path d="M408.729 192.09L399.856 212.609H395.171L386.325 192.099H391.451L397.688 206.746L404.026 192.09H408.729Z" fill="#2C58D1"/>
<path d="M410.64 193.9C410.389 193.669 410.188 193.389 410.051 193.077C409.913 192.764 409.842 192.427 409.842 192.085C409.842 191.744 409.913 191.406 410.051 191.094C410.188 190.782 410.389 190.501 410.64 190.27C411.201 189.767 411.936 189.503 412.689 189.535C413.436 189.504 414.168 189.757 414.737 190.243C414.99 190.459 415.192 190.728 415.329 191.032C415.466 191.335 415.533 191.665 415.527 191.998C415.537 192.351 415.471 192.703 415.335 193.029C415.199 193.356 414.995 193.649 414.737 193.891C414.161 194.369 413.437 194.631 412.689 194.631C411.94 194.631 411.216 194.369 410.64 193.891V193.9ZM410.401 196.831H414.994V212.609H410.401V196.831Z" fill="#2C58D1"/>
<path d="M431.198 198.338C431.887 199.021 432.419 199.846 432.759 200.755C433.098 201.664 433.236 202.636 433.164 203.603V212.609H428.883V210.642C428.029 212.112 426.421 212.838 424.079 212.838C422.996 212.866 421.921 212.656 420.928 212.223C420.101 211.864 419.396 211.274 418.898 210.523C418.424 209.79 418.178 208.933 418.191 208.06C418.166 207.393 418.303 206.73 418.591 206.128C418.879 205.527 419.309 205.004 419.844 204.605C420.947 203.772 422.652 203.352 424.961 203.346H428.635C428.661 202.919 428.591 202.492 428.433 202.095C428.274 201.698 428.029 201.341 427.716 201.049C426.932 200.442 425.948 200.154 424.961 200.24C424.118 200.239 423.281 200.372 422.481 200.635C421.736 200.868 421.039 201.232 420.423 201.711L418.779 198.513C419.719 197.871 420.763 197.395 421.865 197.107C423.062 196.779 424.298 196.612 425.539 196.611C427.575 196.462 429.592 197.078 431.198 198.338ZM427.303 209.209C427.909 208.851 428.366 208.287 428.589 207.619V206.002H425.457C423.583 206.002 422.646 206.614 422.646 207.84C422.638 208.111 422.697 208.38 422.817 208.624C422.937 208.867 423.115 209.077 423.335 209.236C423.895 209.605 424.558 209.782 425.227 209.742C425.955 209.761 426.674 209.576 427.303 209.209Z" fill="#2C58D1"/>
<path d="M432.502 217.635L433.733 214.327C434.306 214.708 434.984 214.901 435.671 214.878C435.928 214.892 436.184 214.848 436.421 214.75C436.658 214.651 436.869 214.5 437.04 214.308C437.414 213.821 437.594 213.212 437.545 212.599V196.831H442.138V212.609C442.18 213.401 442.063 214.194 441.793 214.941C441.523 215.687 441.106 216.372 440.567 216.955C439.988 217.508 439.3 217.935 438.548 218.21C437.795 218.485 436.995 218.602 436.195 218.554C434.899 218.631 433.611 218.311 432.502 217.635ZM437.775 193.9C437.526 193.668 437.327 193.387 437.192 193.075C437.056 192.763 436.986 192.426 436.986 192.085C436.986 191.745 437.056 191.408 437.192 191.096C437.327 190.784 437.526 190.503 437.775 190.27C438.338 189.771 439.071 189.507 439.823 189.535C440.574 189.505 441.308 189.757 441.881 190.243C442.134 190.459 442.336 190.728 442.473 191.032C442.61 191.335 442.677 191.665 442.671 191.998C442.681 192.351 442.615 192.703 442.479 193.029C442.343 193.356 442.139 193.649 441.881 193.891C441.303 194.368 440.577 194.629 439.828 194.629C439.079 194.629 438.353 194.368 437.775 193.891V193.9Z" fill="#2C58D1"/>
<path d="M461.63 206.002H449.689C449.875 206.943 450.423 207.774 451.214 208.317C452.094 208.91 453.139 209.21 454.199 209.172C454.944 209.183 455.685 209.058 456.385 208.804C457.068 208.544 457.693 208.151 458.222 207.647L460.657 210.284C459.169 211.981 457.001 212.829 454.153 212.829C452.519 212.861 450.902 212.505 449.432 211.791C448.123 211.153 447.026 210.151 446.272 208.905C445.52 207.639 445.135 206.188 445.16 204.715C445.141 203.252 445.519 201.81 446.253 200.544C446.971 199.314 448.018 198.308 449.276 197.64C450.589 196.972 452.041 196.625 453.515 196.625C454.988 196.625 456.44 196.972 457.754 197.64C458.99 198.288 460.011 199.281 460.693 200.498C461.43 201.816 461.801 203.307 461.768 204.816C461.722 204.835 461.695 205.257 461.63 206.002ZM450.938 200.939C450.224 201.549 449.765 202.405 449.652 203.337H457.414C457.293 202.41 456.835 201.56 456.128 200.948C455.409 200.335 454.491 200.008 453.547 200.029C452.596 200.007 451.669 200.33 450.938 200.939Z" fill="#2C58D1"/>
<path d="M383.294 229.976C383.638 230.45 383.815 231.025 383.799 231.611C383.817 232.025 383.728 232.437 383.542 232.807C383.355 233.177 383.077 233.493 382.734 233.725C381.791 234.272 380.708 234.528 379.62 234.46H374.218V224.021H379.326C380.354 223.956 381.377 224.209 382.256 224.747C382.579 224.965 382.842 225.261 383.021 225.608C383.199 225.955 383.287 226.342 383.276 226.732C383.286 227.207 383.161 227.675 382.915 228.082C382.67 228.488 382.314 228.817 381.889 229.029C382.445 229.189 382.937 229.52 383.294 229.976ZM376.625 225.841V228.303H379.023C379.496 228.33 379.968 228.222 380.382 227.991C380.53 227.889 380.649 227.751 380.73 227.59C380.81 227.43 380.848 227.251 380.841 227.072C380.852 226.892 380.815 226.712 380.735 226.551C380.654 226.39 380.532 226.252 380.382 226.153C379.967 225.925 379.495 225.82 379.023 225.85L376.625 225.841ZM380.878 232.328C381.037 232.224 381.166 232.081 381.252 231.911C381.337 231.742 381.376 231.552 381.365 231.363C381.365 230.49 380.722 230.058 379.445 230.058H376.625V232.64H379.445C379.943 232.674 380.44 232.565 380.878 232.328Z" fill="#AED6F4"/>
<path d="M393.435 226.438L389.761 234.956C389.505 235.725 389.033 236.405 388.401 236.913C387.82 237.299 387.133 237.495 386.436 237.474C386.015 237.472 385.597 237.407 385.195 237.281C384.829 237.173 384.488 236.992 384.194 236.748L385.049 235.084C385.229 235.246 385.438 235.374 385.664 235.461C385.886 235.55 386.123 235.597 386.362 235.599C386.638 235.61 386.909 235.53 387.134 235.369C387.375 235.161 387.561 234.895 387.676 234.597V234.524L384.203 226.438H386.601L388.851 231.878L391.12 226.438H393.435Z" fill="#AED6F4"/>
<path d="M401.188 225.96V228.717H406.02V230.655H401.188V234.46H398.772V224.021H406.663V225.96H401.188Z" fill="#AED6F4"/>
<path d="M411.375 226.612C411.894 226.404 412.451 226.304 413.01 226.318V228.459H412.486C412.202 228.444 411.917 228.485 411.649 228.581C411.381 228.678 411.134 228.827 410.925 229.02C410.721 229.247 410.565 229.513 410.467 229.802C410.369 230.091 410.331 230.397 410.355 230.701V234.487H408.022V226.465H410.245V227.522C410.532 227.121 410.922 226.807 411.375 226.612Z" fill="#AED6F4"/>
<path d="M420.414 227.2C420.766 227.548 421.038 227.968 421.211 228.431C421.384 228.895 421.453 229.39 421.415 229.884V234.478H419.238V233.476C418.972 233.869 418.604 234.181 418.173 234.379C417.742 234.577 417.265 234.652 416.795 234.597C416.242 234.613 415.693 234.506 415.187 234.285C414.766 234.101 414.406 233.802 414.149 233.421C413.91 233.049 413.785 232.614 413.791 232.172C413.778 231.831 413.849 231.493 413.996 231.185C414.143 230.878 414.363 230.611 414.636 230.407C415.411 229.919 416.322 229.694 417.236 229.764H419.073C419.086 229.547 419.051 229.33 418.97 229.128C418.889 228.926 418.764 228.745 418.604 228.597C418.209 228.293 417.715 228.145 417.217 228.184C416.79 228.183 416.365 228.251 415.959 228.386C415.58 228.502 415.225 228.686 414.911 228.928L414.131 227.311C414.61 226.985 415.141 226.743 415.702 226.594C416.316 226.429 416.949 226.345 417.585 226.346C418.6 226.277 419.606 226.58 420.414 227.2ZM418.43 232.714C418.741 232.529 418.976 232.239 419.091 231.896V231.078H417.493C416.537 231.078 416.06 231.384 416.06 231.997C416.055 232.135 416.085 232.271 416.146 232.395C416.207 232.518 416.297 232.624 416.409 232.705C416.681 232.885 417.001 232.978 417.327 232.971C417.709 233.001 418.092 232.921 418.43 232.741V232.714Z" fill="#AED6F4"/>
<path d="M433.724 224.021L429.205 234.46H426.816L422.306 224.021H424.924L428.093 231.473L431.317 224.021H433.724Z" fill="#AED6F4"/>
<path d="M441.688 231.106H435.616C435.713 231.582 435.989 232.004 436.388 232.282C436.837 232.584 437.371 232.735 437.913 232.714C438.291 232.723 438.669 232.661 439.024 232.53C439.366 232.397 439.679 232.197 439.943 231.942L441.183 233.283C440.76 233.731 440.244 234.08 439.67 234.304C439.097 234.528 438.481 234.622 437.867 234.579C437.038 234.595 436.216 234.415 435.469 234.055C434.805 233.728 434.247 233.218 433.862 232.585C433.475 231.939 433.278 231.197 433.292 230.444C433.281 229.699 433.475 228.964 433.853 228.321C434.216 227.695 434.748 227.183 435.387 226.842C436.061 226.489 436.812 226.309 437.573 226.318C438.314 226.307 439.047 226.48 439.704 226.824C440.333 227.153 440.853 227.657 441.201 228.276C441.578 228.948 441.769 229.71 441.752 230.481C441.752 230.481 441.688 230.72 441.688 231.106ZM436.177 228.524C435.808 228.83 435.574 229.269 435.524 229.746H439.474C439.41 229.397 439.255 229.072 439.027 228.8C438.799 228.529 438.504 228.322 438.172 228.199C437.84 228.076 437.481 228.041 437.131 228.098C436.782 228.155 436.453 228.301 436.177 228.524Z" fill="#AED6F4"/>
<path d="M444.784 234.055C444.131 233.722 443.583 233.213 443.204 232.585C442.837 231.933 442.644 231.197 442.644 230.449C442.644 229.7 442.837 228.965 443.204 228.312C443.583 227.685 444.131 227.176 444.784 226.842C445.49 226.498 446.266 226.319 447.053 226.319C447.839 226.319 448.615 226.498 449.321 226.842C449.968 227.181 450.511 227.689 450.892 228.312C451.259 228.965 451.452 229.7 451.452 230.449C451.452 231.197 451.259 231.933 450.892 232.585C450.511 233.208 449.968 233.717 449.321 234.055C448.615 234.4 447.839 234.579 447.053 234.579C446.266 234.579 445.49 234.4 444.784 234.055ZM448.522 232.071C448.896 231.613 449.1 231.04 449.1 230.449C449.1 229.858 448.896 229.285 448.522 228.827C448.334 228.628 448.106 228.47 447.852 228.366C447.599 228.261 447.327 228.212 447.053 228.22C446.777 228.213 446.504 228.263 446.249 228.367C445.994 228.472 445.764 228.628 445.574 228.827C445.2 229.285 444.996 229.858 444.996 230.449C444.996 231.04 445.2 231.613 445.574 232.071C445.766 232.266 445.997 232.42 446.251 232.523C446.505 232.626 446.778 232.675 447.053 232.668C447.326 232.676 447.597 232.627 447.85 232.524C448.103 232.421 448.332 232.267 448.522 232.071Z" fill="#AED6F4"/>
<line x1="217.932" y1="210.9" x2="138.433" y2="210.9" stroke="#868686" stroke-dasharray="1 3"/>
<line x1="509.065" y1="257.5" x2="346.507" y2="257.5" stroke="#868686" stroke-dasharray="1 3"/>
<line x1="248.472" y1="145.377" x2="248.472" y2="73.8512" stroke="#868686" stroke-dasharray="1 3"/>
<line x1="346.007" y1="255.916" x2="346.007" y2="163.8" stroke="#868686" stroke-dasharray="1 3"/>
<line x1="508.565" y1="255.916" x2="508.565" y2="163.8" stroke="#868686" stroke-dasharray="1 3"/>
<circle cx="317.789" cy="101.486" r="47.7256" stroke="#868686" stroke-dasharray="1 3"/>
<circle cx="285.277" cy="176.263" r="47.7256" stroke="#868686" stroke-dasharray="1 3"/>
<line x1="210.067" y1="125.5" x2="146.067" y2="125.5" stroke="#868686" stroke-dasharray="1 3"/>
<line x1="453.795" y1="77.6023" x2="359.512" y2="77.6023" stroke="#868686" stroke-dasharray="1 3"/>
<line x1="249.067" y1="73.5" x2="175.067" y2="73.5" stroke="#868686" stroke-dasharray="1 3"/>
<line x1="425.619" y1="35.3372" x2="338.921" y2="35.3372" stroke="#868686" stroke-dasharray="1 3"/>
<line x1="425.619" y1="116.616" x2="351.926" y2="116.616" stroke="#868686" stroke-dasharray="1 3"/>
<path d="M102.628 127.116H102.032L100.118 122.116H100.806L102.188 125.925C102.273 126.156 102.327 126.359 102.349 126.535H102.369C102.408 126.301 102.458 126.104 102.52 125.944L103.951 122.116H104.62L102.628 127.116ZM105.743 124.729C105.746 125.035 105.787 125.31 105.865 125.554C105.943 125.798 106.055 126.005 106.202 126.174C106.348 126.343 106.526 126.473 106.734 126.565C106.946 126.652 107.183 126.696 107.447 126.696C108.01 126.696 108.542 126.499 109.044 126.106V126.721C108.565 127.063 107.986 127.233 107.305 127.233C106.97 127.233 106.666 127.175 106.392 127.058C106.119 126.94 105.886 126.771 105.694 126.55C105.502 126.325 105.354 126.05 105.25 125.725C105.146 125.399 105.094 125.028 105.094 124.611C105.094 124.237 105.15 123.89 105.264 123.571C105.378 123.252 105.536 122.977 105.738 122.746C105.94 122.512 106.179 122.329 106.456 122.199C106.733 122.066 107.035 121.999 107.364 121.999C107.686 121.999 107.971 122.056 108.219 122.17C108.466 122.281 108.673 122.44 108.839 122.649C109.008 122.857 109.136 123.111 109.224 123.41C109.312 123.71 109.356 124.045 109.356 124.416V124.729H105.743ZM108.712 124.182C108.702 123.661 108.578 123.257 108.341 122.971C108.103 122.684 107.773 122.541 107.349 122.541C107.138 122.541 106.941 122.579 106.759 122.653C106.58 122.728 106.422 122.837 106.285 122.981C106.148 123.121 106.034 123.293 105.943 123.498C105.855 123.7 105.793 123.928 105.758 124.182H108.712ZM113.956 127.116V124.235C113.956 123.106 113.546 122.541 112.725 122.541C112.507 122.541 112.305 122.585 112.12 122.673C111.934 122.758 111.773 122.876 111.636 123.029C111.503 123.182 111.397 123.365 111.319 123.576C111.244 123.785 111.207 124.011 111.207 124.255V127.116H110.582V122.116H111.207V122.985H111.226C111.597 122.328 112.156 121.999 112.901 121.999C113.448 121.999 113.865 122.177 114.151 122.531C114.438 122.886 114.581 123.399 114.581 124.069V127.116H113.956ZM118.238 127.058C118.023 127.165 117.789 127.219 117.535 127.219C116.728 127.219 116.324 126.753 116.324 125.822V122.663H115.445V122.116H116.324V120.857L116.949 120.651V122.116H118.238V122.663H116.949V125.725C116.949 126.063 117.004 126.307 117.115 126.457C117.226 126.607 117.413 126.682 117.677 126.682C117.872 126.682 118.059 126.623 118.238 126.506V127.058ZM122.154 127.116V126.228H122.135C121.972 126.547 121.749 126.794 121.466 126.97C121.186 127.146 120.868 127.233 120.513 127.233C120.273 127.233 120.054 127.199 119.859 127.131C119.667 127.063 119.503 126.967 119.366 126.843C119.233 126.716 119.128 126.565 119.053 126.389C118.982 126.213 118.946 126.019 118.946 125.808C118.946 125.355 119.086 124.996 119.366 124.729C119.646 124.458 120.069 124.283 120.636 124.201L122.154 123.982C122.154 123.021 121.781 122.541 121.036 122.541C120.453 122.541 119.913 122.754 119.415 123.181V122.497C119.519 122.422 119.636 122.356 119.766 122.297C119.9 122.235 120.04 122.183 120.186 122.141C120.333 122.095 120.483 122.061 120.636 122.038C120.792 122.012 120.943 121.999 121.09 121.999C121.646 121.999 122.066 122.155 122.349 122.468C122.636 122.78 122.779 123.246 122.779 123.864V127.116H122.154ZM120.865 124.69C120.64 124.722 120.448 124.763 120.289 124.812C120.129 124.86 119.997 124.927 119.893 125.012C119.789 125.093 119.713 125.196 119.664 125.319C119.615 125.44 119.591 125.59 119.591 125.769C119.591 125.902 119.613 126.026 119.659 126.14C119.708 126.254 119.776 126.353 119.864 126.438C119.955 126.519 120.064 126.582 120.191 126.628C120.321 126.674 120.468 126.696 120.631 126.696C120.852 126.696 121.055 126.654 121.241 126.569C121.427 126.485 121.586 126.368 121.719 126.218C121.856 126.068 121.962 125.889 122.037 125.681C122.115 125.472 122.154 125.246 122.154 125.002V124.509L120.865 124.69ZM127.657 127.116V124.235C127.657 123.106 127.247 122.541 126.427 122.541C126.208 122.541 126.007 122.585 125.821 122.673C125.636 122.758 125.474 122.876 125.338 123.029C125.204 123.182 125.098 123.365 125.02 123.576C124.945 123.785 124.908 124.011 124.908 124.255V127.116H124.283V122.116H124.908V122.985H124.927C125.299 122.328 125.857 121.999 126.602 121.999C127.149 121.999 127.566 122.177 127.852 122.531C128.139 122.886 128.282 123.399 128.282 124.069V127.116H127.657ZM130.098 120.852C129.978 120.852 129.874 120.809 129.786 120.725C129.698 120.64 129.654 120.533 129.654 120.402C129.654 120.275 129.698 120.171 129.786 120.09C129.874 120.005 129.978 119.963 130.098 119.963C130.16 119.963 130.219 119.974 130.274 119.997C130.33 120.017 130.377 120.046 130.416 120.085C130.458 120.124 130.491 120.171 130.513 120.227C130.539 120.279 130.552 120.337 130.552 120.402C130.552 120.464 130.541 120.523 130.518 120.578C130.496 120.634 130.463 120.682 130.421 120.725C130.378 120.764 130.33 120.795 130.274 120.817C130.222 120.84 130.164 120.852 130.098 120.852ZM129.791 127.116V122.116H130.416V127.116H129.791ZM132.027 127.116V119.714H132.652V127.116H132.027ZM134.263 127.116V119.714H134.888V127.116H134.263ZM139.381 127.116V126.228H139.361C139.198 126.547 138.975 126.794 138.692 126.97C138.412 127.146 138.095 127.233 137.74 127.233C137.499 127.233 137.281 127.199 137.086 127.131C136.894 127.063 136.729 126.967 136.593 126.843C136.459 126.716 136.355 126.565 136.28 126.389C136.208 126.213 136.173 126.019 136.173 125.808C136.173 125.355 136.313 124.996 136.593 124.729C136.872 124.458 137.296 124.283 137.862 124.201L139.381 123.982C139.381 123.021 139.008 122.541 138.262 122.541C137.68 122.541 137.139 122.754 136.641 123.181V122.497C136.746 122.422 136.863 122.356 136.993 122.297C137.126 122.235 137.266 122.183 137.413 122.141C137.559 122.095 137.709 122.061 137.862 122.038C138.018 122.012 138.17 121.999 138.316 121.999C138.873 121.999 139.293 122.155 139.576 122.468C139.862 122.78 140.006 123.246 140.006 123.864V127.116H139.381ZM138.092 124.69C137.867 124.722 137.675 124.763 137.515 124.812C137.356 124.86 137.224 124.927 137.12 125.012C137.016 125.093 136.939 125.196 136.89 125.319C136.842 125.44 136.817 125.59 136.817 125.769C136.817 125.902 136.84 126.026 136.886 126.14C136.934 126.254 137.003 126.353 137.091 126.438C137.182 126.519 137.291 126.582 137.418 126.628C137.548 126.674 137.694 126.696 137.857 126.696C138.079 126.696 138.282 126.654 138.468 126.569C138.653 126.485 138.813 126.368 138.946 126.218C139.083 126.068 139.189 125.889 139.263 125.681C139.342 125.472 139.381 125.246 139.381 125.002V124.509L138.092 124.69Z" fill="#868686"/>
<path d="M468.79 79.4326L468.019 77.3622H465.016L464.264 79.4326H463.541L466.207 72.4306H466.861L469.513 79.4326H468.79ZM466.656 73.6562C466.634 73.5943 466.609 73.5227 466.583 73.4413C466.56 73.36 466.541 73.2672 466.525 73.163H466.505C466.486 73.2672 466.463 73.36 466.437 73.4413C466.414 73.5227 466.391 73.5943 466.368 73.6562L465.236 76.7714H467.799L466.656 73.6562ZM476.769 79.4326V78.5536H476.749C476.583 78.8694 476.346 79.1152 476.036 79.291C475.73 79.4635 475.382 79.5497 474.991 79.5497C474.679 79.5497 474.394 79.4928 474.137 79.3788C473.883 79.2617 473.665 79.094 473.483 78.8759C473.3 78.6578 473.159 78.3941 473.058 78.0849C472.96 77.7757 472.911 77.4257 472.911 77.0351C472.911 76.6314 472.965 76.2636 473.072 75.9316C473.183 75.5963 473.338 75.3098 473.536 75.0722C473.738 74.8313 473.979 74.6458 474.259 74.5156C474.542 74.3821 474.856 74.3154 475.201 74.3154C475.921 74.3154 476.437 74.6035 476.749 75.1796H476.769V72.0302H477.394V79.4326H476.769ZM476.769 76.415C476.769 76.1969 476.731 75.9934 476.656 75.8046C476.582 75.6158 476.477 75.4514 476.344 75.3115C476.21 75.1715 476.049 75.0608 475.861 74.9794C475.675 74.8981 475.47 74.8574 475.245 74.8574C474.998 74.8574 474.77 74.9062 474.562 75.0038C474.353 75.1015 474.174 75.2431 474.025 75.4286C473.878 75.6109 473.763 75.8339 473.678 76.0976C473.597 76.3613 473.556 76.6607 473.556 76.996C473.556 77.3118 473.593 77.595 473.668 77.8456C473.743 78.0963 473.849 78.3079 473.986 78.4804C474.125 78.6529 474.292 78.7848 474.484 78.8759C474.676 78.9671 474.889 79.0126 475.123 79.0126C475.377 79.0126 475.605 78.9671 475.807 78.8759C476.012 78.7848 476.184 78.6594 476.324 78.4999C476.468 78.3404 476.577 78.1533 476.652 77.9384C476.73 77.7236 476.769 77.4941 476.769 77.2499V76.415ZM479.303 77.0449C479.306 77.3509 479.347 77.6259 479.425 77.8701C479.503 78.1142 479.615 78.3209 479.762 78.4902C479.908 78.6594 480.086 78.7897 480.294 78.8808C480.506 78.9687 480.743 79.0126 481.007 79.0126C481.57 79.0126 482.102 78.8157 482.604 78.4218V79.037C482.125 79.3788 481.546 79.5497 480.865 79.5497C480.53 79.5497 480.226 79.4911 479.952 79.374C479.679 79.2568 479.446 79.0875 479.254 78.8661C479.062 78.6415 478.914 78.3665 478.81 78.041C478.706 77.7154 478.653 77.3443 478.653 76.9277C478.653 76.5533 478.71 76.2066 478.824 75.8876C478.938 75.5686 479.096 75.2936 479.298 75.0624C479.5 74.8281 479.739 74.6458 480.016 74.5156C480.292 74.3821 480.595 74.3154 480.924 74.3154C481.246 74.3154 481.531 74.3723 481.778 74.4863C482.026 74.5969 482.233 74.7564 482.399 74.9648C482.568 75.1731 482.696 75.427 482.784 75.7265C482.872 76.026 482.916 76.3613 482.916 76.7324V77.0449H479.303ZM482.272 76.498C482.262 75.9772 482.138 75.5735 481.901 75.287C481.663 75.0006 481.333 74.8574 480.909 74.8574C480.698 74.8574 480.501 74.8948 480.319 74.9697C480.139 75.0445 479.982 75.1536 479.845 75.2968C479.708 75.4368 479.594 75.6093 479.503 75.8144C479.415 76.0162 479.353 76.2441 479.318 76.498H482.272ZM491.525 79.4326L490.753 77.3622H487.75L486.998 79.4326H486.276L488.942 72.4306H489.596L492.247 79.4326H491.525ZM489.391 73.6562C489.368 73.5943 489.344 73.5227 489.318 73.4413C489.295 73.36 489.275 73.2672 489.259 73.163H489.239C489.22 73.2672 489.197 73.36 489.171 73.4413C489.148 73.5227 489.125 73.5943 489.103 73.6562L487.97 76.7714H490.533L489.391 73.6562ZM495.734 75.0722C495.587 74.9648 495.398 74.9111 495.167 74.9111C495.001 74.9111 494.855 74.9436 494.728 75.0087C494.601 75.0706 494.488 75.1552 494.391 75.2626C494.296 75.3701 494.215 75.4954 494.147 75.6386C494.082 75.7786 494.028 75.9251 493.986 76.0781C493.946 76.2311 493.917 76.3857 493.898 76.5419C493.881 76.6982 493.873 76.8463 493.873 76.9863V79.4326H493.253V74.4326H493.873V75.5019H493.893C493.951 75.3196 494.025 75.1568 494.112 75.0136C494.204 74.8671 494.308 74.7451 494.425 74.6474C494.542 74.5465 494.669 74.47 494.806 74.4179C494.946 74.3658 495.092 74.3398 495.245 74.3398C495.346 74.3398 495.436 74.3463 495.514 74.3593C495.595 74.3723 495.668 74.3919 495.734 74.4179V75.0722ZM502.906 79.4326V76.4931C502.906 76.1936 502.884 75.9413 502.838 75.7363C502.792 75.5279 502.721 75.3587 502.623 75.2285C502.529 75.0982 502.407 75.0038 502.257 74.9453C502.111 74.8867 501.935 74.8574 501.73 74.8574C501.547 74.8574 501.375 74.9013 501.212 74.9892C501.049 75.0738 500.906 75.1926 500.782 75.3456C500.662 75.4954 500.566 75.6728 500.494 75.8779C500.426 76.0829 500.392 76.3043 500.392 76.5419V79.4326H499.767V76.4296C499.767 75.3814 499.365 74.8574 498.561 74.8574C498.375 74.8574 498.203 74.8997 498.043 74.9843C497.884 75.0657 497.744 75.1813 497.623 75.331C497.506 75.4807 497.413 75.6614 497.345 75.873C497.28 76.0813 497.247 76.3124 497.247 76.5663V79.4326H496.622V74.4326H497.247V75.2431H497.267C497.618 74.6246 498.131 74.3154 498.805 74.3154C498.981 74.3154 499.147 74.343 499.303 74.3984C499.459 74.4505 499.599 74.5253 499.723 74.623C499.847 74.7174 499.952 74.8313 500.04 74.9648C500.131 75.0982 500.2 75.2447 500.245 75.4042C500.421 75.0494 500.649 74.7792 500.929 74.5937C501.212 74.4081 501.531 74.3154 501.886 74.3154C502.983 74.3154 503.531 74.9925 503.531 76.3466V79.4326H502.906ZM507.921 79.4326V78.5439H507.902C507.739 78.8629 507.516 79.1103 507.233 79.2861C506.953 79.4619 506.635 79.5497 506.28 79.5497C506.04 79.5497 505.821 79.5156 505.626 79.4472C505.434 79.3788 505.27 79.2828 505.133 79.1591C505 79.0322 504.895 78.8808 504.82 78.705C504.749 78.5292 504.713 78.3356 504.713 78.124C504.713 77.6715 504.853 77.3118 505.133 77.0449C505.413 76.7747 505.836 76.5989 506.403 76.5175L507.921 76.2978C507.921 75.3375 507.548 74.8574 506.803 74.8574C506.22 74.8574 505.68 75.0706 505.182 75.497V74.8134C505.286 74.7385 505.403 74.6718 505.533 74.6132C505.667 74.5514 505.807 74.4993 505.953 74.457C506.1 74.4114 506.25 74.3772 506.403 74.3544C506.559 74.3284 506.71 74.3154 506.857 74.3154C507.413 74.3154 507.833 74.4716 508.116 74.7841C508.403 75.0966 508.546 75.5621 508.546 76.1806V79.4326H507.921ZM506.632 77.0058C506.407 77.0384 506.215 77.079 506.056 77.1279C505.896 77.1767 505.764 77.2434 505.66 77.3281C505.556 77.4094 505.48 77.512 505.431 77.6357C505.382 77.7561 505.358 77.9059 505.358 78.0849C505.358 78.2184 505.38 78.3421 505.426 78.456C505.475 78.5699 505.543 78.6692 505.631 78.7538C505.722 78.8352 505.831 78.8987 505.958 78.9443C506.088 78.9898 506.235 79.0126 506.398 79.0126C506.619 79.0126 506.822 78.9703 507.008 78.8857C507.194 78.801 507.353 78.6839 507.486 78.5341C507.623 78.3844 507.729 78.2053 507.804 77.997C507.882 77.7887 507.921 77.5624 507.921 77.3183V76.8251L506.632 77.0058ZM513.424 79.4326V76.5517C513.424 75.4221 513.014 74.8574 512.194 74.8574C511.975 74.8574 511.774 74.9013 511.588 74.9892C511.403 75.0738 511.241 75.1926 511.105 75.3456C510.971 75.4986 510.865 75.6809 510.787 75.8925C510.712 76.1009 510.675 76.3271 510.675 76.5712V79.4326H510.05V74.4326H510.675V75.3017H510.695C511.066 74.6441 511.624 74.3154 512.369 74.3154C512.916 74.3154 513.333 74.4928 513.619 74.8476C513.906 75.2024 514.049 75.7151 514.049 76.3857V79.4326H513.424ZM519.064 79.4326V78.5536H519.044C518.878 78.8694 518.64 79.1152 518.331 79.291C518.025 79.4635 517.677 79.5497 517.286 79.5497C516.974 79.5497 516.689 79.4928 516.432 79.3788C516.178 79.2617 515.96 79.094 515.778 78.8759C515.595 78.6578 515.454 78.3941 515.353 78.0849C515.255 77.7757 515.206 77.4257 515.206 77.0351C515.206 76.6314 515.26 76.2636 515.367 75.9316C515.478 75.5963 515.633 75.3098 515.831 75.0722C516.033 74.8313 516.274 74.6458 516.554 74.5156C516.837 74.3821 517.151 74.3154 517.496 74.3154C518.216 74.3154 518.732 74.6035 519.044 75.1796H519.064V72.0302H519.689V79.4326H519.064ZM519.064 76.415C519.064 76.1969 519.026 75.9934 518.951 75.8046C518.876 75.6158 518.772 75.4514 518.639 75.3115C518.505 75.1715 518.344 75.0608 518.155 74.9794C517.97 74.8981 517.765 74.8574 517.54 74.8574C517.293 74.8574 517.065 74.9062 516.857 75.0038C516.648 75.1015 516.469 75.2431 516.32 75.4286C516.173 75.6109 516.057 75.8339 515.973 76.0976C515.891 76.3613 515.851 76.6607 515.851 76.996C515.851 77.3118 515.888 77.595 515.963 77.8456C516.038 78.0963 516.144 78.3079 516.28 78.4804C516.42 78.6529 516.586 78.7848 516.778 78.8759C516.971 78.9671 517.184 79.0126 517.418 79.0126C517.672 79.0126 517.9 78.9671 518.102 78.8759C518.307 78.7848 518.479 78.6594 518.619 78.4999C518.763 78.3404 518.872 78.1533 518.946 77.9384C519.025 77.7236 519.064 77.4941 519.064 77.2499V76.415ZM523.346 79.5497C522.975 79.5497 522.641 79.4879 522.345 79.3642C522.052 79.2405 521.801 79.0663 521.593 78.8417C521.385 78.6139 521.225 78.3421 521.114 78.0263C521.004 77.7106 520.948 77.3606 520.948 76.9765C520.948 76.5598 521.007 76.1871 521.124 75.8583C521.241 75.5296 521.407 75.2512 521.622 75.0234C521.84 74.7923 522.102 74.6165 522.408 74.496C522.714 74.3756 523.056 74.3154 523.434 74.3154C523.795 74.3154 524.121 74.3756 524.41 74.496C524.7 74.6132 524.946 74.7841 525.148 75.0087C525.349 75.2333 525.504 75.5068 525.611 75.829C525.719 76.1513 525.773 76.5175 525.773 76.9277C525.773 77.3183 525.716 77.6747 525.602 77.997C525.491 78.316 525.332 78.5911 525.123 78.8222C524.915 79.0533 524.661 79.2324 524.361 79.3593C524.062 79.4863 523.723 79.5497 523.346 79.5497ZM523.395 74.8574C523.121 74.8574 522.874 74.9046 522.653 74.999C522.431 75.0934 522.241 75.2317 522.081 75.414C521.925 75.593 521.805 75.8144 521.72 76.0781C521.635 76.3385 521.593 76.6347 521.593 76.9667C521.593 77.2792 521.635 77.5608 521.72 77.8115C521.805 78.0621 521.923 78.277 522.076 78.456C522.233 78.635 522.421 78.7734 522.643 78.871C522.864 78.9654 523.111 79.0126 523.385 79.0126C523.665 79.0126 523.912 78.9671 524.127 78.8759C524.342 78.7815 524.524 78.6464 524.674 78.4706C524.824 78.2916 524.936 78.0735 525.011 77.8163C525.089 77.5592 525.128 77.2662 525.128 76.9374C525.128 76.2636 524.978 75.7493 524.679 75.3945C524.379 75.0364 523.951 74.8574 523.395 74.8574Z" fill="#868686"/>
<path d="M118.358 76.1814V75.2927H118.339C118.176 75.6117 117.953 75.8591 117.67 76.0349C117.39 76.2107 117.073 76.2986 116.718 76.2986C116.477 76.2986 116.259 76.2644 116.063 76.196C115.871 76.1277 115.707 76.0317 115.57 75.908C115.437 75.781 115.333 75.6296 115.258 75.4539C115.186 75.2781 115.15 75.0844 115.15 74.8728C115.15 74.4203 115.29 74.0606 115.57 73.7937C115.85 73.5235 116.273 73.3477 116.84 73.2664L118.358 73.0466C118.358 72.0863 117.986 71.6062 117.24 71.6062C116.657 71.6062 116.117 71.8194 115.619 72.2458V71.5623C115.723 71.4874 115.84 71.4207 115.971 71.3621C116.104 71.3002 116.244 71.2481 116.391 71.2058C116.537 71.1602 116.687 71.1261 116.84 71.1033C116.996 71.0772 117.147 71.0642 117.294 71.0642C117.851 71.0642 118.27 71.2205 118.554 71.533C118.84 71.8455 118.983 72.311 118.983 72.9294V76.1814H118.358ZM117.069 73.7546C116.845 73.7872 116.653 73.8279 116.493 73.8767C116.334 73.9255 116.202 73.9923 116.098 74.0769C115.993 74.1583 115.917 74.2608 115.868 74.3845C115.819 74.505 115.795 74.6547 115.795 74.8337C115.795 74.9672 115.818 75.0909 115.863 75.2048C115.912 75.3188 115.98 75.4181 116.068 75.5027C116.159 75.5841 116.268 75.6475 116.395 75.6931C116.526 75.7387 116.672 75.7615 116.835 75.7615C117.056 75.7615 117.26 75.7192 117.445 75.6345C117.631 75.5499 117.79 75.4327 117.924 75.283C118.06 75.1332 118.166 74.9542 118.241 74.7458C118.319 74.5375 118.358 74.3113 118.358 74.0671V73.574L117.069 73.7546ZM120.487 76.1814V68.7791H121.112V76.1814H120.487ZM125.604 76.1814V75.2927H125.585C125.422 75.6117 125.199 75.8591 124.916 76.0349C124.636 76.2107 124.319 76.2986 123.964 76.2986C123.723 76.2986 123.505 76.2644 123.309 76.196C123.117 76.1277 122.953 76.0317 122.816 75.908C122.683 75.781 122.579 75.6296 122.504 75.4539C122.432 75.2781 122.396 75.0844 122.396 74.8728C122.396 74.4203 122.536 74.0606 122.816 73.7937C123.096 73.5235 123.519 73.3477 124.086 73.2664L125.604 73.0466C125.604 72.0863 125.232 71.6062 124.486 71.6062C123.904 71.6062 123.363 71.8194 122.865 72.2458V71.5623C122.969 71.4874 123.087 71.4207 123.217 71.3621C123.35 71.3002 123.49 71.2481 123.637 71.2058C123.783 71.1602 123.933 71.1261 124.086 71.1033C124.242 71.0772 124.393 71.0642 124.54 71.0642C125.097 71.0642 125.517 71.2205 125.8 71.533C126.086 71.8455 126.229 72.311 126.229 72.9294V76.1814H125.604ZM124.315 73.7546C124.091 73.7872 123.899 73.8279 123.739 73.8767C123.58 73.9255 123.448 73.9923 123.344 74.0769C123.24 74.1583 123.163 74.2608 123.114 74.3845C123.065 74.505 123.041 74.6547 123.041 74.8337C123.041 74.9672 123.064 75.0909 123.109 75.2048C123.158 75.3188 123.226 75.4181 123.314 75.5027C123.406 75.5841 123.515 75.6475 123.642 75.6931C123.772 75.7387 123.918 75.7615 124.081 75.7615C124.302 75.7615 124.506 75.7192 124.691 75.6345C124.877 75.5499 125.036 75.4327 125.17 75.283C125.307 75.1332 125.412 74.9542 125.487 74.7458C125.565 74.5375 125.604 74.3113 125.604 74.0671V73.574L124.315 73.7546ZM133.983 76.1814V75.3025H133.964C133.798 75.6182 133.56 75.864 133.251 76.0398C132.945 76.2123 132.597 76.2986 132.206 76.2986C131.893 76.2986 131.609 76.2416 131.351 76.1277C131.098 76.0105 130.879 75.8429 130.697 75.6248C130.515 75.4067 130.373 75.143 130.272 74.8337C130.175 74.5245 130.126 74.1746 130.126 73.7839C130.126 73.3803 130.18 73.0125 130.287 72.6804C130.398 72.3451 130.552 72.0587 130.751 71.821C130.953 71.5802 131.194 71.3946 131.474 71.2644C131.757 71.1309 132.071 71.0642 132.416 71.0642C133.135 71.0642 133.651 71.3523 133.964 71.9285H133.983V68.7791H134.608V76.1814H133.983ZM133.983 73.1638C133.983 72.9457 133.946 72.7423 133.871 72.5535C133.796 72.3647 133.692 72.2003 133.559 72.0603C133.425 71.9203 133.264 71.8097 133.075 71.7283C132.89 71.6469 132.684 71.6062 132.46 71.6062C132.212 71.6062 131.985 71.655 131.776 71.7527C131.568 71.8503 131.389 71.9919 131.239 72.1775C131.093 72.3598 130.977 72.5828 130.893 72.8464C130.811 73.1101 130.77 73.4096 130.77 73.7449C130.77 74.0606 130.808 74.3438 130.883 74.5945C130.958 74.8451 131.063 75.0567 131.2 75.2292C131.34 75.4018 131.506 75.5336 131.698 75.6248C131.89 75.7159 132.103 75.7615 132.338 75.7615C132.592 75.7615 132.82 75.7159 133.021 75.6248C133.226 75.5336 133.399 75.4083 133.539 75.2488C133.682 75.0893 133.791 74.9021 133.866 74.6873C133.944 74.4724 133.983 74.2429 133.983 73.9988V73.1638ZM136.518 73.7937C136.521 74.0997 136.561 74.3748 136.64 74.6189C136.718 74.863 136.83 75.0697 136.976 75.239C137.123 75.4083 137.3 75.5385 137.509 75.6296C137.72 75.7175 137.958 75.7615 138.222 75.7615C138.785 75.7615 139.317 75.5645 139.818 75.1707V75.7859C139.34 76.1277 138.76 76.2986 138.08 76.2986C137.745 76.2986 137.44 76.24 137.167 76.1228C136.893 76.0056 136.661 75.8363 136.469 75.615C136.277 75.3904 136.129 75.1153 136.024 74.7898C135.92 74.4643 135.868 74.0932 135.868 73.6765C135.868 73.3022 135.925 72.9555 136.039 72.6365C136.153 72.3175 136.311 72.0424 136.513 71.8113C136.714 71.5769 136.954 71.3946 137.23 71.2644C137.507 71.1309 137.81 71.0642 138.139 71.0642C138.461 71.0642 138.746 71.1212 138.993 71.2351C139.24 71.3458 139.447 71.5053 139.613 71.7136C139.782 71.922 139.911 72.1759 139.999 72.4753C140.087 72.7748 140.131 73.1101 140.131 73.4812V73.7937H136.518ZM139.486 73.2468C139.476 72.726 139.353 72.3223 139.115 72.0359C138.878 71.7494 138.547 71.6062 138.124 71.6062C137.912 71.6062 137.715 71.6436 137.533 71.7185C137.354 71.7934 137.196 71.9024 137.059 72.0457C136.923 72.1856 136.809 72.3582 136.718 72.5632C136.63 72.7651 136.568 72.9929 136.532 73.2468H139.486ZM146.981 76.1814V75.2927H146.962C146.799 75.6117 146.576 75.8591 146.293 76.0349C146.013 76.2107 145.696 76.2986 145.341 76.2986C145.1 76.2986 144.882 76.2644 144.686 76.196C144.494 76.1277 144.33 76.0317 144.193 75.908C144.06 75.781 143.956 75.6296 143.881 75.4539C143.809 75.2781 143.773 75.0844 143.773 74.8728C143.773 74.4203 143.913 74.0606 144.193 73.7937C144.473 73.5235 144.896 73.3477 145.463 73.2664L146.981 73.0466C146.981 72.0863 146.609 71.6062 145.863 71.6062C145.281 71.6062 144.74 71.8194 144.242 72.2458V71.5623C144.346 71.4874 144.463 71.4207 144.594 71.3621C144.727 71.3002 144.867 71.2481 145.014 71.2058C145.16 71.1602 145.31 71.1261 145.463 71.1033C145.619 71.0772 145.77 71.0642 145.917 71.0642C146.474 71.0642 146.893 71.2205 147.177 71.533C147.463 71.8455 147.606 72.311 147.606 72.9294V76.1814H146.981ZM145.692 73.7546C145.468 73.7872 145.276 73.8279 145.116 73.8767C144.957 73.9255 144.825 73.9923 144.721 74.0769C144.616 74.1583 144.54 74.2608 144.491 74.3845C144.442 74.505 144.418 74.6547 144.418 74.8337C144.418 74.9672 144.441 75.0909 144.486 75.2048C144.535 75.3188 144.603 75.4181 144.691 75.5027C144.782 75.5841 144.892 75.6475 145.018 75.6931C145.149 75.7387 145.295 75.7615 145.458 75.7615C145.679 75.7615 145.883 75.7192 146.068 75.6345C146.254 75.5499 146.413 75.4327 146.547 75.283C146.684 75.1332 146.789 74.9542 146.864 74.7458C146.942 74.5375 146.981 74.3113 146.981 74.0671V73.574L145.692 73.7546ZM150.893 76.1814H150.297L148.383 71.1814H149.071L150.453 74.99C150.538 75.2211 150.591 75.4246 150.614 75.6003H150.634C150.673 75.366 150.723 75.169 150.785 75.0095L152.216 71.1814H152.885L150.893 76.1814ZM154.076 69.9167C153.956 69.9167 153.851 69.8744 153.764 69.7898C153.676 69.7052 153.632 69.5977 153.632 69.4675C153.632 69.3406 153.676 69.2364 153.764 69.155C153.851 69.0704 153.956 69.0281 154.076 69.0281C154.138 69.0281 154.197 69.0395 154.252 69.0623C154.307 69.0818 154.354 69.1111 154.393 69.1501C154.436 69.1892 154.468 69.2364 154.491 69.2917C154.517 69.3438 154.53 69.4024 154.53 69.4675C154.53 69.5294 154.519 69.588 154.496 69.6433C154.473 69.6986 154.441 69.7475 154.398 69.7898C154.356 69.8289 154.307 69.8598 154.252 69.8826C154.2 69.9054 154.141 69.9167 154.076 69.9167ZM153.768 76.1814V71.1814H154.393V76.1814H153.768ZM158.051 76.2986C157.68 76.2986 157.346 76.2367 157.05 76.113C156.757 75.9893 156.506 75.8152 156.298 75.5906C156.089 75.3627 155.93 75.0909 155.819 74.7751C155.709 74.4594 155.653 74.1095 155.653 73.7253C155.653 73.3087 155.712 72.936 155.829 72.6072C155.946 72.2784 156.112 72.0001 156.327 71.7722C156.545 71.5411 156.807 71.3653 157.113 71.2449C157.419 71.1244 157.761 71.0642 158.139 71.0642C158.5 71.0642 158.825 71.1244 159.115 71.2449C159.405 71.3621 159.651 71.533 159.852 71.7576C160.054 71.9822 160.209 72.2556 160.316 72.5779C160.424 72.9001 160.477 73.2664 160.477 73.6765C160.477 74.0671 160.42 74.4236 160.307 74.7458C160.196 75.0649 160.036 75.3399 159.828 75.571C159.62 75.8022 159.366 75.9812 159.066 76.1082C158.767 76.2351 158.428 76.2986 158.051 76.2986ZM158.1 71.6062C157.826 71.6062 157.579 71.6534 157.357 71.7478C157.136 71.8422 156.946 71.9806 156.786 72.1628C156.63 72.3419 156.509 72.5632 156.425 72.8269C156.34 73.0873 156.298 73.3835 156.298 73.7156C156.298 74.0281 156.34 74.3097 156.425 74.5603C156.509 74.811 156.628 75.0258 156.781 75.2048C156.937 75.3839 157.126 75.5222 157.348 75.6199C157.569 75.7143 157.816 75.7615 158.09 75.7615C158.37 75.7615 158.617 75.7159 158.832 75.6248C159.047 75.5304 159.229 75.3953 159.379 75.2195C159.529 75.0404 159.641 74.8223 159.716 74.5652C159.794 74.308 159.833 74.0151 159.833 73.6863C159.833 73.0125 159.683 72.4981 159.384 72.1433C159.084 71.7852 158.656 71.6062 158.1 71.6062ZM157.943 70.3074H157.416L158.529 68.7058H159.188L157.943 70.3074ZM165.111 76.1814V73.3005C165.111 72.171 164.701 71.6062 163.881 71.6062C163.663 71.6062 163.461 71.6501 163.275 71.738C163.09 71.8227 162.929 71.9415 162.792 72.0945C162.658 72.2475 162.553 72.4298 162.475 72.6414C162.4 72.8497 162.362 73.0759 162.362 73.3201V76.1814H161.737V71.1814H162.362V72.0505H162.382C162.753 71.393 163.311 71.0642 164.057 71.0642C164.603 71.0642 165.02 71.2416 165.307 71.5964C165.593 71.9513 165.736 72.4639 165.736 73.1345V76.1814H165.111Z" fill="#868686"/>
<path d="M462.156 38.0266C461.785 38.2512 461.336 38.3667 460.809 38.3732C460.45 38.3765 460.128 38.3146 459.842 38.1877C459.555 38.0607 459.311 37.885 459.109 37.6603C458.907 37.4325 458.753 37.1656 458.645 36.8596C458.538 36.5503 458.484 36.215 458.484 35.8537C458.484 35.4794 458.541 35.1278 458.655 34.799C458.769 34.467 458.935 34.1789 459.153 33.9348C459.371 33.6874 459.638 33.492 459.954 33.3488C460.27 33.2056 460.631 33.134 461.038 33.134C461.451 33.134 461.829 33.2137 462.171 33.3732V34.0373C461.806 33.7964 461.412 33.676 460.989 33.676C460.693 33.676 460.429 33.7329 460.198 33.8469C459.967 33.9575 459.772 34.1105 459.612 34.3059C459.456 34.4979 459.336 34.7241 459.251 34.9846C459.17 35.2417 459.129 35.5152 459.129 35.8049C459.129 36.0718 459.163 36.3273 459.231 36.5715C459.303 36.8156 459.41 37.0321 459.554 37.2209C459.7 37.4064 459.884 37.5545 460.105 37.6652C460.327 37.7759 460.587 37.8312 460.887 37.8312C461.355 37.8312 461.779 37.6913 462.156 37.4113V38.0266ZM465.408 38.3684C465.037 38.3684 464.703 38.3065 464.407 38.1828C464.114 38.0591 463.864 37.885 463.655 37.6603C463.447 37.4325 463.287 37.1607 463.177 36.8449C463.066 36.5292 463.011 36.1792 463.011 35.7951C463.011 35.3784 463.069 35.0057 463.186 34.6769C463.304 34.3482 463.47 34.0698 463.684 33.842C463.903 33.6109 464.165 33.4351 464.471 33.3146C464.777 33.1942 465.118 33.134 465.496 33.134C465.857 33.134 466.183 33.1942 466.473 33.3146C466.762 33.4318 467.008 33.6027 467.21 33.8273C467.412 34.0519 467.566 34.3254 467.674 34.6476C467.781 34.9699 467.835 35.3361 467.835 35.7463C467.835 36.1369 467.778 36.4934 467.664 36.8156C467.553 37.1346 467.394 37.4097 467.185 37.6408C466.977 37.8719 466.723 38.051 466.424 38.1779C466.124 38.3049 465.786 38.3684 465.408 38.3684ZM465.457 33.676C465.184 33.676 464.936 33.7232 464.715 33.8176C464.493 33.912 464.303 34.0503 464.143 34.2326C463.987 34.4116 463.867 34.633 463.782 34.8967C463.698 35.1571 463.655 35.4533 463.655 35.7853C463.655 36.0978 463.698 36.3794 463.782 36.6301C463.867 36.8807 463.986 37.0956 464.139 37.2746C464.295 37.4536 464.484 37.592 464.705 37.6896C464.926 37.784 465.174 37.8312 465.447 37.8312C465.727 37.8312 465.975 37.7857 466.189 37.6945C466.404 37.6001 466.587 37.465 466.736 37.2892C466.886 37.1102 466.998 36.8921 467.073 36.635C467.151 36.3778 467.19 36.0848 467.19 35.756C467.19 35.0822 467.041 34.5679 466.741 34.2131C466.442 33.855 466.014 33.676 465.457 33.676ZM469.095 38.2512V30.8488H469.72V38.2512H469.095ZM473.377 38.3684C473.006 38.3684 472.672 38.3065 472.376 38.1828C472.083 38.0591 471.832 37.885 471.624 37.6603C471.416 37.4325 471.256 37.1607 471.145 36.8449C471.035 36.5292 470.979 36.1792 470.979 35.7951C470.979 35.3784 471.038 35.0057 471.155 34.6769C471.272 34.3482 471.438 34.0698 471.653 33.842C471.871 33.6109 472.133 33.4351 472.439 33.3146C472.745 33.1942 473.087 33.134 473.465 33.134C473.826 33.134 474.152 33.1942 474.441 33.3146C474.731 33.4318 474.977 33.6027 475.179 33.8273C475.38 34.0519 475.535 34.3254 475.643 34.6476C475.75 34.9699 475.804 35.3361 475.804 35.7463C475.804 36.1369 475.747 36.4934 475.633 36.8156C475.522 37.1346 475.363 37.4097 475.154 37.6408C474.946 37.8719 474.692 38.051 474.393 38.1779C474.093 38.3049 473.754 38.3684 473.377 38.3684ZM473.426 33.676C473.152 33.676 472.905 33.7232 472.684 33.8176C472.462 33.912 472.272 34.0503 472.112 34.2326C471.956 34.4116 471.836 34.633 471.751 34.8967C471.666 35.1571 471.624 35.4533 471.624 35.7853C471.624 36.0978 471.666 36.3794 471.751 36.6301C471.836 36.8807 471.954 37.0956 472.107 37.2746C472.264 37.4536 472.452 37.592 472.674 37.6896C472.895 37.784 473.143 37.8312 473.416 37.8312C473.696 37.8312 473.943 37.7857 474.158 37.6945C474.373 37.6001 474.555 37.465 474.705 37.2892C474.855 37.1102 474.967 36.8921 475.042 36.635C475.12 36.3778 475.159 36.0848 475.159 35.756C475.159 35.0822 475.009 34.5679 474.71 34.2131C474.41 33.855 473.982 33.676 473.426 33.676ZM479.544 33.8908C479.397 33.7834 479.209 33.7297 478.977 33.7297C478.811 33.7297 478.665 33.7622 478.538 33.8273C478.411 33.8892 478.299 33.9738 478.201 34.0812C478.107 34.1887 478.025 34.314 477.957 34.4572C477.892 34.5972 477.838 34.7437 477.796 34.8967C477.757 35.0497 477.727 35.2043 477.708 35.3605C477.692 35.5168 477.684 35.6649 477.684 35.8049V38.2512H477.063V33.2512H477.684V34.3205H477.703C477.762 34.1382 477.835 33.9754 477.923 33.8322C478.014 33.6857 478.118 33.5637 478.235 33.466C478.352 33.3651 478.479 33.2886 478.616 33.2365C478.756 33.1844 478.903 33.1584 479.056 33.1584C479.156 33.1584 479.246 33.1649 479.324 33.1779C479.406 33.1909 479.479 33.2105 479.544 33.2365V33.8908ZM483.821 37.4455V40.551H483.196V33.2512H483.821V34.2082H483.841C484.026 33.8599 484.274 33.5946 484.583 33.4123C484.895 33.2267 485.247 33.134 485.638 33.134C485.957 33.134 486.241 33.1926 486.492 33.3098C486.746 33.4237 486.959 33.5864 487.132 33.798C487.308 34.0096 487.441 34.2668 487.532 34.5695C487.627 34.8723 487.674 35.2124 487.674 35.59C487.674 36.0034 487.622 36.381 487.518 36.7228C487.413 37.0614 487.264 37.3527 487.068 37.5969C486.873 37.841 486.635 38.0314 486.355 38.1682C486.079 38.3016 485.766 38.3684 485.418 38.3684C484.715 38.3684 484.189 38.0607 483.841 37.4455H483.821ZM483.821 36.1711C483.821 36.3989 483.859 36.6138 483.934 36.8156C484.012 37.0142 484.119 37.19 484.256 37.343C484.393 37.4927 484.557 37.6115 484.749 37.6994C484.944 37.7873 485.159 37.8312 485.393 37.8312C485.644 37.8312 485.87 37.7792 486.072 37.675C486.274 37.5676 486.445 37.4162 486.585 37.2209C486.728 37.0256 486.837 36.7896 486.912 36.5129C486.99 36.2362 487.029 35.9269 487.029 35.5851C487.029 35.2922 486.993 35.0285 486.922 34.7941C486.85 34.5565 486.748 34.3547 486.614 34.1887C486.484 34.0226 486.324 33.8957 486.136 33.8078C485.95 33.7199 485.742 33.676 485.511 33.676C485.25 33.676 485.016 33.7248 484.808 33.8225C484.599 33.9169 484.422 34.0471 484.275 34.2131C484.129 34.3791 484.017 34.5744 483.938 34.799C483.86 35.0204 483.821 35.2564 483.821 35.507V36.1711ZM491.419 33.8908C491.272 33.7834 491.084 33.7297 490.852 33.7297C490.686 33.7297 490.54 33.7622 490.413 33.8273C490.286 33.8892 490.174 33.9738 490.076 34.0812C489.982 34.1887 489.9 34.314 489.832 34.4572C489.767 34.5972 489.713 34.7437 489.671 34.8967C489.632 35.0497 489.602 35.2043 489.583 35.3605C489.567 35.5168 489.559 35.6649 489.559 35.8049V38.2512H488.938V33.2512H489.559V34.3205H489.578C489.637 34.1382 489.71 33.9754 489.798 33.8322C489.889 33.6857 489.993 33.5637 490.11 33.466C490.227 33.3651 490.354 33.2886 490.491 33.2365C490.631 33.1844 490.778 33.1584 490.931 33.1584C491.031 33.1584 491.121 33.1649 491.199 33.1779C491.281 33.1909 491.354 33.2105 491.419 33.2365V33.8908ZM492.635 31.9865C492.514 31.9865 492.41 31.9442 492.322 31.8596C492.234 31.7749 492.19 31.6675 492.19 31.5373C492.19 31.4103 492.234 31.3062 492.322 31.2248C492.41 31.1402 492.514 31.0978 492.635 31.0978C492.697 31.0978 492.755 31.1092 492.81 31.132C492.866 31.1516 492.913 31.1809 492.952 31.2199C492.994 31.259 493.027 31.3062 493.05 31.3615C493.076 31.4136 493.089 31.4722 493.089 31.5373C493.089 31.5991 493.077 31.6577 493.055 31.7131C493.032 31.7684 492.999 31.8172 492.957 31.8596C492.915 31.8986 492.866 31.9295 492.81 31.9523C492.758 31.9751 492.7 31.9865 492.635 31.9865ZM492.327 38.2512V33.2512H492.952V38.2512H492.327ZM500.848 38.2512V35.3117C500.848 35.0122 500.825 34.76 500.779 34.5549C500.734 34.3465 500.662 34.1773 500.564 34.0471C500.47 33.9169 500.348 33.8225 500.198 33.7639C500.052 33.7053 499.876 33.676 499.671 33.676C499.489 33.676 499.316 33.7199 499.153 33.8078C498.99 33.8924 498.847 34.0113 498.724 34.1642C498.603 34.314 498.507 34.4914 498.435 34.6965C498.367 34.9016 498.333 35.1229 498.333 35.3605V38.2512H497.708V35.2482C497.708 34.2001 497.306 33.676 496.502 33.676C496.316 33.676 496.144 33.7183 495.984 33.8029C495.825 33.8843 495.685 33.9999 495.564 34.1496C495.447 34.2993 495.354 34.48 495.286 34.6916C495.221 34.8999 495.188 35.131 495.188 35.385V38.2512H494.563V33.2512H495.188V34.0617H495.208C495.559 33.4432 496.072 33.134 496.746 33.134C496.922 33.134 497.088 33.1616 497.244 33.217C497.4 33.2691 497.54 33.3439 497.664 33.4416C497.788 33.536 497.893 33.6499 497.981 33.7834C498.073 33.9169 498.141 34.0633 498.186 34.2228C498.362 33.868 498.59 33.5978 498.87 33.4123C499.153 33.2267 499.472 33.134 499.827 33.134C500.924 33.134 501.473 33.8111 501.473 35.1652V38.2512H500.848ZM505.862 38.2512V37.3625H505.843C505.68 37.6815 505.457 37.9289 505.174 38.1047C504.894 38.2805 504.576 38.3684 504.222 38.3684C503.981 38.3684 503.763 38.3342 503.567 38.2658C503.375 38.1975 503.211 38.1014 503.074 37.9777C502.941 37.8508 502.837 37.6994 502.762 37.5236C502.69 37.3478 502.654 37.1542 502.654 36.9426C502.654 36.4901 502.794 36.1304 503.074 35.8635C503.354 35.5933 503.777 35.4175 504.344 35.3361L505.862 35.1164C505.862 34.1561 505.49 33.676 504.744 33.676C504.161 33.676 503.621 33.8892 503.123 34.3156V33.632C503.227 33.5572 503.344 33.4904 503.475 33.4318C503.608 33.37 503.748 33.3179 503.894 33.2756C504.041 33.23 504.191 33.1958 504.344 33.173C504.5 33.147 504.651 33.134 504.798 33.134C505.354 33.134 505.774 33.2902 506.058 33.6027C506.344 33.9152 506.487 34.3807 506.487 34.9992V38.2512H505.862ZM504.573 35.8244C504.349 35.857 504.156 35.8976 503.997 35.9465C503.837 35.9953 503.706 36.062 503.601 36.1467C503.497 36.2281 503.421 36.3306 503.372 36.4543C503.323 36.5747 503.299 36.7245 503.299 36.9035C503.299 37.037 503.322 37.1607 503.367 37.2746C503.416 37.3885 503.484 37.4878 503.572 37.5725C503.663 37.6538 503.772 37.7173 503.899 37.7629C504.03 37.8085 504.176 37.8312 504.339 37.8312C504.56 37.8312 504.764 37.7889 504.949 37.7043C505.135 37.6197 505.294 37.5025 505.428 37.3527C505.564 37.203 505.67 37.0239 505.745 36.8156C505.823 36.6073 505.862 36.381 505.862 36.1369V35.6437L504.573 35.8244ZM510.472 33.8908C510.325 33.7834 510.136 33.7297 509.905 33.7297C509.739 33.7297 509.593 33.7622 509.466 33.8273C509.339 33.8892 509.226 33.9738 509.129 34.0812C509.034 34.1887 508.953 34.314 508.885 34.4572C508.82 34.5972 508.766 34.7437 508.724 34.8967C508.684 35.0497 508.655 35.2043 508.636 35.3605C508.619 35.5168 508.611 35.6649 508.611 35.8049V38.2512H507.991V33.2512H508.611V34.3205H508.631C508.689 34.1382 508.763 33.9754 508.851 33.8322C508.942 33.6857 509.046 33.5637 509.163 33.466C509.28 33.3651 509.407 33.2886 509.544 33.2365C509.684 33.1844 509.83 33.1584 509.983 33.1584C510.084 33.1584 510.174 33.1649 510.252 33.1779C510.333 33.1909 510.406 33.2105 510.472 33.2365V33.8908ZM511.687 31.9865C511.567 31.9865 511.463 31.9442 511.375 31.8596C511.287 31.7749 511.243 31.6675 511.243 31.5373C511.243 31.4103 511.287 31.3062 511.375 31.2248C511.463 31.1402 511.567 31.0978 511.687 31.0978C511.749 31.0978 511.808 31.1092 511.863 31.132C511.919 31.1516 511.966 31.1809 512.005 31.2199C512.047 31.259 512.08 31.3062 512.102 31.3615C512.129 31.4136 512.142 31.4722 512.142 31.5373C512.142 31.5991 512.13 31.6577 512.107 31.7131C512.085 31.7684 512.052 31.8172 512.01 31.8596C511.967 31.8986 511.919 31.9295 511.863 31.9523C511.811 31.9751 511.753 31.9865 511.687 31.9865ZM511.38 38.2512V33.2512H512.005V38.2512H511.38ZM515.662 38.3684C515.291 38.3684 514.957 38.3065 514.661 38.1828C514.368 38.0591 514.117 37.885 513.909 37.6603C513.701 37.4325 513.541 37.1607 513.431 36.8449C513.32 36.5292 513.265 36.1792 513.265 35.7951C513.265 35.3784 513.323 35.0057 513.44 34.6769C513.558 34.3482 513.724 34.0698 513.938 33.842C514.156 33.6109 514.419 33.4351 514.725 33.3146C515.031 33.1942 515.372 33.134 515.75 33.134C516.111 33.134 516.437 33.1942 516.726 33.3146C517.016 33.4318 517.262 33.6027 517.464 33.8273C517.666 34.0519 517.82 34.3254 517.928 34.6476C518.035 34.9699 518.089 35.3361 518.089 35.7463C518.089 36.1369 518.032 36.4934 517.918 36.8156C517.807 37.1346 517.648 37.4097 517.439 37.6408C517.231 37.8719 516.977 38.051 516.678 38.1779C516.378 38.3049 516.04 38.3684 515.662 38.3684ZM515.711 33.676C515.437 33.676 515.19 33.7232 514.969 33.8176C514.747 33.912 514.557 34.0503 514.397 34.2326C514.241 34.4116 514.121 34.633 514.036 34.8967C513.951 35.1571 513.909 35.4533 513.909 35.7853C513.909 36.0978 513.951 36.3794 514.036 36.6301C514.121 36.8807 514.24 37.0956 514.393 37.2746C514.549 37.4536 514.738 37.592 514.959 37.6896C515.18 37.784 515.428 37.8312 515.701 37.8312C515.981 37.8312 516.228 37.7857 516.443 37.6945C516.658 37.6001 516.84 37.465 516.99 37.2892C517.14 37.1102 517.252 36.8921 517.327 36.635C517.405 36.3778 517.444 36.0848 517.444 35.756C517.444 35.0822 517.295 34.5679 516.995 34.2131C516.696 33.855 516.268 33.676 515.711 33.676Z" fill="#868686"/>
<path d="M462.918 118.222C462.547 118.447 462.098 118.562 461.57 118.569C461.212 118.572 460.89 118.51 460.603 118.383C460.317 118.256 460.073 118.08 459.871 117.856C459.669 117.628 459.515 117.361 459.407 117.055C459.3 116.746 459.246 116.41 459.246 116.049C459.246 115.675 459.303 115.323 459.417 114.994C459.531 114.662 459.697 114.374 459.915 114.13C460.133 113.883 460.4 113.687 460.716 113.544C461.031 113.401 461.393 113.329 461.8 113.329C462.213 113.329 462.591 113.409 462.933 113.569V114.233C462.568 113.992 462.174 113.871 461.751 113.871C461.455 113.871 461.191 113.928 460.96 114.042C460.729 114.153 460.533 114.306 460.374 114.501C460.218 114.693 460.097 114.919 460.013 115.18C459.931 115.437 459.891 115.711 459.891 116C459.891 116.267 459.925 116.523 459.993 116.767C460.065 117.011 460.172 117.227 460.315 117.416C460.462 117.602 460.646 117.75 460.867 117.861C461.088 117.971 461.349 118.027 461.648 118.027C462.117 118.027 462.54 117.887 462.918 117.607V118.222ZM466.17 118.564C465.799 118.564 465.465 118.502 465.169 118.378C464.876 118.254 464.625 118.08 464.417 117.856C464.209 117.628 464.049 117.356 463.938 117.04C463.828 116.725 463.772 116.375 463.772 115.99C463.772 115.574 463.831 115.201 463.948 114.872C464.065 114.544 464.231 114.265 464.446 114.037C464.664 113.806 464.926 113.63 465.232 113.51C465.538 113.39 465.88 113.329 466.258 113.329C466.619 113.329 466.945 113.39 467.234 113.51C467.524 113.627 467.77 113.798 467.972 114.023C468.173 114.247 468.328 114.521 468.435 114.843C468.543 115.165 468.597 115.531 468.597 115.942C468.597 116.332 468.54 116.689 468.426 117.011C468.315 117.33 468.156 117.605 467.947 117.836C467.739 118.067 467.485 118.246 467.185 118.373C466.886 118.5 466.547 118.564 466.17 118.564ZM466.219 113.871C465.945 113.871 465.698 113.919 465.476 114.013C465.255 114.107 465.065 114.246 464.905 114.428C464.749 114.607 464.629 114.828 464.544 115.092C464.459 115.352 464.417 115.649 464.417 115.981C464.417 116.293 464.459 116.575 464.544 116.825C464.629 117.076 464.747 117.291 464.9 117.47C465.057 117.649 465.245 117.787 465.467 117.885C465.688 117.979 465.935 118.027 466.209 118.027C466.489 118.027 466.736 117.981 466.951 117.89C467.166 117.795 467.348 117.66 467.498 117.485C467.648 117.306 467.76 117.087 467.835 116.83C467.913 116.573 467.952 116.28 467.952 115.951C467.952 115.278 467.802 114.763 467.503 114.408C467.203 114.05 466.775 113.871 466.219 113.871ZM469.856 118.447V111.044H470.481V118.447H469.856ZM474.139 118.564C473.768 118.564 473.434 118.502 473.138 118.378C472.845 118.254 472.594 118.08 472.386 117.856C472.177 117.628 472.018 117.356 471.907 117.04C471.796 116.725 471.741 116.375 471.741 115.99C471.741 115.574 471.8 115.201 471.917 114.872C472.034 114.544 472.2 114.265 472.415 114.037C472.633 113.806 472.895 113.63 473.201 113.51C473.507 113.39 473.849 113.329 474.226 113.329C474.588 113.329 474.913 113.39 475.203 113.51C475.493 113.627 475.739 113.798 475.94 114.023C476.142 114.247 476.297 114.521 476.404 114.843C476.512 115.165 476.565 115.531 476.565 115.942C476.565 116.332 476.508 116.689 476.394 117.011C476.284 117.33 476.124 117.605 475.916 117.836C475.708 118.067 475.454 118.246 475.154 118.373C474.855 118.5 474.516 118.564 474.139 118.564ZM474.187 113.871C473.914 113.871 473.667 113.919 473.445 114.013C473.224 114.107 473.033 114.246 472.874 114.428C472.718 114.607 472.597 114.828 472.513 115.092C472.428 115.352 472.386 115.649 472.386 115.981C472.386 116.293 472.428 116.575 472.513 116.825C472.597 117.076 472.716 117.291 472.869 117.47C473.025 117.649 473.214 117.787 473.435 117.885C473.657 117.979 473.904 118.027 474.178 118.027C474.458 118.027 474.705 117.981 474.92 117.89C475.135 117.795 475.317 117.66 475.467 117.485C475.616 117.306 475.729 117.087 475.804 116.83C475.882 116.573 475.921 116.28 475.921 115.951C475.921 115.278 475.771 114.763 475.472 114.408C475.172 114.05 474.744 113.871 474.187 113.871ZM480.306 114.086C480.159 113.979 479.97 113.925 479.739 113.925C479.573 113.925 479.427 113.958 479.3 114.023C479.173 114.085 479.06 114.169 478.963 114.277C478.868 114.384 478.787 114.509 478.719 114.653C478.654 114.793 478.6 114.939 478.558 115.092C478.518 115.245 478.489 115.4 478.47 115.556C478.453 115.712 478.445 115.86 478.445 116V118.447H477.825V113.447H478.445V114.516H478.465C478.523 114.334 478.597 114.171 478.684 114.028C478.776 113.881 478.88 113.759 478.997 113.661C479.114 113.56 479.241 113.484 479.378 113.432C479.518 113.38 479.664 113.354 479.817 113.354C479.918 113.354 480.008 113.36 480.086 113.373C480.167 113.386 480.24 113.406 480.306 113.432V114.086ZM486.106 118.388C485.892 118.495 485.657 118.549 485.403 118.549C484.596 118.549 484.192 118.084 484.192 117.153V113.993H483.313V113.447H484.192V112.187L484.817 111.982V113.447H486.106V113.993H484.817V117.055C484.817 117.393 484.873 117.638 484.983 117.787C485.094 117.937 485.281 118.012 485.545 118.012C485.74 118.012 485.927 117.953 486.106 117.836V118.388ZM487.361 116.059C487.365 116.365 487.405 116.64 487.483 116.884C487.561 117.128 487.674 117.335 487.82 117.504C487.967 117.673 488.144 117.804 488.352 117.895C488.564 117.983 488.802 118.027 489.065 118.027C489.629 118.027 490.161 117.83 490.662 117.436V118.051C490.184 118.393 489.604 118.564 488.924 118.564C488.588 118.564 488.284 118.505 488.011 118.388C487.737 118.271 487.504 118.101 487.312 117.88C487.12 117.655 486.972 117.38 486.868 117.055C486.764 116.729 486.712 116.358 486.712 115.942C486.712 115.567 486.769 115.221 486.883 114.902C486.997 114.583 487.155 114.308 487.356 114.076C487.558 113.842 487.797 113.66 488.074 113.53C488.351 113.396 488.654 113.329 488.982 113.329C489.305 113.329 489.589 113.386 489.837 113.5C490.084 113.611 490.291 113.77 490.457 113.979C490.626 114.187 490.755 114.441 490.843 114.74C490.931 115.04 490.975 115.375 490.975 115.746V116.059H487.361ZM490.33 115.512C490.32 114.991 490.197 114.587 489.959 114.301C489.721 114.015 489.391 113.871 488.968 113.871C488.756 113.871 488.559 113.909 488.377 113.984C488.198 114.058 488.04 114.168 487.903 114.311C487.767 114.451 487.653 114.623 487.561 114.828C487.474 115.03 487.412 115.258 487.376 115.512H490.33ZM494.681 114.086C494.534 113.979 494.345 113.925 494.114 113.925C493.948 113.925 493.802 113.958 493.675 114.023C493.548 114.085 493.435 114.169 493.338 114.277C493.243 114.384 493.162 114.509 493.094 114.653C493.029 114.793 492.975 114.939 492.933 115.092C492.893 115.245 492.864 115.4 492.845 115.556C492.828 115.712 492.82 115.86 492.82 116V118.447H492.2V113.447H492.82V114.516H492.84C492.898 114.334 492.972 114.171 493.059 114.028C493.151 113.881 493.255 113.759 493.372 113.661C493.489 113.56 493.616 113.484 493.753 113.432C493.893 113.38 494.039 113.354 494.192 113.354C494.293 113.354 494.383 113.36 494.461 113.373C494.542 113.386 494.615 113.406 494.681 113.432V114.086ZM498.777 118.222C498.406 118.447 497.957 118.562 497.43 118.569C497.072 118.572 496.749 118.51 496.463 118.383C496.176 118.256 495.932 118.08 495.73 117.856C495.529 117.628 495.374 117.361 495.267 117.055C495.159 116.746 495.105 116.41 495.105 116.049C495.105 115.675 495.162 115.323 495.276 114.994C495.39 114.662 495.556 114.374 495.774 114.13C495.992 113.883 496.259 113.687 496.575 113.544C496.891 113.401 497.252 113.329 497.659 113.329C498.073 113.329 498.45 113.409 498.792 113.569V114.233C498.427 113.992 498.033 113.871 497.61 113.871C497.314 113.871 497.05 113.928 496.819 114.042C496.588 114.153 496.393 114.306 496.233 114.501C496.077 114.693 495.957 114.919 495.872 115.18C495.791 115.437 495.75 115.711 495.75 116C495.75 116.267 495.784 116.523 495.852 116.767C495.924 117.011 496.031 117.227 496.175 117.416C496.321 117.602 496.505 117.75 496.726 117.861C496.948 117.971 497.208 118.027 497.508 118.027C497.976 118.027 498.4 117.887 498.777 117.607V118.222ZM500.291 112.182C500.17 112.182 500.066 112.14 499.978 112.055C499.891 111.97 499.847 111.863 499.847 111.733C499.847 111.606 499.891 111.502 499.978 111.42C500.066 111.336 500.17 111.293 500.291 111.293C500.353 111.293 500.411 111.305 500.467 111.327C500.522 111.347 500.569 111.376 500.608 111.415C500.651 111.454 500.683 111.502 500.706 111.557C500.732 111.609 500.745 111.668 500.745 111.733C500.745 111.794 500.734 111.853 500.711 111.908C500.688 111.964 500.656 112.013 500.613 112.055C500.571 112.094 500.522 112.125 500.467 112.148C500.415 112.17 500.356 112.182 500.291 112.182ZM499.983 118.447V113.447H500.608V118.447H499.983ZM505.101 118.447V117.558H505.081C504.918 117.877 504.695 118.124 504.412 118.3C504.132 118.476 503.815 118.564 503.46 118.564C503.219 118.564 503.001 118.53 502.806 118.461C502.614 118.393 502.449 118.297 502.312 118.173C502.179 118.046 502.075 117.895 502 117.719C501.928 117.543 501.893 117.35 501.893 117.138C501.893 116.685 502.032 116.326 502.312 116.059C502.592 115.789 503.016 115.613 503.582 115.531L505.101 115.312C505.101 114.351 504.728 113.871 503.982 113.871C503.4 113.871 502.859 114.085 502.361 114.511V113.827C502.465 113.752 502.583 113.686 502.713 113.627C502.846 113.565 502.986 113.513 503.133 113.471C503.279 113.425 503.429 113.391 503.582 113.368C503.738 113.342 503.89 113.329 504.036 113.329C504.593 113.329 505.013 113.486 505.296 113.798C505.582 114.111 505.726 114.576 505.726 115.195V118.447H505.101ZM503.811 116.02C503.587 116.052 503.395 116.093 503.235 116.142C503.076 116.191 502.944 116.257 502.84 116.342C502.736 116.423 502.659 116.526 502.61 116.65C502.561 116.77 502.537 116.92 502.537 117.099C502.537 117.232 502.56 117.356 502.605 117.47C502.654 117.584 502.723 117.683 502.81 117.768C502.902 117.849 503.011 117.913 503.138 117.958C503.268 118.004 503.414 118.027 503.577 118.027C503.798 118.027 504.002 117.984 504.187 117.9C504.373 117.815 504.532 117.698 504.666 117.548C504.803 117.398 504.908 117.219 504.983 117.011C505.061 116.803 505.101 116.576 505.101 116.332V115.839L503.811 116.02ZM509.71 114.086C509.563 113.979 509.375 113.925 509.143 113.925C508.977 113.925 508.831 113.958 508.704 114.023C508.577 114.085 508.465 114.169 508.367 114.277C508.273 114.384 508.191 114.509 508.123 114.653C508.058 114.793 508.004 114.939 507.962 115.092C507.923 115.245 507.893 115.4 507.874 115.556C507.858 115.712 507.85 115.86 507.85 116V118.447H507.229V113.447H507.85V114.516H507.869C507.928 114.334 508.001 114.171 508.089 114.028C508.18 113.881 508.284 113.759 508.401 113.661C508.518 113.56 508.645 113.484 508.782 113.432C508.922 113.38 509.069 113.354 509.222 113.354C509.323 113.354 509.412 113.36 509.49 113.373C509.572 113.386 509.645 113.406 509.71 113.432V114.086ZM510.926 112.182C510.805 112.182 510.701 112.14 510.613 112.055C510.525 111.97 510.481 111.863 510.481 111.733C510.481 111.606 510.525 111.502 510.613 111.42C510.701 111.336 510.805 111.293 510.926 111.293C510.988 111.293 511.046 111.305 511.101 111.327C511.157 111.347 511.204 111.376 511.243 111.415C511.285 111.454 511.318 111.502 511.341 111.557C511.367 111.609 511.38 111.668 511.38 111.733C511.38 111.794 511.368 111.853 511.346 111.908C511.323 111.964 511.29 112.013 511.248 112.055C511.206 112.094 511.157 112.125 511.101 112.148C511.049 112.17 510.991 112.182 510.926 112.182ZM510.618 118.447V113.447H511.243V118.447H510.618ZM514.9 118.564C514.529 118.564 514.196 118.502 513.899 118.378C513.606 118.254 513.356 118.08 513.147 117.856C512.939 117.628 512.78 117.356 512.669 117.04C512.558 116.725 512.503 116.375 512.503 115.99C512.503 115.574 512.561 115.201 512.679 114.872C512.796 114.544 512.962 114.265 513.177 114.037C513.395 113.806 513.657 113.63 513.963 113.51C514.269 113.39 514.611 113.329 514.988 113.329C515.35 113.329 515.675 113.39 515.965 113.51C516.254 113.627 516.5 113.798 516.702 114.023C516.904 114.247 517.059 114.521 517.166 114.843C517.273 115.165 517.327 115.531 517.327 115.942C517.327 116.332 517.27 116.689 517.156 117.011C517.045 117.33 516.886 117.605 516.678 117.836C516.469 118.067 516.215 118.246 515.916 118.373C515.616 118.5 515.278 118.564 514.9 118.564ZM514.949 113.871C514.676 113.871 514.428 113.919 514.207 114.013C513.986 114.107 513.795 114.246 513.636 114.428C513.479 114.607 513.359 114.828 513.274 115.092C513.19 115.352 513.147 115.649 513.147 115.981C513.147 116.293 513.19 116.575 513.274 116.825C513.359 117.076 513.478 117.291 513.631 117.47C513.787 117.649 513.976 117.787 514.197 117.885C514.419 117.979 514.666 118.027 514.939 118.027C515.219 118.027 515.467 117.981 515.682 117.89C515.896 117.795 516.079 117.66 516.228 117.485C516.378 117.306 516.49 117.087 516.565 116.83C516.643 116.573 516.683 116.28 516.683 115.951C516.683 115.278 516.533 114.763 516.233 114.408C515.934 114.05 515.506 113.871 514.949 113.871Z" fill="#868686"/>
<path d="M113.33 234.18C112.959 234.405 112.509 234.52 111.982 234.527C111.624 234.53 111.302 234.468 111.015 234.341C110.729 234.214 110.485 234.038 110.283 233.814C110.081 233.586 109.926 233.319 109.819 233.013C109.711 232.704 109.658 232.369 109.658 232.007C109.658 231.633 109.715 231.281 109.829 230.952C109.943 230.62 110.109 230.332 110.327 230.088C110.545 229.841 110.812 229.646 111.127 229.502C111.443 229.359 111.805 229.287 112.211 229.287C112.625 229.287 113.002 229.367 113.344 229.527V230.191C112.98 229.95 112.586 229.829 112.163 229.829C111.866 229.829 111.603 229.886 111.372 230C111.14 230.111 110.945 230.264 110.786 230.459C110.629 230.651 110.509 230.878 110.424 231.138C110.343 231.395 110.302 231.669 110.302 231.958C110.302 232.225 110.336 232.481 110.405 232.725C110.476 232.969 110.584 233.186 110.727 233.374C110.874 233.56 111.057 233.708 111.279 233.819C111.5 233.929 111.761 233.985 112.06 233.985C112.529 233.985 112.952 233.845 113.33 233.565V234.18ZM116.582 234.522C116.21 234.522 115.877 234.46 115.581 234.336C115.288 234.213 115.037 234.038 114.829 233.814C114.62 233.586 114.461 233.314 114.35 232.998C114.239 232.683 114.184 232.333 114.184 231.949C114.184 231.532 114.243 231.159 114.36 230.83C114.477 230.502 114.643 230.223 114.858 229.995C115.076 229.764 115.338 229.589 115.644 229.468C115.95 229.348 116.292 229.287 116.669 229.287C117.031 229.287 117.356 229.348 117.646 229.468C117.936 229.585 118.182 229.756 118.383 229.981C118.585 230.205 118.74 230.479 118.847 230.801C118.955 231.123 119.008 231.49 119.008 231.9C119.008 232.29 118.951 232.647 118.837 232.969C118.727 233.288 118.567 233.563 118.359 233.794C118.151 234.025 117.897 234.204 117.597 234.331C117.298 234.458 116.959 234.522 116.582 234.522ZM116.63 229.829C116.357 229.829 116.11 229.877 115.888 229.971C115.667 230.065 115.476 230.204 115.317 230.386C115.161 230.565 115.04 230.786 114.956 231.05C114.871 231.311 114.829 231.607 114.829 231.939C114.829 232.251 114.871 232.533 114.956 232.784C115.04 233.034 115.159 233.249 115.312 233.428C115.468 233.607 115.657 233.745 115.878 233.843C116.1 233.938 116.347 233.985 116.621 233.985C116.901 233.985 117.148 233.939 117.363 233.848C117.578 233.754 117.76 233.619 117.91 233.443C118.059 233.264 118.172 233.046 118.247 232.788C118.325 232.531 118.364 232.238 118.364 231.91C118.364 231.236 118.214 230.721 117.915 230.367C117.615 230.008 117.187 229.829 116.63 229.829ZM120.268 234.405V227.002H120.893V234.405H120.268ZM124.55 234.522C124.179 234.522 123.846 234.46 123.549 234.336C123.256 234.213 123.006 234.038 122.797 233.814C122.589 233.586 122.43 233.314 122.319 232.998C122.208 232.683 122.153 232.333 122.153 231.949C122.153 231.532 122.211 231.159 122.329 230.83C122.446 230.502 122.612 230.223 122.827 229.995C123.045 229.764 123.307 229.589 123.613 229.468C123.919 229.348 124.261 229.287 124.638 229.287C125 229.287 125.325 229.348 125.615 229.468C125.904 229.585 126.15 229.756 126.352 229.981C126.554 230.205 126.709 230.479 126.816 230.801C126.923 231.123 126.977 231.49 126.977 231.9C126.977 232.29 126.92 232.647 126.806 232.969C126.696 233.288 126.536 233.563 126.328 233.794C126.119 234.025 125.865 234.204 125.566 234.331C125.266 234.458 124.928 234.522 124.55 234.522ZM124.599 229.829C124.326 229.829 124.078 229.877 123.857 229.971C123.636 230.065 123.445 230.204 123.286 230.386C123.129 230.565 123.009 230.786 122.924 231.05C122.84 231.311 122.797 231.607 122.797 231.939C122.797 232.251 122.84 232.533 122.924 232.784C123.009 233.034 123.128 233.249 123.281 233.428C123.437 233.607 123.626 233.745 123.847 233.843C124.069 233.938 124.316 233.985 124.589 233.985C124.869 233.985 125.117 233.939 125.332 233.848C125.546 233.754 125.729 233.619 125.878 233.443C126.028 233.264 126.14 233.046 126.215 232.788C126.293 232.531 126.333 232.238 126.333 231.91C126.333 231.236 126.183 230.721 125.883 230.367C125.584 230.008 125.156 229.829 124.599 229.829ZM130.717 230.044C130.571 229.937 130.382 229.883 130.151 229.883C129.985 229.883 129.838 229.916 129.711 229.981C129.584 230.043 129.472 230.127 129.375 230.235C129.28 230.342 129.199 230.467 129.13 230.611C129.065 230.751 129.012 230.897 128.969 231.05C128.93 231.203 128.901 231.358 128.881 231.514C128.865 231.67 128.857 231.818 128.857 231.958V234.405H128.237V229.405H128.857V230.474H128.876C128.935 230.292 129.008 230.129 129.096 229.986C129.187 229.839 129.292 229.717 129.409 229.619C129.526 229.519 129.653 229.442 129.79 229.39C129.93 229.338 130.076 229.312 130.229 229.312C130.33 229.312 130.419 229.318 130.498 229.331C130.579 229.344 130.652 229.364 130.717 229.39V230.044ZM97.104 246.506C97.1984 246.581 97.301 246.648 97.4116 246.706C97.5223 246.765 97.6363 246.815 97.7534 246.858C97.8706 246.9 97.9878 246.933 98.105 246.955C98.2254 246.975 98.3394 246.985 98.4468 246.985C99.189 246.985 99.5601 246.706 99.5601 246.15C99.5601 246.023 99.534 245.914 99.482 245.823C99.4299 245.728 99.355 245.644 99.2574 245.569C99.1597 245.491 99.0425 245.419 98.9058 245.354C98.7691 245.289 98.6144 245.22 98.4419 245.149C98.2108 245.054 98.0122 244.958 97.8462 244.861C97.6802 244.763 97.5435 244.657 97.4361 244.543C97.3286 244.426 97.2489 244.299 97.1968 244.162C97.1447 244.022 97.1187 243.865 97.1187 243.689C97.1187 243.467 97.1659 243.271 97.2603 243.098C97.3579 242.925 97.4881 242.779 97.6509 242.659C97.8137 242.538 98.0008 242.447 98.2124 242.385C98.4273 242.32 98.6519 242.287 98.8863 242.287C99.3192 242.287 99.6968 242.369 100.019 242.532V243.191C99.6447 242.95 99.2411 242.829 98.8081 242.829C98.6519 242.829 98.5087 242.849 98.3784 242.888C98.2515 242.927 98.1424 242.982 98.0513 243.054C97.9602 243.126 97.8885 243.212 97.8365 243.313C97.7876 243.411 97.7632 243.52 97.7632 243.64C97.7632 243.764 97.7827 243.873 97.8218 243.967C97.8609 244.058 97.9211 244.141 98.0025 244.216C98.0871 244.291 98.1945 244.363 98.3247 244.431C98.4582 244.499 98.6193 244.573 98.8081 244.651C99.049 244.748 99.2574 244.846 99.4331 244.944C99.6089 245.038 99.7538 245.142 99.8677 245.256C99.9816 245.367 100.066 245.492 100.122 245.632C100.177 245.769 100.205 245.928 100.205 246.111C100.205 246.335 100.157 246.536 100.063 246.711C99.9719 246.887 99.8433 247.035 99.6773 247.156C99.5145 247.276 99.3225 247.367 99.1011 247.429C98.8797 247.491 98.6389 247.522 98.3784 247.522C97.8739 247.522 97.4491 247.416 97.104 247.204V246.506ZM101.748 245.017C101.751 245.323 101.792 245.598 101.87 245.842C101.948 246.086 102.06 246.293 102.207 246.462C102.353 246.632 102.53 246.762 102.739 246.853C102.95 246.941 103.188 246.985 103.452 246.985C104.015 246.985 104.547 246.788 105.048 246.394V247.009C104.57 247.351 103.99 247.522 103.31 247.522C102.975 247.522 102.67 247.463 102.397 247.346C102.124 247.229 101.891 247.06 101.699 246.838C101.507 246.614 101.359 246.339 101.254 246.013C101.15 245.688 101.098 245.316 101.098 244.9C101.098 244.525 101.155 244.179 101.269 243.86C101.383 243.541 101.541 243.266 101.743 243.035C101.945 242.8 102.184 242.618 102.46 242.488C102.737 242.354 103.04 242.287 103.369 242.287C103.691 242.287 103.976 242.344 104.223 242.458C104.471 242.569 104.677 242.729 104.843 242.937C105.013 243.145 105.141 243.399 105.229 243.699C105.317 243.998 105.361 244.333 105.361 244.704V245.017H101.748ZM104.716 244.47C104.707 243.949 104.583 243.546 104.345 243.259C104.108 242.973 103.777 242.829 103.354 242.829C103.142 242.829 102.946 242.867 102.763 242.942C102.584 243.017 102.426 243.126 102.29 243.269C102.153 243.409 102.039 243.581 101.948 243.786C101.86 243.988 101.798 244.216 101.762 244.47H104.716ZM109.912 247.18C109.541 247.405 109.091 247.52 108.564 247.527C108.206 247.53 107.884 247.468 107.597 247.341C107.311 247.214 107.067 247.038 106.865 246.814C106.663 246.586 106.508 246.319 106.401 246.013C106.293 245.704 106.24 245.369 106.24 245.007C106.24 244.633 106.297 244.281 106.411 243.952C106.525 243.62 106.691 243.332 106.909 243.088C107.127 242.841 107.394 242.646 107.709 242.502C108.025 242.359 108.387 242.287 108.793 242.287C109.207 242.287 109.584 242.367 109.926 242.527V243.191C109.562 242.95 109.168 242.829 108.745 242.829C108.448 242.829 108.185 242.886 107.954 243C107.723 243.111 107.527 243.264 107.368 243.459C107.211 243.651 107.091 243.878 107.006 244.138C106.925 244.395 106.884 244.669 106.884 244.958C106.884 245.225 106.918 245.481 106.987 245.725C107.058 245.969 107.166 246.186 107.309 246.374C107.456 246.56 107.64 246.708 107.861 246.819C108.082 246.929 108.343 246.985 108.642 246.985C109.111 246.985 109.534 246.845 109.912 246.565V247.18ZM114.389 247.405V246.555H114.37C114.031 247.2 113.505 247.522 112.793 247.522C111.604 247.522 111.01 246.796 111.01 245.344V242.405H111.635V245.227C111.635 245.826 111.741 246.269 111.953 246.555C112.168 246.841 112.495 246.985 112.934 246.985C113.149 246.985 113.344 246.944 113.52 246.863C113.699 246.778 113.852 246.661 113.979 246.511C114.109 246.358 114.21 246.176 114.282 245.964C114.353 245.753 114.389 245.518 114.389 245.261V242.405H115.014V247.405H114.389ZM120 247.405V244.524C120 243.394 119.589 242.829 118.769 242.829C118.551 242.829 118.349 242.873 118.164 242.961C117.978 243.046 117.817 243.165 117.68 243.318C117.547 243.471 117.441 243.653 117.363 243.865C117.288 244.073 117.251 244.299 117.251 244.543V247.405H116.626V242.405H117.251V243.274H117.27C117.641 242.616 118.199 242.287 118.945 242.287C119.492 242.287 119.908 242.465 120.195 242.82C120.481 243.175 120.625 243.687 120.625 244.358V247.405H120ZM125.639 247.405V246.526H125.62C125.454 246.841 125.216 247.087 124.907 247.263C124.601 247.436 124.252 247.522 123.862 247.522C123.549 247.522 123.265 247.465 123.007 247.351C122.753 247.234 122.535 247.066 122.353 246.848C122.171 246.63 122.029 246.366 121.928 246.057C121.831 245.748 121.782 245.398 121.782 245.007C121.782 244.604 121.835 244.236 121.943 243.904C122.054 243.568 122.208 243.282 122.407 243.044C122.609 242.803 122.849 242.618 123.129 242.488C123.413 242.354 123.727 242.287 124.072 242.287C124.791 242.287 125.307 242.576 125.62 243.152H125.639V240.002H126.264V247.405H125.639ZM125.639 244.387C125.639 244.169 125.602 243.966 125.527 243.777C125.452 243.588 125.348 243.424 125.214 243.284C125.081 243.144 124.92 243.033 124.731 242.952C124.545 242.87 124.34 242.829 124.116 242.829C123.868 242.829 123.64 242.878 123.432 242.976C123.224 243.074 123.045 243.215 122.895 243.401C122.749 243.583 122.633 243.806 122.548 244.07C122.467 244.333 122.426 244.633 122.426 244.968C122.426 245.284 122.464 245.567 122.539 245.818C122.613 246.068 122.719 246.28 122.856 246.452C122.996 246.625 123.162 246.757 123.354 246.848C123.546 246.939 123.759 246.985 123.994 246.985C124.248 246.985 124.475 246.939 124.677 246.848C124.882 246.757 125.055 246.632 125.195 246.472C125.338 246.313 125.447 246.125 125.522 245.911C125.6 245.696 125.639 245.466 125.639 245.222V244.387ZM130.756 247.405V246.516H130.737C130.574 246.835 130.351 247.082 130.068 247.258C129.788 247.434 129.471 247.522 129.116 247.522C128.875 247.522 128.657 247.488 128.461 247.419C128.269 247.351 128.105 247.255 127.968 247.131C127.835 247.004 127.731 246.853 127.656 246.677C127.584 246.501 127.548 246.308 127.548 246.096C127.548 245.644 127.688 245.284 127.968 245.017C128.248 244.747 128.671 244.571 129.238 244.49L130.756 244.27C130.756 243.31 130.384 242.829 129.638 242.829C129.056 242.829 128.515 243.043 128.017 243.469V242.786C128.121 242.711 128.238 242.644 128.369 242.585C128.502 242.523 128.642 242.471 128.789 242.429C128.935 242.383 129.085 242.349 129.238 242.327C129.394 242.3 129.545 242.287 129.692 242.287C130.249 242.287 130.668 242.444 130.952 242.756C131.238 243.069 131.381 243.534 131.381 244.153V247.405H130.756ZM129.467 244.978C129.243 245.01 129.051 245.051 128.891 245.1C128.732 245.149 128.6 245.216 128.496 245.3C128.391 245.382 128.315 245.484 128.266 245.608C128.217 245.728 128.193 245.878 128.193 246.057C128.193 246.19 128.216 246.314 128.261 246.428C128.31 246.542 128.378 246.641 128.466 246.726C128.557 246.807 128.667 246.871 128.793 246.916C128.924 246.962 129.07 246.985 129.233 246.985C129.454 246.985 129.658 246.942 129.843 246.858C130.029 246.773 130.188 246.656 130.322 246.506C130.459 246.356 130.564 246.177 130.639 245.969C130.717 245.761 130.756 245.535 130.756 245.29V244.797L129.467 244.978ZM135.366 243.044C135.219 242.937 135.03 242.883 134.799 242.883C134.633 242.883 134.487 242.916 134.36 242.981C134.233 243.043 134.121 243.127 134.023 243.235C133.929 243.342 133.847 243.467 133.779 243.611C133.714 243.751 133.66 243.897 133.618 244.05C133.579 244.203 133.549 244.358 133.53 244.514C133.514 244.67 133.505 244.818 133.505 244.958V247.405H132.885V242.405H133.505V243.474H133.525C133.584 243.292 133.657 243.129 133.745 242.986C133.836 242.839 133.94 242.717 134.057 242.619C134.174 242.519 134.301 242.442 134.438 242.39C134.578 242.338 134.724 242.312 134.877 242.312C134.978 242.312 135.068 242.318 135.146 242.331C135.227 242.344 135.301 242.364 135.366 242.39V243.044ZM136.582 241.14C136.461 241.14 136.357 241.098 136.269 241.013C136.181 240.928 136.137 240.821 136.137 240.691C136.137 240.564 136.181 240.46 136.269 240.378C136.357 240.294 136.461 240.251 136.582 240.251C136.643 240.251 136.702 240.263 136.757 240.286C136.813 240.305 136.86 240.334 136.899 240.373C136.941 240.412 136.974 240.46 136.997 240.515C137.023 240.567 137.036 240.626 137.036 240.691C137.036 240.753 137.024 240.811 137.001 240.867C136.979 240.922 136.946 240.971 136.904 241.013C136.862 241.052 136.813 241.083 136.757 241.106C136.705 241.129 136.647 241.14 136.582 241.14ZM136.274 247.405V242.405H136.899V247.405H136.274ZM140.556 247.522C140.185 247.522 139.851 247.46 139.555 247.336C139.262 247.213 139.012 247.038 138.803 246.814C138.595 246.586 138.435 246.314 138.325 245.998C138.214 245.683 138.159 245.333 138.159 244.949C138.159 244.532 138.217 244.159 138.334 243.83C138.452 243.502 138.618 243.223 138.833 242.995C139.051 242.764 139.313 242.589 139.619 242.468C139.925 242.348 140.266 242.287 140.644 242.287C141.005 242.287 141.331 242.348 141.621 242.468C141.91 242.585 142.156 242.756 142.358 242.981C142.56 243.205 142.714 243.479 142.822 243.801C142.929 244.123 142.983 244.49 142.983 244.9C142.983 245.29 142.926 245.647 142.812 245.969C142.701 246.288 142.542 246.563 142.334 246.794C142.125 247.025 141.871 247.204 141.572 247.331C141.272 247.458 140.934 247.522 140.556 247.522ZM140.605 242.829C140.332 242.829 140.084 242.877 139.863 242.971C139.641 243.065 139.451 243.204 139.292 243.386C139.135 243.565 139.015 243.786 138.93 244.05C138.846 244.311 138.803 244.607 138.803 244.939C138.803 245.251 138.846 245.533 138.93 245.784C139.015 246.034 139.134 246.249 139.287 246.428C139.443 246.607 139.632 246.745 139.853 246.843C140.074 246.938 140.322 246.985 140.595 246.985C140.875 246.985 141.123 246.939 141.337 246.848C141.552 246.754 141.735 246.619 141.884 246.443C142.034 246.264 142.146 246.046 142.221 245.788C142.299 245.531 142.338 245.238 142.338 244.91C142.338 244.236 142.189 243.721 141.889 243.367C141.59 243.008 141.162 242.829 140.605 242.829Z" fill="#868686"/>
<path d="M515.204 216V208.598H515.829V216H515.204ZM519.486 216.117C519.115 216.117 518.781 216.055 518.485 215.932C518.192 215.808 517.941 215.634 517.733 215.409C517.525 215.181 517.365 214.91 517.254 214.594C517.144 214.278 517.088 213.928 517.088 213.544C517.088 213.127 517.147 212.755 517.264 212.426C517.381 212.097 517.547 211.819 517.762 211.591C517.98 211.36 518.242 211.184 518.548 211.063C518.854 210.943 519.196 210.883 519.574 210.883C519.935 210.883 520.261 210.943 520.55 211.063C520.84 211.181 521.086 211.352 521.288 211.576C521.489 211.801 521.644 212.074 521.751 212.396C521.859 212.719 521.913 213.085 521.913 213.495C521.913 213.886 521.856 214.242 521.742 214.564C521.631 214.883 521.472 215.159 521.263 215.39C521.055 215.621 520.801 215.8 520.501 215.927C520.202 216.054 519.863 216.117 519.486 216.117ZM519.535 211.425C519.261 211.425 519.014 211.472 518.792 211.566C518.571 211.661 518.381 211.799 518.221 211.981C518.065 212.16 517.944 212.382 517.86 212.646C517.775 212.906 517.733 213.202 517.733 213.534C517.733 213.847 517.775 214.128 517.86 214.379C517.944 214.63 518.063 214.844 518.216 215.023C518.373 215.202 518.561 215.341 518.783 215.438C519.004 215.533 519.251 215.58 519.525 215.58C519.805 215.58 520.052 215.535 520.267 215.443C520.482 215.349 520.664 215.214 520.814 215.038C520.964 214.859 521.076 214.641 521.151 214.384C521.229 214.127 521.268 213.834 521.268 213.505C521.268 212.831 521.118 212.317 520.819 211.962C520.519 211.604 520.091 211.425 519.535 211.425ZM527.303 215.614C527.303 216.542 527.092 217.229 526.668 217.675C526.249 218.124 525.599 218.349 524.72 218.349C524.173 218.349 523.656 218.227 523.167 217.982V217.348C523.711 217.65 524.229 217.802 524.72 217.802C526.026 217.802 526.678 217.112 526.678 215.731V215.131H526.659C526.275 215.788 525.689 216.117 524.901 216.117C524.592 216.117 524.308 216.06 524.051 215.946C523.797 215.832 523.579 215.668 523.397 215.453C523.215 215.238 523.073 214.978 522.972 214.672C522.871 214.363 522.821 214.014 522.821 213.627C522.821 213.217 522.875 212.844 522.982 212.509C523.089 212.17 523.242 211.881 523.441 211.64C523.639 211.399 523.879 211.213 524.159 211.083C524.442 210.95 524.759 210.883 525.111 210.883C525.817 210.883 526.333 211.169 526.659 211.742H526.678V211H527.303V215.614ZM526.678 212.963C526.678 212.755 526.641 212.558 526.566 212.372C526.491 212.187 526.387 212.024 526.253 211.884C526.12 211.744 525.96 211.633 525.775 211.552C525.593 211.467 525.391 211.425 525.169 211.425C524.909 211.425 524.673 211.475 524.461 211.576C524.253 211.677 524.074 211.82 523.924 212.006C523.778 212.191 523.664 212.418 523.583 212.685C523.504 212.948 523.465 213.246 523.465 213.578C523.465 213.884 523.503 214.161 523.578 214.408C523.653 214.656 523.758 214.866 523.895 215.038C524.032 215.211 524.196 215.344 524.388 215.438C524.583 215.533 524.8 215.58 525.038 215.58C525.285 215.58 525.51 215.536 525.711 215.448C525.913 215.357 526.086 215.233 526.229 215.077C526.372 214.918 526.483 214.732 526.561 214.521C526.639 214.306 526.678 214.075 526.678 213.827V212.963ZM530.96 216.117C530.589 216.117 530.256 216.055 529.959 215.932C529.667 215.808 529.416 215.634 529.208 215.409C528.999 215.181 528.84 214.91 528.729 214.594C528.618 214.278 528.563 213.928 528.563 213.544C528.563 213.127 528.622 212.755 528.739 212.426C528.856 212.097 529.022 211.819 529.237 211.591C529.455 211.36 529.717 211.184 530.023 211.063C530.329 210.943 530.671 210.883 531.048 210.883C531.41 210.883 531.735 210.943 532.025 211.063C532.315 211.181 532.56 211.352 532.762 211.576C532.964 211.801 533.119 212.074 533.226 212.396C533.333 212.719 533.387 213.085 533.387 213.495C533.387 213.886 533.33 214.242 533.216 214.564C533.106 214.883 532.946 215.159 532.738 215.39C532.529 215.621 532.276 215.8 531.976 215.927C531.677 216.054 531.338 216.117 530.96 216.117ZM531.009 211.425C530.736 211.425 530.488 211.472 530.267 211.566C530.046 211.661 529.855 211.799 529.696 211.981C529.54 212.16 529.419 212.382 529.334 212.646C529.25 212.906 529.208 213.202 529.208 213.534C529.208 213.847 529.25 214.128 529.334 214.379C529.419 214.63 529.538 214.844 529.691 215.023C529.847 215.202 530.036 215.341 530.257 215.438C530.479 215.533 530.726 215.58 531 215.58C531.279 215.58 531.527 215.535 531.742 215.443C531.957 215.349 532.139 215.214 532.289 215.038C532.438 214.859 532.551 214.641 532.625 214.384C532.704 214.127 532.743 213.834 532.743 213.505C532.743 212.831 532.593 212.317 532.293 211.962C531.994 211.604 531.566 211.425 531.009 211.425ZM536.795 215.941C536.581 216.049 536.346 216.103 536.092 216.103C535.285 216.103 534.881 215.637 534.881 214.706V211.547H534.002V211H534.881V209.74L535.506 209.535V211H536.795V211.547H535.506V214.608C535.506 214.947 535.562 215.191 535.672 215.341C535.783 215.491 535.97 215.565 536.234 215.565C536.429 215.565 536.616 215.507 536.795 215.39V215.941ZM538.138 209.735C538.018 209.735 537.914 209.693 537.826 209.608C537.738 209.524 537.694 209.416 537.694 209.286C537.694 209.159 537.738 209.055 537.826 208.974C537.914 208.889 538.018 208.847 538.138 208.847C538.2 208.847 538.259 208.858 538.314 208.881C538.369 208.9 538.417 208.93 538.456 208.969C538.498 209.008 538.53 209.055 538.553 209.11C538.579 209.162 538.592 209.221 538.592 209.286C538.592 209.348 538.581 209.407 538.558 209.462C538.535 209.517 538.503 209.566 538.46 209.608C538.418 209.647 538.369 209.678 538.314 209.701C538.262 209.724 538.203 209.735 538.138 209.735ZM537.831 216V211H538.456V216H537.831ZM540.692 215.194V218.3H540.067V211H540.692V211.957H540.711C540.897 211.609 541.144 211.343 541.454 211.161C541.766 210.976 542.118 210.883 542.508 210.883C542.827 210.883 543.112 210.941 543.363 211.059C543.617 211.173 543.83 211.335 544.002 211.547C544.178 211.758 544.312 212.016 544.403 212.318C544.497 212.621 544.544 212.961 544.544 213.339C544.544 213.752 544.492 214.13 544.388 214.472C544.284 214.81 544.134 215.102 543.939 215.346C543.744 215.59 543.506 215.78 543.226 215.917C542.949 216.05 542.637 216.117 542.289 216.117C541.585 216.117 541.06 215.81 540.711 215.194H540.692ZM540.692 213.92C540.692 214.148 540.729 214.363 540.804 214.564C540.882 214.763 540.99 214.939 541.126 215.092C541.263 215.242 541.428 215.36 541.62 215.448C541.815 215.536 542.03 215.58 542.264 215.58C542.515 215.58 542.741 215.528 542.943 215.424C543.145 215.316 543.316 215.165 543.456 214.97C543.599 214.774 543.708 214.538 543.783 214.262C543.861 213.985 543.9 213.676 543.9 213.334C543.9 213.041 543.864 212.777 543.792 212.543C543.721 212.305 543.618 212.104 543.485 211.938C543.355 211.771 543.195 211.645 543.006 211.557C542.821 211.469 542.612 211.425 542.381 211.425C542.121 211.425 541.887 211.474 541.678 211.571C541.47 211.666 541.292 211.796 541.146 211.962C541 212.128 540.887 212.323 540.809 212.548C540.731 212.769 540.692 213.005 540.692 213.256V213.92ZM547.855 216.117C547.484 216.117 547.15 216.055 546.854 215.932C546.561 215.808 546.31 215.634 546.102 215.409C545.894 215.181 545.734 214.91 545.624 214.594C545.513 214.278 545.458 213.928 545.458 213.544C545.458 213.127 545.516 212.755 545.633 212.426C545.75 212.097 545.917 211.819 546.131 211.591C546.349 211.36 546.611 211.184 546.917 211.063C547.223 210.943 547.565 210.883 547.943 210.883C548.304 210.883 548.63 210.943 548.919 211.063C549.209 211.181 549.455 211.352 549.657 211.576C549.859 211.801 550.013 212.074 550.121 212.396C550.228 212.719 550.282 213.085 550.282 213.495C550.282 213.886 550.225 214.242 550.111 214.564C550 214.883 549.841 215.159 549.632 215.39C549.424 215.621 549.17 215.8 548.871 215.927C548.571 216.054 548.233 216.117 547.855 216.117ZM547.904 211.425C547.63 211.425 547.383 211.472 547.162 211.566C546.94 211.661 546.75 211.799 546.59 211.981C546.434 212.16 546.314 212.382 546.229 212.646C546.144 212.906 546.102 213.202 546.102 213.534C546.102 213.847 546.144 214.128 546.229 214.379C546.314 214.63 546.432 214.844 546.585 215.023C546.742 215.202 546.931 215.341 547.152 215.438C547.373 215.533 547.621 215.58 547.894 215.58C548.174 215.58 548.421 215.535 548.636 215.443C548.851 215.349 549.033 215.214 549.183 215.038C549.333 214.859 549.445 214.641 549.52 214.384C549.598 214.127 549.637 213.834 549.637 213.505C549.637 212.831 549.487 212.317 549.188 211.962C548.889 211.604 548.46 211.425 547.904 211.425Z" fill="#868686"/>
<circle cx="436.141" cy="34.522" r="10.522" fill="#2C58D1"/>
<circle cx="436.141" cy="115.801" r="10.522" fill="#AED6F4"/>
<circle cx="119.694" cy="210.085" r="10.522" fill="#548EEA"/>
</svg>
