<svg width="650" height="280" viewBox="0 0 650 280" fill="none" xmlns="http://www.w3.org/2000/svg">
<rect width="650" height="280" fill="white"/>
<path d="M274.363 148.581C273.685 143.208 274.428 137.75 276.518 132.75C276.897 131.804 277.327 130.879 277.805 129.979L284.327 117.782L288.122 110.282L288.161 110.205C292.814 100.542 299.352 91.8954 307.394 84.7688C315.437 77.6422 324.823 72.1776 335.008 68.6929L333.097 62.3321C332.951 61.8391 332.702 61.3819 332.368 60.9896C332.034 60.5973 331.622 60.2784 331.157 60.0533C330.692 59.8282 330.186 59.7017 329.669 59.682C329.153 59.6623 328.638 59.7497 328.157 59.9387C306.448 68.3974 288.747 84.6939 278.589 105.572L268.844 124.77C267.57 127.283 266.938 130.069 267.003 132.882C267.068 135.696 267.829 138.45 269.217 140.902L274.363 148.581ZM274.363 148.581L344.515 116.745C345.147 116.486 345.654 115.993 345.928 115.369C346.201 114.746 346.221 114.041 345.982 113.403C345.744 112.766 345.265 112.245 344.648 111.952C344.031 111.658 343.324 111.615 342.675 111.83L276.473 132.743C274.397 137.75 273.67 143.209 274.363 148.581ZM370.669 103.063L179.595 191.93M293.075 139.206L228.25 250.887M293.075 139.206L358.338 252M293.075 139.206L416.821 139.354M255.388 163.537L283.047 106.583M259.833 144.902C259.833 144.902 254.79 153.79 252.635 157.848C247.78 166.67 242.113 175.025 235.705 182.805C231.202 188.263 217.051 202.642 212.915 205.452C210.708 206.961 209.022 209.11 208.086 211.606C207.151 214.102 207.011 216.824 207.685 219.402C216.375 217.194 234.869 200.492 243.919 189.492C251.13 180.719 258.07 171.824 262.206 164.279L262.271 164.164C263.697 161.554 264.376 158.605 264.236 155.638C264.095 152.67 263.14 149.798 261.473 147.334L259.833 144.902ZM302.904 199.18L327.064 66.0053C327.157 65.5037 327.14 64.9881 327.014 64.4938C326.888 63.9995 326.656 63.5381 326.334 63.1412C326.012 62.7443 325.608 62.4214 325.148 62.1945C324.689 61.9676 324.186 61.8421 323.674 61.8265L329.347 59.7596C330.203 59.6271 331.079 59.7009 331.9 59.9747C332.722 60.2485 333.465 60.7142 334.068 61.333C334.671 61.9517 335.116 62.7053 335.366 63.5305C335.616 64.3558 335.663 65.2286 335.503 66.0757L312.752 188.628C312.276 191.131 311.099 193.449 309.356 195.316C307.614 197.183 305.378 198.522 302.904 199.18ZM302.267 35.9479C311.183 35.9403 320.012 37.6817 328.251 41.0725C336.489 44.4633 343.974 49.4368 350.279 55.7086C356.583 61.9804 361.582 69.4273 364.99 77.6233C368.399 85.8192 370.149 94.6033 370.142 103.473V139.59C372.259 139.572 374.283 138.723 375.775 137.227C377.266 135.731 378.103 133.711 378.105 131.604V103.447C378.103 83.438 370.113 64.2487 355.891 50.0999C341.669 35.9511 322.38 28.0017 302.267 28H283.066C262.953 28 243.663 35.9489 229.441 50.098C215.219 64.2472 207.229 83.4375 207.229 103.447C207.229 103.447 207.229 176.86 207.306 178.031C209.579 177.35 211.571 175.961 212.99 174.068C214.409 172.175 215.179 169.878 215.185 167.517V103.473C215.179 94.603 216.93 85.8188 220.339 77.6228C223.748 69.4268 228.748 61.98 235.053 55.7082C241.357 49.4365 248.843 44.4631 257.082 41.0724C265.321 37.6817 274.151 35.9403 283.066 35.9479H302.267ZM237.056 235.701C250.26 245.745 266.426 251.175 283.047 251.149H302.248C318.961 251.174 335.211 245.682 348.452 235.535C347.973 234.707 347.334 233.982 346.57 233.404C345.806 232.825 344.934 232.405 344.005 232.166C343.075 231.928 342.107 231.876 341.158 232.015C340.208 232.154 339.296 232.481 338.475 232.975C335.329 234.859 332.051 236.514 328.666 237.928C320.311 241.433 311.334 243.228 302.267 243.207H283.066C270.449 243.239 258.076 239.754 247.347 233.148C246.507 232.627 245.57 232.28 244.593 232.126C243.615 231.973 242.616 232.017 241.656 232.256C240.696 232.495 239.793 232.924 239.003 233.517C238.213 234.11 237.55 234.855 237.056 235.707V235.701ZM362.564 171.824H352.768L350.896 176.303H345.891L355.296 155.307H360.12L369.563 176.322H364.417L362.564 171.824ZM361.027 168.131L357.682 160.094L354.331 168.131H361.027ZM378.195 160.548C379.243 160.128 380.365 159.923 381.495 159.947V164.266C380.974 164.228 380.62 164.208 380.44 164.208C379.864 164.174 379.287 164.256 378.743 164.448C378.199 164.64 377.7 164.94 377.275 165.328C376.865 165.786 376.552 166.321 376.356 166.901C376.159 167.482 376.082 168.096 376.13 168.707V176.322H371.428V160.19H375.931V162.314C376.501 161.523 377.287 160.911 378.195 160.548ZM409.907 161.732C411.103 162.922 411.701 164.705 411.701 167.082V176.322H406.999V167.805C407.076 166.785 406.791 165.771 406.195 164.938C405.914 164.619 405.563 164.369 405.169 164.206C404.776 164.043 404.35 163.972 403.924 163.997C403.436 163.973 402.947 164.055 402.494 164.239C402.04 164.422 401.633 164.703 401.3 165.06C400.594 165.96 400.25 167.089 400.335 168.227V176.322H395.633V167.805C395.633 165.245 394.604 163.997 392.558 163.997C392.078 163.978 391.599 164.063 391.154 164.246C390.71 164.43 390.311 164.707 389.985 165.06C389.279 165.96 388.935 167.089 389.021 168.227V176.322H384.318V160.19H388.821V162.045C389.43 161.364 390.186 160.83 391.034 160.484C391.95 160.118 392.929 159.935 393.916 159.947C394.989 159.931 396.052 160.161 397.022 160.618C397.931 161.061 398.702 161.74 399.255 162.583C399.925 161.751 400.788 161.092 401.77 160.663C402.817 160.196 403.954 159.96 405.102 159.972C405.98 159.929 406.859 160.063 407.684 160.365C408.51 160.667 409.266 161.132 409.907 161.732ZM428.252 161.732C429.594 162.922 430.267 164.716 430.271 167.114V176.322H425.865V174.313C424.986 175.81 423.339 176.559 420.925 176.559C419.819 176.58 418.722 176.362 417.709 175.919C416.857 175.551 416.129 174.947 415.612 174.179C415.128 173.429 414.877 172.554 414.892 171.664C414.865 170.979 415.006 170.299 415.303 169.681C415.6 169.063 416.044 168.527 416.596 168.118C417.728 167.261 419.484 166.839 421.851 166.839H425.589C425.616 166.402 425.547 165.965 425.386 165.558C425.225 165.151 424.976 164.784 424.656 164.484C423.854 163.876 422.856 163.582 421.851 163.658C420.978 163.656 420.109 163.792 419.279 164.061C418.511 164.301 417.793 164.674 417.156 165.162L415.464 161.892C416.444 161.23 417.532 160.743 418.68 160.452C419.923 160.111 421.206 159.939 422.495 159.94C424.982 159.944 426.901 160.542 428.252 161.732ZM424.238 172.86C424.863 172.49 425.333 171.909 425.563 171.222V169.571H422.347C420.417 169.571 419.452 170.211 419.452 171.491C419.444 171.767 419.504 172.041 419.627 172.289C419.751 172.537 419.934 172.751 420.16 172.911C420.731 173.286 421.407 173.47 422.089 173.436C422.845 173.443 423.588 173.244 424.238 172.86ZM449.247 161.745C450.482 162.948 451.1 164.727 451.1 167.082V176.322H446.397V167.805C446.476 166.779 446.176 165.76 445.555 164.938C445.24 164.614 444.859 164.362 444.437 164.2C444.015 164.037 443.562 163.968 443.11 163.997C442.587 163.973 442.064 164.057 441.576 164.246C441.087 164.434 440.644 164.722 440.274 165.092C439.509 165.997 439.131 167.163 439.219 168.342V176.322H434.53V160.19H439.032V162.109C439.674 161.417 440.466 160.878 441.348 160.535C442.319 160.156 443.354 159.967 444.397 159.979C445.283 159.938 446.168 160.074 447 160.377C447.833 160.68 448.597 161.145 449.247 161.745ZM472.05 154.072V176.322H467.547V174.46C466.376 175.862 464.691 176.559 462.478 176.559C461.033 176.579 459.606 176.228 458.336 175.542C457.106 174.868 456.097 173.858 455.429 172.63C454.735 171.274 454.373 169.774 454.373 168.253C454.373 166.731 454.735 165.232 455.429 163.876C456.099 162.649 457.108 161.639 458.336 160.964C459.606 160.277 461.033 159.927 462.478 159.947C463.382 159.898 464.286 160.047 465.125 160.385C465.964 160.722 466.719 161.239 467.335 161.898V154.072H472.05ZM466.261 171.51C467.019 170.593 467.434 169.443 467.434 168.256C467.434 167.069 467.019 165.918 466.261 165.002C465.471 164.222 464.404 163.785 463.292 163.785C462.18 163.785 461.113 164.222 460.324 165.002C459.565 165.918 459.15 167.069 459.15 168.256C459.15 169.443 459.565 170.593 460.324 171.51C461.113 172.29 462.18 172.727 463.292 172.727C464.404 172.727 465.471 172.29 466.261 171.51ZM479.511 175.497C478.183 174.829 477.069 173.805 476.295 172.54C475.545 171.235 475.15 169.757 475.15 168.253C475.15 166.749 475.545 165.271 476.295 163.965C477.069 162.701 478.183 161.676 479.511 161.009C480.939 160.31 482.509 159.946 484.101 159.946C485.692 159.946 487.262 160.31 488.69 161.009C489.999 161.686 491.094 162.709 491.855 163.965C492.605 165.271 493 166.749 493 168.253C493 169.757 492.605 171.235 491.855 172.54C491.094 173.797 489.999 174.82 488.69 175.497C487.262 176.196 485.692 176.559 484.101 176.559C482.509 176.559 480.939 176.196 479.511 175.497ZM487.076 171.51C487.834 170.593 488.249 169.443 488.249 168.256C488.249 167.069 487.834 165.918 487.076 165.002C486.696 164.602 486.236 164.286 485.725 164.077C485.213 163.867 484.663 163.768 484.11 163.786C483.555 163.768 483.002 163.867 482.488 164.077C481.973 164.286 481.509 164.601 481.126 165.002C480.367 165.918 479.953 167.069 479.953 168.256C479.953 169.443 480.367 170.593 481.126 171.51C481.51 171.909 481.974 172.224 482.488 172.433C483.003 172.643 483.555 172.742 484.11 172.726C484.661 172.746 485.21 172.65 485.721 172.445C486.231 172.24 486.693 171.93 487.076 171.536V171.51ZM362.693 201.727H350.568C350.764 202.677 351.319 203.515 352.118 204.069C353.017 204.666 354.081 204.966 355.161 204.927C355.917 204.941 356.669 204.815 357.38 204.556C358.052 204.287 358.664 203.889 359.181 203.385L361.651 206.053C360.146 207.76 357.941 208.613 355.038 208.613C353.377 208.646 351.732 208.284 350.24 207.557C348.908 206.911 347.792 205.899 347.024 204.639C346.26 203.358 345.868 201.892 345.891 200.403C345.87 198.92 346.258 197.459 347.011 196.179C347.743 194.938 348.804 193.922 350.079 193.242C351.412 192.56 352.888 192.2 354.386 192.193C355.885 192.185 357.365 192.529 358.705 193.197C359.96 193.856 360.999 194.86 361.696 196.09C362.442 197.425 362.817 198.933 362.783 200.46C362.783 200.537 362.757 200.972 362.693 201.727ZM351.822 196.608C351.106 197.233 350.648 198.099 350.536 199.04H358.428C358.315 198.105 357.856 197.245 357.142 196.627C356.409 196.013 355.475 195.69 354.517 195.718C353.542 195.675 352.583 195.986 351.822 196.595V196.608ZM365.883 186.401H370.534V208.395H365.883V186.401ZM403.654 187.649L394.649 208.395H389.876L380.871 187.649H386.081L392.43 202.463L398.862 187.649H403.654ZM405.584 189.486C405.33 189.25 405.128 188.965 404.989 188.649C404.851 188.332 404.78 187.991 404.78 187.646C404.78 187.301 404.851 186.959 404.989 186.643C405.128 186.326 405.33 186.041 405.584 185.806C406.156 185.3 406.904 185.036 407.668 185.07C408.428 185.037 409.172 185.291 409.752 185.78C410.012 185.998 410.22 186.271 410.36 186.578C410.5 186.886 410.569 187.221 410.563 187.559C410.574 187.919 410.508 188.276 410.368 188.607C410.228 188.939 410.018 189.236 409.752 189.479C409.472 189.735 409.143 189.934 408.786 190.063C408.428 190.193 408.048 190.251 407.668 190.234C406.902 190.265 406.154 189.996 405.584 189.486ZM405.346 192.448H409.997V208.395H405.346V192.448ZM426.509 193.971C427.838 195.149 428.505 196.924 428.509 199.296V208.395H424.161V206.405C423.303 207.89 421.674 208.632 419.272 208.632C418.166 208.652 417.069 208.434 416.056 207.992C415.214 207.628 414.495 207.031 413.985 206.271C413.506 205.529 413.257 204.663 413.271 203.782C413.244 203.106 413.383 202.433 413.677 201.823C413.971 201.213 414.41 200.684 414.956 200.281C416.075 199.436 417.812 199.001 420.153 199.001H423.846C423.872 198.571 423.804 198.14 423.645 197.738C423.486 197.337 423.24 196.975 422.926 196.678C422.133 196.078 421.147 195.786 420.153 195.859C419.299 195.859 418.45 195.995 417.638 196.262C416.877 196.492 416.164 196.858 415.535 197.344L413.869 194.112C414.823 193.459 415.886 192.978 417.008 192.692C418.235 192.353 419.504 192.183 420.777 192.186C423.273 192.212 425.184 192.8 426.509 193.971ZM422.546 204.972C423.155 204.602 423.612 204.028 423.833 203.353V201.727H420.616C418.708 201.727 417.754 202.348 417.754 203.59C417.744 203.864 417.802 204.136 417.925 204.382C418.047 204.628 418.23 204.84 418.455 204.997C419.023 205.379 419.701 205.564 420.385 205.522C421.143 205.544 421.892 205.354 422.546 204.972ZM427.795 213.489L429.043 210.142C429.623 210.533 430.312 210.73 431.011 210.706C431.273 210.719 431.535 210.674 431.777 210.574C432.02 210.474 432.237 210.323 432.413 210.13C432.784 209.63 432.962 209.015 432.915 208.395V192.448H437.566V208.363C437.609 209.166 437.49 209.969 437.216 210.725C436.942 211.481 436.518 212.175 435.971 212.766C435.379 213.323 434.679 213.754 433.913 214.032C433.147 214.309 432.333 214.427 431.519 214.379C430.216 214.465 428.917 214.155 427.795 213.489ZM433.153 189.486C432.899 189.25 432.697 188.965 432.559 188.649C432.42 188.332 432.349 187.991 432.349 187.646C432.349 187.301 432.42 186.959 432.559 186.643C432.697 186.326 432.899 186.041 433.153 185.806C433.728 185.301 434.477 185.037 435.244 185.07C436.003 185.039 436.747 185.292 437.328 185.78C437.586 185.999 437.792 186.272 437.931 186.58C438.07 186.888 438.139 187.222 438.132 187.559C438.144 187.918 438.078 188.275 437.939 188.606C437.801 188.937 437.592 189.235 437.328 189.479C436.76 189.994 436.011 190.265 435.244 190.234C434.476 190.264 433.726 189.995 433.153 189.486ZM457.468 201.727H445.343C445.537 202.678 446.092 203.517 446.893 204.069C447.789 204.665 448.851 204.965 449.929 204.927C450.685 204.942 451.438 204.816 452.148 204.556C452.821 204.289 453.433 203.89 453.949 203.385L456.426 206.053C454.916 207.76 452.712 208.613 449.813 208.613C448.152 208.647 446.507 208.285 445.015 207.557C443.683 206.911 442.567 205.899 441.798 204.639C441.034 203.358 440.642 201.892 440.666 200.403C440.645 198.92 441.032 197.459 441.785 196.179C442.516 194.961 443.566 193.964 444.822 193.293C446.166 192.584 447.668 192.223 449.189 192.244C450.67 192.221 452.134 192.567 453.447 193.248C454.705 193.907 455.745 194.911 456.445 196.141C457.188 197.477 457.563 198.985 457.532 200.511C457.558 200.537 457.525 200.972 457.468 201.727ZM446.59 196.608C445.875 197.233 445.417 198.099 445.304 199.04H453.184C453.055 198.101 452.583 197.243 451.858 196.63C451.132 196.017 450.205 195.692 449.253 195.718C448.289 195.684 447.344 195.995 446.59 196.595V196.608ZM374.947 224.202C375.237 224.589 375.387 225.063 375.371 225.545C375.386 225.887 375.313 226.227 375.157 226.532C375.002 226.837 374.77 227.097 374.483 227.286C373.71 227.751 372.813 227.974 371.91 227.926H367.408V219.281H371.64C372.494 219.227 373.343 219.437 374.072 219.882C374.339 220.063 374.556 220.308 374.703 220.594C374.85 220.88 374.923 221.199 374.914 221.52C374.928 221.917 374.827 222.308 374.623 222.649C374.419 222.99 374.12 223.264 373.763 223.44C374.229 223.562 374.644 223.829 374.947 224.202ZM369.415 220.784V222.813H371.409C371.801 222.839 372.192 222.75 372.534 222.557C372.66 222.474 372.762 222.359 372.83 222.224C372.898 222.089 372.929 221.939 372.92 221.789C372.929 221.641 372.897 221.492 372.829 221.36C372.762 221.227 372.66 221.115 372.534 221.034C372.19 220.846 371.8 220.76 371.409 220.784H369.415ZM372.953 226.141C373.084 226.053 373.19 225.932 373.26 225.79C373.33 225.649 373.361 225.492 373.351 225.334C373.351 224.624 372.817 224.266 371.756 224.266H369.415V226.397H371.756C372.171 226.424 372.585 226.335 372.953 226.141ZM383.367 221.277L380.356 228.316C380.144 228.952 379.751 229.512 379.224 229.929C378.744 230.251 378.175 230.414 377.597 230.396C377.247 230.397 376.9 230.343 376.568 230.236C376.262 230.149 375.98 229.999 375.738 229.795L376.445 228.425C376.744 228.693 377.13 228.843 377.532 228.847C377.763 228.858 377.989 228.791 378.176 228.655C378.375 228.481 378.53 228.262 378.626 228.016V227.952L375.738 221.284H377.732L379.604 225.763L381.482 221.284L383.367 221.277ZM389.799 220.88V223.158H393.806V224.758H389.799V227.9H387.792V219.281H394.34V220.88H389.799ZM398.219 221.45C398.65 221.276 399.111 221.191 399.576 221.2V222.973H399.145C398.91 222.962 398.676 222.997 398.455 223.078C398.234 223.158 398.031 223.281 397.859 223.44C397.692 223.628 397.564 223.847 397.484 224.084C397.403 224.321 397.371 224.572 397.389 224.822V227.952H395.459V221.277H397.306V222.147C397.539 221.835 397.855 221.594 398.219 221.45ZM405.751 221.911C406.043 222.196 406.268 222.542 406.411 222.923C406.555 223.305 406.613 223.712 406.581 224.118V227.9H404.773V227.075C404.552 227.399 404.245 227.656 403.887 227.818C403.528 227.981 403.132 228.042 402.741 227.996C402.286 228.008 401.833 227.921 401.416 227.74C401.063 227.592 400.763 227.342 400.554 227.024C400.353 226.715 400.25 226.354 400.258 225.987C400.248 225.707 400.306 225.429 400.427 225.176C400.547 224.923 400.728 224.703 400.953 224.534C401.599 224.136 402.356 223.952 403.114 224.01H404.651C404.663 223.83 404.635 223.65 404.568 223.483C404.501 223.316 404.398 223.166 404.265 223.043C403.937 222.792 403.527 222.671 403.114 222.704C402.76 222.702 402.408 222.758 402.072 222.871C401.755 222.966 401.459 223.118 401.197 223.318L400.502 221.975C400.896 221.71 401.331 221.511 401.789 221.386C402.3 221.244 402.828 221.173 403.358 221.175C404.221 221.112 405.075 221.375 405.751 221.911ZM404.104 226.473C404.357 226.331 404.55 226.104 404.651 225.833V225.155H403.326C402.535 225.155 402.136 225.411 402.136 225.929C402.132 226.043 402.157 226.155 402.207 226.257C402.258 226.359 402.333 226.446 402.426 226.512C402.66 226.67 402.941 226.746 403.223 226.729C403.535 226.728 403.841 226.639 404.104 226.473ZM416.789 219.281L413.039 227.9H411.058L407.321 219.281H409.488L412.126 225.437L414.795 219.281H416.789ZM423.363 225.129H418.327C418.406 225.525 418.636 225.874 418.97 226.102C419.349 226.356 419.8 226.481 420.256 226.461C420.57 226.467 420.882 226.414 421.176 226.307C421.457 226.196 421.712 226.03 421.929 225.821L422.951 226.928C422.601 227.296 422.173 227.583 421.698 227.768C421.223 227.952 420.713 228.03 420.205 227.996C419.515 228.009 418.832 227.86 418.211 227.561C417.659 227.291 417.197 226.869 416.879 226.345C416.561 225.814 416.398 225.204 416.41 224.586C416.401 223.97 416.561 223.364 416.873 222.832C417.179 222.315 417.624 221.894 418.159 221.616C418.713 221.332 419.327 221.184 419.951 221.184C420.574 221.184 421.188 221.332 421.742 221.616C422.263 221.888 422.694 222.304 422.984 222.813C423.293 223.368 423.449 223.995 423.434 224.63C423.434 224.63 423.382 224.81 423.363 225.129ZM418.86 222.999C418.558 223.255 418.364 223.616 418.32 224.01H421.601C421.548 223.619 421.354 223.262 421.054 223.005C420.75 222.752 420.363 222.618 419.967 222.627C419.558 222.61 419.158 222.742 418.841 222.999H418.86ZM425.968 227.561C425.433 227.284 424.987 226.863 424.682 226.345C424.374 225.809 424.212 225.203 424.212 224.586C424.212 223.968 424.374 223.362 424.682 222.826C424.987 222.31 425.433 221.89 425.968 221.616C426.552 221.326 427.197 221.174 427.85 221.174C428.503 221.174 429.147 221.326 429.731 221.616C430.265 221.892 430.711 222.311 431.018 222.826C431.329 223.36 431.494 223.967 431.494 224.586C431.494 225.204 431.329 225.811 431.018 226.345C430.71 226.861 430.265 227.282 429.731 227.561C429.146 227.848 428.502 227.996 427.85 227.996C427.197 227.996 426.554 227.848 425.968 227.561ZM429.069 225.923C429.38 225.546 429.55 225.073 429.55 224.586C429.55 224.098 429.38 223.625 429.069 223.248C428.913 223.084 428.725 222.954 428.515 222.868C428.305 222.782 428.08 222.741 427.853 222.749C427.625 222.742 427.399 222.783 427.188 222.869C426.978 222.955 426.788 223.084 426.631 223.248C426.319 223.625 426.149 224.098 426.149 224.586C426.149 225.073 426.319 225.546 426.631 225.923C426.788 226.087 426.978 226.216 427.188 226.302C427.399 226.388 427.625 226.429 427.853 226.422C428.079 226.431 428.304 226.391 428.514 226.306C428.724 226.221 428.913 226.093 429.069 225.929V225.923ZM262.142 129.46C262.142 178.674 222.04 218.57 172.571 218.57C123.102 218.57 83 178.674 83 129.46C83 80.2464 123.102 40.3506 172.571 40.3506C222.04 40.3506 262.142 80.2464 262.142 129.46ZM452.54 147.378C452.54 196.592 412.438 236.488 362.969 236.488C313.501 236.488 273.399 196.592 273.399 147.378C273.399 98.1644 313.501 58.2685 362.969 58.2685C412.438 58.2685 452.54 98.1644 452.54 147.378Z" stroke="#F39200" stroke-miterlimit="10"/>
<path d="M207.116 28.0193V252M260.43 28.0193V252M271.09 28.0193V252M335.064 28.0193V252M345.724 28.0193V252M302.57 28.0193V252M313.23 28.0193V252M323.89 28.0193V252M377.712 28.0193V252M495 28.0193V252M494.974 28H207M494.974 60H207M494.974 70.6645H207M494.974 113.335H207M494.974 134.665H207M494.974 145.335H207M494.974 156H207M494.974 177.335H207M494.974 188H207M494.974 198.921H207M494.974 209.335H207M494.974 230.665H207M494.974 252H207" stroke="#666666" stroke-width="0.5" stroke-miterlimit="10"/>
</svg>
